<?xml version="1.0" encoding="utf-8"?>
<!-- Generator: Adobe Illustrator 23.0.3, SVG Export Plug-In . SVG Version: 6.00 Build 0)  -->
<svg version="1.1" id="Layer_1" xmlns="http://www.w3.org/2000/svg" xmlns:xlink="http://www.w3.org/1999/xlink" x="0px" y="0px"
	 viewBox="0 0 32 32" enable-background="new 0 0 32 32" xml:space="preserve">
<g>
	<path d="M11.3,31c-4.53-0.03-8.28-9.28-8.28-13.99c0-7.7,5.77-9.38,8-9.38c1,0,2.07,0.39,3.02,0.74c0.66,0.24,1.34,0.49,1.72,0.49
		c0.23,0,0.76-0.21,1.24-0.4c1.01-0.4,2.26-0.9,3.73-0.9c0,0,0.01,0,0.01,0c1.09,0,4.4,0.24,6.39,3.23l0.47,0.7L26.92,12
		c-0.96,0.72-2.71,2.04-2.71,4.66c0,3.09,1.98,4.28,2.93,4.86c0.42,0.25,0.85,0.51,0.85,1.08c0,0.37-2.97,8.36-7.28,8.36
		c-1.06,0-1.8-0.32-2.46-0.6c-0.67-0.28-1.24-0.53-2.19-0.53c-0.48,0-1.09,0.23-1.73,0.47c-0.88,0.33-1.88,0.7-3.01,0.7H11.3z"/>
	<path d="M21.18,0.55c0.11,4.05-2.78,6.86-5.68,6.68C15.03,4,18.4,0.55,21.18,0.55z"/>
</g>
</svg>
