<svg height="480pt" viewBox="-16 0 480 480" width="480pt" xmlns="http://www.w3.org/2000/svg"><path d="m440 224h-72v-184c-.027344-22.082031-17.917969-39.9726562-40-40h-264c-17.671875 0-32 14.328125-32 32v96h-24c-4.417969 0-8 3.582031-8 8v48c0 4.417969 3.582031 8 8 8h24v88c0 4.417969 3.582031 8 8 8h40v160c0 17.671875 14.328125 32 32 32h264c17.671875 0 32-14.328125 32-32s-14.328125-32-32-32h-8v-128h72c4.417969 0 8-3.582031 8-8v-48c0-4.417969-3.582031-8-8-8zm-392-192c0-8.835938 7.164062-16 16-16s16 7.164062 16 16v96h-32zm-32 112h224c4.023438 0 7.421875-2.984375 7.9375-6.976562l27.566406 22.976562-27.566406 22.976562c-.515625-3.992187-3.914062-6.976562-7.9375-6.976562h-224zm32 128v-80h32v80zm344 176c0 8.835938-7.164062 16-16 16h-236.296875c2.824219-4.859375 4.304687-10.378906 4.296875-16v-16h232c8.835938 0 16 7.164062 16 16zm-40-32h-216c-4.417969 0-8 3.582031-8 8v24c0 8.835938-7.164062 16-16 16s-16-7.164062-16-16v-256h136v8c0 3.105469 1.796875 5.933594 4.609375 7.25s6.132813.886719 8.519531-1.105469l48-40c1.820313-1.519531 2.875-3.769531 2.875-6.144531s-1.054687-4.625-2.875-6.144531l-48-40c-2.386718-1.992188-5.707031-2.421875-8.519531-1.105469s-4.609375 4.144531-4.609375 7.25v8h-136v-96c-.027344-5.632812-1.558594-11.15625-4.433594-16h236.433594c13.253906 0 24 10.746094 24 24v184h-136v-8c0-3.105469-1.796875-5.933594-4.609375-7.25s-6.132813-.886719-8.519531 1.105469l-48 40c-1.820313 1.519531-2.875 3.769531-2.875 6.144531s1.054687 4.625 2.875 6.144531l48 40c2.386718 1.992188 5.707031 2.421875 8.519531 1.105469s4.609375-4.144531 4.609375-7.25v-8h136zm80-144h-224c-1.03125.003906-2.050781.210938-3 .609375-.292969.152344-.574219.324219-.847656.511719-.574219.296875-1.113282.660156-1.601563 1.085937-.257812.289063-.496093.59375-.710937.914063-.390625.449218-.722656.941406-1 1.472656-.15625.375-.277344.765625-.367188 1.167969-.167968.390625-.300781.796875-.394531 1.214843l-27.582031-22.976562 27.566406-22.976562c.09375.417968.226562.824218.394531 1.214843.085938.402344.210938.792969.367188 1.167969.273437.53125.609375 1.023438 1 1.472656.214843.320313.453125.625.710937.914063.488282.425781 1.027344.789062 1.601563 1.085937.273437.1875.554687.359375.847656.511719.953125.402344 1.980469.609375 3.015625.609375h224zm0 0"/><path d="m128 48h80v16h-80zm0 0"/><path d="m128 80h80v16h-80zm0 0"/><path d="m160 352h160v16h-160zm0 0"/><path d="m160 384h160v16h-160zm0 0"/><path d="m272 320h48v16h-48zm0 0"/></svg>