<svg id="Слой_1" data-name="Слой 1" xmlns="http://www.w3.org/2000/svg" width="512" height="512" viewBox="0 0 512 512"><defs><style>.cls-1,.cls-2{fill:#b8d26f;}.cls-2{opacity:0.3;}.cls-3{fill:#fff;}.cls-4{fill:#69b44b;}.cls-5{fill:#92063d;}.cls-6{fill:#d5a75c;}.cls-7{fill:#581646;}.cls-8{fill:#ea5f00;}.cls-9{fill:#a76242;}.cls-10{fill:#00943c;}.cls-11{fill:#f18100;}.cls-12{fill:#23a636;}.cls-13{fill:#f7931e;}.cls-14{fill:#edbe77;}.cls-15{fill:#f7ffdc;}.cls-16{fill:#ffcd00;}.cls-17{fill:#ffe266;}.cls-18{fill:#e80007;}.cls-19{fill:#f0c988;}.cls-20{fill:#3c052d;}.cls-21{fill:#f69968;}.cls-22{fill:#ffbe90;}.cls-23{fill:#e88c64;}.cls-24{isolation:isolate;}</style></defs><path class="cls-1" d="M238.6858,166.3462c-23.6761,0-42.9379-24.7506-42.9379-55.1733S215.01,56,238.6858,56s42.9379,24.7506,42.9379,55.1729S262.3619,166.3462,238.6858,166.3462Zm0-108.145c-22.7315,0-41.2249,23.7629-41.2249,52.9717s18.4934,52.9721,41.2249,52.9721,41.2248-23.7632,41.2248-52.9721S261.4172,58.2012,238.6858,58.2012Z"/><path class="cls-1" d="M252.4,130.4664a.7745.7745,0,0,1-.6151-.335l-13.7139-18.1928a1.3449,1.3449,0,0,1-.0914-1.388l19.3-36.1718a.7475.7475,0,0,1,1.1911-.2855,1.3089,1.3089,0,0,1,.2219,1.53l-18.9044,35.43L253.0148,128.6a1.3321,1.3321,0,0,1-.019,1.5563A.7683.7683,0,0,1,252.4,130.4664Z"/><path class="cls-1" d="M238.6858,74.4085a1.0019,1.0019,0,0,1-.8566-1.1006V63.5036a.8836.8836,0,1,1,1.7131,0v9.8043A1.0018,1.0018,0,0,1,238.6858,74.4085Z"/><path class="cls-1" d="M238.6858,159.9433a1.002,1.002,0,0,1-.8566-1.1006v-9.8044a.8836.8836,0,1,1,1.7131,0v9.8044A1.0019,1.0019,0,0,1,238.6858,159.9433Z"/><path class="cls-1" d="M275.7841,112.2735h-7.63a1.1354,1.1354,0,0,1,0-2.2012h7.63a1.1354,1.1354,0,0,1,0,2.2012Z"/><path class="cls-1" d="M209.2175,112.2735h-7.63a1.1354,1.1354,0,0,1,0-2.2012h7.63a1.1354,1.1354,0,0,1,0,2.2012Z"/><path class="cls-1" d="M173.62,112.2735H104.7479a1.1354,1.1354,0,0,1,0-2.2012H173.62a1.1354,1.1354,0,0,1,0,2.2012Z"/><path class="cls-1" d="M186.27,86.0189H161.1706a1.1354,1.1354,0,0,1,0-2.2012H186.27a1.1354,1.1354,0,0,1,0,2.2012Z"/><path class="cls-1" d="M164.5838,137.9535H154.1427a1.1354,1.1354,0,0,1,0-2.2012h10.4411a1.1354,1.1354,0,0,1,0,2.2012Z"/><path class="cls-2" d="M413.9873,453.9161l-323.975.6465a128.805,128.805,0,0,1-8.6281-43.2979C80.35,367.5689,101.571,336.8522,110.2,326.1032c4.1421-5.16,24.3207-30.3742,53.356-33.9141,49.6309-6.0508,59.0174,59.2665,119.6813,78.6492,58.9256,18.8272,102.4328-26.07,128.24,8.6539,2.9344,3.9483,13.9448,18.7656,13.6389,39.97A63.205,63.205,0,0,1,413.9873,453.9161Z"/><ellipse class="cls-2" cx="321.397" cy="204.8466" rx="11.3985" ry="14.6466"/><ellipse class="cls-2" cx="415.631" cy="336.8642" rx="7.5717" ry="9.7293"/><path class="cls-3" d="M208.5687,455.311h-87c-.05-.2449-.1009-.4969-.1457-.749h86.8658C208.3893,454.8213,208.4846,455.0733,208.5687,455.311Z"/><path class="cls-2" d="M294.8134,172.5685c0-2.7436,1.7309-4.9677,3.866-4.9677s3.866,2.2241,3.866,4.9677-1.7308,4.9676-3.866,4.9676S294.8134,175.312,294.8134,172.5685Z"/><path class="cls-4" d="M290.1726,268.6187A259.7725,259.7725,0,0,0,342.276,251.6a281.5275,281.5275,0,0,0,35.7345-19.2036q.5108,18.3738,1.0214,36.7476A268.3666,268.3666,0,0,1,338.6458,288.25,248.8414,248.8414,0,0,1,287.517,301.429Q288.8447,285.024,290.1726,268.6187Z"/><path class="cls-5" d="M182.5719,256.08a36.1629,36.1629,0,0,1,6.4935,5.9473,43.4891,43.4891,0,0,1,5.6025,8.3618c2.4874,4.7356,9.8628,16.3177,29.85,44.7331l-26.98,10.2909-12.1137-18.7942Q183.9978,281.3495,182.5719,256.08Z"/><path class="cls-6" d="M298.5939,264.0113l-33.4734,43.0118H204.77l33.4735-43.0118Z"/><path class="cls-7" d="M258.4583,242.7741c.38,7.0546-1.43,11.8673-4.9318,17.2732-2.8864,4.023-6.1149,8.0754-6.15,13.8381-.2054,5.7779,1.9657,10.9,6.6583,11.5915,16.146,2.1078,17.5508-45.4206,8.1026-44.8022Z"/><path class="cls-1" d="M261.2924,237.2a2.48,2.48,0,0,0-2.4369,1.3551c-.5379.9963-.1614,2.4805-.3947,3.64a12.3308,12.3308,0,0,1-1.94,5.1061,3.5343,3.5343,0,0,0,3.8568-2.431c-.2077,4.3823,2.25,3.405,1.7518-.3452a6.4032,6.4032,0,0,0,2.3271,2.0695,4.5439,4.5439,0,0,0-.9181-3.3328c1.12,1.6078,3.7649,1.372,5.0162-.0668-2.6848-.5207-4.06-6.8487-6.5379-6.2482Z"/><path class="cls-1" d="M260.8063,239.1413c-.259-2.0642-1.2526-4.0623-1.08-6.3549a3.5121,3.5121,0,0,1,1.9-.3591,51.6718,51.6718,0,0,1,.503,6.5954Z"/><path class="cls-8" d="M270.0749,268.8687c.06-.3039.1184-.6035.1786-.9,0,0,.0665-.3316.1349-.6658a302.6729,302.6729,0,0,1,9.29-34.3422c.79-2.2763,1.9392-5.4753,3.4349-9.2676-.3542,7.608-1.5148,32.0186-2.2379,37.6538-.0435.3386-.0892.6815-.0892.6815-.5184,3.9066-1.1109,7.3912-1.6846,9.75-.2874,1.1875-1.44,5.68-4.0152,7.1838a2.9851,2.9851,0,0,1-2.2546.4394,4.1742,4.1742,0,0,1-2.3184-2.11C269.0051,274.6159,269.7252,270.6785,270.0749,268.8687Z"/><path class="cls-9" d="M278.7668,253.0019a2.7877,2.7877,0,0,1-1.0126.23,3.3285,3.3285,0,0,1-1.0317-.1113,3.6264,3.6264,0,0,1-.9809-.4261,3.5253,3.5253,0,0,1-.8565-.7316c.3223.1525.6342.302.95.4306a8.6036,8.6036,0,0,0,.9536.3209,8.1487,8.1487,0,0,0,.974.195C278.0915,252.9539,278.4239,252.9762,278.7668,253.0019Z"/><path class="cls-9" d="M276.7734,265.2917a2.7877,2.7877,0,0,1-1.0126.23,3.33,3.33,0,0,1-1.0318-.1113,3.6272,3.6272,0,0,1-.9808-.4261,3.5235,3.5235,0,0,1-.8565-.7316c.3223.1525.6342.3019.95.4306a8.5876,8.5876,0,0,0,.9535.3208,8.1349,8.1349,0,0,0,.9741.1951C276.0981,265.2437,276.4305,265.266,276.7734,265.2917Z"/><path class="cls-9" d="M281.9464,243.8044a2.7877,2.7877,0,0,1-1.0126.23,3.33,3.33,0,0,1-1.0318-.1113,3.6258,3.6258,0,0,1-.9808-.4261,3.5258,3.5258,0,0,1-.8566-.7316c.3224.1525.6343.302.95.4306a8.5876,8.5876,0,0,0,.9535.3208,8.1349,8.1349,0,0,0,.9741.1951C281.2711,243.7564,281.6035,243.7787,281.9464,243.8044Z"/><path class="cls-9" d="M276.4763,260.4986a16.0892,16.0892,0,0,0,1.981.5612,13.6088,13.6088,0,0,0,1.9883.2662c.1435.01.2877.0164.4307.02-.0291.2293-.06.4562-.09.6832-.1219,0-.2452-.0049-.3672-.0127a7.1611,7.1611,0,0,1-2.055-.4264A6.2016,6.2016,0,0,1,276.4763,260.4986Z"/><path class="cls-9" d="M276.3669,276.4472a2.7893,2.7893,0,0,1-1.0126.23,3.3288,3.3288,0,0,1-1.0317-.1113,3.6327,3.6327,0,0,1-.9809-.4261,3.5275,3.5275,0,0,1-.8565-.7316c.3224.1525.6343.3019.95.43a8.5762,8.5762,0,0,0,.9536.3209,8.1566,8.1566,0,0,0,.974.195C275.6916,276.3991,276.024,276.4214,276.3669,276.4472Z"/><path class="cls-9" d="M270.2528,267.9673c.0437-.223.0888-.4456.1342-.6651.2139.0971.4309.19.6475.2769a15.94,15.94,0,0,0,2.47.7783,17.9948,17.9948,0,0,0,2.5564.37,7.4177,7.4177,0,0,1-2.61.1643,9.4619,9.4619,0,0,1-2.5786-.6528C270.6637,268.1556,270.4575,268.0637,270.2528,267.9673Z"/><path class="cls-10" d="M291.45,253.2611c-.039-1.1635-.226-2.3856-.2421-3.6433.0193-.41-.0047-2.2956.3834-2.5553.5323-.5144,1.1308.3539,1.1888,1.1074h0c-.0744-2.0113-.153-4.3367.8523-6.1188,1.51-2.5161,1.7865-.0061,1.3948,1.92a10.0031,10.0031,0,0,1,2.3908-4.4526c.6987-.8638,3.4593-3.1861,4.1936-1.22.937,2.4646-4.8665,7.9326-6.1479,9.1859.532-.5142,3.4246-2.0535,3.6154-.5163.1639,1.3175-3.273,2.4274-3.98,2.6624,1.93-.2609,3.0955.9412.7852,2.09a31.0674,31.0674,0,0,1-3.4328,1.4245Z"/><path class="cls-8" d="M291.5035,262.8122c-.133.2628-.2642.5217-.3959.7775-.0973.1931-.197.3869-.2954.5737a151.5087,151.5087,0,0,1-9.4625,15.94l-5.8212-4.6387c1.1717-3.356,2.5262-6.8555,3.8608-10.0312q.1272-.3085.2561-.6077a87.8519,87.8519,0,0,1,4.0517-8.5234c.5712-1.0039,2.7937-4.7747,5.61-5.1253a2.9762,2.9762,0,0,1,2.2438.5227,5.2384,5.2384,0,0,1,1.6616,2.9609C293.9644,257.82,292.2906,261.2456,291.5035,262.8122Z"/><path class="cls-9" d="M279.2805,274.2058a2.7714,2.7714,0,0,1,1.0159.2039,3.8385,3.8385,0,0,1,.9481.5347,4.5573,4.5573,0,0,1,.8206.8114,4.4856,4.4856,0,0,1,.6259,1.0487c-.2666-.2785-.524-.55-.79-.8027a10.6129,10.6129,0,0,0-.8213-.7,9.7144,9.7144,0,0,0-.8723-.59C279.9072,274.5324,279.5984,274.3729,279.2805,274.2058Z"/><path class="cls-9" d="M284.2645,263.4083a2.7739,2.7739,0,0,1,1.016.2039,3.84,3.84,0,0,1,.948.5347,4.5573,4.5573,0,0,1,.8206.8114,4.4876,4.4876,0,0,1,.6259,1.0487c-.2665-.2785-.5239-.55-.79-.8026a10.5924,10.5924,0,0,0-.8213-.7005,9.7144,9.7144,0,0,0-.8723-.59C284.8912,263.7349,284.5824,263.5754,284.2645,263.4083Z"/><path class="cls-9" d="M283.3372,268.0666a19.6213,19.6213,0,0,0-1.7327-1.3554,15.8533,15.8533,0,0,0-1.814-1.0794c-.1332-.0693-.268-.1353-.4023-.1986.0854-.2048.1713-.4069.2572-.609.1154.05.2307.1067.3442.1649a8.5358,8.5358,0,0,1,1.8367,1.2588A7.8856,7.8856,0,0,1,283.3372,268.0666Z"/><path class="cls-9" d="M287.4611,253.0235a2.7719,2.7719,0,0,1,1.016.2039,3.84,3.84,0,0,1,.9481.5347,4.5536,4.5536,0,0,1,.82.8114,4.48,4.48,0,0,1,.6259,1.0486c-.2665-.2784-.5239-.55-.79-.8026a10.6317,10.6317,0,0,0-.8213-.7,9.7238,9.7238,0,0,0-.8724-.59C288.0879,253.35,287.779,253.1906,287.4611,253.0235Z"/><path class="cls-9" d="M291.108,263.591c-.0976.1928-.1964.3846-.2947.5734-.1779-.1809-.36-.3592-.5427-.5315a19.602,19.602,0,0,0-2.14-1.7642,21.0605,21.0605,0,0,0-2.3253-1.4143,7.9551,7.9551,0,0,1,2.51.9308,11.43,11.43,0,0,1,2.2751,1.6909C290.7667,263.2418,290.9386,263.4146,291.108,263.591Z"/><path class="cls-11" d="M277.5491,282.5771c.1549-.2422.3077-.4808.4607-.7162,0,0,.17-.2633.3432-.528a233.37,233.37,0,0,1,19.8132-25.956c1.4711-1.6247,3.5731-3.8869,6.186-6.4953-2.8487,6.685-12.01,28.1211-14.5372,32.82-.1518.2823-.307.5673-.307.5673a81.8955,81.8955,0,0,1-4.7637,7.8922c-.6544.9162-3.1892,4.3463-6.018,4.2926a3.1015,3.1015,0,0,1-2.1847-.84,5.5793,5.5793,0,0,1-1.3953-3.18C274.6718,287.1869,276.6314,284.0217,277.5491,282.5771Z"/><path class="cls-8" d="M290.6817,272.9991a2.8946,2.8946,0,0,1-.9921-.3477,4.14,4.14,0,0,1-.8959-.6668,4.9512,4.9512,0,0,1-.7454-.9235,4.8092,4.8092,0,0,1-.5313-1.1315c.2408.3148.4731.621.7156.91.2436.2874.4942.5592.7556.8134a10.5528,10.5528,0,0,0,.8159.7108C290.087,272.5851,290.38,272.7876,290.6817,272.9991Z"/><path class="cls-8" d="M284.7949,283.0181a2.893,2.893,0,0,1-.9921-.3476,4.1421,4.1421,0,0,1-.8959-.6668,4.9512,4.9512,0,0,1-.7454-.9235,4.8092,4.8092,0,0,1-.5313-1.1315c.2408.3148.4732.621.7156.91.2436.2874.4942.5592.7556.8133a10.5328,10.5328,0,0,0,.8159.7109C284.2,282.6041,284.4934,282.8067,284.7949,283.0181Z"/><path class="cls-8" d="M296.6134,266.427a2.89,2.89,0,0,1-.9921-.3477,4.1424,4.1424,0,0,1-.8959-.6667,4.9479,4.9479,0,0,1-.7454-.9236,4.8092,4.8092,0,0,1-.5313-1.1315c.2408.3148.4731.6211.7156.91.2436.2875.4942.5592.7556.8134a10.5314,10.5314,0,0,0,.8159.7108C296.0187,266.013,296.3119,266.2155,296.6134,266.427Z"/><path class="cls-8" d="M286.1192,278.5211a21.3232,21.3232,0,0,0,1.6048,1.5944,17.1622,17.1622,0,0,0,1.7094,1.3317c.1264.0879.2547.1727.3827.2547-.1026.1914-.2054.38-.3083.5686-.11-.0667-.22-.139-.3278-.2131a9.2633,9.2633,0,0,1-1.7165-1.5131A8.5472,8.5472,0,0,1,286.1192,278.5211Z"/><path class="cls-8" d="M280.72,292.8823a2.89,2.89,0,0,1-.9921-.3477,4.1416,4.1416,0,0,1-.8959-.6667,4.9545,4.9545,0,0,1-.7454-.9235,4.81,4.81,0,0,1-.5313-1.1316c.2408.3148.4731.6211.7156.9105.2436.2874.4942.5591.7556.8133a10.5328,10.5328,0,0,0,.8159.7109C280.1254,292.4683,280.4186,292.6709,280.72,292.8823Z"/><path class="cls-8" d="M278.01,281.86c.1136-.1777.2284-.3542.3424-.5278.1611.2052.3264.4084.4934.6057a21.2855,21.2855,0,0,0,1.9744,2.0588,22.7806,22.7806,0,0,0,2.1886,1.7375,8.4673,8.4673,0,0,1-2.4142-1.2833,12.4136,12.4136,0,0,1-2.1148-2.0053C278.3186,282.2553,278.1626,282.0591,278.01,281.86Z"/><path class="cls-12" d="M271.7168,263.8708c-.5625-1.1945-1.3071-2.3409-1.8877-3.6513-.1635-.445-1.0342-2.41-.7425-2.97.3289-.9348,1.3474-.465,1.7462.2843h0c-.98-2.06-2.105-4.4461-1.847-7.0638.4592-3.7629,1.8756-1.3289,2.3273.986a14.571,14.571,0,0,1,.5174-6.4509c.3474-1.4253,2.2086-5.91,3.862-4.3869,2.09,1.8975-1.56,11.9421-2.3456,14.2083.3288-.9344,2.68-4.6938,3.57-3.2189.7629,1.2638-2.3529,4.9747-2.99,5.7448,1.9124-1.7031,3.6764-1.3017,1.7626,1.6165-.8385,1.3079-2.3326,3.2686-2.97,4.0386Z"/><path class="cls-11" d="M274.7453,269.8848c-.0491.307-.0976.61-.1476.91-.0357.2254-.0734.4526-.112.6727a183.4094,183.4094,0,0,1-4.2786,19.2794L263.47,289.16c.137-3.674.4033-7.5673.7431-11.15q.0308-.347.0658-.6859c.3842-3.9321.857-7.4468,1.3494-9.836.2465-1.2026,1.2438-5.7559,3.7656-7.4036a3.0292,3.0292,0,0,1,2.2373-.5664,4.0445,4.0445,0,0,1,2.3884,1.9767C275.6175,264.0827,275.0328,268.057,274.7453,269.8848Z"/><path class="cls-8" d="M266.6046,286.2272a2.8332,2.8332,0,0,1,1.0038-.287,3.312,3.312,0,0,1,1.0345.053,3.5463,3.5463,0,0,1,.9945.37,3.4138,3.4138,0,0,1,.8807.6826c-.3273-.1342-.6439-.2659-.9634-.3766a8.4458,8.4458,0,0,0-.9636-.2666,8.0469,8.0469,0,0,0-.98-.14C267.2809,286.2371,266.948,286.2336,266.6046,286.2272Z"/><path class="cls-8" d="M268.1757,273.8367a2.8333,2.8333,0,0,1,1.0037-.287,3.3126,3.3126,0,0,1,1.0346.053,3.5447,3.5447,0,0,1,.9945.37,3.4112,3.4112,0,0,1,.8807.6825c-.3273-.1342-.644-.2659-.9635-.3766a8.4344,8.4344,0,0,0-.9636-.2666,8.0453,8.0453,0,0,0-.98-.14C268.852,273.8466,268.5191,273.8431,268.1757,273.8367Z"/><path class="cls-8" d="M268.6364,278.6084a15.8193,15.8193,0,0,0-1.9983-.4487,13.5129,13.5129,0,0,0-1.9955-.1537c-.1437-.002-.2879,0-.431.004.0214-.2308.0439-.4592.0664-.6877.1218-.0071.2451-.0089.3673-.008a7.0815,7.0815,0,0,1,2.0676.31A6.0323,6.0323,0,0,1,268.6364,278.6084Z"/><path class="cls-8" d="M268.2,262.6691a2.8338,2.8338,0,0,1,1.0038-.287,3.3119,3.3119,0,0,1,1.0345.0529,3.55,3.55,0,0,1,.9945.37,3.4138,3.4138,0,0,1,.8807.6825c-.3272-.1341-.6439-.2658-.9634-.3765a8.4407,8.4407,0,0,0-.9636-.2667,8.0664,8.0664,0,0,0-.98-.14C268.8764,262.6789,268.5436,262.6755,268.2,262.6691Z"/><path class="cls-8" d="M274.5984,270.7954c-.036.2253-.0735.45-.1113.672-.2171-.0849-.437-.1655-.6563-.24a15.6772,15.6772,0,0,0-2.4938-.638,17.8681,17.8681,0,0,0-2.5666-.2255,7.4617,7.4617,0,0,1,2.6014-.3114,9.3257,9.3257,0,0,1,2.5985.5065C274.1815,270.6305,274.3907,270.7106,274.5984,270.7954Z"/><path class="cls-4" d="M280.6981,261.3589c1.1793-.7585,2.5213-1.3162,3.7777-2.1787.392-.3209,2.2759-1.6142,2.2587-2.4321a1.2483,1.2483,0,0,0-1.9362-1.1607h0c2.0436-1.2994,4.4012-2.814,5.4551-5.7163,1.4242-4.2454-1.2563-2.9245-2.8863-.9234a15.7856,15.7856,0,0,0,2.7186-7.0538c.3614-1.7524.71-7.9054-1.7552-7.7166-3.1018.21-4.4142,13.5593-4.7495,16.5393.1331-1.2329-.387-7.0485-2.0435-6.2743-1.42.6631-.09,7.0649.1763,8.3859-1.1056-3.3393-3.119-4.3945-2.6242.1936.2021,2.04.7483,5.2962,1.0153,6.6174Z"/><path class="cls-13" d="M284.8046,271.1208c-.0826.3388-.1641.6727-.2469,1.0034-.06.2488-.1228.4993-.1857.7417a199.9391,199.9391,0,0,1-6.5278,21.1005l-7.452-2.7726c.4795-4.12,1.1243-8.4687,1.8242-12.4563q.0654-.3864.1348-.7633c.781-4.3749,1.6248-8.2664,2.3912-10.8869.3842-1.3192,1.911-6.3044,4.8986-7.7927a3.3325,3.3325,0,0,1,2.5714-.3114,4.9253,4.9253,0,0,1,2.5164,2.5765C286.3009,264.71,285.29,269.103,284.8046,271.1208Z"/><path class="cls-11" d="M274.1845,288.3472a3.1127,3.1127,0,0,1,1.1566-.1767,3.82,3.82,0,0,1,1.1611.2108,4.25,4.25,0,0,1,1.0879.5627,4.1634,4.1634,0,0,1,.9321.8978c-.3569-.199-.7022-.3937-1.0524-.5651a9.9793,9.9793,0,0,0-1.0623-.4413,9.401,9.401,0,0,0-1.0917-.3008C274.9458,288.4572,274.571,288.4046,274.1845,288.3472Z"/><path class="cls-11" d="M277.0516,274.6141a3.1119,3.1119,0,0,1,1.1565-.1767,3.82,3.82,0,0,1,1.1611.2108,4.2529,4.2529,0,0,1,1.0879.5626,4.1678,4.1678,0,0,1,.9321.8978c-.3569-.199-.7022-.3936-1.0524-.5651a10.0211,10.0211,0,0,0-1.0623-.4413,9.4205,9.4205,0,0,0-1.0917-.3007C277.8128,274.7241,277.438,274.6715,277.0516,274.6141Z"/><path class="cls-11" d="M277.1484,280.0586a18.6737,18.6737,0,0,0-2.2121-.7977,15.65,15.65,0,0,0-2.2351-.4647c-.1617-.0232-.3245-.0423-.486-.0585.0444-.2569.09-.5111.1356-.7652.1379.01.277.0258.4146.0446a8.27,8.27,0,0,1,2.3026.6514A7.2975,7.2975,0,0,1,277.1484,280.0586Z"/><path class="cls-11" d="M278.0675,262.033a3.1119,3.1119,0,0,1,1.1565-.1767,3.82,3.82,0,0,1,1.1611.2108,4.2529,4.2529,0,0,1,1.0879.5626,4.1661,4.1661,0,0,1,.9321.8979c-.3569-.1991-.7022-.3937-1.0524-.5651a10.01,10.01,0,0,0-1.0623-.4414,9.4205,9.4205,0,0,0-1.0917-.3007C278.8287,262.143,278.4539,262.09,278.0675,262.033Z"/><path class="cls-11" d="M284.5584,272.1254c-.06.2486-.1227.4966-.1849.7411-.2371-.1274-.4778-.25-.7183-.3665a18.5686,18.5686,0,0,0-2.7538-1.0834,20.7063,20.7063,0,0,0-2.8723-.6291,8.3812,8.3812,0,0,1,2.959.0292,10.9566,10.9566,0,0,1,2.8834.95C284.1031,271.8787,284.3318,272,284.5584,272.1254Z"/><path class="cls-14" d="M298.5939,264.0113v38.1673l-33.4734,43.0119V307.0231c0-.0073.0057-.0073.0113-.0145l4.59-5.8976c.0056-.0073.0056-.0146.0113-.0146l6.1272-7.8731.17-.2179.6953-.8934,1.17-1.5034.1413-.1816.4692-.6028.6952-.8934.7744-.995,2.0292-2.6075.1639-.2106.9044-1.1621.9213-1.1838.164-.2107,2.4531-3.1521.1583-.2034q4.9515-6.3624,9.8973-12.71c.0791-.1089.1526-.2033.2317-.305Z"/><path class="cls-12" d="M244.9708,302.4027a2.8084,2.8084,0,0,0,1.8923-1.5442c.3679-.8984.3613-1.99.6955-2.9155a15.31,15.31,0,0,1,1.3372-2.2207,3.6726,3.6726,0,0,0,.2338-2.1916,2.3462,2.3462,0,0,1,.892-2.2947c.6721-.4763,1.8895-.4054,2.4215-1.1459.5652-.7871-.8245-2.5327.505-4.0217,1.1913-1.334-1.8731-1.5753-1.4012-2.9429.3215-.9327,1.8989-1.951,2.1862-2.8842.2924-.9494-1.2446-2.0239-1.22-3.0029.0354-1.4393,2.236-.95,1.83-2.87-.2269-1.0736,2.2365-2.0354,1.7416-5.146-.3884-2.4411-2.0565-1.6825-1.7285-4.3623.3244-2.6495,3.3614-4.57,1.6559-8.0526-.4561-.9313,1.5153-1.4407,1.0467-4.0913-.317-1.794-2.1626-2.5243-1.7466-4.2718a4.7838,4.7838,0,0,0-1.7685-4.6243c-.7346-.5719-1.8784.4335-2.6126.6867-1.1855.4093-1.6465-3.7393-3.1913-2.4494-2.3368,1.9515-3.2726-.6964-4.0094-.0009-1.138,1.0746-1.5819,3.2626-3.13,2.8084-1.0973-.322-.8824,2.2162-2.6187,2.7507-1.9221.5914.4561,4.4832-.734,3.8743-1.0774-.5513-1.6563,3.9094-2.7455,3.7182-.9113-.16,1.31,4.8782-.4,5.22-1.8354.3666-.5838,2.1063-.7789,4.0929-.237,2.4148-2.3188,2.7542-1.1608,6.4685.8614,2.7619-1.5143,1.7419-.6613,4.7791.5371,1.9126-2.782,1.9-2.4881,3.2767.2495,1.1673,1.65,2.6993.6963,3.9747-.692.9251.1615,2.1861-.3281,3.2371a4.8784,4.8784,0,0,0-.7091,2.9028c.1555,1.2291.6659,2.3149.7431,3.577.1361,2.23.0815,3.1138,1.4065,5.067.7843,1.1566.8876,1.6771,1.9814,2.245,1.0057.5221,1.7622,1.2991,2.765,1.8312Z"/><path class="cls-1" d="M232.0633,305.1979a10.811,10.811,0,0,0,4.3148,2.2856,8.7347,8.7347,0,0,0,4.5764.3235l.9271-5.2163-8.8913-2.609Z"/><path class="cls-4" d="M231.5849,292.0348c.3619-1.1773.2743-2.4411.554-3.6333a3.4877,3.4877,0,0,1,.1071-.3627c.013-.0369.0279-.071.0418-.1064.0292-.0744.06-.1469.0931-.2151.0178-.0367.0364-.0725.0553-.1076q.0513-.0948.1076-.1824c.02-.0308.039-.0623.0595-.0919.0459-.066.0942-.129.1441-.19.014-.017.0268-.0355.0411-.0522.0647-.0761.1327-.1489.2029-.22.023-.023.0473-.0453.0708-.0679.05-.0483.1009-.0965.1533-.1435.0308-.0277.0624-.0554.0939-.0828.021-.0183.0412-.037.0626-.0552.0122-.0108.0556-.0473.1064-.09.0945-.0793.1907-.1592.2891-.2414.7987-.6682.4627-2.2824,1.4-2.7237a1.2322,1.2322,0,0,0,.209-.1254,1.12,1.12,0,0,0,.0974-.0876c.0233-.0218.0487-.0419.07-.0653a1.1825,1.1825,0,0,0,.0963-.1266c.012-.0175.0256-.0339.0368-.052a1.4386,1.4386,0,0,0,.0767-.1469c.0089-.0191.0187-.0376.0268-.0573.02-.0489.0374-.1.0535-.1516.0082-.0263.0167-.0522.0238-.0792.0123-.046.0226-.0931.0321-.1407.0077-.0391.0152-.0783.0212-.1184q.0087-.0564.0152-.1138c.0064-.0564.0117-.1134.0154-.1714.0017-.0255.0036-.051.0048-.0766q.0051-.1064.0054-.2151c0-.019.0006-.0378,0-.0568,0-.057-.002-.1146-.0036-.1722-.0175-.55-.0937-1.0907-.0768-1.4571,0-.0064,0-.0122,0-.0186,0-.0349,0-.0689,0-.103,0-.053.0015-.1046.0035-.1545l.0034-.0655c.0035-.0568.0091-.1115.016-.1643.0018-.0143.0022-.03.0043-.0441l.0028-.012a1.4456,1.4456,0,0,1,.0487-.2074c.0062-.02.0139-.0373.021-.0559a1.04,1.04,0,0,1,.0557-.1239c.0107-.02.0215-.04.0332-.0585a.9384.9384,0,0,1,.0662-.0912c.015-.0188.0293-.0387.0454-.056.02-.0218.0442-.0422.0671-.0629s.0438-.0419.0676-.06l.0049-.0043a1.0973,1.0973,0,0,1,.1294-.0879c.2095-.1277.4524-.2185.6852-.3419.04-.0214.0784-.0444.1169-.0677.017-.01.0342-.02.0509-.0307.0365-.0234.071-.0493.1055-.075.0224-.0168.0449-.0332.0667-.0514.0286-.0238.055-.05.0814-.076.0247-.0242.0494-.0485.0728-.0753.0175-.02.0339-.04.05-.06a1.3586,1.3586,0,0,0,.1083-.1575l.0047-.0073a1.5987,1.5987,0,0,0,.102-.22l.012-.0325a2.034,2.034,0,0,0,.065-.2288c.0072-.0324.0141-.0648.02-.0975a2.8277,2.8277,0,0,0,.042-.2931c.0132-.1563.0324-.294.0547-.4224a2.0312,2.0312,0,0,1,.234-.7288c.0184-.0326.0368-.0652.0564-.094h0l.001-.0012a1.0137,1.0137,0,0,1,.1338-.1578l.0153-.0152a.8928.8928,0,0,1,.147-.11l.0166-.0092a1.091,1.091,0,0,1,.3364-.12l.011-.0022a5.3134,5.3134,0,0,1,.5945-.052q.0582-.0042.1153-.0105l.0583-.0074q.0648-.009.1274-.0233l.043-.01a.9784.9784,0,0,0,.1411-.0484l.0318-.0155a.7882.7882,0,0,0,.1233-.0733l.0177-.0119a.8136.8136,0,0,0,.1206-.1183l.0259-.032a1.0236,1.0236,0,0,0,.1044-.166l.0121-.0272a1.557,1.557,0,0,0,.0784-.2052c.0046-.0147.01-.0281.0139-.0433a2.5623,2.5623,0,0,0,.0614-.2823c.0036-.0218.0067-.045.01-.0678.0161-.1115.03-.23.0372-.365.2278-3.9907,2.9481-2.7284,3.9856-4.7645.8537-1.6748-.6009-5.0237,1.1734-4.3184a.9445.9445,0,0,0,.1388.0437c.0142.0033.0264.0035.04.0057a.5659.5659,0,0,0,.0793.0091c.0143,0,.0269-.0024.04-.0035a.3657.3657,0,0,0,.061-.0088.3075.3075,0,0,0,.0362-.0138.2964.2964,0,0,0,.0487-.0237.3.3,0,0,0,.0313-.0241.3427.3427,0,0,0,.0388-.0367.4206.4206,0,0,0,.0261-.0335.5009.5009,0,0,0,.0309-.0488q.0111-.02.0212-.0421c.0087-.019.0168-.0391.0244-.06.0057-.0159.0114-.0319.0165-.0488.007-.0231.0132-.0474.0192-.0723.0042-.0175.0086-.0348.0123-.0532.0057-.0275.0106-.0565.0152-.0858.0029-.018.0061-.0355.0086-.0541.0046-.0331.0085-.0676.0123-.1025l.0055-.05c.0042-.0432.0077-.0881.011-.1336l.0023-.029c.0138-.202.022-.4235.036-.6494l.0043-.0674c.0025-.0373.0056-.0746.0086-.1119l.0065-.0781c.0033-.0363.0071-.0724.011-.1087.003-.0273.006-.0545.0094-.0818.0042-.0345.009-.0688.014-.103q.0062-.0428.0132-.085.0083-.05.0179-.0991c.0054-.028.0114-.0557.0175-.0834.0071-.0323.0146-.0642.0228-.0958.007-.0272.0148-.0537.0226-.08.009-.0309.0182-.0617.0284-.0918.0088-.026.0188-.0511.0285-.0764.0113-.0292.0223-.0584.0349-.0866.0109-.0247.0235-.0481.0355-.0719.0136-.0269.0266-.0542.0416-.08.0136-.0232.0292-.0448.044-.067.0161-.0243.0313-.0493.0489-.0723s.0359-.0409.0539-.0613a1.1137,1.1137,0,0,1,.1136-.111c.022-.0186.0429-.0383.0666-.0553s.0485-.03.0729-.0446.0491-.0309.076-.0443.0557-.0238.084-.0353.0567-.0236.0872-.0333.0624-.0168.0944-.0245.0656-.0158.1005-.0217.07-.0093.1063-.013.0743-.0071.1134-.0086.0788-.0015.12-.0008c.0222,0,.0422-.0015.0651,0l-.0014.0031a3.4469,3.4469,0,0,1,.7492.1226c1.0757.2892,1.4568-3.2121,3.7369-1.7931,1.1527.7174.5138-4.8955,1.9826-3.0674s1.7973-.4908,2.8291,1.3414-2.8412,4.5478-3.1656,7.1973c-.328,2.68,1.34,1.9212,1.7285,4.3623.4949,3.1106-1.9685,4.0724-1.7416,5.146.4057,1.92-1.7949,1.4309-1.83,2.87-.0244.979,1.5126,2.0535,1.22,3.0029-.2873.9332-1.8647,1.9515-2.1862,2.8841-.4719,1.3677,2.5925,1.609,1.4012,2.943-1.33,1.489.06,3.2346-.505,4.0217a6.5732,6.5732,0,0,1-1.7074,1.6437c-.73.5178-.1451,1.7861-.108,2.8391.1174,3.3348-2.7431,2.4666-3.0691,3.37-.3342.9256-.3276,2.0171-.6955,2.9155a2.5917,2.5917,0,0,1-1.6379,1.4459,8.55,8.55,0,0,1-1.9026.7091l-7.2113-1.1356c-1.0029-.532-.5764-.6934-1.582-1.2154a8.5622,8.5622,0,0,1-2.1675-1.6555.6136.6136,0,0,0-.0806-.137c-.3554-.4634-1.4143-.6957-2.0574-1.0724a.9349.9349,0,0,1-.5041-.5566C229.1964,294.7391,230.946,294.1155,231.5849,292.0348Z"/><path class="cls-15" d="M240.7976,301.1464c1.6645-.8671,5.73-10.6042,7.2362-17.5085a80.7047,80.7047,0,0,1,5.1362-16.8066c-2.3547.4573-5.1081,5.1393-6.274,11.991-1.0435,6.134-5.1974,5.8635-7.8856,10.3912.5-7.6766-.1034-27.4579-3.6643-30.2444-.4426,2.4536,3.8269,13.5286.5781,19.3251-2.6312,4.6941-4.9562,16.891-3.3894,20.445A8.5693,8.5693,0,0,0,240.7976,301.1464Z"/><path class="cls-1" d="M226.9654,282.6165a1.8637,1.8637,0,0,0,.11.3071c.015.0309.031.0567.0461.0876a1.9258,1.9258,0,0,0,.1131.197,8.54,8.54,0,0,0,.9915,1.11,4.2662,4.2662,0,0,1,.5363.686,2.5167,2.5167,0,0,1,.3407,1.2311c.0019.0587-.005.12-.0078.1827-.0033.0414-.0026.0839-.01.124a.873.873,0,0,1-.014.1017c-.0134.0753-.0268.1507-.0441.2249a.1185.1185,0,0,1-.011.0391,3.9356,3.9356,0,0,1-.2309.6511c-.044.1086-.09.2061-.1363.3036a5.1487,5.1487,0,0,0-.2783.6636c-.0066.0139-.0093.029-.0159.0429-.02.0681-.0415.1411-.0588.2154l-.0411.231c-.0032.0414-.0065.0827-.0088.119-.0041.0464-.0091.0978-.0094.1453.0016.0375-.0007.0738.0008.1112a2.0156,2.0156,0,0,0,.021.2758,19.862,19.862,0,0,1,.4542,2.7445c-.0129,1.0217-.3884,2-.3586,3.0134a3.8166,3.8166,0,0,0,1.1812,2.45,3.9826,3.9826,0,0,0,.7441,1.2756,12.5386,12.5386,0,0,0,7.7686,4.41,15.7222,15.7222,0,0,0,3.3518.2751,16.9605,16.9605,0,0,0,4.0574-5.1153c.2056-.3925.392-.7826.5613-1.1674a3.9372,3.9372,0,0,0,1.0491-2.5465c-.0259-1.0119-.4505-1.9558-.5164-2.9742a19.6823,19.6823,0,0,1,.3089-2.78,2.7077,2.7077,0,0,0,.0043-.2789c-.0015-.0374-.0031-.0749-.0056-.1074a1.2842,1.2842,0,0,0-.0158-.142c-.0046-.0437-.01-.0823-.0156-.1209-.0085-.0448-.0179-.0845-.03-.13-.0072-.0285-.0136-.0621-.0239-.0968-.0206-.07-.045-.14-.07-.2107a.2523.2523,0,0,1-.0172-.0421,6.1973,6.1973,0,0,0-.3107-.6356c-.0531-.0949-.1023-.1886-.1545-.2885a3.8687,3.8687,0,0,1-.2659-.633c-.0021-.0112-.0082-.0236-.01-.0348-.0236-.0756-.0393-.1489-.0551-.2223a.9944.9944,0,0,1-.023-.1019c-.0055-.0386-.01-.0822-.0147-.1259a1.3662,1.3662,0,0,1-.0183-.1745,2.6353,2.6353,0,0,1,.2785-1.2662,4.7281,4.7281,0,0,1,.4953-.7268,8.4728,8.4728,0,0,0,.9285-1.197,1.4486,1.4486,0,0,0,.1057-.2016c.0141-.0329.0282-.0657.0414-.0936a1.8418,1.8418,0,0,0,.0941-.3212c.1887-1.0388-1.6933-1.6756-1.1076-3.8137.4588-1.6785-1.6-.5542-2.2-1.2535a.7043.7043,0,0,1-.1525-.4148c-.0785-1.0168.9023-2.9015.7912-3.8961-.1043-.9874-1.7813-.972-2.1883-1.7839a.3554.3554,0,0,1-.028-.05c-.5223-1.2739,1.58-2.248.4895-3.657-.6119-.7927,1.1594-3.1907-.4683-5.5819-1.05-1.545-2.0242-.6468-2.7484-1.71a3.2868,3.2868,0,0,1-.43-.9826,3.4019,3.4019,0,0,1-.1-.4574c-.3245-2.2941,1.9071-4.1342-.7429-5.9585-.1977-.1373-.4059-2.2757-1.0371-2.2654-.57.0125-.5787.6865-.9732.9619a1.2425,1.2425,0,0,0-.535-.3c-.55-.1668-.54-.9883-1.1689-.9456s-.7238,2.198-.9111,2.3492c-2.7126,2.1852.0993,3.909-.5049,6.4751-.0319.1333-.0651.25-.0973.3625a2.884,2.884,0,0,1-.3288.7388c-.6671.9988-1.6564.27-2.602,1.8636-1.4978,2.5258.3951,4.7675-.17,5.6111-1.0152,1.4994,1.1319,2.288.68,3.6037-.3116.897-2.0591,1.008-2.1168,2.0271-.0541.999,1.0212,2.7947.9957,3.8179-.0355,1.4961-2.8758.0019-2.2535,1.8707C228.561,280.7907,226.72,281.5879,226.9654,282.6165Z"/><path class="cls-15" d="M233.3047,277.1958c1.0553.2484,3.4023,3.6244,3.409,7.4167,2.0108-5.44-1.244-16.3489-.8729-18.4374,3.2306,2.51,4.8008,21.9709,3.5907,31.9666.829-4.6648,2.1964-3.7287,1.6663-9.3759,1.274.9813,3.2954,11.0159.3023,15.07-2.8527,1.4805-6.7113-.014-8.5476-2.4863-2.4048-6.39,1.4089-9.9538,1.91-15.1224C235.3141,280.5451,233.3085,278.8762,233.3047,277.1958Z"/><path class="cls-12" d="M240.5181,289.12a4.072,4.072,0,0,0,.926-2.6232c-.0747-1.0106-.5452-1.92-.66-2.9292a19.3684,19.3684,0,0,1,.1733-2.7989,3.3284,3.3284,0,0,0-.7378-1.9987,2.613,2.613,0,0,1-.2308-2.5478c.36-.8714,1.4087-1.6681,1.5385-2.662.1378-1.0563-1.7688-1.54-1.29-3.7211.4288-1.9542-2.2387-.0011-2.4262-1.4776-.1282-1.0067.7582-2.9683.6013-3.9514-.16-1-1.9038-.8186-2.3-1.655-.5835-1.23,1.4668-2.3675.3093-3.6895-.6472-.739,1.0049-3.2763-.7343-5.5316-1.3647-1.77-2.4377.038-3.3046-2.4355-.8571-2.4455.8667-6.1888-2.044-7.904-.7784-.4587.6546-2.2714-.8666-4.16-1.0294-1.2785-2.8851-.5917-3.2812-2.3469a3.3631,3.3631,0,0,0-3.45-2.6265c-.8584.038-1.3875,1.6839-1.8941,2.4121-.8178,1.1762-2.9707-1.9717-3.7142.1943-1.1246,3.2767-3.0355,1.7187-3.3559,2.8189-.4948,1.7.0656,3.8431-1.4235,4.5516-1.0555.5022.2054,2.4754-1.02,4.1438-1.3567,1.8466,2.2912,3.4314,1.0359,3.7587-1.1366.2963.2789,4.4368-.7141,5.0427-.8309.507,3.1744,3.1613,1.8884,4.65-1.38,1.5976.4085,2.1735,1.0914,3.9733.83,2.1876-.7676,3.9358,1.7836,6.23,1.8973,1.7058-.5254,2.5229,1.4821,4.4649,1.2642,1.223-1.5191,3.5465-.6868,4.4922.706.8015,2.5308,1.0986,2.2757,2.8368-.1851,1.2609,1.0663,1.7161,1.1043,2.94a4.9212,4.9212,0,0,0,.6429,2.9281c.6536.9194,1.5432,1.4691,2.1455,2.4712,1.0636,1.77,1.3944,2.5487,3.3353,3.2516,1.149.4164,1.4571.7795,2.6145.4855,1.0641-.27,2.0281-.152,3.0941-.4119Z"/><path class="cls-1" d="M230.9059,300.5369a9.5129,9.5129,0,0,0,4.5848-1.1215,11.1468,11.1468,0,0,0,3.9679-2.9477l-1.4459-5.0177-8.5527,4.0693Z"/><path class="cls-4" d="M224.899,289.8566c-.1986-1.24-.81-2.236-1.0839-3.43a3.6666,3.6666,0,0,1-.0649-.3789c-.0048-.04-.0069-.079-.01-.1184-.0072-.0829-.0125-.1651-.0137-.2455-.0007-.0433,0-.0863,0-.129.0016-.0769.0059-.1531.0123-.2283.0034-.04.0061-.08.0107-.1188.01-.0875.0239-.1742.04-.26.0044-.0241.0073-.0486.0121-.0726.0218-.1093.0476-.2179.0764-.3264.0094-.0354.02-.0712.03-.1066.0214-.0757.0433-.1518.0671-.2279.014-.0448.0287-.09.0433-.1354.01-.03.0188-.06.0289-.09.0056-.0176.0264-.0787.0508-.15.0453-.1328.0918-.2673.1391-.4053.3839-1.1209-.5848-2.2356.0121-3.2645a1.8625,1.8625,0,0,0,.1215-.252c.0185-.0474.03-.0945.0442-.1417.01-.0346.0229-.0694.0307-.1038a1.6222,1.6222,0,0,0,.0266-.1737c.0027-.0231.0071-.0464.0087-.0694a1.7112,1.7112,0,0,0,.0016-.1768c-.0007-.0223,0-.0447-.0019-.0669-.0038-.0552-.0114-.11-.02-.1645-.0044-.0277-.0083-.0554-.0139-.083-.0092-.0472-.0208-.0938-.033-.14-.01-.0381-.0207-.0761-.0327-.114q-.0168-.0532-.0357-.1059c-.0188-.0517-.0386-.1031-.06-.1543-.0094-.0226-.0187-.0452-.0286-.0675q-.0411-.0924-.0871-.1838l-.0238-.0479c-.0244-.0475-.05-.0945-.0763-.1416-.249-.448-.543-.8469-.6849-1.1655l-.0079-.0155c-.0153-.0289-.0294-.0576-.0437-.0863-.0224-.0445-.0434-.0887-.0629-.1318l-.0251-.0572c-.0212-.05-.04-.1-.0566-.1488-.0045-.0132-.0109-.0268-.0152-.04l-.0027-.0121a1.4486,1.4486,0,0,1-.0477-.2078c-.0031-.0208-.0041-.041-.0062-.0615a1.2106,1.2106,0,0,1-.0061-.1429c0-.0243.001-.0485.0028-.0723.0031-.04.0094-.0814.0166-.1229.0046-.0263.0081-.0529.0142-.0788.0076-.0324.019-.0664.0293-.1s.0188-.0658.031-.098l.0022-.007a1.6583,1.6583,0,0,1,.0709-.1647c.1209-.2541.2855-.501.4278-.768.0241-.0458.0467-.0922.069-.1388.01-.02.02-.0408.03-.0615.02-.0453.0383-.0912.0563-.137.0116-.03.0235-.0593.0339-.09.0139-.04.0247-.08.0358-.1208.01-.0377.0206-.0754.0289-.1143.0061-.0289.0113-.0573.016-.0854a1.7976,1.7976,0,0,0,.0235-.2079l.0008-.01a1.8741,1.8741,0,0,0-.0084-.2561l-.0038-.0357a2.1742,2.1742,0,0,0-.043-.2372c-.0078-.0321-.0159-.0641-.0248-.0957a2.6131,2.6131,0,0,0-.09-.2748c-.0555-.14-.098-.2688-.1341-.392a2.1671,2.1671,0,0,1-.1145-.7745c.0014-.04.003-.0805.0071-.1183v0l0-.0017a1.3987,1.3987,0,0,1,.0448-.2261l.0063-.0235a1.3147,1.3147,0,0,1,.0761-.1957l.01-.0194a1.6307,1.6307,0,0,1,.2305-.337l.0082-.01c.147-.1668.3166-.3114.4754-.4617q.047-.0444.092-.09l.0457-.0472q.05-.0531.0967-.1091l.0317-.0387a1.49,1.49,0,0,0,.0975-.14l.02-.0353a1.1922,1.1922,0,0,0,.0719-.1481l.01-.0225a1.1638,1.1638,0,0,0,.05-.1837l.008-.0451a1.3111,1.3111,0,0,0,.0168-.2124l-.0016-.0312a1.7265,1.7265,0,0,0-.0217-.2269c-.0024-.0154-.0039-.03-.0068-.046a2.54,2.54,0,0,0-.0689-.2794c-.0063-.0208-.0136-.0424-.02-.0637-.0341-.1046-.0734-.2134-.1244-.3317-1.5091-3.5,1.3053-4.3567,1.3064-6.7905.0011-2.002-2.6427-3.7819-.8573-4.4394a.9857.9857,0,0,0,.1348-.061c.0133-.0073.0235-.0157.0358-.0233a.68.68,0,0,0,.07-.0482c.0121-.01.0216-.0209.0323-.0313a.5176.5176,0,0,0,.0474-.05.4371.4371,0,0,0,.0244-.037.4584.4584,0,0,0,.0306-.054c.0063-.0137.011-.028.016-.0422a.4891.4891,0,0,0,.0168-.058c.0033-.0152.0056-.0307.0076-.0464.0026-.0205.0045-.0413.0051-.0626,0-.0165,0-.0332,0-.05-.0008-.0221-.0026-.0446-.0052-.0675-.002-.0173-.0041-.0347-.007-.0525-.004-.0242-.0091-.0489-.0147-.074-.0039-.0176-.0077-.0351-.0123-.0532-.0071-.027-.0153-.0546-.0239-.0825-.0052-.0171-.01-.0339-.0158-.0513-.01-.0309-.0217-.0626-.0334-.0944l-.0168-.046c-.015-.0392-.0311-.0792-.0477-.12l-.01-.0259c-.0745-.1788-.162-.37-.2464-.5689l-.0252-.0593c-.0137-.033-.027-.0664-.0405-.1l-.0278-.07c-.0127-.0328-.0248-.0657-.037-.0988-.0092-.025-.0183-.05-.027-.075-.0112-.0319-.0218-.0639-.0322-.0961-.0087-.0268-.0171-.0535-.0252-.08q-.0142-.0477-.0272-.0955c-.0074-.0273-.0142-.0547-.0208-.0821-.0078-.0321-.0151-.0641-.0218-.0963-.0057-.0277-.0105-.0553-.0153-.0831-.0056-.0322-.011-.0644-.0153-.0968-.0036-.0279-.006-.0559-.0086-.084-.0031-.0323-.0062-.0646-.0078-.097-.0013-.0283-.0008-.0567-.0008-.0852,0-.032-.0008-.064.0007-.0962.0015-.0289.0054-.058.0083-.087.0031-.0316.0051-.0632.01-.0948.0047-.03.0126-.06.019-.0892a1.5949,1.5949,0,0,1,.0478-.1729c.0105-.0311.02-.0621.0322-.0931s.0279-.059.042-.0885.028-.06.0447-.0906.0365-.0591.0553-.0886.0374-.06.0588-.0892.0451-.058.0686-.0869.0481-.0593.0749-.0888.0547-.0572.0834-.0857.0591-.0581.0912-.0869.0653-.0566.1-.0848c.0187-.0153.0347-.0309.0543-.0462v.0037a4.047,4.047,0,0,1,.6793-.4243c1.0234-.5145-.1489-3.7129,2.3638-4.1288,1.27-.21-1.6551-4.4585.3528-3.9615s1.2952-1.6747,2.9391-.8669-.4409,5.8044.4162,8.25c.8669,2.4735,1.94.6656,3.3046,2.4355,1.7391,2.2553.0871,4.7926.7343,5.5316,1.1575,1.322-.8928,2.46-.3093,3.6895.3965.8364,2.1406.6549,2.3,1.655.1569.9831-.73,2.9447-.6013,3.9514.1875,1.4765,2.855-.4767,2.4262,1.4776-.4785,2.1812,1.4281,2.6648,1.29,3.7211a9.4491,9.4491,0,0,1-.7289,2.5764c-.39.9465.6393,1.5969,1.1189,2.452,1.5186,2.7085-1.2452,3.9935-1.1332,4.9789.1145,1.01.585,1.9187.66,2.9293a3.7249,3.7249,0,0,1-.755,2.362,12.7947,12.7947,0,0,1-1.29,1.9315l-6.5192,4.121c-1.0659.26-.7777-.175-1.8417.0953a6.7967,6.7967,0,0,1-2.5192.1388.4062.4062,0,0,0-.1257-.058c-.4949-.1379-1.48.4123-2.1788.5493a.6711.6711,0,0,1-.6589-.1113C224.0518,293.8,225.2505,292.0473,224.899,289.8566Z"/><path class="cls-15" d="M236.49,291.0035c1.0237-1.8962.2788-12.9045-1.4012-19.7424a85.5255,85.5255,0,0,1-2.86-17.6781c-1.776,2.0387-2.0862,7.8937-.1436,14.448,1.7393,5.8676-1.8525,8.5625-2.1738,14.2423-2.8513-6.7764-11.7818-22.9077-15.9489-22.7356.6747,2.3647,8.9651,8.6313,8.715,15.7674-.2027,5.779,3.0464,17.622,5.8715,19.4947C231.5994,295.2224,235.0087,293.15,236.49,291.0035Z"/><path class="cls-1" d="M217.0212,285.2228a1.2649,1.2649,0,0,0,.2228.18c.0258.0152.05.0256.0759.0408a1.2928,1.2928,0,0,0,.1786.0854,6.0121,6.0121,0,0,0,1.3027.2319,2.9227,2.9227,0,0,1,.7411.1969,1.77,1.77,0,0,1,.8095.7909c.0266.0478.047.104.0713.1584a1.1459,1.1459,0,0,1,.0447.1106.8167.8167,0,0,1,.0316.0948c.0209.0725.0418.145.0589.2193a.1264.1264,0,0,1,.0074.0405,4.2989,4.2989,0,0,1,.084.7073c.01.1219.0124.2359.0154.35a5.8989,5.8989,0,0,0,.05.7512c0,.0163.0046.0308.005.0471.012.0712.0254.1473.0425.2215l.0641.2223c.0149.0369.03.0738.0433.1058.0163.0417.0339.0882.054.1282.0173.03.0308.0623.0481.0925a1.5711,1.5711,0,0,0,.1349.2161,14.6349,14.6349,0,0,1,1.5492,1.9775c.4243.8641.5269,1.9473.9833,2.7743a2.5855,2.5855,0,0,0,2.0323,1.22,2.6487,2.6487,0,0,0,1.1661.5442c3.4122.8611,6.519-.6726,8.38-1.7725a19.4514,19.4514,0,0,0,2.9224-2.127,23.1039,23.1039,0,0,0,1.2171-7.1346c.0048-.4731-.0054-.9307-.0275-1.3717a4.4675,4.4675,0,0,0-.2067-2.8691c-.4526-.8287-1.21-1.32-1.6989-2.1261a17.8418,17.8418,0,0,1-.9254-2.5435,2.2751,2.2751,0,0,0-.1152-.2365c-.0172-.03-.0345-.06-.05-.0859a1.007,1.007,0,0,0-.0738-.1078c-.0224-.0333-.0435-.0617-.0645-.09-.0262-.0316-.051-.0582-.0809-.088-.0183-.0188-.0379-.0424-.0613-.0642-.0468-.0437-.0973-.0856-.1479-.1275a.1688.1688,0,0,1-.0323-.023,4.07,4.07,0,0,0-.5308-.3135c-.0849-.0421-.1659-.0859-.2521-.1328a2.5882,2.5882,0,0,1-.4923-.3428c-.0065-.0079-.0168-.014-.0233-.0219a1.7527,1.7527,0,0,1-.1409-.1473.7089.7089,0,0,1-.0626-.0691c-.0211-.0284-.0435-.0617-.0659-.095a1.0458,1.0458,0,0,1-.09-.1332,2.5989,2.5989,0,0,1-.3062-1.2556,6.1931,6.1931,0,0,1,.1049-.9566,11.4457,11.4457,0,0,0,.2673-1.6548,1.77,1.77,0,0,0,.0027-.2431c-.0023-.0374-.0045-.0748-.0053-.1074a1.9354,1.9354,0,0,0-.0581-.335c-.2845-1.0022-2.1308-.2116-2.5513-2.4129-.331-1.7274-1.5756.6616-2.3753.4982a.4821.4821,0,0,1-.3044-.24c-.4987-.7958-.4806-3.0629-.9973-3.8172-.5078-.753-1.9048.4392-2.5912.0459a.231.231,0,0,1-.045-.0226c-.98-.6988.365-2.9927-1.1479-3.4048-.85-.2331-.3887-3.4859-2.77-4.3424-1.5369-.5546-1.97.8822-3.0287.5014a2.1927,2.1927,0,0,1-.7784-.52,2.4383,2.4383,0,0,1-.2783-.3127c-1.2488-1.6918-.1647-4.8013-3.16-4.4644-.224.0241-1.3091-1.6192-1.833-1.1666-.4716.4112-.1918.9815-.4047,1.4894a1.0961,1.0961,0,0,0-.5754.1254c-.5317.2475-.8731-.4474-1.3811.0306s.33,2.3486.2381,2.6069c-1.34,3.7365,1.7479,3.2017,2.3353,5.7743.03.134.0522.2554.0729.3719a3.36,3.36,0,0,1,.04.8495c-.1328,1.3051-1.2713,1.3907-1.3839,3.3895-.1778,3.1674,2.3613,3.7123,2.2474,4.816-.211,1.9688,1.9218,1.1189,2.1041,2.5378.1212.97-1.294,2.2917-.9083,3.1852.38.8742,2.0451,1.6208,2.46,2.4951.6075,1.2771-2.4061,2.024-1.0893,3.15C217.5789,282.5726,216.378,284.5342,217.0212,285.2228Z"/><path class="cls-15" d="M220.0179,276.2279c.989-.5343,4.3913.6408,6.0122,3.81-.6343-5.9672-8.0048-12.8081-8.5837-14.8171,3.7729-.1711,13.3761,15.012,16.6207,24.2288-1.293-4.4871.25-4.6653-2.5988-9.0188,1.4842-.0746,7.45,6.902,6.6717,12.4-1.757,3.2453-5.6229,4.7081-8.2128,3.93-4.7345-3.6573-3.06-9.3215-4.8423-14C223.1263,277.6179,220.7369,277.6316,220.0179,276.2279Z"/><path class="cls-16" d="M220.7922,310.6431a29.4926,29.4926,0,0,1-2.1094,6.6346c-.6026,1.2622-2.0289,3.7637-3.62,3.1426-2.1077-.8229-1.7831-3.3812-1.7831-3.3812l-.0014-.001c.0522-.2393.1042-.48.1516-.7228,2.2863-11.7364-2.2586-23.6095-10.4008-28.7l-.0072-.0079c-1.4388-.9966-6.2523-3.3605-5.5684-5.5888.6576-2.1432,3.3485-2.5714,3.5523-2.6005a15.4177,15.4177,0,0,1,5.5588.7342C217.0461,283.5241,223.4156,297.1748,220.7922,310.6431Z"/><path class="cls-17" d="M217.43,313.2329a29.3468,29.3468,0,0,1-2.37,7.1866c-2.1053-.8235-1.7811-3.38-1.7811-3.38l-.0014-.001c.0522-.2393.1042-.48.1516-.7228.0768-.3963.1449-.7918.2067-1.1881.0207-.1305.0367-.26.0551-.3905.0383-.2666.0752-.5329.1061-.7991.0182-.1538.0332-.3072.0489-.46.0252-.244.0485-.4872.0677-.7305.0132-.1606.0241-.321.0344-.4814q.0233-.3564.0381-.7123c.0066-.16.0133-.32.0176-.4795.0068-.2411.0092-.4818.0109-.7223,0-.1521.0022-.305.0007-.4573-.0021-.2625-.01-.5251-.0192-.7869-.0044-.1269-.0056-.2541-.0115-.3808q-.0262-.5733-.0722-1.1418c-.007-.0881-.0176-.175-.0259-.2627-.0265-.2937-.0553-.5875-.09-.8793-.0176-.1506-.0391-.3-.0594-.45-.03-.227-.0607-.454-.0956-.6792-.0257-.1652-.0541-.3285-.0824-.4927-.0358-.2084-.0726-.4165-.1125-.6238q-.0489-.254-.1021-.5053c-.042-.2-.0861-.3989-.1318-.5976-.0391-.1689-.0781-.3378-.12-.5061-.0488-.1955-.1007-.39-.1527-.5834-.0454-.1669-.0888-.3327-.1362-.4971-.0572-.1985-.1189-.3949-.18-.5916-.0484-.1553-.0941-.3127-.1453-.4673q-.1618-.4938-.3408-.9789c-.0613-.167-.1284-.3314-.1927-.4965-.0661-.17-.1316-.3409-.2005-.5087-.072-.1754-.1481-.3477-.2236-.52-.0671-.154-.1334-.3083-.2035-.461-.08-.1752-.1629-.3478-.2466-.521-.07-.1449-.14-.2883-.2124-.4314q-.1314-.2619-.2689-.52c-.0718-.1349-.1461-.2692-.22-.4026-.0964-.1734-.1936-.3468-.2932-.5176-.0726-.1236-.147-.2441-.2212-.3661-.1067-.1758-.2129-.3515-.3231-.5236-.0628-.0974-.1278-.1913-.1914-.2878q-.6368-.9624-1.3494-1.8424c-.0694-.0854-.1366-.1719-.2062-.2552-.1354-.1621-.2748-.3207-.4141-.4778-.0807-.0918-.1606-.1834-.2423-.2725-.1394-.1526-.2813-.3022-.4238-.45-.0858-.0879-.1711-.1759-.2577-.2623-.1456-.1448-.2924-.2879-.4412-.4278-.0865-.0816-.1744-.1616-.2624-.2412-.1536-.14-.3079-.2791-.4657-.4137-.0809-.069-.1632-.1344-.2451-.2022-.169-.1394-.3375-.2791-.51-.4119-.04-.0314-.0816-.06-.1217-.0906-.4458-.3378-.9025-.6565-1.3726-.95l-.0005,0-.0072-.0079c-1.4383-.996-6.2479-3.3585-5.5694-5.5856a15.387,15.387,0,0,1,5.75.7207C213.6843,286.1138,220.0541,299.7649,217.43,313.2329Z"/><path class="cls-7" d="M199.4835,279.8871l-2.8283,1.1693-.275,1.6134,2.3586,2.0236,1.4685-2.6025Z"/><path class="cls-16" d="M224.2,312.3512a23.9366,23.9366,0,0,1-4.7,5.0822c-1.09.8344-3.4778,2.3356-4.7822.6833a4.1024,4.1024,0,0,1-.3918-4.47l-.0009-.0019c.1462-.1989.2926-.3993.4357-.6051,6.9049-9.9409,7.2028-24.5082,1.2909-34.8278l-.0039-.0123c-1.006-1.9182-4.7581-7.3894-3.2036-9.1124,1.4951-1.6575,4.29-.3052,4.5-.1994a22.0015,22.0015,0,0,1,5.1281,4.3721C231.35,283.4422,232.1235,300.9432,224.2,312.3512Z"/><path class="cls-17" d="M219.89,312.6653a23.727,23.727,0,0,1-5.1738,5.4493,4.1026,4.1026,0,0,1-.39-4.4679l-.0009-.0019c.1462-.1989.2926-.3993.4357-.6051.2328-.336.4568-.6768.6749-1.0226.0722-.1137.1393-.2294.2093-.3446.1435-.2348.2856-.47.4218-.7094.0789-.138.1547-.2778.2311-.4168.1217-.2214.2413-.4432.357-.6678.0769-.1479.1513-.2972.2253-.4468q.1647-.3324.3209-.67c.07-.1515.1405-.3032.2083-.456.1026-.2306.2008-.4637.2983-.6971.061-.1482.1237-.296.1829-.4455.1024-.2574.1994-.5185.2947-.78.0463-.1266.0958-.2514.1405-.3789.1351-.3843.2638-.77.3844-1.1609.0283-.0905.0525-.1823.0794-.2732.0912-.3038.18-.6093.2627-.9165.0429-.1585.0812-.3178.1213-.4778.061-.2412.1217-.4826.1774-.7252.0407-.178.0781-.3559.1159-.5346.0481-.2268.0951-.454.1388-.6823q.0536-.28.1018-.56.0582-.3342.1095-.6695c.0292-.19.0584-.3807.0845-.5725.03-.2226.0571-.4461.0835-.6693.0223-.1925.046-.3828.0652-.5743.0234-.2312.0415-.4633.06-.6953.0147-.1832.0329-.3668.0445-.5512q.0388-.588.0576-1.1788c.0068-.2031.0068-.4076.01-.6109.0034-.21.0075-.4189.0072-.6278,0-.2185-.006-.4366-.0108-.6546-.004-.1943-.0073-.3884-.0148-.5834-.0083-.2235-.02-.4463-.0329-.67-.01-.1872-.0216-.3731-.0352-.56q-.024-.342-.0553-.6836c-.0162-.1789-.0352-.3587-.054-.5373-.0249-.2326-.0507-.4656-.08-.6976-.0216-.1683-.0462-.3347-.07-.5025-.034-.2417-.0676-.4827-.1065-.7232-.0224-.1362-.0484-.2706-.072-.4064q-.2376-1.3575-.5819-2.6842c-.0336-.129-.0647-.2575-.0993-.3845-.0675-.2471-.14-.4935-.2136-.7383-.0421-.1426-.0834-.2845-.1276-.4251-.0752-.24-.154-.48-.2342-.7171-.0487-.1421-.0969-.284-.1469-.4253q-.1264-.3555-.26-.7073c-.0518-.1365-.1057-.2723-.16-.4078-.0941-.2374-.189-.4746-.2893-.71-.0514-.1206-.1056-.2384-.1584-.3584-.1094-.2471-.218-.4942-.3332-.7372-.0269-.057-.0556-.112-.0826-.1683-.3-.6225-.6185-1.2338-.96-1.8294l0-.0009-.0039-.0123c-1.0057-1.9173-4.7547-7.3846-3.2058-9.11a21.8875,21.8875,0,0,1,5.32,4.485C227.04,283.7564,227.8138,301.2579,219.89,312.6653Z"/><path class="cls-7" d="M215.6732,268.344l-3.2239-.72-.9108,1.3925,1.4938,3.5247,2.4688-1.572Z"/><path class="cls-16" d="M224.74,319.9142a17.492,17.492,0,0,1-6.0088,1.639c-1.2678.0762-3.924-.0442-4.469-2.2912a3.6706,3.6706,0,0,1,1.2926-4.18v-.0023c.2019-.087.4045-.1751.6062-.27,9.7347-4.5909,15.3367-17.2612,13.9038-29.9423a.0823.0823,0,0,1,.0011-.0133c-.1845-2.3009-1.4891-9.398.5138-9.9772,1.9263-.5574,3.896,2.3267,4.0427,2.5473a30.86,30.86,0,0,1,2.9214,6.96C241.6431,298.7391,235.9108,314.6456,224.74,319.9142Z"/><path class="cls-17" d="M220.8227,317.5831a17.4351,17.4351,0,0,1-6.5615,1.6761,3.67,3.67,0,0,1,1.2934-4.1775v-.0023c.2019-.087.4045-.1751.6062-.27.3285-.1556.651-.3207.97-.4937.1054-.0566.207-.1181.311-.1773.2127-.12.4242-.242.6321-.3707.12-.0739.2383-.1513.3566-.2277.1885-.1217.3753-.245.56-.3731.122-.084.2424-.1706.3626-.2578q.267-.1935.5284-.3965c.1174-.0912.2351-.1825.3509-.2762.175-.1413.3471-.2875.5187-.4345.108-.0937.2175-.1862.3246-.2823.1847-.1651.366-.3367.5458-.51.0873-.0837.1767-.1638.2628-.2492.26-.2572.5151-.52.7647-.7914.0581-.0628.1131-.1291.17-.193.1918-.2129.3823-.4285.5677-.65.0959-.1138.1881-.2312.2821-.348.1422-.1759.2842-.3521.4223-.5325.1011-.1323.1993-.2666.2982-.4014.1256-.171.25-.3429.3725-.5179q.15-.2145.295-.4323c.1159-.1731.2294-.3478.342-.5243.0955-.15.191-.3.2844-.4539.1083-.1781.2138-.359.319-.54.09-.1563.1808-.31.268-.4672.1053-.19.2063-.3836.3079-.5768.08-.1528.1634-.3038.2413-.4594q.25-.4953.4829-1.0051c.08-.175.1553-.3554.2326-.5328.08-.1829.16-.3651.2364-.55.08-.1929.1548-.3887.23-.584.0677-.1738.1359-.347.2008-.5236.0746-.2021.1457-.4059.2167-.6111.0594-.1714.1177-.3422.1742-.5156q.1044-.3162.2019-.6365c.0512-.1676.1-.3377.1492-.5066.0633-.22.126-.4415.1854-.6637.0427-.1615.082-.3232.1226-.4856.0585-.2338.1173-.4667.171-.7024.03-.1337.0565-.268.0855-.4021q.288-1.3412.47-2.72c.0176-.1341.0372-.2664.0532-.3993.0311-.2589.0572-.52.0823-.7806.0151-.1512.0306-.3014.0432-.4522.0218-.2576.04-.5163.0562-.7743.0092-.1548.0187-.3092.0264-.464.0124-.26.023-.52.03-.7813.0043-.1517.0066-.3041.0085-.4564.004-.2664.0072-.5331.0049-.8011-.0011-.1375-.0057-.2742-.0084-.4121-.0059-.2841-.0111-.5678-.0237-.8519-.0028-.0666-.0081-.1325-.0112-.1985-.0366-.7308-.0934-1.4627-.1763-2.1947v-.0009a.0823.0823,0,0,1,.0011-.0133c-.1845-2.3-1.4878-9.3917.511-9.9765a30.7387,30.7387,0,0,1,3.0494,7.1761C237.726,296.408,231.9936,312.3151,220.8227,317.5831Z"/><path class="cls-7" d="M233.3473,275.9329l-2.58-2.5862-1.3139.6771q.0131,2.0067.026,4.0134l2.7539.1072Z"/><path class="cls-17" d="M219.4375,321.4783a9.0285,9.0285,0,0,0-1.1786-2.8794.1283.1283,0,0,0-.0191-.028,4.2018,4.2018,0,0,0-2.7687-2.0445,3.2859,3.2859,0,0,0-2.1925.5112c-.1957.5687-.49,1.4323-.8268,2.5-.48,1.5134-.5436,1.8338-.7231,2.2769a5.9066,5.9066,0,0,1-2.6331,2.9l.5035,1.0441c.1551.32.3078.6408.4629.96a24.5412,24.5412,0,0,0,2.5843-1.9939,9.9049,9.9049,0,0,1,1.8114-1.5231,11.776,11.776,0,0,1,2.5775-.8234A19.4049,19.4049,0,0,0,219.4375,321.4783Z"/><path class="cls-16" d="M219.4375,321.4783a9.0285,9.0285,0,0,0-1.1786-2.8794.1283.1283,0,0,0-.0191-.028,8.9075,8.9075,0,0,0-4.6452,2.7788c-.7259.8272-.98,1.4131-1.8576,2.428a13.0038,13.0038,0,0,1-2.1379,1.9816c.1551.32.3078.6408.4629.96a24.5412,24.5412,0,0,0,2.5843-1.9939,9.9049,9.9049,0,0,1,1.8114-1.5231,11.776,11.776,0,0,1,2.5775-.8234A19.4049,19.4049,0,0,0,219.4375,321.4783Z"/><path class="cls-7" d="M208.6764,324.0765a2.5779,2.5779,0,0,1,1.2395-.5029,2.29,2.29,0,0,1,.6382.02l-.1873,1.4288.7691.9344a3.3053,3.3053,0,0,1-.4707.6933,2.5684,2.5684,0,0,1-.9242.6716,4.0929,4.0929,0,0,1-.736-1.23A5.14,5.14,0,0,1,208.6764,324.0765Z"/><path class="cls-16" d="M216.7,319.6634a29.4977,29.4977,0,0,1-2.1094,6.6346c-.6027,1.2621-2.0289,3.7637-3.62,3.1426-2.1077-.8229-1.7832-3.3812-1.7832-3.3812l-.0013-.001c.0522-.2393.1041-.48.1516-.7228,2.2862-11.7364-2.2586-23.61-10.4009-28.7l-.0072-.0079c-1.4387-.9966-6.2522-3.3605-5.5683-5.5888.6576-2.1432,3.3485-2.5715,3.5523-2.6005a15.4193,15.4193,0,0,1,5.5587.7341C212.9533,292.5444,219.3229,306.1951,216.7,319.6634Z"/><path class="cls-17" d="M213.3377,322.2532a29.3427,29.3427,0,0,1-2.37,7.1866c-2.1052-.8235-1.7811-3.38-1.7811-3.38l-.0013-.001c.0522-.2393.1041-.48.1516-.7228q.1151-.5944.2067-1.1881c.0206-.13.0366-.26.0551-.39.0382-.2667.0752-.5329.106-.7991.0182-.1538.0332-.3073.049-.46.0251-.244.0484-.4872.0677-.7305.0132-.1606.024-.321.0344-.4814q.0232-.3565.038-.7124c.0067-.16.0134-.32.0177-.4794.0068-.2411.0092-.4818.0109-.7223,0-.1522.0022-.305.0007-.4573-.0022-.2625-.01-.5251-.0193-.787-.0043-.1268-.0055-.254-.0114-.3807-.0176-.3823-.0409-.7624-.0722-1.1418-.007-.0881-.0177-.1751-.0259-.2627-.0265-.2937-.0553-.5875-.09-.8793-.0176-.1507-.0391-.2995-.0594-.45-.03-.227-.0606-.454-.0956-.6792-.0257-.1652-.054-.3285-.0823-.4927-.0358-.2085-.0727-.4165-.1126-.6238q-.0487-.254-.102-.5053c-.042-.2-.0861-.3989-.1319-.5976-.039-.1689-.078-.3378-.12-.5062-.0488-.1954-.1006-.3895-.1527-.5834-.0453-.1668-.0888-.3326-.1362-.497-.0572-.1985-.1188-.3949-.18-.5916-.0484-.1553-.0941-.3127-.1453-.4673q-.162-.4938-.3409-.979c-.0612-.1669-.1284-.3313-.1926-.4964-.0662-.17-.1316-.3409-.2005-.5087-.0721-.1754-.1482-.3477-.2237-.52-.067-.154-.1334-.3083-.2035-.461-.08-.1752-.1628-.3479-.2465-.521-.07-.1449-.14-.2883-.2124-.4314q-.1316-.2619-.2689-.52c-.0719-.1349-.1461-.2692-.22-.4026-.0964-.1735-.1937-.3469-.2932-.5176-.0726-.1236-.1471-.2441-.2212-.3661-.1068-.1758-.2129-.3515-.3232-.5236-.0627-.0975-.1278-.1913-.1914-.2878q-.6368-.9624-1.3493-1.8424c-.0694-.0855-.1367-.1719-.2062-.2552-.1354-.1621-.2748-.3207-.4142-.4778-.0807-.0918-.16-.1835-.2422-.2726-.1395-.1525-.2814-.3021-.4238-.4494-.0858-.0879-.1712-.1759-.2577-.2623-.1457-.1448-.2924-.2879-.4413-.4278-.0864-.0817-.1744-.1616-.2624-.2412-.1536-.14-.3078-.2791-.4656-.4137-.0809-.0691-.1632-.1344-.2451-.2022-.1691-.1394-.3376-.2791-.51-.412-.04-.0313-.0815-.06-.1217-.0905-.4457-.3378-.9025-.6565-1.3726-.95l0,0-.0072-.0079c-1.4382-.996-6.2479-3.3585-5.5693-5.5856a15.3873,15.3873,0,0,1,5.75.7207C209.5915,295.1341,215.9614,308.7852,213.3377,322.2532Z"/><path class="cls-7" d="M195.3908,288.9074l-2.8284,1.1693-.2749,1.6134,2.3586,2.0236,1.4684-2.6026Z"/><path class="cls-16" d="M220.1073,321.3715a23.9441,23.9441,0,0,1-4.7,5.0822c-1.09.8344-3.4779,2.3356-4.7822.6833a4.1023,4.1023,0,0,1-.3919-4.47l-.0009-.0019c.1463-.199.2927-.3993.4358-.6051,6.9048-9.9409,7.2028-24.5082,1.2908-34.8278l-.0039-.0124c-1.006-1.9181-4.7581-7.3893-3.2035-9.1124,1.495-1.6574,4.29-.3051,4.5-.1993A22,22,0,0,1,218.38,282.28C227.2576,292.4625,228.0308,309.9635,220.1073,321.3715Z"/><path class="cls-17" d="M215.7974,321.6856a23.7273,23.7273,0,0,1-5.1739,5.4493,4.1028,4.1028,0,0,1-.39-4.4679l-.0009-.0019c.1463-.199.2927-.3993.4358-.6051.2327-.336.4567-.6768.6749-1.0226.0721-.1137.1393-.2294.2093-.3446.1435-.2348.2856-.47.4217-.7095.079-.138.1548-.2777.2312-.4167.1217-.2214.2413-.4432.357-.6678.0768-.148.1513-.2972.2253-.4468q.1647-.3324.3209-.67c.07-.1514.14-.3032.2082-.4559.1026-.2306.2009-.4637.2983-.6971.061-.1482.1237-.296.1829-.4456.1025-.2573.2-.5185.2947-.78.0463-.1265.0958-.2513.1405-.3788.1352-.3843.2638-.77.3845-1.1609.0283-.09.0525-.1823.0794-.2732.0911-.3038.18-.6093.2626-.9165.0429-.1585.0812-.3178.1213-.4778.0611-.2412.1217-.4826.1774-.7253.0407-.1779.0781-.3558.116-.5345.0481-.2269.0951-.454.1387-.6824q.0536-.28.1018-.56c.0388-.2229.075-.4456.1095-.67.0292-.19.0584-.3807.0846-.5725.03-.2227.057-.4461.0835-.6693.0223-.1925.0459-.3828.0652-.5743.0233-.2312.0414-.4633.06-.6953.0147-.1832.0328-.3668.0445-.5512q.0387-.5882.0576-1.1788c.0067-.2031.0068-.4076.01-.6109.0034-.21.0075-.4189.0071-.6279,0-.2184-.0059-.4365-.0108-.6545-.004-.1943-.0073-.3884-.0148-.5835-.0082-.2234-.02-.4462-.0328-.67-.01-.1872-.0216-.3731-.0353-.56q-.0239-.342-.0552-.6837c-.0163-.1788-.0352-.3586-.054-.5372-.025-.2326-.0507-.4656-.08-.6976-.0216-.1683-.0462-.3348-.07-.5025-.0341-.2417-.0676-.4828-.1065-.7232-.0224-.1362-.0485-.2706-.072-.4065q-.2376-1.3573-.5819-2.6841c-.0336-.129-.0648-.2575-.0994-.3845-.0675-.2472-.14-.4935-.2135-.7384-.0422-.1425-.0835-.2844-.1277-.425-.0752-.2405-.154-.48-.2342-.7171-.0486-.1421-.0968-.2841-.1468-.4253-.0844-.237-.17-.473-.26-.7074-.0519-.1364-.1057-.2722-.16-.4077-.094-.2375-.189-.4746-.2892-.71-.0514-.1206-.1056-.2384-.1585-.3585-.1093-.2471-.2179-.4941-.3332-.7371-.0268-.057-.0556-.112-.0826-.1684-.3-.6225-.6185-1.2337-.96-1.8293l0-.0009-.0039-.0124c-1.0057-1.9172-4.7546-7.3846-3.2057-9.11a21.8921,21.8921,0,0,1,5.32,4.4851C222.9477,292.7767,223.7211,310.2782,215.7974,321.6856Z"/><path class="cls-7" d="M211.58,277.3643l-3.2238-.72-.9109,1.3925,1.4939,3.5247q1.2343-.786,2.4687-1.572Z"/><path class="cls-16" d="M220.647,328.9345a17.492,17.492,0,0,1-6.0087,1.639c-1.2678.0761-3.9241-.0442-4.4691-2.2912a3.6707,3.6707,0,0,1,1.2927-4.18V324.1c.2019-.087.4045-.1751.6061-.27,9.7347-4.5909,15.3368-17.2612,13.9038-29.9424a.0927.0927,0,0,1,.0011-.0132c-.1844-2.3009-1.489-9.398.5139-9.9773,1.9263-.5573,3.8959,2.3268,4.0427,2.5474a30.86,30.86,0,0,1,2.9213,6.96C237.55,307.7594,231.8181,323.6659,220.647,328.9345Z"/><path class="cls-17" d="M216.73,326.6034a17.4346,17.4346,0,0,1-6.5614,1.6761,3.6705,3.6705,0,0,1,1.2934-4.1776V324.1c.2019-.087.4045-.1751.6061-.27.3285-.1556.651-.3207.97-.4937.1053-.0567.207-.1181.3109-.1774.2127-.12.4243-.2419.6321-.3706.12-.0739.2384-.1513.3567-.2277.1885-.1217.3753-.245.56-.3731.122-.084.2424-.1706.3625-.2578q.2672-.1935.5285-.3965c.1174-.0912.2351-.1825.3508-.2762.1751-.1413.3472-.2876.5187-.4345.1081-.0938.2176-.1862.3246-.2823.1847-.1651.366-.3367.5459-.51.0872-.0836.1766-.1637.2628-.2491.26-.2572.515-.52.7646-.7914.0581-.0628.1132-.1291.17-.193.1917-.2129.3822-.4285.5676-.65.0959-.1138.1881-.2312.2821-.3481.1423-.1758.2843-.3521.4223-.5324.1011-.1323.1994-.2666.2982-.4014.1256-.171.25-.3429.3726-.5179q.15-.2145.2949-.4323.1739-.26.342-.5243c.0955-.15.1911-.3.2845-.4539.1083-.1781.2138-.359.3189-.54.09-.1564.1809-.31.2681-.4672.1053-.19.2063-.3836.3079-.5769.08-.1527.1634-.3037.2412-.4593q.25-.4953.4829-1.0051c.08-.175.1554-.3554.2326-.5328.08-.1829.16-.3651.2365-.55.08-.1929.1547-.3887.23-.584.0676-.1738.1359-.347.2007-.5236.0747-.2021.1458-.4059.2167-.6111.06-.1714.1177-.3422.1743-.5157q.1043-.3161.2018-.6365c.0512-.1676.1-.3376.1493-.5066.0632-.22.1259-.4414.1854-.6636.0426-.1615.0819-.3232.1225-.4856.0585-.2338.1173-.4668.1711-.7024.03-.1337.0564-.268.0855-.4021q.2879-1.3411.47-2.72c.0177-.1341.0373-.2664.0533-.3993.0311-.2589.0572-.52.0823-.7806.015-.1512.0306-.3014.0431-.4522.0218-.2577.04-.5164.0563-.7743.0091-.1548.0186-.3092.0263-.4641.0125-.26.0231-.52.03-.7812.0043-.1517.0065-.3042.0084-.4564.0041-.2664.0073-.5331.005-.8011-.0012-.1375-.0058-.2743-.0084-.4121-.0059-.2842-.0112-.5679-.0238-.8519-.0028-.0666-.008-.1325-.0111-.1985-.0366-.7308-.0934-1.4627-.1764-2.1947v-.001a.0927.0927,0,0,1,.0011-.0132c-.1845-2.3-1.4877-9.3917.511-9.9765a30.7327,30.7327,0,0,1,3.0494,7.1761C233.6333,305.4283,227.9009,321.3354,216.73,326.6034Z"/><path class="cls-7" d="M229.2545,284.9532l-2.58-2.5863-1.3139.6772q.0129,2.0067.0259,4.0133l2.754.1073Z"/><path class="cls-17" d="M215.3447,330.4986a9.0253,9.0253,0,0,0-1.1786-2.8794.1274.1274,0,0,0-.019-.0281,4.2026,4.2026,0,0,0-2.7688-2.0445,3.2861,3.2861,0,0,0-2.1924.5113c-.1958.5686-.49,1.4323-.8268,2.5-.48,1.5134-.5436,1.8337-.7232,2.2769a5.9061,5.9061,0,0,1-2.6331,2.9005l.5035,1.0441c.1552.32.3078.6408.4629.96a24.5321,24.5321,0,0,0,2.5844-1.9938,9.9085,9.9085,0,0,1,1.8113-1.5231,11.77,11.77,0,0,1,2.5776-.8234A19.4106,19.4106,0,0,0,215.3447,330.4986Z"/><path class="cls-16" d="M215.3447,330.4986a9.0253,9.0253,0,0,0-1.1786-2.8794.1274.1274,0,0,0-.019-.0281,8.9087,8.9087,0,0,0-4.6453,2.7788c-.7258.8273-.9794,1.4132-1.8576,2.4281a13,13,0,0,1-2.1379,1.9816c.1552.32.3078.6408.4629.96a24.5321,24.5321,0,0,0,2.5844-1.9938,9.9085,9.9085,0,0,1,1.8113-1.5231,11.77,11.77,0,0,1,2.5776-.8234A19.4106,19.4106,0,0,0,215.3447,330.4986Z"/><path class="cls-7" d="M204.5836,333.0968a2.5773,2.5773,0,0,1,1.24-.5029,2.29,2.29,0,0,1,.6382.02l-.1873,1.4288.769.9344a3.3031,3.3031,0,0,1-.4706.6933,2.5705,2.5705,0,0,1-.9242.6716,4.0941,4.0941,0,0,1-.7361-1.23A5.1414,5.1414,0,0,1,204.5836,333.0968Z"/><path class="cls-5" d="M249.9371,280.5286c.0127.1483.03.2916.0515.4353.0378.3032.0846.5965.1487.8859,1.0963,5.4545,5.5628,9.0745,9.6075,9.3144a8.3174,8.3174,0,0,0,3.0218-.4125,10.8922,10.8922,0,0,0,4.1372-2.4923,12.0232,12.0232,0,0,0,3.71-8.1617,12.3358,12.3358,0,0,0-.0243-1.5771,11.9453,11.9453,0,0,1-2.2827,2.9888,10.8924,10.8924,0,0,1-4.1372,2.4924,8.317,8.317,0,0,1-3.0218.4124c-4.0447-.24-8.5112-3.86-9.6075-9.3143-.0641-.2895-.1109-.5827-.1487-.886-.0215-.1437-.0388-.287-.0515-.4353-.0323-.3246-.0517-.6533-.0578-.9918A14.8818,14.8818,0,0,0,249.9371,280.5286Z"/><path class="cls-18" d="M251.2827,272.7868c.0061.3385.0255.6672.0578.9918.0127.1483.03.2916.0515.4353.0378.3033.0846.5965.1487.886,1.0963,5.4544,5.5628,9.0745,9.6075,9.3143a8.317,8.317,0,0,0,3.0218-.4124,10.8924,10.8924,0,0,0,4.1372-2.4924,11.9453,11.9453,0,0,0,2.2827-2.9888c-.0171-.2958-.0506-.5987-.0888-.8966-.6361-4.6755-3.54-9.08-6.84-9.5a4.3291,4.3291,0,0,0-1.9285.205,5.7556,5.7556,0,0,0-1.2638.5946.9436.9436,0,0,1-.8364.09,6.99,6.99,0,0,0-1.37-.3582,5.9484,5.9484,0,0,0-4.4839,1.0647A8.2207,8.2207,0,0,0,251.2827,272.7868Z"/><path class="cls-10" d="M263.6675,266.0237a4.6716,4.6716,0,0,0-1.59,1.627,5.876,5.876,0,0,0-.3434.6777,5.8582,5.8582,0,0,0-1.2661.5969.9337.9337,0,0,1-.8349.087,7.4371,7.4371,0,0,0-1.3711-.359,5.8647,5.8647,0,0,0-.905-1.04,4.6947,4.6947,0,0,0-2.7831-1.27,3.3034,3.3034,0,0,1,3.5465.1216,4.41,4.41,0,0,1,1.33,1.7554,8.286,8.286,0,0,0,.1438-1.7629,7.8676,7.8676,0,0,0-.2214-1.6878,5.1757,5.1757,0,0,1,.8722,1.3582,6.1929,6.1929,0,0,1,.4809,1.8107,3.4693,3.4693,0,0,1,.76-1.241A2.38,2.38,0,0,1,263.6675,266.0237Z"/><path class="cls-5" d="M275.9292,293.1337a.993.993,0,0,1-.068.0874L269.7351,301.1c-.01,0-.01.0067-.0157.0134l-3.0918,3.9729c-.0052.04-.0157.0806-.0209.121-.0262.0067-.0576.0067-.0837.0134-.2668.04-.5336.06-.7952.0739a8.4426,8.4426,0,0,1-3.0866-.4974,11.3627,11.3627,0,0,1-7.01-7.8449c-.0052-.0067-.0052-.0067-.0052-.0134-.0053-.0134-.0053-.02-.0105-.0336a7.8536,7.8536,0,0,1-.1988-.8672c-.0314-.1411-.0575-.2823-.0785-.43a15.5223,15.5223,0,0,1,.3558-6.2517,12.5531,12.5531,0,0,1,.5441-1.5931c.0261.3361.0627.6587.115.9814.021.1479.0471.2891.0785.43a1.002,1.002,0,0,0,.0262.121,5.82,5.82,0,0,0,.1726.7462,11.9925,11.9925,0,0,0,1.8467,3.9392,9.2112,9.2112,0,0,0,.5964.7462c.1308.1613.2668.3092.4029.4571a11.0245,11.0245,0,0,0,3.0237,2.252,8.9756,8.9756,0,0,0,3.9708,1.0016c.0889,0,.183-.0068.272-.0068a8.5424,8.5424,0,0,0,2.9872-.6991,11.5054,11.5054,0,0,0,3.9864-2.8771,12.4817,12.4817,0,0,0,2.103-3.1931A11.6135,11.6135,0,0,1,275.9292,293.1337Z"/><path class="cls-18" d="M256.24,287.76c.0253.3369.0634.663.1142.9836.0211.1467.0465.288.0761.4293.055.2989.1184.587.1988.87,1.4041,5.3367,6.0649,8.5268,10.1124,8.3855a8.4793,8.4793,0,0,0,2.99-.6956,11.4533,11.4533,0,0,0,3.9841-2.8749,12.5873,12.5873,0,0,0,2.1063-3.1955c-.0339-.2935-.0846-.5924-.14-.8859-.9009-4.6031-4.0476-8.7224-7.3634-8.8311a4.4006,4.4006,0,0,0-1.9117.3858,6.021,6.021,0,0,0-1.2265.712.9583.9583,0,0,1-.829.1684,6.8361,6.8361,0,0,0-1.3872-.2282,6.1085,6.1085,0,0,0-4.4112,1.4836A8.6648,8.6648,0,0,0,256.24,287.76Z"/><path class="cls-10" d="M268.2059,279.8493a4.9351,4.9351,0,0,0-1.493,1.7722,6.1593,6.1593,0,0,0-.3038.7083,6.13,6.13,0,0,0-1.2287.7143.9477.9477,0,0,1-.8277.1654,7.2668,7.2668,0,0,0-1.3879-.2291,5.5525,5.5525,0,0,0-.9618-.9522,4.5316,4.5316,0,0,0-2.848-1.0051,3.324,3.324,0,0,1,3.544-.2124,4.1831,4.1831,0,0,1,1.4264,1.6256,8.35,8.35,0,0,0,.043-1.7718,7.7353,7.7353,0,0,0-.3171-1.6624,4.9121,4.9121,0,0,1,.9473,1.2725,6.0143,6.0143,0,0,1,.5828,1.7606,3.6352,3.6352,0,0,1,.6868-1.3091A2.4489,2.4489,0,0,1,268.2059,279.8493Z"/><path class="cls-18" d="M236.8646,286.3717a15.5107,15.5107,0,0,0,.9072,3.9279c2.9091.3718,6.0505.9091,9.3489,1.6644.3948.0915.79.1883,1.19.2844.0353.01.0748.0191.11.029q1.47.3615,2.9143.7607.7351.2094,1.4576.4214c.2311-.2625.4485-.5335.66-.82a16.093,16.093,0,0,0,2.7875-10.56,14.159,14.159,0,0,0-.2743-1.8325,12.7161,12.7161,0,0,0-1.338-3.5789c-2.5778-4.5734-7.3206-5.7855-11.08-4.1382-3.2168,1.415-5.8014,4.9585-6.551,9.43-.0493.2837-.09.5658-.1216.8572A16.6125,16.6125,0,0,0,236.8646,286.3717Z"/><path class="cls-5" d="M236.8647,286.3717a15.5063,15.5063,0,0,0,.9071,3.9279,12.8239,12.8239,0,0,0,3.9517,3.6417c5.0931,2.8962,10.0639.1132,11.0691-.4818a13.96,13.96,0,0,0,2.6542-4.7731,17.2484,17.2484,0,0,0,.7933-6.6068c-1.3975,1.9317-4.2291,5.2433-8.254,6.2152a9.1959,9.1959,0,0,1-2.9341.2423,8.4,8.4,0,0,1-6.4476-3.4161,11.3822,11.3822,0,0,1-1.6073-3.1611c-.0493.2837-.09.5658-.1216.8572A16.606,16.606,0,0,0,236.8647,286.3717Z"/><path class="cls-10" d="M248.051,279.51a2.9938,2.9938,0,0,0-1.8376-.39,3.1186,3.1186,0,0,0-1.3834.5377,7.2729,7.2729,0,0,0,.3442,1.1167,6.4174,6.4174,0,0,0,.7181,1.3285,2.17,2.17,0,0,1-2.0647-.8537,3.1451,3.1451,0,0,1-.5281-1.1951,1.9691,1.9691,0,0,0-1.1876.3328,3.5156,3.5156,0,0,0-1.2834,2.2057,4.1275,4.1275,0,0,1,.181-2.2823,2.6868,2.6868,0,0,1,1.9944-1.7192,2.1219,2.1219,0,0,0-.9376-.5569,2.0253,2.0253,0,0,0-1.7448.4362c.055-.0925,1.0576-1.7212,2.5458-1.4843a2.5353,2.5353,0,0,1,1.5075.9571,2.4384,2.4384,0,0,1,.6844-1.3075,1.5471,1.5471,0,0,1,1.7267-.208,4.7218,4.7218,0,0,0-.8748.7807,5.5159,5.5159,0,0,0-.532.7171,2.2667,2.2667,0,0,1,1.4762.2883A3.2089,3.2089,0,0,1,248.051,279.51Z"/><path class="cls-18" d="M266.8055,303.8221c-.0419.4235-.0994.847-.1779,1.2638-.0052.04-.0157.0806-.0209.121-.0262.0067-.0576.0067-.0837.0134l-1.3916,1.7881c-.0052.0067-.01.0067-.01.0135v.8335c-2.689.363-5.5663.8739-8.5744,1.56-.3924.0941-.79.1882-1.1875.2823-.0524.0135-.089.0269-.11.0336-.1046.0269-.2616.0673-.4656.121-.8266.2017-1.6427.41-2.4484.6386q-.7375.2118-1.46.4235c-.1308-.1546-.2773-.3294-.4395-.5377-.0732-.0874-.1465-.1883-.22-.2824-.04-.0551-.0744-.1174-.114-.1734q-.219-.3117-.45-.6846c-.0963-.1565-.1889-.3164-.28-.479-.1615-.2866-.3227-.5883-.48-.9217a.5466.5466,0,0,0-.0366-.0806c-.0523-.1143-.1046-.2286-.1517-.35-.11-.2487-.2093-.5041-.3087-.773-.01-.0269-.0209-.0471-.0261-.0672-.0523-.1412-.0994-.2824-.1465-.4235-.0419-.1278-.0837-.2555-.12-.3832-.0837-.2689-.1517-.5311-.22-.7865-.0808-.325-.1458-.6408-.2038-.9515a16.3652,16.3652,0,0,1-.2958-3.2268c0-.3446.01-.6563.0236-.9239.0052-.121.0157-.2353.0209-.3361a14.4257,14.4257,0,0,1,.2721-1.8352,12.8518,12.8518,0,0,1,1.3392-3.5762,9.0186,9.0186,0,0,1,6.6545-4.7661,5.7764,5.7764,0,0,1,.7638-.06,8.1773,8.1773,0,0,1,3.662.6857c2.982,1.3108,5.4146,4.45,6.3511,8.4566.0784.3159.1412.6453.1988.9747.0523.2823.0941.5646.1255.8537A17.1857,17.1857,0,0,1,266.8055,303.8221Z"/><path class="cls-5" d="M266.8055,303.8221c-.0419.4235-.0994.847-.1779,1.2638-.0052.04-.0157.0806-.0209.121-.0262.0067-.0576.0067-.0837.0134l-1.3916,1.7881c-.0052.0067-.01.0067-.01.0135v.8335c-2.689.363-5.5663.8739-8.5744,1.56-.3924.0941-.79.1882-1.1875.2823-.0524.0135-.089.0269-.11.0336-.1046.0269-.2616.0673-.4656.121-.8684.2353-2.5164.679-3.9079,1.0621-.1308-.1546-.2773-.3294-.4395-.5377a13.8967,13.8967,0,0,1-1.5433-2.5411.5466.5466,0,0,0-.0366-.0806c-.0523-.1143-.1046-.2286-.1517-.35-.11-.2487-.2093-.5041-.3087-.773-.01-.0269-.0209-.0471-.0261-.0672-.0523-.1412-.0994-.2824-.1465-.4235-.0419-.1278-.0837-.2555-.12-.3832-.0837-.2689-.1517-.5311-.22-.7865a17.5285,17.5285,0,0,1-.476-5.1022c.0052-.121.0157-.2353.0209-.3361,1.3968,1.9293,4.2271,5.2433,8.2553,6.2113a9.1115,9.1115,0,0,0,2.9349.242,8.95,8.95,0,0,0,4.023-1.19,8.3862,8.3862,0,0,0,2.4222-2.225,11.3536,11.3536,0,0,0,1.6061-3.1595c.0523.2823.0941.5646.1255.8537A17.1857,17.1857,0,0,1,266.8055,303.8221Z"/><path class="cls-10" d="M255.6171,296.9618a2.9935,2.9935,0,0,1,1.8376-.39,3.1174,3.1174,0,0,1,1.3834.5377,7.281,7.281,0,0,1-.3443,1.1167,6.4145,6.4145,0,0,1-.718,1.3284,2.17,2.17,0,0,0,2.0647-.8537,3.1454,3.1454,0,0,0,.5281-1.195,1.9677,1.9677,0,0,1,1.1876.3328,3.5158,3.5158,0,0,1,1.2834,2.2057,4.1275,4.1275,0,0,0-.181-2.2823,2.687,2.687,0,0,0-1.9944-1.7193,2.1222,2.1222,0,0,1,.9376-.5568,2.0257,2.0257,0,0,1,1.7448.4361c-.055-.0924-1.0576-1.7212-2.5458-1.4842a2.5359,2.5359,0,0,0-1.5076.957,2.4373,2.4373,0,0,0-.6843-1.3075,1.5472,1.5472,0,0,0-1.7267-.2079,4.7145,4.7145,0,0,1,.8748.7807,5.4985,5.4985,0,0,1,.5319.7171,2.2665,2.2665,0,0,0-1.4761.2883A3.208,3.208,0,0,0,255.6171,296.9618Z"/><path class="cls-5" d="M250.3528,304.5126c-.0212.1467-.0466.288-.0762.4293-.0549.2989-.1184.587-.1987.87-1.4042,5.3367-6.065,8.5268-10.1125,8.3855a8.48,8.48,0,0,1-2.99-.6956,11.4552,11.4552,0,0,1-3.9841-2.8749,12.54,12.54,0,0,1-2.9056-5.5215,12.468,12.468,0,0,1-.2157-4.5379,12.5855,12.5855,0,0,0,2.1063,3.1955,11.4508,11.4508,0,0,0,3.9841,2.8749,8.4817,8.4817,0,0,0,2.99.6957c4.0475.1413,8.7083-3.0489,10.1124-8.3856.08-.2826.1438-.5706.1988-.87.03-.1413.055-.2826.0761-.4293.0508-.3207.0889-.6468.1142-.9837A15.11,15.11,0,0,1,250.3528,304.5126Z"/><path class="cls-18" d="M249.4519,296.6651c-.0253.3369-.0634.663-.1142.9837-.0211.1467-.0465.288-.0761.4293-.055.2989-.1184.5869-.1988.87-1.4041,5.3367-6.0649,8.5269-10.1124,8.3856a8.4817,8.4817,0,0,1-2.99-.6957,11.4508,11.4508,0,0,1-3.9841-2.8749,12.5855,12.5855,0,0,1-2.1063-3.1955c.0339-.2934.0846-.5924.14-.8858.9009-4.6031,4.0475-8.7225,7.3634-8.8312a4.4021,4.4021,0,0,1,1.9117.3859,6.0162,6.0162,0,0,1,1.2265.7119.9582.9582,0,0,0,.829.1685,6.8352,6.8352,0,0,1,1.3872-.2283,6.109,6.109,0,0,1,4.4112,1.4836A8.6648,8.6648,0,0,1,249.4519,296.6651Z"/><path class="cls-10" d="M237.4857,288.7549a4.9366,4.9366,0,0,1,1.493,1.7723,6.1505,6.1505,0,0,1,.3038.7082,6.13,6.13,0,0,1,1.2287.7144.948.948,0,0,0,.8277.1653,7.2654,7.2654,0,0,1,1.3879-.2291,5.5561,5.5561,0,0,1,.9618-.9522,4.5307,4.5307,0,0,1,2.848-1.005,3.3238,3.3238,0,0,0-3.544-.2124,4.1829,4.1829,0,0,0-1.4264,1.6255,8.3489,8.3489,0,0,1-.043-1.7717,7.7364,7.7364,0,0,1,.3171-1.6625,4.9139,4.9139,0,0,0-.9473,1.2725,6.0122,6.0122,0,0,0-.5828,1.7606,3.636,3.636,0,0,0-.6868-1.3091A2.4489,2.4489,0,0,0,237.4857,288.7549Z"/><rect class="cls-19" x="204.8194" y="307.0219" width="60.3034" height="38.1688"/><path class="cls-14" d="M228.1309,322.967s-.4708,1.1159-1.47,3.7913c-.544,1.4655-1.25,3.3948-2.1187,5.8618-2.1554,6.1105-1.5747,6.776-2.9715,8.4364-.5545.6588-2.2338,1.526-5.5872,3.2334-.67.3429-1.2556.6386-1.7683.9008h-9.3957v-3.4485a8.8532,8.8532,0,0,0,3.4.894c.6435-.04.8946-.1344,6.0633-2.1175,3.4528-1.3242,5.19-2.0032,5.7808-2.6015,1.5067-1.4923.9731-2.2183,3.5365-8.0667,1.0306-2.3594,1.8624-4.208,2.5059-5.6,1.1771-2.5545,1.7212-3.6166,1.7212-3.6166.22-.43.4394-.84.6277-1.23.34-.168.6122-.2151.7482-.0538C229.5277,319.7538,228.8528,321.2528,228.1309,322.967Z"/><path class="cls-7" d="M191.9072,455.8312q-11.6059-.02-23.2068-.074c-1.01,0-2.0194-.0067-3.0238-.02-.6853,0-1.3759-.0067-2.0612-.0135-1.0881,0-2.1815-.0134-3.27-.02l-4.3159-.04-23.1859-.1814-11.6087-.0942c.0157-.5579.0262-1.1024.0366-1.6469.1046-5.3375.0052-10.043-.1779-14.0561-.5964-13.37-2.37-25.0672,1.59-39.6074a70.1657,70.1657,0,0,1,3.458-9.7808c.12-.2688.2459-.5377.3714-.8133a49.8358,49.8358,0,0,1,3.2436-5.929c.0209-.0336.0418-.06.0627-.0941,3.615-.363,7.434-.6319,11.4518-.7731,5.4407-.1949,11.2267-.1479,17.3214.2353a179.078,179.078,0,0,1,26.2672,3.6233q1.899,19.5213,3.9132,39.2509,1.4046,13.8042,2.8616,27.5006C191.7241,454.1439,191.8131,454.9909,191.9072,455.8312Z"/><path class="cls-20" d="M174.56,424.7147a12.7274,12.7274,0,0,1-3.8661,4.9409,8.7266,8.7266,0,0,1-2.0873,1.1428q-1.7343,9.0447-3.61,18.2374-.4473,2.1881-.8945,4.356h-.0053c-.1569.78-.3191,1.56-.4813,2.3326-1.0881,0-2.1815-.0135-3.27-.02.1674-.76.33-1.5192.497-2.2856q2.417-11.0412,4.8287-22.0959a5.817,5.817,0,0,1-4.9909-2.2452,9.32,9.32,0,0,1-1.8362-4.2552,19.71,19.71,0,0,0,8.3652,1.5663A20.1827,20.1827,0,0,0,174.56,424.7147Z"/><path class="cls-7" d="M164.5363,167.3494a13.9014,13.9014,0,0,0-2.9546-5.3482c-6.5371-6.9513-18.4894-.0037-19.5992.662-16.8038,10.08-21.6124,40.29-23.19,50.1993-1.9885,12.4928-.1592,12.2406-2.247,20.4237-6.1289,24.0217-21.6707,25.323-24.4317,40.7652C89.005,291.44,103.65,318.1,122.3254,322.0929c21.2128,4.536,36.9293-22.46,41.2628-29.9038,25.3361-43.52,6.9375-104.345,4.6058-111.7331Q166.3652,173.9027,164.5363,167.3494Z"/><path class="cls-20" d="M168.194,180.456q-1.8288-6.5533-3.6577-13.1066a9.5825,9.5825,0,0,1,5.8721-.85c.994.19,5.0776,1.1546,9.5771,8.8012,2.9646,5.038,8.6461,17.2871,8.77,35.9475a96.0956,96.0956,0,0,1-11.8375,46.5142c-11.6206-.8108-16.7956-7.2876-18.3829-9.5428C148.9013,234.5321,151.07,205.3529,168.194,180.456Z"/><path class="cls-21" d="M147.2583,216.0476c.4136,6.7151.8044,12.1056,1.0727,15.6482.7186,9.4886,1.3208,12.79-.3987,15.9328-.7852,1.4348-1.4907,1.8311-6.2245,5.2472-3.4944,2.5217-6.3,4.6078-8.0892,5.9494.709.87,15.5717,18.5337,33.1557,11.7,8.5565-3.3253,13.6772-10.8654,15.8-14.4456-.8157-.7114-2.0673-1.759-3.6515-2.9069-2.6418-1.9142-3.7135-2.2994-5.5068-3.5671-2.1521-1.5213-4.6484-3.2356-6.1129-6.0869-2.4-4.6732-1.4913-10.4567-.975-12.9023Z"/><path class="cls-22" d="M176.4778,231.82c-.2366,1.3552-.7736,3.7017-2.3625,5.01a3.2133,3.2133,0,0,1-1.871.6878,11.5988,11.5988,0,0,1-5.2873-1.0894,30.1925,30.1925,0,0,1-11.1732-8.197,42.1029,42.1029,0,0,1-5.5678-8.209,4.95,4.95,0,0,1-2.6093.6636c-2.6666-.1154-4.3419-2.59-4.679-3.0951-2.054-3.023-3.054-8.6882-.958-10.8839,1.5213-1.5928,4.0058-.629,4.6151-.367a19.1782,19.1782,0,0,0,6.1987-7.8874c2.1672-5.0886.8307-7.7694,3.0614-12.8851,1.9386-4.4433,5.9744-9.3576,9.352-8.222a5.9177,5.9177,0,0,1,2.9945,3.1105,5.0279,5.0279,0,0,1,4.523-.6614c1.597.6726,3.1374,2.5705,4.6435,8.7134.1568.6427.3015,1.2766.4338,1.9094.93,4.4862,1.2636,9.1107,1.2944,16.5225A155.8238,155.8238,0,0,1,176.4778,231.82Z"/><path class="cls-21" d="M176.4778,231.82c-.2366,1.3552-.7736,3.7017-2.3625,5.01a3.2133,3.2133,0,0,1-1.871.6878,7.7767,7.7767,0,0,0,1.8117-4.924c-.0866-2.1624-1.3119-2.2717-2.9605-6.27a24.6118,24.6118,0,0,1-1.91-9.5032c.0057-.6623.0435-1.21.0731-1.5833a5.8931,5.8931,0,0,1-2.5078-1.1333,7.5951,7.5951,0,0,1-1.6938-1.8057,12.1362,12.1362,0,0,0,3.3687.6559c1.5254.0683,4.7017-.0889,4.9221-1.3657.0862-.52-.3456-.9924-.8142-1.6109-1.4585-1.9236-2.0686-3.7826-3.2609-7.4344-.9595-2.9076-1.5005-4.6495-1.0073-6.5841a6.4,6.4,0,0,1,1.6157-2.8311c2.1124-2.2823,5.3715-2.7526,7.9109-2.7108.93,4.4862,1.2636,9.1107,1.2944,16.5225A155.8238,155.8238,0,0,1,176.4778,231.82Z"/><path class="cls-20" d="M153.4612,197.9075a10.8748,10.8748,0,0,1,2.1379-2.0444,8.9533,8.9533,0,0,1,2.5425-1.2321,5.1307,5.1307,0,0,1,2.7563-.1975,4.8018,4.8018,0,0,1,2.4652,1.5535l-.0451.1333c-.919-.0745-1.7418-.2069-2.5667-.2465a15.5211,15.5211,0,0,0-2.4653-.0956,9.3875,9.3875,0,0,0-4.7538,2.2423Z"/><path class="cls-20" d="M168.8412,194.4013a11.7634,11.7634,0,0,1,1.77-2.2591,10.3609,10.3609,0,0,1,2.1993-1.6267,5.5219,5.5219,0,0,1,2.4785-.8557,4.212,4.212,0,0,1,2.51.6851l-.0141.1441c-.8431.2695-1.6161.4167-2.3806.6158-.7557.2035-1.5362.2348-2.2946.5075a8.7846,8.7846,0,0,0-2.1908,1.1393,11.4755,11.4755,0,0,0-1.9957,1.75Z"/><path class="cls-20" d="M162.2223,203.8342c-.0661,1.4321-1.0237,2.5249-2.1382,2.44a2.4556,2.4556,0,0,1-1.9051-2.7481,2.9851,2.9851,0,0,1,.1715-.8892,4.303,4.303,0,0,1,3.5522-.36A3.1207,3.1207,0,0,1,162.2223,203.8342Z"/><path class="cls-20" d="M153.87,204.5117a2.0634,2.0634,0,0,0,2.0894-.2129,18.5645,18.5645,0,0,0,1.7413-1.85,3.2715,3.2715,0,0,1,2.39-1.0916,3.6334,3.6334,0,0,1,2.3148.9913l-.0274.1409c-.8135.1564-1.5452.1769-2.2331.3187a4.7422,4.7422,0,0,0-1.949.6129,15.4141,15.4141,0,0,1-2.006,1.541,2.2709,2.2709,0,0,1-2.3658-.3171Z"/><path class="cls-20" d="M176.5451,201.1954c-.066,1.4322-1.0236,2.525-2.1382,2.44a2.4554,2.4554,0,0,1-1.9051-2.748,2.9851,2.9851,0,0,1,.1715-.8892,4.3026,4.3026,0,0,1,3.5522-.36A3.1205,3.1205,0,0,1,176.5451,201.1954Z"/><path class="cls-20" d="M170.8592,201.7847a4.9237,4.9237,0,0,1,1.5625-2.4493,2.6542,2.6542,0,0,1,1.2284-.5673,3.7705,3.7705,0,0,1,1.297.0453,12.7462,12.7462,0,0,0,2.2559.4081,10.4474,10.4474,0,0,0,2.2817-.0585l.0238.142a9.2489,9.2489,0,0,1-2.2912.6426,12.9285,12.9285,0,0,1-2.3419.0243,4.1682,4.1682,0,0,0-1.9283.65c-.6371.3215-1.26.8041-2.0039,1.26Z"/><path class="cls-3" d="M163.6875,219.4117a10.1177,10.1177,0,0,0,4.105,1.0754,10.7227,10.7227,0,0,0,6.73-2.22c.3075,3.7136-.7911,7.11-2.6036,8.1906C169.4569,227.9257,165.0731,225.4838,163.6875,219.4117Z"/><path class="cls-3" d="M155.381,209.4218l-.4917,1.1831c-1.0934-.7462-2.2129-1.4655-3.3325-2.1377-3.2853-1.9763-4.3-2.1376-4.97-2.1242v-.0067a5.7393,5.7393,0,0,0-3.029-.4638,6.0545,6.0545,0,0,1,3.0186-.8739.1977.1977,0,0,1,.0628-.0068c.8317,0,1.967.2152,5.3622,2.2587C153.1315,207.9362,154.272,208.6622,155.381,209.4218Z"/><path class="cls-3" d="M152.5979,224.3518l-.7324.9613c-.56-.7126-1.1352-1.4117-1.7055-2.0839q-1.1064-1.3008-2.27-2.541a4.3279,4.3279,0,0,0,1.3915-.2487c.5389.5848,1.0673,1.19,1.5852,1.7948C151.447,222.92,152.0329,223.6325,152.5979,224.3518Z"/><path class="cls-3" d="M152.6108,207.6372c3.9387,3.0647,7.0469,3.4962,9.17,3.3135,4.67-.4018,6.156-3.9115,10.2821-2.7762,1.6819.4627,3.6022,1.6421,5.5008.4155a5.0168,5.0168,0,0,0,1.5223-1.6506,39.1043,39.1043,0,0,1,1.285,6.9712c.6338,6.8745-.12,18.4637-5.0016,22.7184-5.4128,4.718-16.6485,1.0693-24.2523-12.1812a19.9253,19.9253,0,0,0,2.0355-5.53A23.1688,23.1688,0,0,0,152.6108,207.6372Z"/><path class="cls-18" d="M179.3308,323.4238c-1.8677,4.9206-1.9409,9.8682-1.5329,14.7216.1308,1.6335.3244,3.26.5232,4.8736.0366.2891.0732.5781.11.8739,2.0874,17.0274,4.5462,32.0179,6.4295,42.6525a60.73,60.73,0,0,1-47.0833.8,66.1773,66.1773,0,0,1-8.02-3.7913c.0209-.0336.0418-.06.0627-.0941.0053-.0068.0105-.02.0158-.0269.4341-.679.8736-1.3243,1.313-1.936.1413-.2017.2878-.4034.4343-.5983a61.0253,61.0253,0,0,0,4.5513-7.4482c2.7466-5.31,4.9909-9.6531,5.5245-15.6023a12.7151,12.7151,0,0,0,.0366-2.1309c-.0052-.1277-.0157-.2689-.0261-.41-.0314-.3764-.0681-.8-.1308-1.2906-.0053-.0538-.0105-.1076-.021-.1681-.01-.1142-.0261-.242-.047-.37-.0262-.2017-.0524-.41-.0838-.6319-.0837-.5714-.1831-1.2167-.3034-1.936-.0471-.289-.0994-.5848-.1569-.9008-.0837-.4907-.1779-1.0083-.2825-1.5663-.0576-.3159-.12-.6385-.1884-.9814-.0523-.289-.1151-.5915-.1726-.9075-.0628-.3159-.1308-.652-.1988-.9881-.0419-.2152-.0889-.4437-.1308-.6655-.0523-.2488-.0994-.5042-.1569-.76-.0576-.289-.1151-.5781-.1831-.8806-.0157-.0941-.0366-.1882-.0576-.2823-.1412-.6789-.2877-1.3848-.45-2.1242q-.1569-.7462-.33-1.5327c-.01-.06-.0209-.1008-.0314-.1613v-.0067c-.1988-.9075-.3923-1.7882-.5859-2.6352a.88.88,0,0,0-.0261-.1277c-.1308-.5915-.2616-1.17-.3872-1.7343q-.408-1.7949-.769-3.3611c-.0942-.41-.1883-.8134-.2772-1.1966-.1622-.6991-.3192-1.3646-.4657-1.9763-.0941-.4033-.183-.7865-.272-1.1495q-1.5773-4.4164-3.16-8.833-1.5773-4.4064-3.1494-8.8061c.0367-.4168.068-.8335.0994-1.25q1.9383-24.6336,3.8661-49.26c.23.074.46.1412.6958.2151a68.9565,68.9565,0,0,0,15.5323,2.8637,70.6691,70.6691,0,0,0,32.7281-5.8214c.2877,2.8838.7167,7.0784,1.3026,12.1672.5755,5.0013.8632,7.502,1.0568,8.6784,1.8938,11.5352,5.5192,12.1739,5.7023,19.2053.1412,5.4181-1.9409,9.8077-4.8234,15.8712-3.0552,6.4264-4.6665,6.7692-6.3929,11.1857C179.3883,323.2692,179.3569,323.3431,179.3308,323.4238Z"/><path class="cls-5" d="M152.0172,344.5584a72.4268,72.4268,0,0,1-3.6987,23.9042,60.1489,60.1489,0,0,1-7.0467,14.2242,55.9178,55.9178,0,0,1-3.4947,4.6585,66.1773,66.1773,0,0,1-8.02-3.7913c.0209-.0336.0418-.06.0627-.0941.0053-.0068.0105-.02.0158-.0269.4341-.679.8736-1.3243,1.313-1.936.1413-.2017.2878-.4034.4343-.5983a61.0253,61.0253,0,0,0,4.5513-7.4482c2.7466-5.31,4.9909-9.6531,5.5245-15.6023a12.7151,12.7151,0,0,0,.0366-2.1309c-.0052-.1277-.0157-.2689-.0261-.41-.0314-.3764-.0681-.8-.1308-1.2906-.0053-.0538-.0105-.1076-.021-.1681-.01-.1142-.0261-.242-.047-.37-.0262-.2017-.0524-.41-.0838-.6319-.0837-.5714-.1831-1.2167-.3034-1.936-.0471-.289-.0994-.5848-.1569-.9008-.0837-.4907-.1779-1.0083-.2825-1.5663-.0576-.3159-.12-.6385-.1884-.9814-.0523-.289-.1151-.5915-.1726-.9075-.0628-.3159-.1308-.652-.1988-.9881-.0419-.2152-.0889-.4437-.1308-.6655-.0523-.2488-.0994-.5042-.1569-.76-.0576-.2823-.12-.5781-.1831-.8806-.0157-.0941-.0366-.1882-.0576-.2823-.1412-.6722-.2929-1.3848-.45-2.1242q-.1569-.7462-.33-1.5327c-.01-.0538-.0261-.1075-.0366-.1613q-.2982-1.3713-.5807-2.6419a.88.88,0,0,0-.0261-.1277c-.1308-.5915-.2616-1.17-.3872-1.7343q-.408-1.7949-.769-3.3611c-.0942-.41-.1883-.8134-.2772-1.1966-.1622-.6991-.3192-1.3646-.4657-1.9763-.0941-.4033-.183-.7865-.272-1.1495q-1.5773-4.4164-3.16-8.833-1.5773-4.4064-3.1494-8.8061c.0367-.4168.068-.8335.0994-1.25q3.1233-6.8667,6.9265-13.8747c.926,1.4453,1.81,2.9175,2.6576,4.4031a98.9825,98.9825,0,0,1,8.9772,21.2287,92.4086,92.4086,0,0,1,3.4685,18.9634Q152.0016,341.6982,152.0172,344.5584Z"/><path class="cls-22" d="M227.7683,320.6341s-.5426,1.06-1.7183,3.617c-.6444,1.3945-1.4753,3.2393-2.51,5.6-2.56,5.8467-2.0292,6.573-3.5327,8.0692-.5935.5956-2.3288,1.2711-5.7824,2.6-5.1663,1.9828-5.4206,2.0772-6.065,2.1136-1.3057.0653-3.318-.8208-7.2972-2.5857-3.94-1.75-5.6468-2.7527-8.4956-2.8181a12.9614,12.9614,0,0,0-2.5944.2034c-2.9279.4939-9.5751.9006-25.2605.7045a9.28,9.28,0,0,1-4.081-7.9312,10.7281,10.7281,0,0,1,.48-3.2321,8.12,8.12,0,0,1,4.4767-5.2657c.0283-.0146.0565-.0218.0848-.0363,3.5045.4793,7.0542.9442,10.6434,1.3727q7.02.8388,13.8484,1.5034a16.9118,16.9118,0,0,1,6.2628-5.6652c1.3283-.6609,3.2219-.9369,6.9977-1.4961,6.2176-.9224,7.0315-.4794,7.252.1307.3335.9151-.5935,2.3968-1.1475,3.08-1.7465,2.1425-4.2393,1.8012-4.5106,2.3241a.1768.1768,0,0,0-.0282.0872c-.017.2905.503.7917,2.4135,1.3364a17.9556,17.9556,0,0,0,9.6147.0217c2.2836-.6972,4.1715-1.271,6.0707-3.1158a23.0588,23.0588,0,0,1,3.2388-2.8108c.9044-.6319,2.5888-1.8085,2.9506-1.2856C229.3793,317.5908,228.6049,319.0072,227.7683,320.6341Z"/><path class="cls-5" d="M171.3955,304.1838a33.0312,33.0312,0,0,1-3.8178,7.8791,24.6348,24.6348,0,0,1-13.447,10.2085l7.4736.1231a23.6207,23.6207,0,0,0,5.9292-6.8445A31.4282,31.4282,0,0,0,171.3955,304.1838Z"/><path class="cls-18" d="M166.8074,328.42a21.7526,21.7526,0,0,1-2.2949,9.718c-2.2666.1453-37.2888,2.4332-48.4692-.2832-4.7423-1.1476-6.4041-3.4936-7.1276-5.0987a9.0912,9.0912,0,0,1-.5709-1.7359,16.0658,16.0658,0,0,1,.0791-6.2171c2.3288-13.1752,8.2412-29.459,11.4913-39.1116,3.3745-10.0158,5.6354-18.0777,12.2939-25.4352.7292-.8062,1.3566-1.4381,1.78-1.8449q5.4687,10.5568,10.943,21.1065-.5087,1.863-1.04,3.7477-1.5346,5.48-3.25,11.127c-2.538,8.3526-5.1719,16.2693-7.84,23.75.65.0727,1.2944.1453,1.9444.2107q15.3209,1.6778,30.6416,3.3555c.1413.0145.277.029.4183.0436a22.169,22.169,0,0,1,.9891,5.854C166.8017,327.868,166.8074,328.144,166.8074,328.42Z"/><path class="cls-5" d="M178.4287,343.89c-3.5893.0654-8.1395.0727-13.9162,0-1.2661.0872-12.7292.8353-24.56,1.01-.3279-1.6269-.7179-3.4717-1.1757-5.578-.0113-.0581-.0226-.109-.0339-.167,12.2487-.138,24.4635-.93,25.7692-1.0169,5.4432.0654,9.7956.0654,13.2831.0073.1357,1.6342.3278,3.2611.5257,4.8735C178.3552,343.3093,178.3948,343.6,178.4287,343.89Z"/><path class="cls-12" d="M414.37,455.2068l-4.8653.06-18.3677.1479-6.2046.047-25.43.2084-12.498.1008-12.4981.0336-2.6052.0068c-.0889-.8269-.178-1.66-.2721-2.5007-1.1247-10.5942-2.0978-21.5851-2.4378-30.5458-.3871-10.44-.4605-20.3886-.2983-29.7459q.055-3.3376.1518-6.5676.0705-2.1679.1465-4.2956,34.5591-1.0486,69.1184-2.0906c.926-.0268,1.8467-.0538,2.7727-.0806.6121,2.4,1.1771,4.7257,1.7107,6.9978v.0067c.5284,2.3125,1.0254,4.5443,1.4805,6.7156A295.8478,295.8478,0,0,1,409.0445,423.7c.5912,5.6063,1.0463,9.33,1.2086,10.8429a124.4118,124.4118,0,0,0,3.7666,19.3735C414.1348,454.34,414.25,454.77,414.37,455.2068Z"/><path class="cls-10" d="M391.1372,455.4152l-6.2046.047c-.11-.605-.2145-1.2033-.3191-1.8083q-1.4361-8.0364-2.8616-16.0728a28.0907,28.0907,0,0,1-9.2232-1.4319,33.333,33.333,0,0,1-12.1528-7.3675,51.5315,51.5315,0,0,0,23.06,2.81,52.6726,52.6726,0,0,0,14.7371-3.8855,19.8517,19.8517,0,0,1-6.2045,6.9374,14.7062,14.7062,0,0,1-4.2637,1.936q1.46,8.43,3.1023,17.1282C390.9175,454.2791,391.0273,454.8438,391.1372,455.4152Z"/><path class="cls-10" d="M404.2724,393.7077a87.23,87.23,0,0,1-75.38-.69c.04-2.2225.09-4.416.1526-6.5658a87.1691,87.1691,0,0,0,73.7466.5374Q403.5885,390.4539,404.2724,393.7077Z"/><path class="cls-23" d="M375.8208,191.037q.26,7.2839.52,14.5677l27.8747-4.01.3123-19.3791-9.2571-16.4386Q385.5457,178.4072,375.8208,191.037Z"/><path class="cls-21" d="M402.4478,165.3731a11.5491,11.5491,0,0,1-2.3909,6.0211,6.8048,6.8048,0,0,1-3.4424,2.1716c-.1526.0436-.2882.0726-.4069.0944a26.5441,26.5441,0,0,1-2.0066,11.6209c-2.08,4.7137-4.3976,5.1713-25.5545,13.9087-1.1531.4722-5.2849,2.179-6.5567.1308-.701-1.1258-.6048-3.508-.52-5.7451a10.4883,10.4883,0,0,1,.2091-2.2733,3.45,3.45,0,0,1,1.2039-1.7359c1.3566-1.0532,3.4706-1.3655,5.3472-2.4041,1.7749-.9732,4.0641-2.9923,6.1385-7.6189a34.1877,34.1877,0,0,1-9.7786,3.0722,18.2986,18.2986,0,0,1-2.894.247c-1.611-.0145-2.5549-.4-2.8262-1.1839-.3731-1.0749.78-2.2079.3108-3.4717-.3843-1.0459-1.3905-.8716-3.12-1.8739-1.0174-.5883-3.0466-1.7649-3.2445-3.3628-.22-1.7722,2.0123-2.4985,4.1772-5.9339a22.9061,22.9061,0,0,0,3.0805-9.8923c.3787-4.031-.5539-5.1931-.6613-9.0425a28.4263,28.4263,0,0,1,2.9958-13.0662,55.6632,55.6632,0,0,0,14.9788,1.6051c2.3909-.0871,5.3754-.37,7.5912,2.1426a11.7754,11.7754,0,0,1,2.3909,5.8758c.56,4.0383-1.0174,5.8323-1.04,9.3548-.017,2.44.7122,5.8613,4.0585,10.0231a13.1791,13.1791,0,0,1,2.6-6.682c1.6731-2.0482,4.98-4.3724,7.3821-2.6728C403.72,156.9842,402.5552,164.6758,402.4478,165.3731Z"/><path class="cls-20" d="M363.7557,150.8088a2.2537,2.2537,0,0,0,.312,1.7375c.92,1.4422,3.0815.635,5.2.4009a13.9323,13.9323,0,0,1,7.3848,1.3365,13.7,13.7,0,0,0-6.6567-4.2767C368.0064,149.4892,364.2937,149.1221,363.7557,150.8088Z"/><path class="cls-20" d="M364.581,158.622a5.5656,5.5656,0,0,1,2.017-.8634,6.4882,6.4882,0,0,1,2.0823-.0279q1.041.0582,2.0751.2134c.6883.1173,1.3739.2339,2.053.41l-.0077.145c-.69.0553-1.3745.0925-2.0577.1709-.6827.0651-1.3625.1405-2.04.2222a12.316,12.316,0,0,1-2.0234.315,5.3511,5.3511,0,0,1-2.0852-.4412Z"/><path class="cls-20" d="M367.8157,162.5405c-.8366.1234-1.611-.8934-1.7354-2.2734a3.6114,3.6114,0,0,1,.277-1.7939q.8139-.0871,1.6787-.1308.2969-.0217.5936-.0217a3.38,3.38,0,0,1,.4692,1.5034C369.2231,161.2041,368.6465,162.417,367.8157,162.5405Z"/><path class="cls-3" d="M374.4685,179.5433c-2.0744,4.6266-4.3636,6.6457-6.1385,7.6189-1.8766,1.0386-3.9906,1.3509-5.3472,2.4041-.2543-.8716-.486-1.823-.6839-2.8544a33.2141,33.2141,0,0,1-.503-3.8494,18.2986,18.2986,0,0,0,2.894-.247A34.1877,34.1877,0,0,0,374.4685,179.5433Z"/><path class="cls-20" d="M353.2375,171.0726c-2.68,4.1939-.0454,12.3378,1.98,18.6,2.5013,7.7324,5.1992,9.61,5.8438,10.029,1.0247.6657,2.6741,1.4079,6.3972,1.1661,4.065-.264,8.1872-1.5909,13.9791-5.0581a76.5039,76.5039,0,0,0,13.7677-10.6146,24.5152,24.5152,0,0,1-6.6085-8.7275,32.2292,32.2292,0,0,1-2.8454-11.2043,50.6259,50.6259,0,0,1-16.0623,3.892C360.257,169.8175,355.6242,167.3373,353.2375,171.0726Z"/><path class="cls-20" d="M384.6516,167.618l-.4434-1.2177a11.0542,11.0542,0,0,0,3.5465-3.5249,15.516,15.516,0,0,0,2.276-7.1414l1.0412.1293a17.0934,17.0934,0,0,1-2.5089,7.8665A12.1974,12.1974,0,0,1,384.6516,167.618Z"/><path class="cls-20" d="M392.716,187.1981l-.469-1.202a16.348,16.348,0,0,0,4.8416-4.9294,22.4971,22.4971,0,0,0,3.2212-8.81l1.0279.2514a24.0409,24.0409,0,0,1-3.4449,9.4177A17.474,17.474,0,0,1,392.716,187.1981Z"/><path class="cls-20" d="M410.35,148.806a128.13,128.13,0,0,1-5.8219,33.41,17.5033,17.5033,0,0,1-4.8893-4.0092,21.7171,21.7171,0,0,1-3.0241-4.6411,6.8048,6.8048,0,0,0,3.4424-2.1716,11.5491,11.5491,0,0,0,2.3909-6.0211c.1074-.6973,1.2718-8.3889-1.9783-10.6912-2.4023-1.7-5.709.6246-7.3821,2.6728a13.1791,13.1791,0,0,0-2.6,6.682c-3.3463-4.1618-4.0755-7.5827-4.0585-10.0231.0227-3.5225,1.6-5.3165,1.04-9.3548a11.7754,11.7754,0,0,0-2.3909-5.8758c-2.2158-2.513-5.2-2.23-7.5912-2.1426a55.6632,55.6632,0,0,1-14.9788-1.6051,12.9854,12.9854,0,0,1-7.6986-4.6774c-4.81-5.8105-4.4372-13.9378-4.3693-15.1a64.9053,64.9053,0,0,0,13.8371,3.341c12.113,1.5325,17.6127-1.38,29.85,1.2056,6.5793,1.3873,9.9256,2.1572,12.69,5.8759C407.75,126.9442,411.0168,131.7669,410.35,148.806Z"/><path class="cls-21" d="M300.8945,311.7368c-6.5851,6.8273-12.2544,10.7421-14.6849,10.4661a6.3162,6.3162,0,0,1-1.8936-.5593,5.27,5.27,0,0,1-.5935-.3559,10.9782,10.9782,0,0,1-2.6865-3.1489c-1.5645-3.1839.5481-7.3881-.7728-8.4666a1.0967,1.0967,0,0,0-.893-.1724c-2.0653.2112-3.6932,4.2427-4.1973,7.5789a23.8812,23.8812,0,0,0,.1276,6.8092s.8218,6.6148,0,8.2218a2.3092,2.3092,0,0,1-.5483.7045l-8.6708,11.1415c1.21.2833,2.4927.5738,3.838.8571,7.4612,1.5688,9.4847,1.4671,10.7622,1.3073,4.0075-.4939,6.958-2.3024,11.3443-5.4182a200.422,200.422,0,0,0,18.9016-15.3251Q305.9081,318.5568,300.8945,311.7368Z"/><path class="cls-1" d="M383.8149,226.1126a88.4422,88.4422,0,0,1-1.9557,10.7784c-5.268,24.0625-12.0791,47.6166-17.7541,71.5411a18.5658,18.5658,0,0,1-2.12,5.382,17.7255,17.7255,0,0,1-9.6486,7.4446c-11.61,4.2561-22.7338,10.27-34.4512,14.0831-5.37,1.7431-13.6845,4.5176-24.0227,8.2508a58.2314,58.2314,0,0,1-4.4371-12.5361,61.8662,61.8662,0,0,1-1.5714-15.2814q21.4169-13.15,42.8281-26.2923c3.838-13.32,6.6133-24.2,8.3995-31.4708.13-.5285.1469-.5964.2034-.8208,1.8391-7.298,5.93-22.8895,16.7106-34.2368,6.8283-7.1869,12.9441-9.0965,15.5656-9.7148,1.4784-.3487,8.8618-2.09,10.8218,1.9049a18.7229,18.7229,0,0,1,.9113,4.6493A27.17,27.17,0,0,1,383.8149,226.1126Z"/><path class="cls-1" d="M420.2163,247.0012c-.0509,1.242-.1244,2.2878-.1865,3.1086a183.3344,183.3344,0,0,1-6.0255,34.7682,377.6885,377.6885,0,0,1-18.828,52.5846,63.29,63.29,0,0,0,0,16.1167c.096.719.26,2.1571.6839,4.14a264.2709,264.2709,0,0,0,8.5576,28.5148c-.4408.2106-.893.414-1.3621.6319-.5992.2687-1.2266.5447-1.871.8207a87.1826,87.1826,0,0,1-74.1706-2.208c-.3109-.1453-.6161-.2977-.91-.45.22-18.1358.6331-31.7686,1.04-37.0125.1187-1.518.2543-3.16.2543-3.16.0566-.7117.1188-1.4235.181-2.128.26-3.1014.5539-6.1518.8648-9.1515.0791-.7771.1639-1.5543.2487-2.3241q.9919-9.1079,2.2214-17.5258A96.3938,96.3938,0,0,0,355.2534,289.12a105.9269,105.9269,0,0,0,17.4207-37.659q.7036-2.9633,1.2661-6.1445c1.6765-9.53,2.6793-14.2457,1.837-18.1577a17.7925,17.7925,0,0,0-6.9118-10.3928l6.2-7.2927-.5256-5.8758a2.7126,2.7126,0,0,1,1.7805-2.898,134.3817,134.3817,0,0,1,18.0989-4.0238c3.3971-.5083,6.6585-.8643,9.7673-1.0966a2.553,2.553,0,0,1,2.5549,2.8108q-.0849,2.364-.1639,4.7282l-.034.9805a3.4815,3.4815,0,0,0,.1527,1.1912,3.1924,3.1924,0,0,0,.82,1.3727,2.1515,2.1515,0,0,0,.3166.276,25.8194,25.8194,0,0,1,5.4207,5.4255c1.2491,1.6923,4.2731,6.2172,6.0254,17.3877.3787,2.4114.6274,4.6992.7857,6.82A88.0764,88.0764,0,0,1,420.2163,247.0012Z"/><path class="cls-4" d="M373.1963,271.8157c-.3836,6.9-.8811,12.67-1.3,16.9324A213.85,213.85,0,0,1,366.53,318.47a19.71,19.71,0,0,1-2.1141,5.3746,17.8113,17.8113,0,0,1-9.6542,7.4519c-9.1851,3.3628-18.065,7.83-27.1823,11.4321.26-3.1014.5539-6.1518.8648-9.1515.0791-.7771.1639-1.5543.2487-2.3241,7.885-3.2975,15.6515-7.067,23.6439-9.994a17.7255,17.7255,0,0,0,9.6486-7.4446,28.718,28.718,0,0,0,2.12-5.382,96.442,96.442,0,0,0,3.2582-13.1Q370.28,283.574,373.1963,271.8157Z"/><g class="cls-24"><path class="cls-10" d="M380.9641,291.3882a2.7659,2.7659,0,0,0-1.5347,1.1659,6.2311,6.2311,0,0,0-.95,2.2861l-1.9682,9.0186,1.1979-.3227,1.5-6.8732,1.3842-.373.349-1.5989-1.4119.38.1117-.5119c.2009-.92.552-1.4425,1.06-1.5792a.502.502,0,0,1,.5759.1751l.6637-1.5971a.886.886,0,0,0-.9766-.17Z"/><path class="cls-10" d="M381.5127,298.4024l.0038-.0173a5.7566,5.7566,0,0,1,.8291-2.0423,2.287,2.287,0,0,1,1.2271-1.0072.692.692,0,0,1,.8106.2309,1.7163,1.7163,0,0,1,.2279,1.13l-3.0985,1.7063Zm2.4089-4.6658a3.3407,3.3407,0,0,0-1.4784.9234,7.1389,7.1389,0,0,0-1.2826,1.8126,9.5815,9.5815,0,0,0-.8325,2.341,6.12,6.12,0,0,0-.1412,2.1655,1.8658,1.8658,0,0,0,.654,1.2909,1.5243,1.5243,0,0,0,1.3661.157,3.3785,3.3785,0,0,0,1.2641-.6708,5.1766,5.1766,0,0,0,1.089-1.2678l-.3619-1.0664a3.0474,3.0474,0,0,1-1.5945,1.3066.9171.9171,0,0,1-.886-.124,1.2594,1.2594,0,0,1-.3387-.9644l4.2-2.3333a6.0574,6.0574,0,0,0,.1482-2.1675,1.8144,1.8144,0,0,0-.6105-1.2376,1.3218,1.3218,0,0,0-1.1954-.1652Z"/><path class="cls-10" d="M389.5671,289.1734l-1.1979.3227-2.0071,9.1968a3.2071,3.2071,0,0,0-.0028,1.9334q.2871.6048,1.0846.39a2.1817,2.1817,0,0,0,.7667-.4014l.29-1.5831a1.0989,1.0989,0,0,1-.4666.2773q-.72.1938-.4429-1.0825l1.9758-9.0531Z"/><path class="cls-10" d="M392.7914,288.3048l-1.1979.3227-2.0071,9.1968a3.2081,3.2081,0,0,0-.0029,1.9334q.2872.6046,1.0847.39a2.1817,2.1817,0,0,0,.7667-.4014l.29-1.5832a1.0986,1.0986,0,0,1-.4667.2773q-.72.1939-.4428-1.0824l1.9758-9.0531Z"/><path class="cls-10" d="M394.7831,297.4313a.7054.7054,0,0,1-.9268-.4433,3.0864,3.0864,0,0,1-.0063-1.8172,5.7163,5.7163,0,0,1,.8511-2.0536,2.3627,2.3627,0,0,1,1.2481-1.0292.7115.7115,0,0,1,.9336.4414,3.0822,3.0822,0,0,1,.0085,1.822,5.6193,5.6193,0,0,1-.8533,2.0489,2.3788,2.3788,0,0,1-1.2549,1.031Zm1.4005-6.998a3.3205,3.3205,0,0,0-1.4539.9005,6.8643,6.8643,0,0,0-1.2557,1.7783,9.876,9.876,0,0,0-.8322,2.3842,6.6571,6.6571,0,0,0-.1707,2.2114,1.8992,1.8992,0,0,0,.5866,1.2873,1.2952,1.2952,0,0,0,1.2179.1807,2.7251,2.7251,0,0,0,1.0319-.5594,4.6577,4.6577,0,0,0,.9314-1.1117l-.241,1.1043,1.1427-.3078,1.8627-8.5354-1.1978.3227-.226,1.0353a1.1335,1.1335,0,0,0-.54-.65,1.2026,1.2026,0,0,0-.8555-.04Z"/><path class="cls-10" d="M402.5057,285.6878l-1.2014.3236-2.59,11.8656,1.2014-.3236.9427-4.32a5.6785,5.6785,0,0,1,.8-2.0128,2.1685,2.1685,0,0,1,1.19-.9432.572.572,0,0,1,.7779.3209,3.0308,3.0308,0,0,1-.0514,1.6054l-1.0117,4.6359,1.1979-.3227,1.0682-4.8947a4.4132,4.4132,0,0,0,.0266-2.6381,1.0314,1.0314,0,0,0-1.351-.5239,2.8691,2.8691,0,0,0-1.0338.5384,4.5973,4.5973,0,0,0-.9088,1.0081l.9427-4.3194Z"/><path class="cls-10" d="M408.3517,287.2472l-1.2013.3237-1.8628,8.5354,1.2014-.3236,1.8627-8.5355Zm.2338-3.6467a1.19,1.19,0,0,0-.6208.4921,2.3626,2.3626,0,0,0-.4067.9107,1.1928,1.1928,0,0,0,.0339.7975.3645.3645,0,0,0,.47.1982,1.1931,1.1931,0,0,0,.6314-.5112,2.5464,2.5464,0,0,0,.4107-.9443,1.1153,1.1153,0,0,0-.0414-.763.3787.3787,0,0,0-.4773-.18Z"/><path class="cls-10" d="M387.2486,275.5443c.0418,2.0567.1018,4.06.1674,5.2926a13.0813,13.0813,0,0,0,.2473,2.2016c.708-1.1,1.4382-2.1685,2.19-3.2154a28.56,28.56,0,0,0-2.6045-4.2788Z"/><path class="cls-12" d="M387.1641,270.8249c.0029.1508.0044.3074.0082.4687,0,.06.0012.1134.0012.1729.0044.1288.0041.2642.006.4044.0025.1076.0025.2267.0072.3391.0032.2536.0063.5072.01.7714.0063.2094.0078.4255.0129.6407a26.71,26.71,0,0,1,3.3461,5.2428c.4607-.6221.928-1.23,1.4031-1.8288.1256-.1583.2545-.3175.3835-.4768.1256-.1583.2545-.3176.3835-.4768l.1008-.1192a20.4265,20.4265,0,0,0-4.5117-4.3983c-.2078-.15-.4124-.2841-.6114-.4146-.1833-.113-.3631-.227-.54-.3255Z"/><path class="cls-4" d="M387.1311,268.0729l-.0025.0115-.0009.1085.0031.075.0016.0374c0,.0163.0018.2.0059.5235.001.13.0026.2863.006.464l.0873.0469c.4475.2421.933.5336,1.44.8732.1447.0964.29.2033.4393.3093.1456.107.2947.2129.4447.3295.1457.107.2888.2254.4353.3429a21.2934,21.2934,0,0,1,3.6264,3.8248q.61-.7164,1.2289-1.4029c.1369-.1506.27-.3.4058-.445.1334-.15.2655-.2934.4011-.4382.471-.5059.9452-.9963,1.4285-1.4838a16.08,16.08,0,0,0-5.5084-2.5708,18.6586,18.6586,0,0,0-2.184-.4293c-.1324-.0185-.2626-.0321-.3916-.0515-.13-.0136-.2605-.0273-.3851-.037-.4764-.05-.9258-.0754-1.3492-.0859a1.0275,1.0275,0,0,0-.1327-.0021Z"/><path class="cls-10" d="M407.7006,270.0725c-1.5861,1.8781-3.2516,4.0157-4.8988,6.2784-.1234.1632-.2445.3312-.3656.4991s-.2389.3351-.36.503q-1.2211,1.7094-2.402,3.4729c-.1142.1662-.2263.3371-.3383.508-.12.1786-.2369.3562-.3537.5338-.3609.5519-.72,1.1087-1.07,1.6579-.0556.0907-.11.1758-.1641.2608.075-.0311.15-.0621.2215-.0922a15.002,15.002,0,0,0,1.4006-.6859c.1516-.0842.3-.1674.4457-.2554.1424-.0871.2849-.1742.4183-.2643a10.65,10.65,0,0,0,2.843-2.7093c.1211-.168.24-.3408.3533-.5174.118-.1834.2291-.3649.3393-.557a28.9666,28.9666,0,0,0,1.3039-2.6249c.643-1.413,1.63-3.6872,2.627-6.0075Z"/><path class="cls-12" d="M409.9855,264.7093c-.2294.2026-.4635.4118-.7058.6286-.2843.2607-.5768.529-.8834.8173a89.702,89.702,0,0,0-7.1452,7.55c-.1346.1553-.2658.31-.3983.47s-.2636.3146-.396.4748q-1.0671,1.2944-2.1817,2.7314l-.3559.4695c-.1221.1574-.2488.3214-.3722.4846-.3618.4818-.73.9761-1.0965,1.4809-.1211.168-.241.33-.3622.4982-.1176.167-.2388.335-.36.503-.25.3541-.5024.7091-.7544,1.0748-.1237.1795-.2461.3532-.37.5327s-.2473.3589-.3722.5441c-.4205.6168-.8426,1.2556-1.2672,1.9059-.0778.1184-.1522.2359-.2254.3476q.1516-.0246.3136-.052c.43-.0778.8975-.1822,1.399-.3065l.0069-.0018c.1347-.0363.268-.0668.4061-.104l.0069-.0019c.1381-.0372.274-.0792.4086-.1155l.0069-.0018c.5065-.1473.9845-.2977,1.4352-.457.0756-.1233.1547-.2475.2316-.3764.1145-.1824.2278-.3591.3423-.5416s.2279-.3591.3424-.5415q.5188-.8137,1.0583-1.6331c.1167-.1776.2335-.3552.3524-.528.112-.1709.2275-.3428.3383-.5079.766-1.1429,1.549-2.2742,2.343-3.3813.1177-.167.2388-.335.3587-.4972l.3634-.5039c2.0951-2.8706,4.2163-5.5479,6.1789-7.7819l.3163-.7348c.1224-.2928.2483-.5866.3694-.8736l.18-.422c.0612-.1464.12-.2813.18-.422.0336-.0794.066-.1531.0961-.2316.0719-.1655.14-.33.2121-.4956Z"/><path class="cls-4" d="M411.307,261.587c-.0508.0245-.1029.0548-.1572.08-.4777.2532-1,.5454-1.5541.868-.1481.0832-.2975.1722-.45.2621-.1541.0957-.31.1865-.4644.2821-.82.497-1.7057,1.0712-2.6431,1.719a61.7629,61.7629,0,0,0-7.3849,6.0279l-.4689.4511c-.1563.15-.3139.3065-.4679.4617-.5379.5293-1.0739,1.08-1.615,1.6531-.1343.1391-.2664.2829-.402.4277-.1321.1439-.2689.2944-.4045.4392q-.61.676-1.2286,1.3866c-.13.1487-.2611.3032-.3923.4576s-.2636.3146-.3961.4748l-.1042.12c-.1277.1535-.2567.3128-.3856.472-.1243.1526-.2533.3119-.3788.47-.5031.6227-1.0055,1.2724-1.5014,1.9365-.1186.1564-.235.3177-.35.4733-.12.1622-.2363.3235-.3574.4914q-1.1379,1.5734-2.2546,3.3033a2.5613,2.5613,0,0,0,1.9336,1.428c.1117.024.2316.04.3515.0568.1233.0155.2467.031.3782.0389a8.023,8.023,0,0,0,1.2609-.0311c.05-.0783.0979-.1509.1475-.2292.1133-.1767.2278-.3591.3446-.5367.1133-.1768.2218-.3467.3386-.5244q.6741-1.0342,1.3661-2.0461c.12-.1786.24-.3571.364-.5366.1189-.1728.2413-.3465.3637-.52.1978-.2806.392-.56.59-.8409.1211-.168.2423-.3359.36-.503.12-.1622.241-.33.3621-.4981.3622-.4982.7312-.9982,1.0978-1.4867l.37-.49c.1186-.1565.2407-.3139.3593-.47.6832-.8824,1.3708-1.7552,2.0694-2.6038.1289-.1593.2626-.3252.3951-.4854s.267-.3155.4-.4757q2.8554-3.3921,5.8575-6.369c.2112-.2084.4177-.41.6242-.612.2216-.2113.44-.4216.6531-.6253.2169-.2046.429-.4025.6412-.6q1.0925-1.0089,2.0241-1.8012l.12-.1027c.0829-.2009.162-.3846.2244-.5368.1619-.3847.2555-.6048.2627-.623l.0238-.05.0192-.043.06-.1407Z"/><path class="cls-4" d="M412.84,244.0367a3.3942,3.3942,0,0,0-1.2081.6809,14.0065,14.0065,0,0,1,.4965,2.2807,4.1023,4.1023,0,0,1,.99-.4339,2.3622,2.3622,0,0,1,.4469-.0778,17.2124,17.2124,0,0,0-.4453-2.5,1.5752,1.5752,0,0,0-.28.05Z"/><path class="cls-4" d="M410.0215,238.9964a5.8261,5.8261,0,0,0-1.4326,1.5174,4.99,4.99,0,0,1,1.3407,1.0625,8.0568,8.0568,0,0,1,1.4066-1.3533,6.1873,6.1873,0,0,0-1.3147-1.2266Z"/><path class="cls-4" d="M407.5959,238.0962a7.7486,7.7486,0,0,0-1.3269,1.8516,5.1054,5.1054,0,0,1,1.6888.2867,10.5043,10.5043,0,0,1,1.3074-1.6731,5.4059,5.4059,0,0,0-1.6693-.4652Z"/><path class="cls-4" d="M412.8438,247.79a3.1069,3.1069,0,0,0-.6021.2392,22.407,22.407,0,0,1,.049,2.6935,2.1984,2.1984,0,0,1,1.3347.0032,25.9277,25.9277,0,0,0,.036-2.9493,1.4341,1.4341,0,0,0-.8176.0134Z"/><path class="cls-4" d="M405.0056,238.3231c-.09.0242-.1821.06-.2718.084a9.1116,9.1116,0,0,0-1.1674,2.1335,8.73,8.73,0,0,1,1.0337-.36,6.5676,6.5676,0,0,1,.9089-.1745,12.8632,12.8632,0,0,1,1.1579-1.9414,7.67,7.67,0,0,0-1.6613.2581Z"/><path class="cls-4" d="M411.5686,256.13l-.0062.0288q-.3615,1.6564-.869,3.2819a2.3648,2.3648,0,0,1,1.0329.5825q.5069-1.5414.9012-3.1174a1.5236,1.5236,0,0,0-1.0589-.7758Z"/><path class="cls-4" d="M412.2154,251.9012q-.122,1.4295-.397,2.9652a1.9162,1.9162,0,0,1,1.1483.53q.3465-1.6768.5248-3.2379a1.4353,1.4353,0,0,0-1.2761-.2571Z"/><path class="cls-4" d="M411.89,241.0049a4.2013,4.2013,0,0,0-1.485,1.1471,8.4283,8.4283,0,0,1,.93,1.7361,5.2123,5.2123,0,0,1,1.4552-.9659,10.29,10.29,0,0,0-.9007-1.9173Z"/><path class="cls-4" d="M391.6745,252.2271c-.5382,1.0815-1.0359,2.2009-1.4975,3.3484a2.8567,2.8567,0,0,0,.6079,1.6064c.3882-1.079.8172-2.1365,1.2845-3.161a5.1093,5.1093,0,0,1-.3949-1.7938Z"/><path class="cls-4" d="M403.6928,238.785a13.3212,13.3212,0,0,0-2.09,1.137,9.735,9.735,0,0,0-.94,2.3429,13.879,13.879,0,0,1,2.0691-1.337,14.1889,14.1889,0,0,1,.9615-2.1429Z"/><path class="cls-4" d="M389.5657,257.1856c-.4064,1.1326-.7664,2.2906-1.0761,3.4567a1.6433,1.6433,0,0,0,.9738,1.0315q.369-1.6015.8749-3.1752a2.9233,2.9233,0,0,1-.7726-1.313Z"/><path class="cls-4" d="M388.0973,262.2313c-.02.092-.0423.1792-.0612.2655a36.1872,36.1872,0,0,0-.6577,4.0857,9.73,9.73,0,0,1,1.432-1.2465c.0925-.7666.2165-1.5578.374-2.369a1.9546,1.9546,0,0,1-1.0871-.7357Z"/><path class="cls-4" d="M394.3072,247.6527q-.9585,1.4437-1.8259,3.0362a4.8259,4.8259,0,0,0,.19,2.0493c.5109-1.0308,1.0589-2.0229,1.6335-2.9735a8.1177,8.1177,0,0,1,.0028-2.112Z"/><path class="cls-4" d="M397.312,243.725q-1.0529,1.185-2.0442,2.5483a7.1958,7.1958,0,0,0-.2325,2.3309q.9127-1.391,1.8977-2.6063a11.4588,11.4588,0,0,1,.379-2.2729Z"/><path class="cls-4" d="M400.509,240.7038a22.1372,22.1372,0,0,0-2.1324,1.8953,9.0245,9.0245,0,0,0-.6236,2.4254,23.5465,23.5465,0,0,1,2.0531-2.0526,13.4328,13.4328,0,0,1,.7029-2.2681Z"/><path class="cls-15" d="M399.9093,261.6747a43.301,43.301,0,0,0-8.9875,3.4552c-.5551.2957-1.0369.5825-1.4517.8458-.1369.091-.2655.1744-.3873.2559-.1415.0977-.268.1859-.3923.2789-.1625.12-.31.23-.445.3419.1384.006.279.0169.42.0277.1212.0107.2457.02.37.03s.2479.0252.3747.04a18.6443,18.6443,0,0,1,4.06.9146,15.8914,15.8914,0,0,1,4.5572,2.448,64.4656,64.4656,0,0,1,6.2592-5.3511,54.94,54.94,0,0,1,4.9739-3.3321c.1494-.089.2953-.177.44-.2593s.2894-.1646.4306-.2459c.1782-.1022.3518-.1977.5219-.2922a3.4342,3.4342,0,0,0-.3694-.1387c-.0932-.0344-.198-.06-.3085-.09-.0992-.022-.2052-.0422-.32-.0653a8.7725,8.7725,0,0,0-1.2409-.12,30.5835,30.5835,0,0,0-8.5045,1.2571Z"/></g><path class="cls-4" d="M404.4178,386.234c-.4408.2106-.893.414-1.3621.6319-.5992.2687-1.2266.5447-1.871.8207-1.4809-3.6533-2.9505-7.6407-4.341-11.9477a189.34,189.34,0,0,1-6.0311-23.8882,28.0211,28.0211,0,0,1-8.1508.1089,29.17,29.17,0,0,1-7.17-1.9212,18.6619,18.6619,0,0,0,10.8218-2.88,26.0586,26.0586,0,0,0,8.863-9.6961,63.29,63.29,0,0,0,0,16.1167c.096.719.26,2.1571.6839,4.14A264.2709,264.2709,0,0,0,404.4178,386.234Z"/><path class="cls-10" d="M456,454.5614l-12.498.2219-12.498.1613-20.136.2622-4.8654.06-18.3677.1479-6.2046.047-25.43.2084-12.498.1008-12.4981.0336-2.6052.0068-22.3961.06L256,456l-49.9974-.1277c-.9469-.0068-1.899-.0068-2.8459-.0068q-5.6423-.02-11.2791-.0336-11.6061-.02-23.2069-.0739c-1.01,0-2.0194-.0067-3.0238-.02-.6854,0-1.3759-.0067-2.0612-.0134-1.0882,0-2.1816-.0135-3.27-.02l-4.316-.04-23.186-.1815-11.6086-.0941-15.2028-.121-25.0013-.3227-12.498-.1681L56,454.5614l12.5033-.2151,12.498-.1613,25.0013-.3227,15.2394-.121,11.8284-.0941L156,453.459c1.6061-.0134,3.2069-.0336,4.813-.04,1.0829-.0134,2.1711-.02,3.254-.0268h.0052c.701-.0068,1.3916-.0068,2.0926-.0135l3.0552-.02q11.19-.0606,22.3856-.0606,5.6343-.01,11.2686-.0268c1.0411-.0068,2.0874-.0068,3.1284-.0135L256,453.1229l50.0026.1277,22.124.06,2.8773.0067,12.4981.04,12.498.094,25.1112.2017,6.1941.0538,18.6973.1479,4.5148.06,20.4866.2622,12.498.168Z"/></svg>