<svg height="512" viewBox="0 0 512 512" width="512" xmlns="http://www.w3.org/2000/svg"><path d="m238.6858 273.1581c-23.6761 0-42.9379-20.2378-42.9379-45.1136s19.2618-45.1134 42.9379-45.1134 42.9379 20.2379 42.9379 45.1134-19.2618 45.1136-42.9379 45.1136zm0-88.4271c-22.7315 0-41.2249 19.43-41.2249 43.3135s18.4934 43.3138 41.2249 43.3138 41.2248-19.43 41.2248-43.3138-18.4934-43.3135-41.2248-43.3135z" fill="#b8d26f"/><path d="m252.4 243.82a.8341.8341 0 0 1 -.6151-.2739l-13.7139-14.8758a.9339.9339 0 0 1 -.0914-1.1349l19.3-29.5767a.8324.8324 0 0 1 1.1911-.2334.929.929 0 0 1 .2219 1.2511l-18.9044 28.97 13.2266 14.3476a.9324.9324 0 0 1 -.019 1.2726.8345.8345 0 0 1 -.5958.2534z" fill="#b8d26f"/><path d="m238.6858 197.9832a.8791.8791 0 0 1 -.8566-.9v-8.0167a.8576.8576 0 1 1 1.7131 0v8.0167a.879.879 0 0 1 -.8565.9z" fill="#b8d26f"/><path d="m238.6858 267.9226a.8791.8791 0 0 1 -.8566-.9v-8.0168a.8576.8576 0 1 1 1.7131 0v8.0168a.879.879 0 0 1 -.8565.9z" fill="#b8d26f"/><path d="m275.7841 228.9444h-7.63a.9011.9011 0 0 1 0-1.8h7.63a.901.901 0 0 1 0 1.8z" fill="#b8d26f"/><path d="m209.2175 228.9444h-7.63a.9011.9011 0 0 1 0-1.8h7.63a.901.901 0 0 1 0 1.8z" fill="#b8d26f"/><path d="m173.62 228.9444h-68.8721a.9011.9011 0 0 1 0-1.8h68.8721a.9011.9011 0 0 1 0 1.8z" fill="#b8d26f"/><path d="m186.27 207.4767h-25.0994a.901.901 0 0 1 0-1.8h25.0994a.901.901 0 0 1 0 1.8z" fill="#b8d26f"/><path d="m164.5838 249.9422h-10.4411a.901.901 0 0 1 0-1.8h10.4411a.901.901 0 0 1 0 1.8z" fill="#b8d26f"/><path d="m413.9873 508.296-323.975.5287a89.0724 89.0724 0 0 1 -8.6281-35.4035c-1.0342-35.7289 20.1868-60.845 28.8158-69.6342 4.1421-4.2192 24.3207-24.8361 53.356-27.7306 49.6309-4.9476 59.0174 48.4606 119.6813 64.3092 58.9256 15.3945 102.4328-21.3168 128.24 7.0761 2.9344 3.2284 13.9448 15.3441 13.6389 32.6823-.2482 14.0474-7.8062 24.2074-11.1289 28.172z" fill="#b8d26f" opacity=".3"/><ellipse cx="321.397" cy="304.6389" fill="#b8d26f" opacity=".3" rx="11.3985" ry="11.9761"/><ellipse cx="415.631" cy="412.5859" fill="#b8d26f" opacity=".3" rx="7.5717" ry="7.9554"/><path d="m208.5687 509.4366h-87c-.05-.2-.1009-.4063-.1457-.6124h86.8658c.1005.212.1958.4181.2799.6124z" fill="#fff"/><path d="m294.8134 278.2459a3.8707 3.8707 0 1 1 3.866 4.0619 3.9676 3.9676 0 0 1 -3.866-4.0619z" fill="#b8d26f" opacity=".3"/><path d="m290.1726 356.7835a302.5708 302.5708 0 0 0 52.1034-13.9161 306.4369 306.4369 0 0 0 35.7345-15.7022q.5108 15.0237 1.0214 30.0475a298.51 298.51 0 0 1 -40.3861 15.6228 294.8851 294.8851 0 0 1 -51.1288 10.7761q1.3277-13.414 2.6556-26.8281z" fill="#69b44b"/><path d="m182.5719 346.531a34.6837 34.6837 0 0 1 6.4935 4.8629 35.7964 35.7964 0 0 1 5.6025 6.8373c2.4874 3.8721 9.8628 13.3425 29.85 36.5769l-26.98 8.4147-12.1137-15.3676q-1.4264-20.6621-2.8523-41.3242z" fill="#92063d"/><path d="m298.5939 353.0161-33.4734 35.17h-60.3505l33.4735-35.17z" fill="#d5a75c"/><path d="m258.4583 335.6511c.38 5.7683-1.43 9.7036-4.9318 14.1238-2.8864 3.2895-6.1149 6.6031-6.15 11.315-.2054 4.7245 1.9657 8.9129 6.6583 9.4781 16.146 1.7235 17.5508-37.1392 8.1026-36.6335z" fill="#581646"/><path d="m261.2924 331.0937a2.6421 2.6421 0 0 0 -2.4369 1.108c-.5379.8146-.1614 2.0282-.3947 2.9761a9.0644 9.0644 0 0 1 -1.94 4.1751c1.7738.0251 3.0765-.3795 3.8568-1.9877-.2077 3.5832 2.25 2.7842 1.7518-.2823a6.1847 6.1847 0 0 0 2.3271 1.6922 3.2457 3.2457 0 0 0 -.9181-2.7252c1.12 1.3147 3.7649 1.1219 5.0162-.0545-2.6848-.4258-4.06-5.6-6.5379-5.109z" fill="#b8d26f"/><path d="m260.8063 332.6807c-.259-1.6879-1.2526-3.3217-1.08-5.1962a4.2012 4.2012 0 0 1 1.9-.2937 34.7076 34.7076 0 0 1 .503 5.3929z" fill="#b8d26f"/><path d="m270.0749 356.9879c.06-.2485.1184-.4934.1786-.7361 0 0 .0665-.2711.1349-.5444a213.3889 213.3889 0 0 1 9.29-28.0807c.79-1.8612 1.9392-4.477 3.4349-7.5778-.3542 6.2208-1.5148 26.1806-2.2379 30.7884-.0435.2769-.0892.5572-.0892.5573a69.2769 69.2769 0 0 1 -1.6846 7.9725c-.2874.971-1.44 4.6444-4.0152 5.874a3.5244 3.5244 0 0 1 -2.2546.3593 3.9351 3.9351 0 0 1 -2.3184-1.725c-1.5083-2.1881-.7882-5.4076-.4385-6.8875z" fill="#ea5f00"/><path d="m278.7668 344.0141a3.3207 3.3207 0 0 1 -1.0126.1881 4.04 4.04 0 0 1 -1.0317-.091 4.09 4.09 0 0 1 -.9809-.3484 3.4384 3.4384 0 0 1 -.8565-.5983c.3223.1247.6342.2469.95.3521.3158.1032.6327.1917.9536.2624a9.7958 9.7958 0 0 0 .974.1595c.3288.0363.6612.0545 1.0041.0756z" fill="#a76242"/><path d="m276.7734 354.0631a3.3177 3.3177 0 0 1 -1.0126.1881 4.0414 4.0414 0 0 1 -1.0318-.091 4.0912 4.0912 0 0 1 -.9808-.3484 3.4388 3.4388 0 0 1 -.8565-.5982c.3223.1247.6342.2468.95.352.3158.1032.6327.1917.9535.2624a9.8026 9.8026 0 0 0 .9741.16c.3288.0358.6612.0541 1.0041.0751z" fill="#a76242"/><path d="m281.9464 336.4936a3.3205 3.3205 0 0 1 -1.0126.188 4.0414 4.0414 0 0 1 -1.0318-.091 4.0853 4.0853 0 0 1 -.9808-.3484 3.4412 3.4412 0 0 1 -.8566-.5982c.3224.1247.6343.2469.95.3521.3158.1032.6327.1917.9535.2623a9.7446 9.7446 0 0 0 .9741.1595c.3289.0364.6613.0546 1.0042.0757z" fill="#a76242"/><path d="m276.4763 350.144a18.9742 18.9742 0 0 0 1.981.4588 16.5045 16.5045 0 0 0 1.9883.2177c.1435.0082.2877.0134.4307.0166-.0291.1875-.06.3731-.09.5587-.1219 0-.2452-.004-.3672-.01a8.564 8.564 0 0 1 -2.055-.3487 6.652 6.652 0 0 1 -1.8878-.8931z" fill="#a76242"/><path d="m276.3669 363.1846a3.3171 3.3171 0 0 1 -1.0126.1881 4.0406 4.0406 0 0 1 -1.0317-.091 4.09 4.09 0 0 1 -.9809-.3484 3.4406 3.4406 0 0 1 -.8565-.5982c.3224.1247.6343.2468.95.352.3159.1032.6328.1917.9536.2624a9.8054 9.8054 0 0 0 .974.1595c.3288.0363.6612.0546 1.0041.0756z" fill="#a76242"/><path d="m270.2528 356.2509c.0437-.1824.0888-.3644.1342-.5439.2139.0795.4309.1555.6475.2265a18.6228 18.6228 0 0 0 2.47.6364 21.7934 21.7934 0 0 0 2.5564.3027 9.0326 9.0326 0 0 1 -2.61.1343 11.2078 11.2078 0 0 1 -2.5786-.5338c-.2086-.0683-.4148-.1431-.6195-.2222z" fill="#a76242"/><path d="m291.45 344.226c-.039-.9513-.226-1.9506-.2421-2.979.0193-.335-.0047-1.877.3834-2.0894.5323-.4206 1.1308.2893 1.1888.9055-.0744-1.6446-.153-3.546.8523-5.0031 1.51-2.0574 1.7865-.0051 1.3948 1.57a7.8643 7.8643 0 0 1 2.3908-3.6407c.6987-.7063 3.4593-2.6052 4.1936-.9977.937 2.0152-4.8665 6.4862-6.1479 7.511.532-.42 3.4246-1.679 3.6154-.4221.1639 1.0772-3.273 1.9847-3.98 2.1769 1.93-.2133 3.0955.77.7852 1.7093a35.2658 35.2658 0 0 1 -3.4328 1.1647z" fill="#00943c"/><path d="m291.5035 352.0357c-.133.2149-.2642.4266-.3959.6358-.0973.1578-.197.3163-.2954.4691a121.837 121.837 0 0 1 -9.4625 13.0337l-5.8212-3.793c1.1717-2.7441 2.5262-5.6055 3.8608-8.2023q.1272-.2521.2561-.4969a67.0584 67.0584 0 0 1 4.0517-6.9693c.5712-.8209 2.7937-3.9041 5.61-4.1908a3.5226 3.5226 0 0 1 2.2438.4274 4.1191 4.1191 0 0 1 1.6616 2.421c.7519 2.5834-.9219 5.3843-1.709 6.6653z" fill="#ea5f00"/><path d="m279.2805 361.3519a3.3177 3.3177 0 0 1 1.0159.1667 4.1364 4.1364 0 0 1 .9481.4373 4.2587 4.2587 0 0 1 .8206.6634 3.6088 3.6088 0 0 1 .6259.8575c-.2666-.2277-.524-.4494-.79-.6563-.267-.2051-.5395-.3967-.8213-.5727s-.5728-.335-.8723-.4824-.609-.2768-.9269-.4135z" fill="#a76242"/><path d="m284.2645 352.5231a3.3213 3.3213 0 0 1 1.016.1667 4.1377 4.1377 0 0 1 .948.4373 4.2587 4.2587 0 0 1 .8206.6634 3.6088 3.6088 0 0 1 .6259.8575c-.2665-.2277-.5239-.4494-.79-.6563-.267-.2051-.54-.3967-.8213-.5727s-.5728-.335-.8723-.4824-.609-.2766-.9269-.4135z" fill="#a76242"/><path d="m283.3372 356.3321a19.61 19.61 0 0 0 -1.7327-1.1083 16.9273 16.9273 0 0 0 -1.814-.8826c-.1332-.0567-.268-.1106-.4023-.1624.0854-.1674.1713-.3327.2572-.4979.1154.0413.2307.0872.3442.1348a8.8261 8.8261 0 0 1 1.8367 1.0292 6.9569 6.9569 0 0 1 1.5109 1.4872z" fill="#a76242"/><path d="m287.4611 344.0317a3.3213 3.3213 0 0 1 1.016.1667 4.1384 4.1384 0 0 1 .9481.4373 4.2551 4.2551 0 0 1 .82.6634 3.6033 3.6033 0 0 1 .6259.8575c-.2665-.2277-.5239-.4494-.79-.6563-.267-.2051-.54-.3967-.8213-.5727s-.5728-.3349-.8724-.4824-.6084-.2768-.9263-.4135z" fill="#a76242"/><path d="m291.108 352.6725c-.0976.1576-.1964.3145-.2947.4688-.1779-.1479-.36-.2937-.5427-.4345a19.3061 19.3061 0 0 0 -2.14-1.4426 22.3676 22.3676 0 0 0 -2.3253-1.1564 9.13 9.13 0 0 1 2.51.7611 11.5754 11.5754 0 0 1 2.2751 1.3826c.1763.1355.3482.2767.5176.421z" fill="#a76242"/><path d="m277.5491 368.1969c.1549-.198.3077-.3931.4607-.5856 0 0 .17-.2153.3432-.4317a201.7832 201.7832 0 0 1 19.8132-21.2236c1.4711-1.3284 3.5731-3.1782 6.186-5.311-2.8487 5.4662-12.01 22.9939-14.5372 26.836-.1518.2309-.307.4639-.307.4639a66.0626 66.0626 0 0 1 -4.7637 6.4532c-.6544.7491-3.1892 3.5539-6.018 3.51a3.5468 3.5468 0 0 1 -2.1847-.6866 4.1757 4.1757 0 0 1 -1.3953-2.6c-.4745-2.6553 1.4851-5.2434 2.4028-6.4246z" fill="#f18100"/><path d="m290.6817 360.3652a3.3364 3.3364 0 0 1 -.9921-.2843 4.19 4.19 0 0 1 -.8959-.5452 4.3284 4.3284 0 0 1 -.7454-.7551 3.6623 3.6623 0 0 1 -.5313-.9252c.2408.2574.4731.5078.7156.7444.2436.235.4942.4572.7556.6651s.5338.4.8159.5812.5759.3462.8776.5191z" fill="#ea5f00"/><path d="m284.7949 368.5575a3.34 3.34 0 0 1 -.9921-.2842 4.2005 4.2005 0 0 1 -.8959-.5452 4.3324 4.3324 0 0 1 -.7454-.7552 3.6606 3.6606 0 0 1 -.5313-.9252c.2408.2574.4732.5078.7156.7444.2436.2351.4942.4573.7556.6651s.5338.4.8159.5812.5761.3462.8776.5191z" fill="#ea5f00"/><path d="m296.6134 354.9914a3.3364 3.3364 0 0 1 -.9921-.2843 4.19 4.19 0 0 1 -.8959-.5452 4.3248 4.3248 0 0 1 -.7454-.7551 3.6623 3.6623 0 0 1 -.5313-.9252c.2408.2574.4731.5078.7156.7444.2436.235.4942.4572.7556.6651s.5338.4.8159.5812.5761.3462.8776.5191z" fill="#ea5f00"/><path d="m286.1192 364.88a19.9053 19.9053 0 0 0 1.6048 1.3037 17.16 17.16 0 0 0 1.7094 1.0889c.1264.0719.2547.1412.3827.2083-.1026.1565-.2054.3107-.3083.4649-.11-.0545-.22-.1137-.3278-.1742a8.9541 8.9541 0 0 1 -1.7165-1.2373 7.07 7.07 0 0 1 -1.3443-1.6543z" fill="#ea5f00"/><path d="m280.72 376.6232a3.3393 3.3393 0 0 1 -.9921-.2843 4.1924 4.1924 0 0 1 -.8959-.5452 4.3284 4.3284 0 0 1 -.7454-.7551 3.6623 3.6623 0 0 1 -.5313-.9252c.2408.2574.4731.5078.7156.7444.2436.235.4942.4572.7556.6651s.5338.4.8159.5812.5762.3459.8776.5191z" fill="#ea5f00"/><path d="m278.01 367.61c.1136-.1453.2284-.29.3424-.4315.1611.1678.3264.3339.4934.4952a19.6 19.6 0 0 0 1.9744 1.6835 22.7 22.7 0 0 0 2.1886 1.4207 9.23 9.23 0 0 1 -2.4142-1.0494 11.7548 11.7548 0 0 1 -2.1148-1.64c-.1612-.1547-.3172-.3152-.4698-.4785z" fill="#ea5f00"/><path d="m271.7168 352.9013c-.5625-.9767-1.3071-1.9141-1.8877-2.9856-.1635-.3638-1.0342-1.9705-.7425-2.4287.3289-.7644 1.3474-.38 1.7462.2324-.98-1.6839-2.105-3.6354-1.847-5.7759.4592-3.0767 1.8756-1.0865 2.3273.8063a9.8479 9.8479 0 0 1 .5174-5.2747c.3474-1.1655 2.2086-4.8327 3.862-3.5871 2.09 1.5516-1.56 9.7648-2.3456 11.6178.3288-.7641 2.68-3.838 3.57-2.6321.7629 1.0335-2.3529 4.0677-2.99 4.6974 1.9124-1.3925 3.6764-1.0643 1.7626 1.3218-.8385 1.0694-2.3326 2.6727-2.97 3.3023z" fill="#23a636"/><path d="m274.7453 357.8188c-.0491.251-.0976.4984-.1476.7437-.0357.1843-.0734.37-.112.55a127.0937 127.0937 0 0 1 -4.2786 15.7642l-6.7375-1.2975c.137-3.0041.4033-6.1876.7431-9.1171q.0308-.2835.0658-.5608a69.4421 69.4421 0 0 1 1.3494-8.0426c.2465-.9834 1.2438-4.7064 3.7656-6.0537a3.5322 3.5322 0 0 1 2.2373-.4631 3.912 3.912 0 0 1 2.3884 1.6162c1.5983 2.1165 1.0136 5.3661.7261 6.8607z" fill="#f18100"/><path d="m266.6046 371.1815a3.3285 3.3285 0 0 1 1.0038-.2347 4.1 4.1 0 0 1 2.029.3461 3.4186 3.4186 0 0 1 .8807.5581c-.3273-.11-.6439-.2174-.9634-.3079-.32-.0885-.64-.1623-.9636-.2181a9.7663 9.7663 0 0 0 -.98-.1143c-.3302-.0207-.6631-.024-1.0065-.0292z" fill="#ea5f00"/><path d="m268.1757 361.05a3.3284 3.3284 0 0 1 1.0037-.2346 4.1016 4.1016 0 0 1 2.0291.346 3.4213 3.4213 0 0 1 .8807.5581c-.3273-.11-.644-.2174-.9635-.3079-.32-.0885-.64-.1623-.9636-.218a9.7645 9.7645 0 0 0 -.98-.1144c-.3301-.021-.663-.0239-1.0064-.0292z" fill="#ea5f00"/><path d="m268.6364 364.9518a18.87 18.87 0 0 0 -1.9983-.3669 16.4765 16.4765 0 0 0 -1.9955-.1256c-.1437-.0017-.2879 0-.431.0032.0214-.1887.0439-.3755.0664-.5623.1218-.0058.2451-.0073.3673-.0065a8.5446 8.5446 0 0 1 2.0676.2534 6.62 6.62 0 0 1 1.9235.8047z" fill="#ea5f00"/><path d="m268.2 351.9187a3.3292 3.3292 0 0 1 1.0038-.2347 4.1 4.1 0 0 1 2.029.3461 3.4166 3.4166 0 0 1 .8807.558c-.3272-.11-.6439-.2173-.9634-.3078-.32-.0885-.64-.1623-.9636-.2181a9.7663 9.7663 0 0 0 -.98-.1143c-.3301-.0212-.6629-.024-1.0065-.0292z" fill="#ea5f00"/><path d="m274.5984 358.5633c-.036.1842-.0735.3681-.1113.55-.2171-.07-.437-.1354-.6563-.1964a18.5786 18.5786 0 0 0 -2.4938-.5217 21.7426 21.7426 0 0 0 -2.5666-.1843 9.0392 9.0392 0 0 1 2.6014-.2547 11.1755 11.1755 0 0 1 2.5985.4142c.2112.0581.4204.1236.6281.1929z" fill="#ea5f00"/><path d="m280.6981 350.8473c1.1793-.62 2.5213-1.0762 3.7777-1.7814.392-.2624 2.2759-1.32 2.2587-1.9887.1332-1.0085-1.1492-1.3068-1.9362-.949 2.0436-1.0625 4.4012-2.3009 5.4551-4.6741 1.4242-3.4713-1.2563-2.3912-2.8863-.755a11.6456 11.6456 0 0 0 2.7186-5.7678c.3614-1.4328.71-6.4639-1.7552-6.31-3.1018.1716-4.4142 11.0871-4.7495 13.5238.1331-1.0082-.387-5.7634-2.0435-5.13-1.42.5421-.09 5.7767.1763 6.8569-1.1056-2.7305-3.119-3.5933-2.6242.1582.2021 1.6683.7483 4.3307 1.0153 5.4109z" fill="#69b44b"/><path d="m284.8046 358.8294c-.0826.277-.1641.55-.2469.82-.06.2034-.1228.4082-.1857.6064a142.6768 142.6768 0 0 1 -6.5278 17.2533l-7.452-2.2671c.4795-3.3689 1.1243-6.9246 1.8242-10.1851q.0654-.316.1348-.6242a78.1574 78.1574 0 0 1 2.3912-8.9019c.3842-1.0786 1.911-5.1549 4.8986-6.3719a3.9818 3.9818 0 0 1 2.5714-.2545 4.4918 4.4918 0 0 1 2.5164 2.1067c1.5721 2.5763.5612 6.1689.0758 7.8183z" fill="#f7931e"/><path d="m274.1845 372.915a3.7518 3.7518 0 0 1 1.1566-.1445 4.5822 4.5822 0 0 1 1.1611.1724 4.6582 4.6582 0 0 1 1.0879.46 3.9272 3.9272 0 0 1 .9321.7341c-.3569-.1627-.7022-.3219-1.0524-.462-.3508-.138-.7038-.2594-1.0623-.3609a11.105 11.105 0 0 0 -1.0917-.2459c-.37-.0633-.7448-.1063-1.1313-.1532z" fill="#f18100"/><path d="m277.0516 361.6858a3.7508 3.7508 0 0 1 1.1565-.1445 4.5822 4.5822 0 0 1 1.1611.1724 4.6582 4.6582 0 0 1 1.0879.46 3.9272 3.9272 0 0 1 .9321.7341c-.3569-.1627-.7022-.3218-1.0524-.462-.3508-.138-.7038-.2594-1.0623-.3609a11.105 11.105 0 0 0 -1.0917-.2459c-.37-.0633-.7448-.1063-1.1312-.1532z" fill="#f18100"/><path d="m277.1484 366.1376a21.5186 21.5186 0 0 0 -2.2121-.6522 18.721 18.721 0 0 0 -2.2351-.38c-.1617-.019-.3245-.0346-.486-.0479.0444-.21.09-.4178.1356-.6257.1379.008.277.0211.4146.0366a9.7271 9.7271 0 0 1 2.3026.5325 7.5856 7.5856 0 0 1 2.0804 1.1367z" fill="#f18100"/><path d="m278.0675 351.3986a3.7508 3.7508 0 0 1 1.1565-.1445 4.5822 4.5822 0 0 1 1.1611.1724 4.6582 4.6582 0 0 1 1.0879.46 3.9272 3.9272 0 0 1 .9321.7341c-.3569-.1627-.7022-.3219-1.0524-.462-.3509-.138-.7038-.2594-1.0623-.3609a11.105 11.105 0 0 0 -1.0917-.2459c-.37-.0633-.7448-.1063-1.1312-.1532z" fill="#f18100"/><path d="m284.5584 359.6509c-.06.2032-.1227.406-.1849.6059-.2371-.1042-.4778-.2048-.7183-.3a21.1759 21.1759 0 0 0 -2.7538-.8859 24.7363 24.7363 0 0 0 -2.8723-.5144 10.2224 10.2224 0 0 1 2.959.0238 12.7406 12.7406 0 0 1 2.8834.7772c.2316.0916.4603.1904.6869.2934z" fill="#f18100"/><path d="m298.5939 353.0161v31.2084l-33.4734 35.17v-31.2088c0-.0059.0057-.0059.0113-.0119l4.59-4.8223c.0056-.0059.0056-.0119.0113-.0119l6.1272-6.4376.17-.1782.6953-.73 1.17-1.2294.1413-.1484.4692-.493.6952-.73.7744-.8137 2.0292-2.132.1639-.1722.9044-.95.9213-.968.164-.1723 2.4531-2.5774.1583-.1663q4.9515-5.2023 9.8973-10.3929c.0791-.0891.1526-.1663.2317-.2494z" fill="#edbe77"/><path d="m244.9708 384.4078a2.766 2.766 0 0 0 1.8923-1.2627c.3679-.7346.3613-1.6271.6955-2.3839a12.33 12.33 0 0 1 1.3372-1.8158 2.5041 2.5041 0 0 0 .2338-1.7921 1.77 1.77 0 0 1 .892-1.8762c.6721-.3895 1.8895-.3315 2.4215-.937.5652-.6436-.8245-2.0709.505-3.2884 1.1913-1.0908-1.8731-1.2882-1.4012-2.4064.3215-.7626 1.8989-1.5953 2.1862-2.3583.2924-.7763-1.2446-1.6549-1.22-2.4554.0354-1.1769 2.236-.7766 1.83-2.347-.2269-.8779 2.2365-1.6642 1.7416-4.2077-.3884-1.996-2.0565-1.3757-1.7285-3.567.3244-2.1664 3.3614-3.7368 1.6559-6.5844-.4561-.7614 1.5153-1.178 1.0467-3.3453-.317-1.4669-2.1626-2.064-1.7466-3.4929.493-1.6913-.8224-3.1788-1.7685-3.7812-.7346-.4676-1.8784.3545-2.6126.5616-1.1855.3346-1.6465-3.0576-3.1913-2.0029-2.3368 1.5957-3.2726-.5694-4.0094-.0007-1.138.8787-1.5819 2.6677-3.13 2.2963-1.0973-.2633-.8824 1.8121-2.6187 2.2492-1.9221.4835.4561 3.6658-.734 3.1679-1.0774-.4508-1.6563 3.1966-2.7455 3.04-.9113-.1309 1.31 3.9888-.4 4.2682-1.8354.3-.5838 1.7223-.7789 3.3466-.237 1.9745-2.3188 2.2521-1.1608 5.2891.8614 2.2584-1.5143 1.4244-.6613 3.9078.5371 1.5639-2.782 1.5534-2.4881 2.6792.2495.9545 1.65 2.2072.6963 3.25-.692.7564.1615 1.7876-.3281 2.6469a3.4336 3.4336 0 0 0 -.7091 2.3735c.1555 1.0051.6659 1.8928.7431 2.9249.1361 1.8233.0815 2.546 1.4065 4.1431.7843.9457.8876 1.3714 1.9814 1.8357 1.0057.4269 1.7622 1.0623 2.765 1.4973z" fill="#23a636"/><path d="m232.0633 386.6933a11.5915 11.5915 0 0 0 4.3148 1.8689 10.6107 10.6107 0 0 0 4.5764.2645l.9271-4.2652-8.8913-2.1334z" fill="#b8d26f"/><path d="m231.5849 375.93c.3619-.9626.2743-1.9961.554-2.9709a2.47 2.47 0 0 1 .1071-.2965c.013-.03.0279-.0581.0418-.087.0292-.0609.06-.12.0931-.1759.0178-.03.0364-.0593.0553-.0879q.0513-.0776.1076-.1492c.02-.0252.039-.051.0595-.0752.0459-.0539.0942-.1054.1441-.1553.014-.0139.0268-.029.0411-.0427.0647-.0623.1327-.1217.2029-.1794.023-.0189.0473-.0371.0708-.0556.05-.04.1009-.0789.1533-.1173.0308-.0227.0624-.0454.0939-.0678.021-.0149.0412-.03.0626-.0451.0122-.0088.0556-.0387.1064-.0735.0945-.0649.1907-.13.2891-.1974.7987-.5463.4627-1.8662 1.4-2.2271a1.3107 1.3107 0 0 0 .209-.1025 1.0637 1.0637 0 0 0 .0974-.0716c.0233-.0178.0487-.0343.07-.0534a1.0278 1.0278 0 0 0 .0963-.1035c.012-.0143.0256-.0277.0368-.0426a1.1185 1.1185 0 0 0 .0767-.12c.0089-.0157.0187-.0308.0268-.0469a1.2623 1.2623 0 0 0 .0535-.124c.0082-.0215.0167-.0427.0238-.0647.0123-.0376.0226-.0762.0321-.1151.0077-.032.0152-.064.0212-.0968.0058-.0307.0108-.0618.0152-.0931.0064-.0461.0117-.0927.0154-.14.0017-.0209.0036-.0417.0048-.0627q.0051-.0868.0054-.1759c0-.0154.0006-.0309 0-.0464 0-.0466-.002-.0937-.0036-.1408-.0175-.45-.0937-.8918-.0768-1.1914 0-.0053 0-.01 0-.0152 0-.0285 0-.0563 0-.0842 0-.0433.0015-.0856.0035-.1264l.0034-.0535c.0035-.0465.0091-.0912.016-.1344.0018-.0117.0022-.0246.0043-.036l.0028-.01a1.01 1.01 0 0 1 .0487-.17c.0062-.016.0139-.03.021-.0456a.7874.7874 0 0 1 .0557-.1014c.0107-.0163.0215-.0325.0332-.0478a.8022.8022 0 0 1 .0662-.0746c.015-.0153.0293-.0316.0454-.0458.02-.0177.0442-.0344.0671-.0514s.0438-.0342.0676-.0492l.0049-.0036a1.1459 1.1459 0 0 1 .1294-.0719c.2095-.1043.4524-.1786.6852-.28.04-.0175.0784-.0363.1169-.0554.017-.0083.0342-.0163.0509-.0251.0365-.0191.071-.04.1055-.0613.0224-.0137.0449-.0271.0667-.042.0286-.0195.055-.0409.0814-.0622.0247-.02.0494-.04.0728-.0615.0175-.0163.0339-.0327.05-.0493a1.1382 1.1382 0 0 0 .1083-.1287l.0047-.006a1.2107 1.2107 0 0 0 .102-.18l.012-.0266a1.4367 1.4367 0 0 0 .065-.187c.0072-.0265.0141-.053.02-.08a1.9182 1.9182 0 0 0 .042-.24 3.2428 3.2428 0 0 1 .0547-.3454 1.4573 1.4573 0 0 1 .234-.5959c.0184-.0267.0368-.0533.0564-.0768l.001-.0009a.9.9 0 0 1 .1338-.129l.0153-.0125a.8925.8925 0 0 1 .147-.09l.0166-.0076a1.2587 1.2587 0 0 1 .3364-.0981l.011-.0018c.1941-.03.3976-.031.5945-.0426q.0582-.0033.1153-.0085l.0583-.006c.0432-.0049.0856-.0114.1274-.0191l.043-.0082a1.1707 1.1707 0 0 0 .1411-.04l.0318-.0127a.85.85 0 0 0 .1233-.06l.0177-.01a.7633.7633 0 0 0 .1206-.0967l.0259-.0262a.8341.8341 0 0 0 .1044-.1357l.0121-.0223a1.1423 1.1423 0 0 0 .0784-.1678l.0139-.0353a1.7724 1.7724 0 0 0 .0614-.2309c.0036-.0178.0067-.0368.01-.0554a2.8192 2.8192 0 0 0 .0372-.2985c.2278-3.2631 2.9481-2.2309 3.9856-3.8958.8537-1.3694-.6009-4.1077 1.1734-3.531a1.1179 1.1179 0 0 0 .1388.0358c.0142.0026.0264.0028.04.0046a.6766.6766 0 0 0 .0793.0074c.0143 0 .0269-.0019.04-.0029a.4453.4453 0 0 0 .061-.0071.34.34 0 0 0 .0362-.0114.327.327 0 0 0 .0487-.0193.3052.3052 0 0 0 .0313-.02.3293.3293 0 0 0 .0388-.03.357.357 0 0 0 .0261-.0274.3989.3989 0 0 0 .0309-.04c.0074-.011.0145-.0224.0212-.0344q.0131-.0234.0244-.0491c.0057-.013.0114-.0261.0165-.04.007-.0189.0132-.0387.0192-.0591.0042-.0143.0086-.0285.0123-.0435.0057-.0225.0106-.0461.0152-.07l.0086-.0443c.0046-.027.0085-.0553.0123-.0838l.0055-.0412c.0042-.0353.0077-.072.011-.1092l.0023-.0238c.0138-.1652.022-.3463.036-.531l.0043-.0551c.0025-.0305.0056-.0609.0086-.0915l.0065-.0638c.0033-.03.0071-.0593.011-.0889l.0094-.0668c.0042-.0283.009-.0563.014-.0843.0041-.0233.0085-.0464.0132-.07q.0083-.0408.0179-.081c.0054-.023.0114-.0456.0175-.0682.0071-.0264.0146-.0526.0228-.0784.007-.0222.0148-.0439.0226-.0657.009-.0252.0182-.05.0284-.075.0088-.0212.0188-.0418.0285-.0625.0113-.0238.0223-.0477.0349-.0708.0109-.02.0235-.0393.0355-.0588.0136-.022.0266-.0443.0416-.0654.0136-.019.0292-.0366.044-.0547.0161-.02.0313-.04.0489-.0591s.0359-.0335.0539-.05a1.0438 1.0438 0 0 1 .1136-.0908c.022-.0152.0429-.0312.0666-.0452s.0485-.0243.0729-.0364.0491-.0253.076-.0363.0557-.0195.084-.0288.0567-.0193.0872-.0273.0624-.0137.0944-.02.0656-.0129.1005-.0177.07-.0077.1063-.0107.0743-.0057.1134-.007.0788-.0012.12-.0007c.0222 0 .0422-.0012.0651 0l-.0014.0025a4.1619 4.1619 0 0 1 .7492.1c1.0757.2364 1.4568-2.6265 3.7369-1.4662 1.1527.5867.5138-4.0029 1.9826-2.5081s1.7973-.4013 2.8291 1.0968-2.8412 3.7186-3.1656 5.885c-.328 2.1913 1.34 1.571 1.7285 3.567.4949 2.5434-1.9685 3.33-1.7416 4.2077.4057 1.57-1.7949 1.17-1.83 2.347-.0244.8 1.5126 1.6791 1.22 2.4554-.2873.763-1.8647 1.5957-2.1862 2.3583-.4719 1.1182 2.5925 1.3155 1.4012 2.4064-1.33 1.2175.06 2.6448-.505 3.2884a6.1968 6.1968 0 0 1 -1.7074 1.344c-.73.4234-.1451 1.46-.108 2.3214.1174 2.7268-2.7431 2.0169-3.0691 2.7556-.3342.7569-.3276 1.6494-.6955 2.384a2.501 2.501 0 0 1 -1.6379 1.1822 9.7988 9.7988 0 0 1 -1.9026.58l-7.2113-.9285c-1.0029-.4351-.5764-.567-1.582-.9939a8.6077 8.6077 0 0 1 -2.1675-1.3536.4889.4889 0 0 0 -.0806-.112c-.3554-.3789-1.4143-.5689-2.0574-.8769-.2617-.1253-.4566-.27-.5041-.4551-.5226-2.0434 1.227-2.5533 1.8659-4.2548z" fill="#69b44b"/><path d="m240.7976 383.3805c1.6645-.709 5.73-8.6708 7.2362-14.3162a57.5415 57.5415 0 0 1 5.1362-13.7423c-2.3547.374-5.1081 4.2023-6.274 9.8047-1.0435 5.0156-5.1974 4.7944-7.8856 8.4966.5-6.2769-.1034-22.4516-3.6643-24.73-.4426 2.0063 3.8269 11.062.5781 15.8016-2.6312 3.8383-4.9562 13.8113-3.3894 16.7173a9.9084 9.9084 0 0 0 8.2628 1.9683z" fill="#f7ffdc"/><path d="m226.9654 368.2291a1.352 1.352 0 0 0 .11.2512c.015.0252.031.0463.0461.0716a1.5417 1.5417 0 0 0 .1131.1611 7.6935 7.6935 0 0 0 .9915.9078 3.695 3.695 0 0 1 .5363.5609 1.7814 1.7814 0 0 1 .3407 1.0067c.0019.048-.005.0982-.0078.1494a.8948.8948 0 0 1 -.01.1014.5932.5932 0 0 1 -.014.0831c-.0134.0616-.0268.1232-.0441.1839a.0835.0835 0 0 1 -.011.0319 2.8507 2.8507 0 0 1 -.2309.5324c-.044.0889-.09.1686-.1363.2483a3.8331 3.8331 0 0 0 -.2783.5426c-.0066.0114-.0093.0237-.0159.0351-.02.0556-.0415.1154-.0588.1761l-.0411.1889c-.0032.0338-.0065.0676-.0088.0973-.0041.0379-.0091.08-.0094.1188.0016.0306-.0007.06.0008.091a1.3535 1.3535 0 0 0 .021.2254 13.5536 13.5536 0 0 1 .4542 2.2441c-.0129.8354-.3884 1.6357-.3586 2.464a2.946 2.946 0 0 0 1.1812 2.0037 3.1318 3.1318 0 0 0 .7441 1.0429 13.5136 13.5136 0 0 0 7.7686 3.6058 19.1343 19.1343 0 0 0 3.3518.2249 14.8069 14.8069 0 0 0 4.0574-4.1826q.3084-.4814.5613-.9545a2.9525 2.9525 0 0 0 1.0491-2.0822c-.0259-.8274-.4505-1.5993-.5164-2.4319a13.286 13.286 0 0 1 .3089-2.2728 1.8124 1.8124 0 0 0 .0043-.2281c-.0015-.0306-.0031-.0612-.0056-.0878a.87.87 0 0 0 -.0158-.1162c-.0046-.0356-.01-.0672-.0156-.0988-.0085-.0366-.0179-.0691-.03-.1067-.0072-.0233-.0136-.0508-.0239-.0792-.0206-.0568-.045-.1145-.07-.1722a.1866.1866 0 0 1 -.0172-.0344 4.753 4.753 0 0 0 -.3107-.52c-.0531-.0775-.1023-.1542-.1545-.2358a2.8783 2.8783 0 0 1 -.2659-.5177c-.0021-.0091-.0082-.0192-.01-.0284a1.7392 1.7392 0 0 1 -.0551-.1817.69.69 0 0 1 -.023-.0834c-.0055-.0315-.01-.0672-.0147-.1029a.9217.9217 0 0 1 -.0183-.1427 1.8323 1.8323 0 0 1 .2785-1.0353 3.9326 3.9326 0 0 1 .4953-.5943 7.3162 7.3162 0 0 0 .9285-.9788 1.1266 1.1266 0 0 0 .1057-.1648c.0141-.0269.0282-.0538.0414-.0766a1.3043 1.3043 0 0 0 .0941-.2626c.1887-.8494-1.6933-1.37-1.1076-3.1184.4588-1.3724-1.6-.4531-2.2-1.0249a.52.52 0 0 1 -.1525-.3392c-.0785-.8314.9023-2.3724.7912-3.1857-.1043-.8074-1.7813-.7948-2.1883-1.4587a.2749.2749 0 0 1 -.028-.0413c-.5223-1.0416 1.58-1.8381.4895-2.99-.6119-.6482 1.1594-2.609-.4683-4.5642-1.05-1.2633-2.0242-.5289-2.7484-1.3985a2.4792 2.4792 0 0 1 -.43-.8034 2.3541 2.3541 0 0 1 -.1-.374c-.3245-1.8759 1.9071-3.38-.7429-4.8721-.1977-.1123-.4059-1.8609-1.0371-1.8524-.57.01-.5787.5614-.9732.7865a1.3335 1.3335 0 0 0 -.535-.245c-.55-.1364-.54-.8082-1.1689-.7732s-.7238 1.7972-.9111 1.9208c-2.7126 1.7869.0993 3.1963-.5049 5.2945-.0319.1091-.0651.2048-.0973.2965a2.1788 2.1788 0 0 1 -.3288.604c-.6671.8168-1.6564.2206-2.602 1.5238-1.4978 2.0653.3951 3.8983-.17 4.5881-1.0152 1.226 1.1319 1.8708.68 2.9467-.3116.7334-2.0591.8242-2.1168 1.6575-.0541.8168 1.0212 2.2851.9957 3.1217-.0355 1.2233-2.8758.0016-2.2535 1.53.6916 1.7001-1.1494 2.3519-.904 3.193z" fill="#b8d26f"/><path d="m233.3047 363.7967c1.0553.2032 3.4023 2.9637 3.409 6.0645 2.0108-4.4483-1.244-13.3681-.8729-15.0758 3.2306 2.0524 4.8008 17.965 3.5907 26.1382.829-3.8142 2.1964-3.0488 1.6663-7.6664 1.274.8024 3.2954 9.0074.3023 12.3223-2.8527 1.2105-6.7113-.0115-8.5476-2.033-2.4048-5.2253 1.4089-8.1389 1.91-12.3652.5516-4.6459-1.454-6.0105-1.4578-7.3846z" fill="#f7ffdc"/><path d="m240.5181 373.547a2.9827 2.9827 0 0 0 .926-2.1449c-.0747-.8264-.5452-1.57-.66-2.3952a12.9943 12.9943 0 0 1 .1733-2.2885 2.4491 2.4491 0 0 0 -.7378-1.6343 1.8122 1.8122 0 0 1 -.2308-2.0833c.36-.7125 1.4087-1.3639 1.5385-2.1766.1378-.8637-1.7688-1.2591-1.29-3.0426.4288-1.598-2.2387-.001-2.4262-1.2082-.1282-.8232.7582-2.4271.6013-3.231-.16-.8178-1.9038-.6693-2.3-1.3533-.5835-1.0053 1.4668-1.9357.3093-3.0168-.6472-.6042 1.0049-2.6789-.7343-4.523-1.3647-1.4472-2.4377.0311-3.3046-1.9914-.8571-2 .8667-5.06-2.044-6.4629-.7784-.3751.6546-1.8573-.8666-3.4017-1.0294-1.0454-2.8851-.4839-3.2812-1.919-.4684-1.699-2.3442-2.1875-3.45-2.1476-.8584.031-1.3875 1.3768-1.8941 1.9723-.8178.9617-2.9707-1.6122-3.7142.1588-1.1246 2.6793-3.0355 1.4053-3.3559 2.305-.4948 1.39.0656 3.1423-1.4235 3.7217-1.0555.4106.2054 2.024-1.02 3.3883-1.3567 1.51 2.2912 2.8057 1.0359 3.0733-1.1366.2423.2789 3.6279-.7141 4.1233-.8309.4145 3.1744 2.5849 1.8884 3.8023-1.38 1.3063.4085 1.7772 1.0914 3.2489.83 1.7888-.7676 3.2182 1.7836 5.0941 1.8973 1.3948-.5254 2.0629 1.4821 3.6508 1.2642 1-1.5191 2.9-.6868 3.6731.706.6554 2.5308.8984 2.2757 2.32-.1851 1.031 1.0663 1.4033 1.1043 2.404a3.44 3.44 0 0 0 .6429 2.3942c.6536.7518 1.5432 1.2013 2.1455 2.0207 1.0636 1.4477 1.3944 2.084 3.3353 2.6587 1.149.3405 1.4571.6373 2.6145.397 1.0641-.2211 2.0281-.1243 3.0941-.3369z" fill="#23a636"/><path d="m230.9059 382.8821a11.3444 11.3444 0 0 0 4.5848-.917 11.0683 11.0683 0 0 0 3.9679-2.41l-1.4459-4.1028-8.5527 3.3273z" fill="#b8d26f"/><path d="m224.899 374.1491c-.1986-1.0137-.81-1.8282-1.0839-2.8049a2.5054 2.5054 0 0 1 -.0649-.31c-.0048-.0327-.0069-.0646-.01-.0968-.0072-.0678-.0125-.135-.0137-.2008-.0007-.0353 0-.0705 0-.1054.0016-.0629.0059-.1252.0123-.1867.0034-.0324.0061-.0651.0107-.0971.01-.0716.0239-.1425.04-.2129.0044-.02.0073-.04.0121-.0594.0218-.0893.0476-.1781.0764-.2668.0094-.029.02-.0582.03-.0872.0214-.0619.0433-.1241.0671-.1864.014-.0366.0287-.0738.0433-.1106.01-.0247.0188-.049.0289-.0738.0056-.0144.0264-.0644.0508-.1227.0453-.1086.0918-.2186.1391-.3315.3839-.9165-.5848-1.828.0121-2.6692a1.4224 1.4224 0 0 0 .1215-.2061 1.1781 1.1781 0 0 0 .0442-.1159c.01-.0283.0229-.0567.0307-.0849a1.1 1.1 0 0 0 .0266-.142c.0027-.0189.0071-.0379.0087-.0567a1.145 1.145 0 0 0 .0016-.1446c-.0007-.0182 0-.0366-.0019-.0547a1.3291 1.3291 0 0 0 -.02-.1345c-.0044-.0227-.0083-.0453-.0139-.0679-.0092-.0385-.0208-.0767-.033-.1147-.01-.0312-.0207-.0623-.0327-.0933q-.0168-.0435-.0357-.0866c-.0188-.0422-.0386-.0843-.06-.1262-.0094-.0184-.0187-.0369-.0286-.0551q-.0411-.0756-.0871-.15l-.0238-.0392c-.0244-.0389-.05-.0773-.0763-.1158-.249-.3663-.543-.6925-.6849-.9529l-.0079-.0127c-.0153-.0237-.0294-.0471-.0437-.0706-.0224-.0364-.0434-.0725-.0629-.1078l-.0251-.0468c-.0212-.0409-.04-.0815-.0566-.1216-.0045-.0108-.0109-.0219-.0152-.0327l-.0027-.01a1.0068 1.0068 0 0 1 -.0477-.17c-.0031-.017-.0041-.0336-.0062-.05a.8118.8118 0 0 1 -.0061-.1169c0-.02.001-.04.0028-.0591a.8952.8952 0 0 1 .0166-.1005c.0046-.0215.0081-.0433.0142-.0644.0076-.0265.019-.0543.0293-.0816s.0188-.0538.031-.08l.0022-.0057a1.237 1.237 0 0 1 .0709-.1346c.1209-.2078.2855-.41.4278-.628.0241-.0374.0467-.0754.069-.1135.01-.0168.02-.0333.03-.05.02-.037.0383-.0745.0563-.112.0116-.0244.0235-.0485.0339-.0735.0139-.0328.0247-.0658.0358-.0988.01-.0308.0206-.0616.0289-.0934.0061-.0237.0113-.0469.016-.07a1.2124 1.2124 0 0 0 .0235-.17l.0008-.0077a1.254 1.254 0 0 0 -.0084-.2094l-.0038-.0292a1.4909 1.4909 0 0 0 -.043-.194c-.0078-.0262-.0159-.0524-.0248-.0783a1.8674 1.8674 0 0 0 -.09-.2246 3.208 3.208 0 0 1 -.1341-.3206 1.4782 1.4782 0 0 1 -.1145-.6333c.0014-.0329.003-.0657.0071-.0967v-.0013a.96.96 0 0 1 .0448-.1849l.0063-.0192a.9644.9644 0 0 1 .0761-.16l.01-.0159a1.36 1.36 0 0 1 .2305-.2756l.0082-.0077c.147-.1364.3166-.2547.4754-.3776q.047-.0361.092-.0734l.0457-.0386q.05-.0434.0967-.0892l.0317-.0316a1.2482 1.2482 0 0 0 .0975-.1143l.02-.0289a.9032.9032 0 0 0 .0719-.121l.01-.0184a.8192.8192 0 0 0 .05-.15l.008-.0368a.8818.8818 0 0 0 .0168-.1737l-.0016-.0255a1.1631 1.1631 0 0 0 -.0217-.1855l-.0068-.0376a1.77 1.77 0 0 0 -.0689-.2285c-.0063-.017-.0136-.0347-.02-.0521a2.7724 2.7724 0 0 0 -.1244-.2712c-1.5091-2.8619 1.3053-3.5624 1.3064-5.5524.0011-1.637-2.6427-3.0924-.8573-3.63a1.1119 1.1119 0 0 0 .1348-.05c.0133-.006.0235-.0129.0358-.0191a.6879.6879 0 0 0 .07-.0394c.0121-.0081.0216-.0171.0323-.0256a.4843.4843 0 0 0 .0474-.0411.36.36 0 0 0 .0244-.03.364.364 0 0 0 .0306-.0442.4631.4631 0 0 0 .0328-.0819.3683.3683 0 0 0 .0076-.0379.4309.4309 0 0 0 .0051-.0512c0-.0135 0-.0271 0-.041-.0008-.018-.0026-.0364-.0052-.0551-.002-.0142-.0041-.0284-.007-.043-.004-.02-.0091-.04-.0147-.0605-.0039-.0144-.0077-.0287-.0123-.0435-.0071-.022-.0153-.0447-.0239-.0674l-.0158-.042c-.01-.0253-.0217-.0512-.0334-.0772l-.0168-.0376c-.015-.032-.0311-.0648-.0477-.0978l-.01-.0212c-.0745-.1462-.162-.3025-.2464-.4651l-.0252-.0486c-.0137-.0269-.027-.0542-.0405-.0815l-.0278-.0571c-.0127-.0268-.0248-.0538-.037-.0808l-.027-.0613c-.0112-.0261-.0218-.0523-.0322-.0786-.0087-.0219-.0171-.0437-.0252-.0658-.0095-.0259-.0185-.0519-.0272-.0781-.0074-.0223-.0142-.0446-.0208-.0671q-.0117-.0393-.0218-.0787c-.0057-.0226-.0105-.0452-.0153-.0679-.0056-.0264-.011-.0527-.0153-.0792-.0036-.0228-.006-.0457-.0086-.0687-.0031-.0264-.0062-.0528-.0078-.0793-.0013-.0232-.0008-.0464-.0008-.07 0-.0263-.0008-.0524.0007-.0787.0015-.0237.0054-.0474.0083-.0711.0031-.0259.0051-.0518.01-.0776s.0126-.0486.019-.0729a1.1208 1.1208 0 0 1 .0478-.1414c.0105-.0254.02-.0508.0322-.0761s.0279-.0483.042-.0724.028-.0495.0447-.0741.0365-.0483.0553-.0724.0374-.0487.0588-.073.0451-.0474.0686-.071.0481-.0485.0749-.0726.0547-.0468.0834-.07.0591-.0475.0912-.0711.0653-.0462.1-.0693c.0187-.0125.0347-.0253.0543-.0377v.0029a4.2858 4.2858 0 0 1 .6793-.3469c1.0234-.4206-.1489-3.0359 2.3638-3.376 1.27-.1718-1.6551-3.6456.3528-3.2392s1.2952-1.3693 2.9391-.7088-.4409 4.7461.4162 6.7457c.8669 2.0225 1.94.5442 3.3046 1.9914 1.7391 1.8441.0871 3.9188.7343 4.523 1.1575 1.0811-.8928 2.0115-.3093 3.0168.3965.684 2.1406.5355 2.3 1.3533.1569.8039-.73 2.4078-.6013 3.2309.1875 1.2073 2.855-.39 2.4262 1.2083-.4785 1.7835 1.4281 2.1789 1.29 3.0426a6.6821 6.6821 0 0 1 -.7289 2.1066c-.39.774.6393 1.3058 1.1189 2.005 1.5186 2.2147-1.2452 3.2654-1.1332 4.0711.1145.8257.585 1.5688.66 2.3952a2.6941 2.6941 0 0 1 -.755 1.9313 10.5733 10.5733 0 0 1 -1.29 1.5794l-6.5192 3.37c-1.0659.2126-.7777-.1431-1.8417.0779a8.2737 8.2737 0 0 1 -2.5192.1135.4559.4559 0 0 0 -.1257-.0474 9.1812 9.1812 0 0 0 -2.1788.4492.79.79 0 0 1 -.6589-.0911c-1.5039-1.4124-.3052-2.8452-.6567-4.6366z" fill="#69b44b"/><path d="m236.49 375.087c1.0237-1.55.2788-10.5517-1.4012-16.1428a58.3171 58.3171 0 0 1 -2.86-14.4549c-1.776 1.667-2.0862 6.4544-.1436 11.8136 1.7393 4.7978-1.8525 7.0014-2.1738 11.6456-2.8513-5.5409-11.7818-18.731-15.9489-18.59.6747 1.9336 8.9651 7.0576 8.715 12.8926-.2027 4.7253 3.0464 14.4091 5.8715 15.94a10.0274 10.0274 0 0 0 7.941-3.1041z" fill="#f7ffdc"/><path d="m217.0212 370.36a1.2465 1.2465 0 0 0 .2228.147c.0258.0124.05.021.0759.0334a1.4342 1.4342 0 0 0 .1786.07 7.2184 7.2184 0 0 0 1.3027.19 3.4509 3.4509 0 0 1 .7411.1611 1.655 1.655 0 0 1 .8095.6466c.0266.0391.047.0851.0713.1295a.8633.8633 0 0 1 .0447.0905.5912.5912 0 0 1 .0316.0775c.0209.0593.0418.1186.0589.1793a.0868.0868 0 0 1 .0074.0331 2.9086 2.9086 0 0 1 .084.5784c.01.1.0124.1929.0154.2861a3.9589 3.9589 0 0 0 .05.6142c0 .0133.0046.0252.005.0385.012.0582.0254.12.0425.1812l.0641.1817c.0149.03.03.06.0433.0866a1.1518 1.1518 0 0 0 .054.1047c.0173.0248.0308.051.0481.0757a1.28 1.28 0 0 0 .1349.1767 12.685 12.685 0 0 1 1.5492 1.6169c.4243.7066.5269 1.5923.9833 2.2685a2.73 2.73 0 0 0 2.0323.9977 2.8965 2.8965 0 0 0 1.1661.445 13.2662 13.2662 0 0 0 8.38-1.4494 19.85 19.85 0 0 0 2.9224-1.7392 15.8343 15.8343 0 0 0 1.2171-5.8338c.0048-.3868-.0054-.7609-.0275-1.1215a3.0376 3.0376 0 0 0 -.2067-2.346c-.4526-.6776-1.21-1.0794-1.6989-1.7385a12.9856 12.9856 0 0 1 -.9254-2.08 1.74 1.74 0 0 0 -.1152-.1933c-.0172-.0247-.0345-.0495-.05-.07a.84.84 0 0 0 -.0738-.0881c-.0224-.0272-.0435-.05-.0645-.0737-.0262-.0258-.051-.0476-.0809-.0719-.0183-.0154-.0379-.0347-.0613-.0525-.0468-.0357-.0973-.07-.1479-.1042a.1754.1754 0 0 1 -.0323-.0189 4.3537 4.3537 0 0 0 -.5308-.2563c-.0849-.0344-.1659-.07-.2521-.1086a2.6639 2.6639 0 0 1 -.4923-.28c-.0065-.0065-.0168-.0115-.0233-.0179a1.6024 1.6024 0 0 1 -.1409-.12.6475.6475 0 0 1 -.0626-.0564c-.0211-.0233-.0435-.05-.0659-.0778a.8634.8634 0 0 1 -.09-.1089 1.8259 1.8259 0 0 1 -.3062-1.0266 4.18 4.18 0 0 1 .1049-.7822 7.8025 7.8025 0 0 0 .2673-1.3531 1.1845 1.1845 0 0 0 .0027-.1988c-.0023-.0305-.0045-.0611-.0053-.0878a1.3229 1.3229 0 0 0 -.0581-.2739c-.2845-.8194-2.1308-.173-2.5513-1.973-.331-1.4124-1.5756.541-2.3753.4074a.4813.4813 0 0 1 -.3044-.1962c-.4987-.6507-.4806-2.5044-.9973-3.1212-.5078-.6157-1.9048.3591-2.5912.0375a.2559.2559 0 0 1 -.045-.0184c-.98-.5714.365-2.447-1.1479-2.7841-.85-.1906-.3887-2.85-2.77-3.5506-1.5369-.4535-1.97.7213-3.0287.41a2.2868 2.2868 0 0 1 -.7784-.425 2.1974 2.1974 0 0 1 -.2783-.2557c-1.2488-1.3834-.1647-3.9259-3.16-3.6505-.224.02-1.3091-1.3239-1.833-.9539-.4716.3363-.1918.8026-.4047 1.2179a1.3071 1.3071 0 0 0 -.5754.1025c-.5317.2024-.8731-.3658-1.3811.0251s.33 1.92.2381 2.1315c-1.34 3.0553 1.7479 2.618 2.3353 4.7215.03.11.0522.2089.0729.3041a2.2542 2.2542 0 0 1 .04.6946c-.1328 1.0672-1.2713 1.1372-1.3839 2.7716-.1778 2.59 2.3613 3.0354 2.2474 3.9379-.211 1.61 1.9218.9148 2.1041 2.0751.1212.793-1.294 1.8738-.9083 2.6044.38.7148 2.0451 1.3253 2.46 2.04.6075 1.0442-2.4061 1.655-1.0893 2.576 1.4642 1.0241.2633 2.6281.9065 3.1909z" fill="#b8d26f"/><path d="m220.0179 363.0053c.989-.4368 4.3913.524 6.0122 3.1153-.6343-4.8793-8.0048-10.4729-8.5837-12.1155 3.7729-.14 13.3761 12.2749 16.6207 19.8112-1.293-3.669.25-3.8147-2.5988-7.3745 1.4842-.061 7.45 5.6437 6.6717 10.1391a8.323 8.323 0 0 1 -8.2128 3.2137c-4.7345-2.99-3.06-7.6219-4.8423-11.4473-1.9586-4.2054-4.348-4.1942-5.067-5.342z" fill="#f7ffdc"/><path d="m220.7922 391.1457a21.1119 21.1119 0 0 1 -2.1094 5.4249c-.6026 1.032-2.0289 3.0775-3.62 2.57a2.5226 2.5226 0 0 1 -1.7831-2.7648l-.0014-.0008c.0522-.1956.1042-.3923.1516-.591a20.9078 20.9078 0 0 0 -10.4008-23.4672l-.0072-.0064c-1.4388-.8149-6.2523-2.7478-5.5684-4.57.6576-1.7525 3.3485-2.1027 3.5523-2.1264a18.6463 18.6463 0 0 1 5.5588.6c10.4815 2.7572 16.851 13.9191 14.2276 24.9317z" fill="#ffcd00"/><path d="m217.43 393.2633a21.1087 21.1087 0 0 1 -2.37 5.8763 2.5227 2.5227 0 0 1 -1.7811-2.7641l-.0014-.0008c.0522-.1956.1042-.3923.1516-.591.0768-.3241.1449-.6474.2067-.9715.0207-.1067.0367-.2126.0551-.3193.0383-.218.0752-.4357.1061-.6534.0182-.1257.0332-.2512.0489-.3764.0252-.2.0485-.3984.0677-.5974.0132-.1313.0241-.2624.0344-.3936q.0233-.2914.0381-.5824c.0066-.1307.0133-.2617.0176-.3921.0068-.1971.0092-.3939.0109-.5906 0-.1244.0022-.2494.0007-.3739-.0021-.2147-.01-.4293-.0192-.6435-.0044-.1037-.0056-.2077-.0115-.3113-.0175-.3126-.0409-.6234-.0722-.9336-.007-.072-.0176-.1431-.0259-.2148-.0265-.24-.0553-.48-.09-.719-.0176-.1232-.0391-.2449-.0594-.3678-.03-.1857-.0607-.3713-.0956-.5555-.0257-.135-.0541-.2685-.0824-.4028-.0358-.17-.0726-.3406-.1125-.51q-.0489-.2076-.1021-.4131c-.042-.1637-.0861-.3262-.1318-.4887-.0391-.1381-.0781-.2762-.12-.4138-.0488-.16-.1007-.3186-.1527-.4771-.0454-.1364-.0888-.2719-.1362-.4064-.0572-.1623-.1189-.3229-.18-.4837-.0484-.127-.0941-.2557-.1453-.3821q-.1618-.4038-.3408-.8c-.0613-.1365-.1284-.2709-.1927-.4059-.0661-.1393-.1316-.2788-.2005-.416-.072-.1434-.1481-.2843-.2236-.4255-.0671-.1259-.1334-.252-.2035-.3769-.08-.1433-.1629-.2844-.2466-.4261-.07-.1184-.14-.2356-.2124-.3527q-.1314-.2142-.2689-.4249c-.0718-.11-.1461-.22-.22-.3292-.0964-.1418-.1936-.2836-.2932-.4232-.0726-.1011-.147-.2-.2212-.2994-.1067-.1438-.2129-.2874-.3231-.4281-.0628-.08-.1278-.1565-.1914-.2353a20.2019 20.2019 0 0 0 -1.3494-1.5065c-.0694-.07-.1366-.1406-.2062-.2087-.1354-.1326-.2748-.2623-.4141-.3907-.0807-.075-.1606-.15-.2423-.2228-.1394-.1248-.2813-.2471-.4238-.3676-.0858-.0718-.1711-.1438-.2577-.2145q-.2184-.1774-.4412-.35c-.0865-.0668-.1744-.1322-.2624-.1972-.1536-.1144-.3079-.2282-.4657-.3383-.0809-.0565-.1632-.11-.2451-.1654-.169-.1139-.3375-.2282-.51-.3368-.04-.0256-.0816-.049-.1217-.0741-.4458-.2761-.9025-.5368-1.3726-.7769h-.0005l-.0072-.0064c-1.4383-.8144-6.2479-2.7462-5.5694-4.5673a18.6218 18.6218 0 0 1 5.75.5894c10.483 2.7559 16.8528 13.918 14.2287 24.9304z" fill="#ffe266"/><path d="m199.4835 365.9974-2.8283.9561-.275 1.3192 2.3586 1.6547 1.4685-2.1281z" fill="#581646"/><path d="m224.2 392.5424a21.8074 21.8074 0 0 1 -4.7 4.1555c-1.09.6823-3.4778 1.91-4.7822.5587a2.8593 2.8593 0 0 1 -.3918-3.655l-.0009-.0015c.1462-.1627.2926-.3265.4357-.4947a23.5361 23.5361 0 0 0 1.2909-28.4778l-.0039-.01c-1.006-1.5684-4.7581-6.0421-3.2036-7.451 1.4951-1.3552 4.29-.2494 4.5-.163a21.483 21.483 0 0 1 5.1281 3.575 23.4492 23.4492 0 0 1 1.7277 31.9638z" fill="#ffcd00"/><path d="m219.89 392.7992a21.7835 21.7835 0 0 1 -5.1738 4.4557 2.8593 2.8593 0 0 1 -.39-3.6533l-.0009-.0015c.1462-.1627.2926-.3265.4357-.4947.2328-.2748.4568-.5534.6749-.8362.0722-.093.1393-.1876.2093-.2818.1435-.192.2856-.3844.4218-.58.0789-.1128.1547-.2271.2311-.3407.1217-.1811.2413-.3624.357-.5461.0769-.121.1513-.243.2253-.3653q.1647-.2718.3209-.5476c.07-.1238.1405-.2479.2083-.3728.1026-.1885.2008-.3792.2983-.57.061-.1212.1237-.242.1829-.3643.1024-.2105.1994-.424.2947-.6378.0463-.1035.0958-.2055.1405-.31.1351-.3142.2638-.63.3844-.9492.0283-.074.0525-.1491.0794-.2234.0912-.2484.18-.4982.2627-.7494.0429-.13.0812-.26.1213-.3907.061-.1972.1217-.3946.1774-.593.0407-.1455.0781-.2909.1159-.4371.0481-.1855.0951-.3712.1388-.5579q.0536-.2288.1018-.4578c.0388-.1822.0749-.3644.1095-.5474.0292-.1557.0584-.3113.0845-.4681.03-.1821.0571-.3648.0835-.5473.0223-.1574.046-.313.0652-.47.0234-.1891.0415-.3788.06-.5685.0147-.15.0329-.3.0445-.4507q.0388-.4809.0576-.9639c.0068-.1661.0068-.3333.01-.5.0034-.1714.0075-.3426.0072-.5134 0-.1786-.006-.3569-.0108-.5352-.004-.1589-.0073-.3176-.0148-.4771-.0083-.1827-.02-.3649-.0329-.548-.01-.1531-.0216-.3051-.0352-.4582q-.024-.28-.0553-.559c-.0162-.1462-.0352-.2932-.054-.4392-.0249-.19-.0507-.3808-.08-.57-.0216-.1376-.0462-.2738-.07-.4109-.034-.1977-.0676-.3948-.1065-.5913-.0224-.1115-.0484-.2213-.072-.3324q-.2376-1.11-.5819-2.1948c-.0336-.1054-.0647-.21-.0993-.3144-.0675-.2021-.14-.4035-.2136-.6037-.0421-.1165-.0834-.2326-.1276-.3476-.0752-.1966-.154-.3922-.2342-.5863-.0487-.1162-.0969-.2323-.1469-.3478-.0843-.1937-.17-.3867-.26-.5783-.0518-.1116-.1057-.2227-.16-.3335-.0941-.1941-.189-.388-.2893-.58-.0514-.0987-.1056-.195-.1584-.2931-.1094-.2021-.218-.4041-.3332-.6028-.0269-.0466-.0556-.0916-.0826-.1376-.3-.509-.6185-1.0089-.96-1.4958v-.0008l-.0039-.01c-1.0057-1.5677-4.7547-6.0382-3.2058-7.449a21.4377 21.4377 0 0 1 5.32 3.6673 23.4481 23.4481 0 0 1 1.7285 31.9637z" fill="#ffe266"/><path d="m215.6732 356.5589-3.2239-.5889-.9108 1.1386 1.4938 2.8821 2.4688-1.2854z" fill="#581646"/><path d="m224.74 398.7264a20.6161 20.6161 0 0 1 -6.0088 1.34c-1.2678.0623-3.924-.0362-4.469-1.8734a2.7926 2.7926 0 0 1 1.2926-3.4182v-.0018c.2019-.0712.4045-.1432.6062-.2209 9.7347-3.7538 15.3367-14.114 13.9038-24.483l.0011-.0108c-.1845-1.8814-1.4891-7.6845.5138-8.1581 1.9263-.4557 3.896 1.9025 4.0427 2.0829a23.0073 23.0073 0 0 1 2.9214 5.6912c4.0993 11.7378-1.633 24.7441-12.8038 29.0521z" fill="#ffcd00"/><path d="m220.8227 396.82a20.6229 20.6229 0 0 1 -6.5615 1.37 2.7927 2.7927 0 0 1 1.2934-3.4158v-.0018c.2019-.0712.4045-.1432.6062-.2209.3285-.1271.651-.2621.97-.4036.1054-.0463.207-.0966.311-.145.2127-.0984.4242-.1978.6321-.3031.12-.06.2383-.1237.3566-.1862.1885-.1.3753-.2.56-.3051.122-.0686.2424-.1394.3626-.2108q.267-.1581.5284-.3242c.1174-.0745.2351-.1492.3509-.2258.175-.1155.3471-.2351.5187-.3553.108-.0766.2175-.1522.3246-.2308.1847-.135.366-.2753.5458-.4168.0873-.0684.1767-.1339.2628-.2038.26-.21.5151-.425.7647-.6471.0581-.0513.1131-.1055.17-.1578.1918-.174.3823-.35.5677-.5311.0959-.0931.1881-.189.2821-.2846.1422-.1438.2842-.2879.4223-.4354.1011-.1082.1993-.218.2982-.3282.1256-.14.25-.28.3725-.4235q.15-.1753.295-.3534c.1159-.1416.2294-.2844.342-.4288.0955-.1228.191-.2457.2844-.3711.1083-.1456.2138-.2935.319-.4415.09-.1278.1808-.2533.268-.3819.1053-.1553.2063-.3137.3079-.4717.08-.125.1634-.2484.2413-.3757q.25-.4049.4829-.8217c.08-.1432.1553-.2907.2326-.4358.08-.15.16-.2985.2364-.4493.08-.1578.1548-.3178.23-.4775.0677-.1422.1359-.2838.2008-.4282.0746-.1652.1457-.3319.2167-.5.0594-.14.1177-.28.1742-.4216q.1044-.2584.2019-.52c.0512-.1371.1-.2761.1492-.4143.0633-.18.126-.3609.1854-.5426.0427-.1321.082-.2643.1226-.3971.0585-.1911.1173-.3816.171-.5743.03-.1094.0565-.2192.0855-.3288q.288-1.0966.47-2.2241c.0176-.11.0372-.2178.0532-.3265.0311-.2116.0572-.4254.0823-.6382.0151-.1237.0306-.2465.0432-.37.0218-.2107.04-.4222.0562-.6331.0092-.1266.0187-.2528.0264-.38.0124-.2126.023-.4255.03-.6388.0043-.124.0066-.2487.0085-.3732.004-.2178.0072-.4358.0049-.655-.0011-.1124-.0057-.2242-.0084-.337-.0059-.2323-.0111-.4643-.0237-.6965-.0028-.0545-.0081-.1084-.0112-.1623-.0366-.5976-.0934-1.196-.1763-1.7946v-.0008l.0011-.0108c-.1845-1.8806-1.4878-7.6793.511-8.1575a22.9692 22.9692 0 0 1 3.0494 5.8677c4.1008 11.7388-1.6316 24.7456-12.8025 29.0527z" fill="#ffe266"/><path d="m233.3473 362.7641q-1.29-1.0572-2.58-2.1147l-1.3139.5537q.0131 1.6409.026 3.2816l2.7539.0877z" fill="#581646"/><path d="m219.4375 400.0054a6.7143 6.7143 0 0 0 -1.1786-2.3545.1087.1087 0 0 0 -.0191-.0229 4.2538 4.2538 0 0 0 -2.7687-1.6717 3.8693 3.8693 0 0 0 -2.1925.418c-.1957.465-.49 1.1711-.8268 2.0444-.48 1.2374-.5436 1.4994-.7231 1.8617a5.2859 5.2859 0 0 1 -2.6331 2.3717l.5035.8537c.1551.2612.3078.524.4629.7852a24.5663 24.5663 0 0 0 2.5843-1.63 9.751 9.751 0 0 1 1.8114-1.2455 13.7077 13.7077 0 0 1 2.5775-.6732 22.3208 22.3208 0 0 0 2.4023-.7369z" fill="#ffe266"/><path d="m219.4375 400.0054a6.7143 6.7143 0 0 0 -1.1786-2.3545.1087.1087 0 0 0 -.0191-.0229 9.3834 9.3834 0 0 0 -4.6452 2.2721c-.7259.6765-.98 1.1555-1.8576 1.9854a12.4057 12.4057 0 0 1 -2.1379 1.62c.1551.2612.3078.524.4629.7852a24.5663 24.5663 0 0 0 2.5843-1.63 9.751 9.751 0 0 1 1.8114-1.2455 13.7077 13.7077 0 0 1 2.5775-.6732 22.3208 22.3208 0 0 0 2.4023-.7366z" fill="#ffcd00"/><path d="m208.6764 402.13a2.9085 2.9085 0 0 1 1.2395-.4112 2.7959 2.7959 0 0 1 .6382.0166l-.1873 1.1683.7691.764a2.74 2.74 0 0 1 -.4707.5669 2.6283 2.6283 0 0 1 -.9242.5492 3.3144 3.3144 0 0 1 -.736-1.0059 3.5093 3.5093 0 0 1 -.3286-1.6479z" fill="#581646"/><path d="m216.7 398.5214a21.1169 21.1169 0 0 1 -2.1094 5.4249c-.6027 1.032-2.0289 3.0774-3.62 2.57a2.5226 2.5226 0 0 1 -1.7832-2.7647l-.0013-.0009c.0522-.1956.1041-.3922.1516-.5909a20.9079 20.9079 0 0 0 -10.4009-23.4673l-.0072-.0064c-1.4387-.8149-6.2522-2.7478-5.5683-4.57.6576-1.7524 3.3485-2.1026 3.5523-2.1264a18.6456 18.6456 0 0 1 5.5587.6c10.481 2.7572 16.8506 13.919 14.2277 24.9317z" fill="#ffcd00"/><path d="m213.3377 400.6389a21.1065 21.1065 0 0 1 -2.37 5.8764 2.5228 2.5228 0 0 1 -1.7811-2.7641l-.0013-.0009c.0522-.1956.1041-.3922.1516-.5909.0767-.3241.1449-.6475.2067-.9715.0206-.1067.0366-.2126.0551-.3194.0382-.218.0752-.4357.106-.6534.0182-.1257.0332-.2512.049-.3764.0251-.2.0484-.3983.0677-.5973.0132-.1313.024-.2625.0344-.3936q.0232-.2916.038-.5825c.0067-.1307.0134-.2616.0177-.3921.0068-.1971.0092-.3939.0109-.5905 0-.1245.0022-.2494.0007-.374-.0022-.2146-.01-.4293-.0193-.6434-.0043-.1038-.0055-.2078-.0114-.3113-.0176-.3126-.0409-.6234-.0722-.9337-.007-.072-.0177-.1431-.0259-.2148-.0265-.24-.0553-.48-.09-.719-.0176-.1231-.0391-.2448-.0594-.3678-.03-.1856-.0606-.3713-.0956-.5554-.0257-.135-.054-.2686-.0823-.4028-.0358-.1705-.0727-.3406-.1126-.51-.0325-.1385-.0668-.2762-.102-.4132-.042-.1637-.0861-.3262-.1319-.4886-.039-.1381-.078-.2762-.12-.4139-.0488-.16-.1006-.3185-.1527-.477-.0453-.1365-.0888-.272-.1362-.4065-.0572-.1623-.1188-.3229-.18-.4837-.0484-.1269-.0941-.2557-.1453-.3821q-.162-.4038-.3409-.8c-.0612-.1365-.1284-.271-.1926-.406-.0662-.1393-.1316-.2787-.2005-.4159-.0721-.1434-.1482-.2844-.2237-.4255-.067-.126-.1334-.2521-.2035-.377-.08-.1433-.1628-.2844-.2465-.426-.07-.1185-.14-.2357-.2124-.3527q-.1316-.2142-.2689-.425c-.0719-.11-.1461-.22-.22-.3292-.0964-.1418-.1937-.2836-.2932-.4232-.0726-.1011-.1471-.2-.2212-.2994-.1068-.1437-.2129-.2873-.3232-.4281-.0627-.08-.1278-.1564-.1914-.2353q-.6368-.7869-1.3493-1.5065c-.0694-.07-.1367-.14-.2062-.2087-.1354-.1325-.2748-.2622-.4142-.3907-.0807-.075-.16-.15-.2422-.2228-.1395-.1247-.2814-.247-.4238-.3675-.0858-.0719-.1712-.1438-.2577-.2145q-.2185-.1776-.4413-.35c-.0864-.0667-.1744-.1321-.2624-.1972-.1536-.1144-.3078-.2282-.4656-.3383-.0809-.0564-.1632-.11-.2451-.1653-.1691-.114-.3376-.2282-.51-.3369-.04-.0256-.0815-.0489-.1217-.074-.4457-.2762-.9025-.5368-1.3726-.7769v-.0005l-.0072-.0064c-1.4382-.8144-6.2479-2.7462-5.5693-4.5672a18.6219 18.6219 0 0 1 5.75.5893c10.4818 2.7563 16.8517 13.9184 14.228 24.9308z" fill="#ffe266"/><path d="m195.3908 373.373-2.8284.9561-.2749 1.3193 2.3586 1.6546q.7343-1.0639 1.4684-2.1281z" fill="#581646"/><path d="m220.1073 399.918a21.81 21.81 0 0 1 -4.7 4.1556c-1.09.6822-3.4779 1.91-4.7822.5587a2.8592 2.8592 0 0 1 -.3919-3.655l-.0009-.0016c.1463-.1626.2927-.3264.4358-.4947a23.5359 23.5359 0 0 0 1.2908-28.4777l-.0039-.01c-1.006-1.5684-4.7581-6.042-3.2035-7.4509 1.495-1.3552 4.29-.2495 4.5-.163a21.48 21.48 0 0 1 5.1282 3.5749 23.4492 23.4492 0 0 1 1.7276 31.9637z" fill="#ffcd00"/><path d="m215.7974 400.1749a21.7885 21.7885 0 0 1 -5.1739 4.4557 2.8594 2.8594 0 0 1 -.39-3.6533l-.0009-.0016c.1463-.1626.2927-.3264.4358-.4947.2327-.2748.4567-.5534.6749-.8362.0721-.0929.1393-.1876.2093-.2817.1435-.1921.2856-.3845.4217-.58.079-.1129.1548-.2272.2312-.3408.1217-.181.2413-.3624.357-.5461.0768-.1209.1513-.243.2253-.3653q.1647-.2718.3209-.5475c.07-.1239.14-.248.2082-.3729.1026-.1885.2009-.3791.2983-.57.061-.1211.1237-.242.1829-.3643.1025-.21.2-.4239.2947-.6378.0463-.1034.0958-.2055.1405-.31.1352-.3143.2638-.63.3845-.9492.0283-.0741.0525-.1491.0794-.2234.0911-.2485.18-.4983.2626-.7495.0429-.13.0812-.26.1213-.3906.0611-.1973.1217-.3947.1774-.5931.0407-.1454.0781-.2909.116-.437.0481-.1855.0951-.3713.1387-.558q.0536-.2288.1018-.4577c.0388-.1823.075-.3644.1095-.5475.0292-.1556.0584-.3113.0846-.4681.03-.1821.057-.3648.0835-.5473.0223-.1574.0459-.313.0652-.47.0233-.189.0414-.3788.06-.5685.0147-.15.0328-.3.0445-.4507q.0387-.4809.0576-.9639c.0067-.166.0068-.3332.01-.4995.0034-.1713.0075-.3425.0071-.5134 0-.1786-.0059-.3569-.0108-.5352-.004-.1589-.0073-.3175-.0148-.477-.0082-.1828-.02-.3649-.0328-.5481-.01-.153-.0216-.305-.0353-.4581q-.0239-.28-.0552-.559c-.0163-.1462-.0352-.2933-.054-.4393-.025-.19-.0507-.3807-.08-.57-.0216-.1376-.0462-.2737-.07-.4109-.0341-.1976-.0676-.3947-.1065-.5913-.0224-.1114-.0485-.2213-.072-.3324q-.2376-1.11-.5819-2.1948c-.0336-.1054-.0648-.2105-.0994-.3143-.0675-.2021-.14-.4036-.2135-.6038-.0422-.1165-.0835-.2326-.1277-.3475-.0752-.1966-.154-.3922-.2342-.5864-.0486-.1162-.0968-.2322-.1468-.3477-.0844-.1938-.17-.3868-.26-.5784-.0519-.1116-.1057-.2226-.16-.3334-.094-.1942-.189-.3881-.2892-.58-.0514-.0986-.1056-.195-.1585-.2931-.1093-.2021-.2179-.4041-.3332-.6027-.0268-.0467-.0556-.0916-.0826-.1377-.3-.509-.6185-1.0088-.96-1.4958v-.0007l-.0039-.01c-1.0057-1.5676-4.7546-6.0381-3.2057-7.4489a21.4364 21.4364 0 0 1 5.32 3.6672 23.4483 23.4483 0 0 1 1.7284 31.9632z" fill="#ffe266"/><path d="m211.58 363.9345-3.2238-.5888-.9109 1.1386 1.4939 2.882 2.4687-1.2854z" fill="#581646"/><path d="m220.647 406.102a20.6163 20.6163 0 0 1 -6.0087 1.34c-1.2678.0622-3.9241-.0362-4.4691-1.8735a2.7926 2.7926 0 0 1 1.2927-3.4182v-.0018c.2019-.0711.4045-.1432.6061-.2208 9.7347-3.7539 15.3368-14.114 13.9038-24.483l.0011-.0109c-.1844-1.8814-1.489-7.6845.5139-8.1581 1.9263-.4557 3.8959 1.9026 4.0427 2.0829a23.007 23.007 0 0 1 2.9213 5.6912c4.0992 11.738-1.6327 24.7443-12.8038 29.0522z" fill="#ffcd00"/><path d="m216.73 404.196a20.6252 20.6252 0 0 1 -6.5614 1.37 2.7927 2.7927 0 0 1 1.2934-3.4159v-.0018c.2019-.0711.4045-.1432.6061-.2208.3285-.1272.651-.2622.97-.4037.1053-.0463.207-.0966.3109-.145.2127-.0984.4243-.1978.6321-.303.12-.06.2384-.1238.3567-.1863.1885-.0994.3753-.2.56-.305.122-.0687.2424-.1395.3625-.2108q.2672-.1582.5285-.3242c.1174-.0746.2351-.1492.3508-.2259.1751-.1155.3472-.2351.5187-.3552.1081-.0767.2176-.1523.3246-.2309.1847-.1349.366-.2753.5459-.4168.0872-.0683.1766-.1339.2628-.2037.26-.21.515-.4251.7646-.6471.0581-.0513.1132-.1056.17-.1578.1917-.1741.3822-.35.5676-.5312.0959-.0931.1881-.189.2821-.2846.1423-.1437.2843-.2879.4223-.4353.1011-.1082.1994-.218.2982-.3282.1256-.14.25-.28.3726-.4236q.15-.1752.2949-.3534.1739-.2124.342-.4287c.0955-.1229.1911-.2458.2845-.3711.1083-.1457.2138-.2936.3189-.4415.09-.1279.1809-.2534.2681-.382.1053-.1552.2063-.3137.3079-.4717.08-.1249.1634-.2484.2412-.3756q.25-.405.4829-.8218c.08-.1432.1554-.2906.2326-.4357.08-.1495.16-.2985.2365-.4494.08-.1577.1547-.3178.23-.4775.0676-.1421.1359-.2837.2007-.4281.0747-.1653.1458-.3319.2167-.5.06-.14.1177-.28.1743-.4216q.1043-.2584.2018-.52c.0512-.1371.1-.2761.1493-.4142.0632-.18.1259-.361.1854-.5427.0426-.132.0819-.2643.1225-.397.0585-.1912.1173-.3817.1711-.5744.03-.1093.0564-.2191.0855-.3288q.2879-1.0967.47-2.224c.0177-.11.0373-.2178.0533-.3265.0311-.2117.0572-.4254.0823-.6383.015-.1237.0306-.2465.0431-.37.0218-.2106.04-.4222.0563-.6331.0091-.1266.0186-.2528.0263-.3794.0125-.2127.0231-.4255.03-.6388.0043-.1241.0065-.2487.0084-.3732.0041-.2178.0073-.4359.005-.6551-.0012-.1124-.0058-.2242-.0084-.3369-.0059-.2324-.0112-.4643-.0238-.6966-.0028-.0544-.008-.1083-.0111-.1623-.0366-.5975-.0934-1.196-.1764-1.7945v-.0008l.0011-.0109c-.1845-1.8806-1.4877-7.6793.511-8.1574a22.9644 22.9644 0 0 1 3.0494 5.8677c4.101 11.7378-1.6314 24.7446-12.8023 29.0521z" fill="#ffe266"/><path d="m229.2545 370.14-2.58-2.1147-1.3139.5537q.0129 1.6407.0259 3.2816l2.754.0876z" fill="#581646"/><path d="m215.3447 407.381a6.7121 6.7121 0 0 0 -1.1786-2.3544.1034.1034 0 0 0 -.019-.023 4.254 4.254 0 0 0 -2.7688-1.6717 3.8706 3.8706 0 0 0 -2.1924.418c-.1958.465-.49 1.1712-.8268 2.0444-.48 1.2375-.5436 1.4994-.7232 1.8617a5.285 5.285 0 0 1 -2.6331 2.3717l.5035.8538c.1552.2612.3078.5239.4629.7851a24.57 24.57 0 0 0 2.5844-1.63 9.7527 9.7527 0 0 1 1.8113-1.2454 13.7136 13.7136 0 0 1 2.5776-.6733 22.3042 22.3042 0 0 0 2.4022-.7369z" fill="#ffe266"/><path d="m215.3447 407.381a6.7121 6.7121 0 0 0 -1.1786-2.3544.1034.1034 0 0 0 -.019-.023 9.3825 9.3825 0 0 0 -4.6453 2.2722c-.7258.6764-.9794 1.1555-1.8576 1.9853a12.4028 12.4028 0 0 1 -2.1379 1.62c.1552.2612.3078.5239.4629.7851a24.57 24.57 0 0 0 2.5844-1.63 9.7527 9.7527 0 0 1 1.8113-1.2454 13.7136 13.7136 0 0 1 2.5776-.6733 22.3042 22.3042 0 0 0 2.4022-.7365z" fill="#ffcd00"/><path d="m204.5836 409.5055a2.9089 2.9089 0 0 1 1.24-.4113 2.79 2.79 0 0 1 .6382.0167l-.1873 1.1682.769.7641a2.738 2.738 0 0 1 -.4706.5668 2.6291 2.6291 0 0 1 -.9242.5492 3.3118 3.3118 0 0 1 -.7361-1.0059 3.51 3.51 0 0 1 -.329-1.6478z" fill="#581646"/><path d="m249.9371 366.5219c.0127.1212.03.2384.0515.3559a6.5026 6.5026 0 0 0 .1487.7244c1.0963 4.46 5.5628 7.42 9.6075 7.6161a10.0532 10.0532 0 0 0 3.0218-.3372 11.5733 11.5733 0 0 0 4.1372-2.038 9.7128 9.7128 0 0 0 3.2124-4.2791 8.3642 8.3642 0 0 0 .4737-3.684 10.2786 10.2786 0 0 1 -2.2827 2.4439 11.5747 11.5747 0 0 1 -4.1372 2.0379 10.053 10.053 0 0 1 -3.0218.3373c-4.0447-.1961-8.5112-3.1561-9.6075-7.6161a6.5119 6.5119 0 0 1 -.1487-.7244c-.0215-.1175-.0388-.2347-.0515-.356-.0323-.2654-.0517-.5342-.0578-.8109a10.2436 10.2436 0 0 0 -1.3456 6.3302z" fill="#92063d"/><path d="m251.2827 360.1917c.0061.2767.0255.5455.0578.8109.0127.1213.03.2385.0515.356a6.5119 6.5119 0 0 0 .1487.7244c1.0963 4.46 5.5628 7.42 9.6075 7.6161a10.053 10.053 0 0 0 3.0218-.3373 11.5747 11.5747 0 0 0 4.1372-2.0379 10.2786 10.2786 0 0 0 2.2828-2.4439c-.0171-.2419-.0506-.49-.0888-.7331-.6361-3.823-3.54-7.4243-6.84-7.768a5.24 5.24 0 0 0 -1.9285.1676 6.3966 6.3966 0 0 0 -1.2638.4862 1.1278 1.1278 0 0 1 -.8364.0736 8.2708 8.2708 0 0 0 -1.37-.2929 7.0184 7.0184 0 0 0 -4.4839.8706 7.207 7.207 0 0 0 -2.4959 2.5077z" fill="#e80007"/><path d="m263.6675 354.6616a4.3642 4.3642 0 0 0 -1.59 1.33 4.54 4.54 0 0 0 -.3434.5542 6.51 6.51 0 0 0 -1.2661.488 1.1156 1.1156 0 0 1 -.8349.0711 8.7885 8.7885 0 0 0 -1.3711-.2935 5.3566 5.3566 0 0 0 -3.6881-1.8892 3.9318 3.9318 0 0 1 3.5465.0994 3.76 3.76 0 0 1 1.33 1.4354 5.5789 5.5789 0 0 0 .1438-1.4416 5.3388 5.3388 0 0 0 -.2214-1.38 4.2611 4.2611 0 0 1 .8722 1.1105 4.3448 4.3448 0 0 1 .4809 1.4806 2.7942 2.7942 0 0 1 .76-1.0147 2.7662 2.7662 0 0 1 2.1816-.5502z" fill="#00943c"/><path d="m275.9292 376.8288a.87.87 0 0 1 -.068.0714l-6.1261 6.442c-.01 0-.01.0055-.0157.011l-3.0918 3.2485c-.0052.033-.0157.066-.0209.0989-.0262.0055-.0576.0055-.0837.011-.2668.033-.5336.05-.7952.0605a10.6349 10.6349 0 0 1 -10.0968-6.8213c-.0052-.0055-.0052-.0055-.0052-.011-.0053-.011-.0053-.0165-.0105-.0274a5.4552 5.4552 0 0 1 -.1988-.7091c-.0314-.1154-.0575-.2309-.0785-.3518a10.4535 10.4535 0 0 1 .3558-5.1118 9.06 9.06 0 0 1 .5441-1.3027 7.9767 7.9767 0 0 0 .115.8025c.021.1209.0471.2364.0785.3518a.695.695 0 0 0 .0262.0989 4.0381 4.0381 0 0 0 .1726.61 9.14 9.14 0 0 0 1.8467 3.221 8.0076 8.0076 0 0 0 .5964.61c.1308.132.2668.2529.4029.3738a11.1549 11.1549 0 0 0 3.0237 1.8414 10.6127 10.6127 0 0 0 3.9708.819c.0889 0 .183-.0055.272-.0055a10.1569 10.1569 0 0 0 2.9872-.5717 11.7315 11.7315 0 0 0 3.9864-2.3525 10.3031 10.3031 0 0 0 2.103-2.6109 7.8 7.8 0 0 1 .1099 1.204z" fill="#92063d"/><path d="m256.24 372.4344a8.1169 8.1169 0 0 0 .1142.8043c.0211.12.0465.2355.0761.351a6.4774 6.4774 0 0 0 .1988.711c1.4041 4.3637 6.0649 6.9722 10.1124 6.8567a10.0868 10.0868 0 0 0 2.99-.5688 11.6784 11.6784 0 0 0 3.9841-2.3507 10.3924 10.3924 0 0 0 2.1063-2.6129c-.0339-.24-.0846-.4844-.14-.7244-.9009-3.7638-4.0476-7.1321-7.3634-7.221a5.2577 5.2577 0 0 0 -1.9117.3155 6.4461 6.4461 0 0 0 -1.2265.5822 1.1309 1.1309 0 0 1 -.829.1377 8.2281 8.2281 0 0 0 -1.3872-.1866 7.0487 7.0487 0 0 0 -4.4112 1.2131 7.2838 7.2838 0 0 0 -2.3129 2.6929z" fill="#e80007"/><path d="m268.2059 365.9665a4.4107 4.4107 0 0 0 -1.493 1.4491 4.599 4.599 0 0 0 -.3038.5791 6.5671 6.5671 0 0 0 -1.2287.5841 1.1185 1.1185 0 0 1 -.8277.1352 8.7556 8.7556 0 0 0 -1.3879-.1873 5.1816 5.1816 0 0 0 -.9618-.7786 5.2349 5.2349 0 0 0 -2.848-.8218 3.9355 3.9355 0 0 1 3.544-.1737 3.7216 3.7216 0 0 1 1.4264 1.3292 5.5936 5.5936 0 0 0 .043-1.4487 5.3211 5.3211 0 0 0 -.3171-1.3594 4.2164 4.2164 0 0 1 .9473 1.0405 4.3169 4.3169 0 0 1 .5828 1.44 2.8233 2.8233 0 0 1 .6868-1.07 2.78 2.78 0 0 1 2.1377-.7177z" fill="#00943c"/><path d="m236.8646 371.3a10.7828 10.7828 0 0 0 .9072 3.2118c2.9091.304 6.0505.7434 9.3489 1.3609.3948.0748.79.154 1.19.2326.0353.0081.0748.0156.11.0237q1.47.2955 2.9143.6219.7351.1715 1.4576.3446c.2311-.2146.4485-.4362.66-.67a11.4289 11.4289 0 0 0 2.7874-8.6355 9.6283 9.6283 0 0 0 -.2743-1.4984 9.3041 9.3041 0 0 0 -1.338-2.9263 9.56 9.56 0 0 0 -11.08-3.3837 10.4055 10.4055 0 0 0 -6.551 7.7105c-.0493.232-.09.4627-.1216.7009a11.1228 11.1228 0 0 0 -.0105 2.907z" fill="#e80007"/><path d="m236.8647 371.3a10.7805 10.7805 0 0 0 .9071 3.2118 12.1869 12.1869 0 0 0 3.9517 2.9777c5.0931 2.3681 10.0639.0926 11.0691-.394a11.1161 11.1161 0 0 0 2.6542-3.9028 11.6831 11.6831 0 0 0 .7933-5.4022 15.4018 15.4018 0 0 1 -8.254 5.082 11.1983 11.1983 0 0 1 -2.9341.1981 9.19 9.19 0 0 1 -6.4476-2.7933 8.7939 8.7939 0 0 1 -1.6073-2.5847c-.0493.232-.09.4627-.1216.7009a11.1185 11.1185 0 0 0 -.0108 2.9065z" fill="#92063d"/><path d="m248.051 365.6892a3.4933 3.4933 0 0 0 -3.221.1209 5.1838 5.1838 0 0 0 .3442.9131 5.05 5.05 0 0 0 .7181 1.0862 2.4566 2.4566 0 0 1 -2.0647-.6981 2.36 2.36 0 0 1 -.5281-.9771 2.3133 2.3133 0 0 0 -1.1876.2721 2.7766 2.7766 0 0 0 -1.2834 1.8035 2.793 2.793 0 0 1 .181-1.8661 2.6739 2.6739 0 0 1 1.9944-1.4058 2.2462 2.2462 0 0 0 -.9376-.4553 2.3449 2.3449 0 0 0 -1.7448.3566 2.975 2.975 0 0 1 2.5458-1.2136 2.6234 2.6234 0 0 1 1.5075.7825 1.8848 1.8848 0 0 1 .6844-1.0691 1.8333 1.8333 0 0 1 1.7267-.17 4.55 4.55 0 0 0 -.8748.6384 4.6933 4.6933 0 0 0 -.532.5863 2.7079 2.7079 0 0 1 1.4762.2357 2.8862 2.8862 0 0 1 1.1957 1.0598z" fill="#00943c"/><path d="m266.8055 385.5683a9.9122 9.9122 0 0 1 -.1779 1.0334c-.0052.033-.0157.066-.0209.0989-.0262.0055-.0576.0055-.0837.011l-1.3916 1.4621c-.0052.0055-.01.0055-.01.011v.6816c-2.689.2968-5.5663.7145-8.5744 1.2752-.3924.077-.79.1539-1.1875.2308-.0524.011-.089.022-.11.0275-.1046.022-.2616.055-.4656.099-.8266.1649-1.6427.3353-2.4484.5221q-.7375.1732-1.46.3463c-.1308-.1264-.2773-.2693-.4395-.44-.0732-.0715-.1465-.1539-.22-.2308-.04-.0451-.0744-.0961-.114-.1419q-.219-.2547-.45-.56c-.0963-.128-.1889-.2588-.28-.3917-.1615-.2343-.3227-.4811-.48-.7536a.41.41 0 0 0 -.0366-.066c-.0523-.0934-.1046-.1868-.1517-.2858-.11-.2033-.2093-.4122-.3087-.6321a.5243.5243 0 0 1 -.0261-.055c-.0523-.1154-.0994-.2308-.1465-.3462-.0419-.1045-.0837-.2089-.12-.3133-.0837-.22-.1517-.4343-.22-.6431-.0808-.2657-.1458-.524-.2038-.7781a11.0223 11.0223 0 0 1 -.2958-2.6384c0-.2818.01-.5367.0236-.7555.0052-.0989.0157-.1923.0209-.2748a9.8 9.8 0 0 1 .2721-1.5005 9.4052 9.4052 0 0 1 1.3392-2.9242 9.1775 9.1775 0 0 1 6.6545-3.8971 7.0333 7.0333 0 0 1 .7638-.05 9.79 9.79 0 0 1 3.662.5607 10.3613 10.3613 0 0 1 6.3511 6.9147c.0784.2583.1412.5276.1988.797.0523.2308.0941.4617.1255.6981a11.5045 11.5045 0 0 1 .0112 2.9087z" fill="#e80007"/><path d="m266.8055 385.5683a9.9122 9.9122 0 0 1 -.1779 1.0334c-.0052.033-.0157.066-.0209.0989-.0262.0055-.0576.0055-.0837.011l-1.3916 1.4621c-.0052.0055-.01.0055-.01.011v.6816c-2.689.2968-5.5663.7145-8.5744 1.2752-.3924.077-.79.1539-1.1875.2308-.0524.011-.089.022-.11.0275-.1046.022-.2616.055-.4656.099-.8684.1924-2.5164.5551-3.9079.8684-.1308-.1264-.2773-.2693-.4395-.44a11.2438 11.2438 0 0 1 -1.5433-2.0777.41.41 0 0 0 -.0366-.066c-.0523-.0934-.1046-.1868-.1517-.2858-.11-.2033-.2093-.4122-.3087-.6321a.5243.5243 0 0 1 -.0261-.055c-.0523-.1154-.0994-.2308-.1465-.3462-.0419-.1045-.0837-.2089-.12-.3133-.0837-.22-.1517-.4343-.22-.6431a11.8141 11.8141 0 0 1 -.476-4.172c.0052-.0989.0157-.1923.0209-.2748a15.3812 15.3812 0 0 0 8.2553 5.0788 11.0865 11.0865 0 0 0 2.9349.1979 10.5091 10.5091 0 0 0 4.023-.9729 8.0261 8.0261 0 0 0 2.4222-1.8193 8.7725 8.7725 0 0 0 1.6061-2.5834c.0523.2308.0941.4617.1255.6981a11.5045 11.5045 0 0 1 .01 2.9079z" fill="#92063d"/><path d="m255.6171 379.9589a3.4933 3.4933 0 0 1 3.221.1209 5.182 5.182 0 0 1 -.3443.9131 5.0418 5.0418 0 0 1 -.718 1.0862 2.4568 2.4568 0 0 0 2.0647-.698 2.36 2.36 0 0 0 .5281-.9772 2.3133 2.3133 0 0 1 1.1876.2721 2.7771 2.7771 0 0 1 1.2838 1.804 2.7932 2.7932 0 0 0 -.181-1.8662 2.6745 2.6745 0 0 0 -1.9944-1.4058 2.2456 2.2456 0 0 1 .9376-.4553 2.3449 2.3449 0 0 1 1.7448.3566 2.9755 2.9755 0 0 0 -2.5458-1.2136 2.6241 2.6241 0 0 0 -1.5076.7826 1.8838 1.8838 0 0 0 -.6843-1.0692 1.8333 1.8333 0 0 0 -1.7267-.17 4.5542 4.5542 0 0 1 .8748.6384 4.684 4.684 0 0 1 .5319.5863 2.7089 2.7089 0 0 0 -1.4761.2358 2.8855 2.8855 0 0 0 -1.1961 1.0593z" fill="#00943c"/><path d="m250.3528 386.133c-.0212.12-.0466.2355-.0762.351a6.4833 6.4833 0 0 1 -.1987.711c-1.4042 4.3637-6.065 6.9722-10.1125 6.8566a10.0842 10.0842 0 0 1 -2.99-.5688 11.6787 11.6787 0 0 1 -3.9841-2.3507 9.81 9.81 0 0 1 -2.9056-4.5148 8.3766 8.3766 0 0 1 -.2157-3.7105 10.3888 10.3888 0 0 0 2.1063 2.6129 11.6752 11.6752 0 0 0 3.9837 2.3503 10.0869 10.0869 0 0 0 2.99.5689c4.0475.1155 8.7083-2.493 10.1124-6.8567a6.4836 6.4836 0 0 0 .1988-.711c.03-.1155.055-.2311.0761-.351a8.1169 8.1169 0 0 0 .1142-.8043 10.2806 10.2806 0 0 1 .9013 6.4171z" fill="#92063d"/><path d="m249.4519 379.7163a8.1169 8.1169 0 0 1 -.1142.8043c-.0211.12-.0465.2355-.0761.351a6.4836 6.4836 0 0 1 -.1988.711c-1.4041 4.3637-6.0649 6.9722-10.1124 6.8567a10.0869 10.0869 0 0 1 -2.99-.5689 11.6752 11.6752 0 0 1 -3.9841-2.3507 10.3888 10.3888 0 0 1 -2.1063-2.6129c.0339-.24.0846-.4843.14-.7243.9009-3.7638 4.0475-7.1321 7.3634-7.221a5.2556 5.2556 0 0 1 1.9117.3155 6.4521 6.4521 0 0 1 1.2265.5821 1.13 1.13 0 0 0 .829.1378 8.2371 8.2371 0 0 1 1.3872-.1867 7.05 7.05 0 0 1 4.4112 1.2132 7.2838 7.2838 0 0 1 2.3129 2.6929z" fill="#e80007"/><path d="m237.4857 373.2483a4.4122 4.4122 0 0 1 1.493 1.4492 4.599 4.599 0 0 1 .3038.5791 6.5671 6.5671 0 0 1 1.2287.5841 1.119 1.119 0 0 0 .8277.1352 8.7523 8.7523 0 0 1 1.3879-.1874 5.312 5.312 0 0 1 3.81-1.6 3.936 3.936 0 0 0 -3.544-.1736 3.7216 3.7216 0 0 0 -1.4264 1.3292 5.5942 5.5942 0 0 1 -.043-1.4488 5.3213 5.3213 0 0 1 .3171-1.3593 4.2164 4.2164 0 0 0 -.9473 1.04 4.3147 4.3147 0 0 0 -.5828 1.44 2.8233 2.8233 0 0 0 -.6868-1.07 2.78 2.78 0 0 0 -2.1379-.7177z" fill="#00943c"/><path d="m204.8194 388.1847h60.3034v31.2096h-60.3034z" fill="#f0c988"/><path d="m228.1309 401.2226s-.4708.9124-1.47 3.1c-.544 1.1982-1.25 2.7757-2.1187 4.793-2.1554 4.9964-1.5747 5.5405-2.9715 6.8982-.5545.5387-2.2338 1.2477-5.5872 2.6439-.67.28-1.2556.5221-1.7683.7365h-9.3957v-2.82a10.4829 10.4829 0 0 0 3.4.7311c.6435-.033.8946-.11 6.0633-1.7314 3.4528-1.0828 5.19-1.638 5.7808-2.1272 1.5067-1.22.9731-1.8139 3.5365-6.5959 1.0306-1.9293 1.8624-3.4408 2.5059-4.5786 1.1771-2.0888 1.7212-2.9572 1.7212-2.9572.22-.3518.4394-.6871.6277-1.0059.34-.1374.6122-.1759.7482-.044.3246.3301-.3503 1.5559-1.0722 2.9575z" fill="#edbe77"/><path d="m191.9072 509.862q-11.6059-.0165-23.2068-.0605c-1.01 0-2.0194-.0055-3.0238-.0165-.6853 0-1.3759-.0055-2.0612-.011-1.0881 0-2.1815-.011-3.27-.0165q-2.1579-.0163-4.3159-.033l-23.1859-.1483-11.6087-.077c.0157-.4562.0262-.9014.0366-1.3467.1046-4.3642.0052-8.2118-.1779-11.4933-.5964-10.9326-2.37-20.4967 1.59-32.3858a50.8938 50.8938 0 0 1 3.458-7.9975c.12-.22.2459-.44.3714-.665a39.1717 39.1717 0 0 1 3.2436-4.848c.0209-.0275.0418-.05.0627-.077 3.615-.2968 7.434-.5166 11.4518-.6321 5.4407-.1594 11.2267-.1209 17.3214.1924a216.85 216.85 0 0 1 26.2672 2.9627q1.899 15.9619 3.9132 32.0944 1.4046 11.2872 2.8616 22.4865c.0896.6926.1786 1.3851.2727 2.0722z" fill="#581646"/><path d="m174.56 484.4189a10.9556 10.9556 0 0 1 -3.8661 4.04 9.478 9.478 0 0 1 -2.0873.9344q-1.7343 7.3956-3.61 14.9122-.4473 1.7892-.8945 3.5618h-.0053c-.1569.6376-.3191 1.2752-.4813 1.9073-1.0881 0-2.1815-.0109-3.27-.0165.1674-.6211.33-1.2422.497-1.8688q2.417-9.0282 4.8287-18.0673a6.5387 6.5387 0 0 1 -4.9909-1.8358 6.9482 6.9482 0 0 1 -1.8362-3.4794 23.5684 23.5684 0 0 0 8.3652 1.2808 23.9762 23.9762 0 0 0 7.3507-1.3687z" fill="#3c052d"/><path d="m164.5363 273.9784a10.948 10.948 0 0 0 -2.9546-4.3731c-6.5371-5.6839-18.4894-.003-19.5992.5413-16.8038 8.2419-21.6124 32.9441-23.19 41.0466-1.9885 10.2151-.1592 10.0088-2.247 16.7-6.1289 19.6419-21.6707 20.7059-24.4317 33.3326-3.1091 14.2183 11.5363 36.017 30.2113 39.2822 21.2128 3.7089 36.9293-18.3651 41.2628-24.4515 25.3361-35.5848 6.9375-85.32 4.6058-91.3611q-1.8285-5.3585-3.6574-10.717z" fill="#581646"/><path d="m168.194 284.6953q-1.8288-5.3584-3.6577-10.7169a11.4858 11.4858 0 0 1 5.8721-.6949c.994.1557 5.0776.9441 9.5771 7.1965 2.9646 4.1194 8.6461 14.1352 8.77 29.3932.1481 18.2187-7.725 31.9041-11.8375 38.0334-11.6206-.663-16.7956-5.9588-18.3829-7.8028-9.6338-11.1919-7.4651-35.051 9.6589-55.4085z" fill="#3c052d"/><path d="m147.2583 313.7976c.4136 5.4907.8044 9.8984 1.0727 12.7951.7186 7.7586 1.3208 10.4583-.3987 13.0278-.7852 1.1732-1.4907 1.4972-6.2245 4.2905-3.4944 2.0619-6.3 3.7676-8.0892 4.8647.709.7115 15.5717 15.1544 33.1557 9.5669a31.9046 31.9046 0 0 0 15.8-11.8117c-.8157-.5817-2.0673-1.4383-3.6515-2.3769-2.6418-1.5652-3.7135-1.88-5.5068-2.9167-2.1521-1.2439-4.6484-2.6457-6.1129-4.9772-2.4-3.8211-1.4913-8.55-.975-10.55z" fill="#f69968"/><path d="m176.4778 326.694a6.4233 6.4233 0 0 1 -2.3625 4.0964 3.6328 3.6328 0 0 1 -1.871.5624 13.88 13.88 0 0 1 -5.2873-.8909 30.4 30.4 0 0 1 -11.1732-6.7023 35.1258 35.1258 0 0 1 -5.5678-6.7123 5.8189 5.8189 0 0 1 -2.6093.5425 6.6068 6.6068 0 0 1 -4.679-2.5308c-2.054-2.4717-3.054-7.104-.958-8.8994 1.5213-1.3023 4.0058-.5143 4.6151-.3a16.752 16.752 0 0 0 6.1987-6.4493c2.1672-4.1607.8307-6.3528 3.0614-10.5358 1.9386-3.6331 5.9744-7.6514 9.352-6.7229a5.4381 5.4381 0 0 1 2.9945 2.5434 5.9667 5.9667 0 0 1 4.523-.5408c1.597.55 3.1374 2.1018 4.6435 7.1247.1568.5255.3015 1.0438.4338 1.5613.93 3.6682 1.2636 7.45 1.2944 13.51a104.9259 104.9259 0 0 1 -2.6083 20.3438z" fill="#ffbe90"/><path d="m176.4778 326.694a6.4233 6.4233 0 0 1 -2.3625 4.0964 3.6328 3.6328 0 0 1 -1.871.5624 5.73 5.73 0 0 0 1.8117-4.0263c-.0866-1.7681-1.3119-1.8575-2.9605-5.1266a16.9205 16.9205 0 0 1 -1.91-7.7705c.0057-.5415.0435-.99.0731-1.2947a6.6169 6.6169 0 0 1 -2.5078-.9266 6.9168 6.9168 0 0 1 -1.6938-1.4765 14.5274 14.5274 0 0 0 3.3687.5363c1.5254.0559 4.7017-.0727 4.9221-1.1166.0862-.4255-.3456-.8115-.8142-1.3173-1.4585-1.5728-2.0686-3.0928-3.2609-6.0789-.9595-2.3774-1.5005-3.8017-1.0073-5.3835a5.1419 5.1419 0 0 1 1.6157-2.315c2.1124-1.8661 5.3715-2.2507 7.9109-2.2165.93 3.6682 1.2636 7.45 1.2944 13.51a104.9259 104.9259 0 0 1 -2.6086 20.3439z" fill="#f69968"/><path d="m153.4612 298.9649a10.2684 10.2684 0 0 1 2.1379-1.6716 9.9155 9.9155 0 0 1 2.5425-1.0075 6.2214 6.2214 0 0 1 2.7563-.1615 5.0452 5.0452 0 0 1 2.4652 1.27l-.0451.1089c-.919-.0609-1.7418-.1691-2.5667-.2014a18.9477 18.9477 0 0 0 -2.4653-.0782 10.4171 10.4171 0 0 0 -4.7538 1.8334z" fill="#3c052d"/><path d="m168.8412 296.098a10.1973 10.1973 0 0 1 1.77-1.8472 10.5021 10.5021 0 0 1 2.1993-1.33 6.3738 6.3738 0 0 1 2.4785-.7 4.9393 4.9393 0 0 1 2.51.56l-.0141.1178c-.8431.22-1.6161.3407-2.3806.5036-.7557.1663-1.5362.192-2.2946.4149a9.6164 9.6164 0 0 0 -2.1908.9316 11.1177 11.1177 0 0 0 -1.9957 1.4309z" fill="#3c052d"/><path d="m162.2223 303.811a2.061 2.061 0 0 1 -2.1382 1.9951 2.0954 2.0954 0 0 1 -1.9051-2.247 2.055 2.055 0 0 1 .1715-.7271 5.1438 5.1438 0 0 1 3.5522-.2944 2.1661 2.1661 0 0 1 .3196 1.2734z" fill="#3c052d"/><path d="m153.87 304.365a2.4526 2.4526 0 0 0 2.0894-.1741 17.0147 17.0147 0 0 0 1.7413-1.5128 3.629 3.629 0 0 1 2.39-.8926 4.0745 4.0745 0 0 1 2.3148.81l-.0274.1153c-.8135.1278-1.5452.1446-2.2331.26a5.5251 5.5251 0 0 0 -1.949.5012 15.4607 15.4607 0 0 1 -2.006 1.26 2.6858 2.6858 0 0 1 -2.3658-.2593z" fill="#3c052d"/><path d="m176.5451 301.6534a2.0609 2.0609 0 0 1 -2.1382 1.9951 2.0954 2.0954 0 0 1 -1.9051-2.247 2.055 2.055 0 0 1 .1715-.7271 5.1438 5.1438 0 0 1 3.5522-.2944 2.1661 2.1661 0 0 1 .3196 1.2734z" fill="#3c052d"/><path d="m170.8592 302.1352a4.04 4.04 0 0 1 1.5625-2.0027 2.9554 2.9554 0 0 1 1.2284-.4639 4.5945 4.5945 0 0 1 1.297.0371 15.3556 15.3556 0 0 0 2.2559.3337 12.7634 12.7634 0 0 0 2.2817-.0479l.0238.1161a10.8907 10.8907 0 0 1 -2.2912.5255 15.796 15.796 0 0 1 -2.3419.02 4.8223 4.8223 0 0 0 -1.9283.5312c-.6371.263-1.26.6575-2.0039 1.0306z" fill="#3c052d"/><path d="m163.6875 316.5483a11.9138 11.9138 0 0 0 4.105.8793 12.3006 12.3006 0 0 0 6.73-1.8152c.3075 3.0365-.7911 5.8134-2.6036 6.6972-2.462 1.2004-6.8458-.7963-8.2314-5.7613z" fill="#fff"/><path d="m155.381 308.38-.4917.9674c-1.0934-.61-2.2129-1.1982-3.3325-1.7479-3.2853-1.616-4.3-1.7479-4.97-1.7369v-.0055a6.88 6.88 0 0 0 -3.029-.3793 7.0911 7.0911 0 0 1 3.0186-.7145.2424.2424 0 0 1 .0628-.0055c.8317 0 1.967.1759 5.3622 1.8468 1.1301.5605 2.2706 1.1541 3.3796 1.7754z" fill="#fff"/><path d="m152.5979 320.5877-.7324.786c-.56-.5826-1.1352-1.1543-1.7055-1.7039q-1.1064-1.0637-2.27-2.0777a5.2009 5.2009 0 0 0 1.3915-.2034c.5389.4782 1.0673.9729 1.5852 1.4676.5803.5606 1.1662 1.1437 1.7312 1.7314z" fill="#fff"/><path d="m152.6108 306.9206c3.9387 2.5059 7.0469 2.8588 9.17 2.7094 4.67-.3286 6.156-3.1984 10.2821-2.27 1.6819.3784 3.6022 1.3428 5.5008.34a4.5421 4.5421 0 0 0 1.5223-1.35 26.8388 26.8388 0 0 1 1.285 5.7c.6338 5.6211-.12 15.0973-5.0016 18.5762-5.4128 3.8578-16.6485.8743-24.2523-9.96a14.5873 14.5873 0 0 0 2.0355-4.5219 15.6565 15.6565 0 0 0 -.5418-9.2237z" fill="#fff"/><path d="m179.3308 401.5961c-1.8677 4.0235-1.9409 8.069-1.5329 12.0375.1308 1.3357.3244 2.6658.5232 3.985.0366.2364.0732.4727.11.7146 2.0874 13.9227 4.5462 26.18 6.4295 34.8757a73.843 73.843 0 0 1 -55.1031-2.446c.0209-.0275.0418-.05.0627-.077.0053-.0055.0105-.0165.0158-.0219.4341-.5552.8736-1.0829 1.313-1.583.1413-.1649.2878-.33.4343-.4893a49.3728 49.3728 0 0 0 4.5513-6.09c2.7466-4.3422 4.9909-7.893 5.5245-12.7575a8.5117 8.5117 0 0 0 .0366-1.7424c-.0052-.1044-.0157-.22-.0261-.3353-.0314-.3078-.0681-.6541-.1308-1.0553-.0053-.044-.0105-.088-.021-.1374-.01-.0935-.0261-.1979-.047-.3023-.0262-.165-.0524-.3353-.0838-.5167-.0837-.4672-.1831-.9949-.3034-1.583-.0471-.2364-.0994-.4782-.1569-.7366-.0837-.4012-.1779-.8245-.2825-1.2807-.0576-.2583-.12-.5221-.1884-.8025-.0523-.2363-.1151-.4837-.1726-.742-.0628-.2583-.1308-.5332-.1988-.808-.0419-.1759-.0889-.3628-.1308-.5442-.0523-.2033-.0994-.4122-.1569-.6211-.0576-.2363-.1151-.4727-.1831-.72-.0157-.077-.0366-.1539-.0576-.2309-.1412-.5551-.2877-1.1323-.45-1.7369q-.1569-.61-.33-1.2532c-.01-.05-.0209-.0825-.0314-.1319v-.0055c-.1988-.7421-.3923-1.4621-.5859-2.1547a.6036.6036 0 0 0 -.0261-.1044c-.1308-.4837-.2616-.9564-.3872-1.4181q-.408-1.4676-.769-2.7483c-.0942-.3353-.1883-.6651-.2772-.9784-.1622-.5716-.3192-1.1158-.4657-1.616-.0941-.33-.183-.6431-.272-.94q-1.5773-3.6112-3.16-7.2225-1.5773-3.603-3.1494-7.2c.0367-.3408.068-.6816.0994-1.0224q1.9383-20.1422 3.8661-40.2788c.23.0605.46.1154.6958.1759a82.8384 82.8384 0 0 0 15.5323 2.3415 84.59 84.59 0 0 0 32.7281-4.76c.2877 2.358.7167 5.7879 1.3026 9.9488.5755 4.0894.8632 6.1342 1.0568 7.0961 1.8938 9.4321 5.5192 9.9542 5.7023 15.7037.1412 4.43-1.9409 8.0194-4.8234 12.9773-3.0552 5.2548-4.6665 5.5351-6.3929 9.1463-.0309.0657-.0623.1257-.0884.1918z" fill="#e80007"/><path d="m152.0172 418.8773a49.4336 49.4336 0 0 1 -3.6987 19.5458 46.356 46.356 0 0 1 -7.0467 11.6307 47.8461 47.8461 0 0 1 -3.4947 3.8092 73.6277 73.6277 0 0 1 -8.02-3.1c.0209-.0275.0418-.05.0627-.077.0053-.0055.0105-.0165.0158-.0219.4341-.5552.8736-1.0829 1.313-1.583.1413-.1649.2878-.33.4343-.4893a49.3728 49.3728 0 0 0 4.5513-6.09c2.7466-4.3422 4.9909-7.893 5.5245-12.7575a8.5117 8.5117 0 0 0 .0366-1.7424c-.0052-.1044-.0157-.22-.0261-.3353-.0314-.3078-.0681-.6541-.1308-1.0553-.0053-.044-.0105-.088-.021-.1374-.01-.0935-.0261-.1979-.047-.3023-.0262-.165-.0524-.3353-.0838-.5167-.0837-.4672-.1831-.9949-.3034-1.583-.0471-.2364-.0994-.4782-.1569-.7366-.0837-.4012-.1779-.8245-.2825-1.2807-.0576-.2583-.12-.5221-.1884-.8025-.0523-.2363-.1151-.4837-.1726-.742-.0628-.2583-.1308-.5332-.1988-.808-.0419-.1759-.0889-.3628-.1308-.5442-.0523-.2033-.0994-.4122-.1569-.6211-.0576-.2308-.12-.4727-.1831-.72-.0157-.077-.0366-.1539-.0576-.2309-.1412-.55-.2929-1.1323-.45-1.7369q-.1569-.61-.33-1.2532c-.01-.044-.0261-.088-.0366-.1319q-.2982-1.1214-.5807-2.16a.6036.6036 0 0 0 -.0261-.1044c-.1308-.4837-.2616-.9564-.3872-1.4181q-.408-1.4676-.769-2.7483c-.0942-.3353-.1883-.6651-.2772-.9784-.1622-.5716-.3192-1.1158-.4657-1.616-.0941-.33-.183-.6431-.272-.94q-1.5773-3.6112-3.16-7.2225-1.5773-3.603-3.1494-7.2c.0367-.3408.068-.6816.0994-1.0224q3.1233-5.6147 6.9265-11.3449c.926 1.1818 1.81 2.3855 2.6576 3.6a73.8411 73.8411 0 0 1 8.9772 17.3581 63.348 63.348 0 0 1 3.4685 15.5059q.2207 2.3657.2363 4.7044z" fill="#92063d"/><path d="m227.7683 399.315s-.5426.8671-1.7183 2.9575c-.6444 1.14-1.4753 2.6488-2.51 4.5789-2.56 4.7807-2.0292 5.3746-3.5327 6.598-.5935.487-2.3288 1.0393-5.7824 2.1261-5.1663 1.6213-5.4206 1.6985-6.065 1.7281-1.3057.0535-3.318-.671-7.2972-2.1142-3.94-1.4312-5.6468-2.2508-8.4956-2.3042a15.7667 15.7667 0 0 0 -2.5944.1663c-2.9279.4038-9.5751.7364-25.2605.576a7.2643 7.2643 0 0 1 -3.6006-9.1279 7.225 7.225 0 0 1 4.4767-4.3056c.0283-.0119.0565-.0178.0848-.03q5.2568.5878 10.6434 1.1224 7.02.686 13.8484 1.2293a16.3736 16.3736 0 0 1 6.2628-4.6322c1.3283-.5405 3.2219-.7661 6.9977-1.2234 6.2176-.7542 7.0315-.392 7.252.1069.3335.7483-.5935 1.96-1.1475 2.518-1.7465 1.752-4.2393 1.4729-4.5106 1.9a.1275.1275 0 0 0 -.0282.0713c-.017.2376.503.6473 2.4135 1.0928a21.8082 21.8082 0 0 0 9.6147.0178 14.44 14.44 0 0 0 6.0707-2.5469 22.31 22.31 0 0 1 3.2388-2.2983c.9044-.5167 2.5888-1.4787 2.9506-1.0512.2999.3562-.4745 1.5143-1.3111 2.8445z" fill="#ffbe90"/><path d="m171.3955 385.8641a24.6007 24.6007 0 0 1 -17.2648 14.79l7.4736.1007a21.2243 21.2243 0 0 0 5.9292-5.5966 22.62 22.62 0 0 0 3.862-9.2941z" fill="#92063d"/><path d="m166.8074 405.6814a15.2872 15.2872 0 0 1 -2.2949 7.9461c-2.2666.1188-37.2888 1.99-48.4692-.2316-4.7423-.9383-6.4041-2.8566-7.1276-4.169a6.53 6.53 0 0 1 -.5709-1.4194 10.7959 10.7959 0 0 1 .0791-5.0836c2.3288-10.773 8.2412-24.0878 11.4913-31.9805 3.3745-8.19 5.6354-14.7816 12.2939-20.7976.7292-.6592 1.3566-1.1759 1.78-1.5085q5.4687 8.632 10.943 17.2582-.5087 1.5233-1.04 3.0644-1.5346 4.4808-3.25 9.0982c-2.538 6.83-5.1719 13.3029-7.84 19.42.65.0594 1.2944.1188 1.9444.1722q15.3209 1.3719 30.6416 2.7438c.1413.0119.277.0237.4183.0356a15.1832 15.1832 0 0 1 .9891 4.7867c.0062.2136.0119.4393.0119.665z" fill="#e80007"/><path d="m178.4287 418.331c-3.5893.0535-8.1395.0595-13.9162 0-1.2661.0713-12.7292.683-24.56.8256-.3279-1.33-.7179-2.8388-1.1757-4.561-.0113-.0476-.0226-.0891-.0339-.1366 12.2487-.1129 24.4635-.76 25.7692-.8315 5.4432.0535 9.7956.0535 13.2831.006.1357 1.3362.3278 2.6665.5257 3.9849.0343.2376.0739.4751.1078.7126z" fill="#92063d"/><path d="m414.37 509.3514-4.8653.0495-18.3677.1209-6.2046.0385-25.43.17-12.498.0824-12.4981.0275-2.6052.0055c-.0889-.6761-.178-1.3577-.2721-2.0447-1.1247-8.6627-2.0978-17.65-2.4378-24.9765-.3871-8.5362-.4605-16.6712-.2983-24.3224q.055-2.7291.1518-5.37.0705-1.7725.1465-3.5123 34.5591-.8574 69.1184-1.7094l2.7727-.066c.6121 1.9623 1.1771 3.8641 1.7107 5.722v.0055c.5284 1.8908 1.0254 3.7156 1.4805 5.4911a201.4059 201.4059 0 0 1 4.7711 24.5257c.5912 4.5842 1.0463 7.6293 1.2086 8.866a85.4263 85.4263 0 0 0 3.7668 15.8413c.1148.3463.23.6981.35 1.0554z" fill="#23a636"/><path d="m391.1372 509.5218-6.2046.0385c-.11-.4947-.2145-.9839-.3191-1.4786q-1.4361-6.5712-2.8616-13.1424a33.9034 33.9034 0 0 1 -9.2232-1.1707 35.2077 35.2077 0 0 1 -12.1528-6.0243 61.6536 61.6536 0 0 0 37.7976-.8794 17.769 17.769 0 0 1 -6.2045 5.6724 16.4861 16.4861 0 0 1 -4.2637 1.5831q1.46 6.8927 3.1023 14.0052c.1099.4673.2197.929.3296 1.3962z" fill="#00943c"/><path d="m404.2724 459.0653a104.9443 104.9443 0 0 1 -75.38-.5642c.04-1.8173.09-3.6108.1526-5.3687a104.9468 104.9468 0 0 0 73.7466.44q.7969 2.8322 1.4808 5.4929z" fill="#00943c"/><path d="m375.8208 293.3471q.26 5.9559.52 11.9116l27.8747-3.2784.3123-15.8458-9.2571-13.4414q-9.725 10.3269-19.4499 20.654z" fill="#e88c64"/><path d="m402.4478 272.3624a8.5213 8.5213 0 0 1 -2.3909 4.9233 7.1978 7.1978 0 0 1 -3.4424 1.7757c-.1526.0356-.2882.0594-.4069.0772a18.3117 18.3117 0 0 1 -2.0066 9.5021c-2.08 3.8543-4.3976 4.2284-25.5545 11.3728-1.1531.386-5.2849 1.7816-6.5567.1069-.701-.9206-.6048-2.8685-.52-4.6976a7.0769 7.0769 0 0 1 .2091-1.8589 2.8969 2.8969 0 0 1 1.2039-1.4193c1.3566-.8612 3.4706-1.1165 5.3472-1.9658 1.7749-.7958 4.0641-2.4468 6.1385-6.23a39.9689 39.9689 0 0 1 -9.7786 2.5121 22.3047 22.3047 0 0 1 -2.894.202c-1.611-.0119-2.5549-.3267-2.8262-.9681-.3731-.8789.78-1.8054.3108-2.8387-.3843-.8552-1.3905-.7127-3.12-1.5322-1.0174-.4811-3.0466-1.4431-3.2445-2.75-.22-1.4491 2.0123-2.0429 4.1772-4.852a16.2988 16.2988 0 0 0 3.0805-8.0886c.3787-3.2961-.5539-4.2463-.6613-7.3938a19.7545 19.7545 0 0 1 2.9958-10.6839 67.6345 67.6345 0 0 0 14.9788 1.3124c2.3909-.0712 5.3754-.3029 7.5912 1.752a8.6857 8.6857 0 0 1 2.3909 4.8045c.56 3.3019-1.0174 4.7688-1.04 7.6491-.017 1.9955.7122 4.7926 4.0585 8.1956a9.6654 9.6654 0 0 1 2.6-5.4637c1.6731-1.6748 4.98-3.5752 7.3821-2.1855 3.2503 1.8831 2.0855 8.1723 1.9781 8.7424z" fill="#f69968"/><path d="m363.7557 260.4537a1.57 1.57 0 0 0 .312 1.4206c.92 1.1793 3.0815.5193 5.2.3278a16.7138 16.7138 0 0 1 7.3848 1.0929 14.463 14.463 0 0 0 -6.6567-3.497c-1.9894-.4234-5.7021-.7236-6.2401.6557z" fill="#3c052d"/><path d="m364.581 266.8423a6.2774 6.2774 0 0 1 2.017-.706 7.9181 7.9181 0 0 1 2.0823-.0228q1.041.0476 2.0751.1745c.6883.0959 1.3739.1912 2.053.3354l-.0077.1185c-.69.0452-1.3745.0756-2.0577.14q-1.0241.08-2.04.1817a14.9014 14.9014 0 0 1 -2.0234.2576 6.3908 6.3908 0 0 1 -2.0852-.3608z" fill="#3c052d"/><path d="m367.8157 270.0463c-.8366.1009-1.611-.73-1.7354-1.8588a2.4772 2.4772 0 0 1 .277-1.4669q.8139-.0713 1.6787-.1069.2969-.0178.5936-.0178a2.4269 2.4269 0 0 1 .4692 1.2293 1.87 1.87 0 0 1 -1.2831 2.2211z" fill="#3c052d"/><path d="m374.4685 283.949c-2.0744 3.783-4.3636 5.434-6.1385 6.23-1.8766.8493-3.9906 1.1046-5.3472 1.9658a21.6962 21.6962 0 0 1 -.6839-2.334 22.4914 22.4914 0 0 1 -.503-3.1475 22.3047 22.3047 0 0 0 2.894-.202 39.9689 39.9689 0 0 0 9.7786-2.5123z" fill="#fff"/><path d="m353.2375 277.0228c-2.68 3.4292-.0454 10.0882 1.98 15.2087 2.5013 6.3226 5.1992 7.858 5.8438 8.2005 1.0247.5443 2.6741 1.1512 6.3972.9535 4.065-.2159 8.1872-1.3009 13.9791-4.1359a76.94 76.94 0 0 0 13.7677-8.6792 21.2406 21.2406 0 0 1 -6.6085-7.1363 22.5222 22.5222 0 0 1 -2.8454-9.1614 59.9943 59.9943 0 0 1 -16.0623 3.1824c-9.4321.5414-14.0649-1.4866-16.4516 1.5677z" fill="#3c052d"/><path d="m384.6516 274.198-.4434-.9957a10.32 10.32 0 0 0 3.5465-2.8822 11.1116 11.1116 0 0 0 2.276-5.8393l1.0412.1058a12.2425 12.2425 0 0 1 -2.5089 6.4321 11.3878 11.3878 0 0 1 -3.9114 3.1793z" fill="#3c052d"/><path d="m392.716 290.2081-.469-.9828a15.1573 15.1573 0 0 0 4.8416-4.0306 16.379 16.379 0 0 0 3.2212-7.2035l1.0279.2055a17.5039 17.5039 0 0 1 -3.4449 7.7006 16.2 16.2 0 0 1 -5.1768 4.3108z" fill="#3c052d"/><path d="m410.35 258.816a87.5891 87.5891 0 0 1 -5.8219 27.3185 17.3363 17.3363 0 0 1 -4.8893-3.2782 17.84 17.84 0 0 1 -3.0241-3.7949 7.1978 7.1978 0 0 0 3.4424-1.7757 8.5213 8.5213 0 0 0 2.3909-4.9233c.1074-.57 1.2718-6.8593-1.9783-8.7419-2.4023-1.39-5.709.5107-7.3821 2.1855a9.6654 9.6654 0 0 0 -2.6 5.4637c-3.3463-3.403-4.0755-6.2-4.0585-8.1956.0227-2.88 1.6-4.3472 1.04-7.6491a8.6857 8.6857 0 0 0 -2.3909-4.8045c-2.2158-2.0549-5.2-1.8232-7.5912-1.752a67.6345 67.6345 0 0 1 -14.9788-1.3124 13.8889 13.8889 0 0 1 -7.6986-3.8246c-4.81-4.7511-4.4372-11.3966-4.3693-12.3468a77.1065 77.1065 0 0 0 13.8371 2.7319c12.113 1.253 17.6127-1.1284 29.85.9858 6.5793 1.1343 9.9256 1.7638 12.69 4.8045.9326 1.0331 4.1994 4.9767 3.5326 18.9091z" fill="#3c052d"/><path d="m300.8945 392.04c-6.5851 5.5825-12.2544 8.7835-14.6849 8.5578a7.362 7.362 0 0 1 -1.8936-.4573 5.62 5.62 0 0 1 -.5935-.291 9.8532 9.8532 0 0 1 -2.6865-2.5748c-1.5645-2.6034.5481-6.041-.7728-6.9229a1.3 1.3 0 0 0 -.893-.141c-2.0653.1728-3.6932 3.4692-4.1973 6.1971a16.013 16.013 0 0 0 .1276 5.5677s.8218 5.4088 0 6.7227a1.9926 1.9926 0 0 1 -.5483.5761l-8.6708 9.11c1.21.2316 2.4927.4692 3.838.7008 7.4612 1.2828 9.4847 1.2 10.7622 1.069 4.0075-.4039 6.958-1.8826 11.3443-4.43a198.69 198.69 0 0 0 18.9016-12.5308q-5.0194-5.5769-10.033-11.1534z" fill="#f69968"/><path d="m383.8149 322.0275a60.543 60.543 0 0 1 -1.9557 8.8132c-5.268 19.6752-12.0791 38.9347-17.7541 58.4972a13.6181 13.6181 0 0 1 -2.12 4.4006c-3.03 4.1334-7.8172 5.5409-9.6486 6.0873-11.61 3.48-22.7338 8.3974-34.4512 11.5153-5.37 1.4253-13.6845 3.6939-24.0227 6.7465a42.0362 42.0362 0 0 1 -2.8771-5.731 40.0459 40.0459 0 0 1 -1.56-4.5194 41.7336 41.7336 0 0 1 -1.5714-12.4952q21.4169-10.7523 42.8281-21.4985c3.838-10.8918 6.6133-19.7881 8.3995-25.7328.13-.4321.1469-.4877.2034-.6711 1.8391-5.9674 5.93-18.7162 16.7106-27.9945 6.8283-5.8766 12.9441-7.438 15.5656-7.9435 1.4784-.2852 8.8618-1.709 10.8218 1.5575a12.93 12.93 0 0 1 .9113 3.8016 18.3146 18.3146 0 0 1 .5205 5.1668z" fill="#b8d26f"/><path d="m420.2163 339.1075c-.0509 1.0155-.1244 1.8707-.1865 2.5418a125.6469 125.6469 0 0 1 -6.0255 28.429 273.8578 273.8578 0 0 1 -18.828 42.9969 42.4019 42.4019 0 0 0 0 13.1782 32.2023 32.2023 0 0 0 .6839 3.3851 187.4592 187.4592 0 0 0 8.5576 23.3158c-.4408.1722-.893.3385-1.3621.5167-.5992.22-1.2266.4454-1.871.671a104.9206 104.9206 0 0 1 -74.1706-1.8054c-.3109-.1188-.6161-.2435-.91-.3682.22-14.8291.6331-25.9763 1.04-30.2641.1187-1.2412.2543-2.5834.2543-2.5834.0566-.582.1188-1.164.181-1.74.26-2.5359.5539-5.03.8648-7.4829.0791-.6355.1639-1.2709.2487-1.9q.9919-7.4473 2.2214-14.33a89.8123 89.8123 0 0 0 24.3391-20.1206c4.3467-5.1252 12.9044-15.1855 17.4207-30.7927q.7036-2.4231 1.2661-5.0242c1.6765-7.7925 2.6793-11.6483 1.837-14.847-.4311-1.6375-1.7727-5.24-6.9118-8.498l6.2-5.963-.5256-4.8045a2.2351 2.2351 0 0 1 1.7805-2.37 160.4411 160.4411 0 0 1 18.0989-3.29c3.3971-.4157 6.6585-.7067 9.7673-.8967a2.3133 2.3133 0 0 1 2.5549 2.2983q-.0849 1.933-.1639 3.8662l-.034.8017a2.3644 2.3644 0 0 0 .1527.974 2.5719 2.5719 0 0 0 .82 1.1224 2.0822 2.0822 0 0 0 .3166.2256 24.122 24.122 0 0 1 5.4207 4.4363c1.2491 1.3838 4.2731 5.0837 6.0254 14.2175.3787 1.9717.6274 3.8424.7857 5.5766a58.9194 58.9194 0 0 1 .1517 8.5276z" fill="#b8d26f"/><path d="m373.1963 359.3976c-.3836 5.6418-.8811 10.36-1.3 13.8452a146.108 146.108 0 0 1 -5.366 24.3024 14.4955 14.4955 0 0 1 -2.1141 4.3948c-3.0353 4.1334-7.8228 5.5409-9.6542 6.0932-9.1851 2.75-18.065 6.402-27.1823 9.3477.26-2.5359.5539-5.03.8648-7.4829.0791-.6355.1639-1.2709.2487-1.9 7.885-2.6963 15.6515-5.7785 23.6439-8.1718 1.8314-.5464 6.6189-1.9539 9.6486-6.0873a21.3215 21.3215 0 0 0 2.12-4.4006 67.3972 67.3972 0 0 0 3.2582-10.7114z" fill="#69b44b"/><path d="m380.9641 375.4015a2.7821 2.7821 0 0 0 -1.5347.9533 4.6507 4.6507 0 0 0 -.95 1.8693l-1.9682 7.3742 1.1979-.2638 1.5-5.62 1.3842-.3049.349-1.3074-1.4119.311.1117-.4186c.2009-.7525.552-1.18 1.06-1.2913a.57.57 0 0 1 .5759.1432l.6637-1.3059a1.0335 1.0335 0 0 0 -.9766-.139z" fill="#00943c"/><path d="m381.5127 381.1368.0038-.0141a4.2787 4.2787 0 0 1 .8291-1.67 2.26 2.26 0 0 1 1.2271-.8236.7868.7868 0 0 1 .8106.1888 1.2 1.2 0 0 1 .2279.9236l-3.0985 1.3952zm2.4089-3.8151a3.5257 3.5257 0 0 0 -1.4784.7551 6.0138 6.0138 0 0 0 -1.2826 1.4821 6.9583 6.9583 0 0 0 -.8325 1.9141 4.1189 4.1189 0 0 0 -.1412 1.7707 1.4622 1.4622 0 0 0 .654 1.0555 1.8164 1.8164 0 0 0 1.3661.1284 3.6813 3.6813 0 0 0 1.2641-.5484 4.6166 4.6166 0 0 0 1.089-1.0367l-.3619-.8719a3.0171 3.0171 0 0 1 -1.5945 1.0683 1.0857 1.0857 0 0 1 -.886-.1014.9318.9318 0 0 1 -.3387-.7886l4.2-1.9079a4.0771 4.0771 0 0 0 .1482-1.7722 1.4148 1.4148 0 0 0 -.6105-1.012 1.57 1.57 0 0 0 -1.1954-.1351z" fill="#00943c"/><path d="m389.5671 373.5905-1.1979.2639-2.0071 7.52a2.17 2.17 0 0 0 -.0028 1.5808q.2871.4946 1.0846.3189a2.387 2.387 0 0 0 .7667-.3283l.29-1.2945a1.1724 1.1724 0 0 1 -.4666.2268q-.72.1585-.4429-.8851l1.9758-7.4025z" fill="#00943c"/><path d="m392.7914 372.88-1.1979.2638-2.0071 7.52a2.17 2.17 0 0 0 -.0029 1.5809q.2872.4946 1.0847.3188a2.3867 2.3867 0 0 0 .7667-.3282l.29-1.2945a1.1718 1.1718 0 0 1 -.4667.2267q-.72.1586-.4428-.8851l1.9758-7.4024z" fill="#00943c"/><path d="m394.7831 380.3427a.7523.7523 0 0 1 -.9268-.3624 2.087 2.087 0 0 1 -.0063-1.4859 4.2633 4.2633 0 0 1 .8511-1.6792 2.3347 2.3347 0 0 1 1.2481-.8415.76.76 0 0 1 .9336.3609 2.0843 2.0843 0 0 1 .0085 1.49 4.1931 4.1931 0 0 1 -.8533 1.6753 2.3513 2.3513 0 0 1 -1.2549.843zm1.4005-5.722a3.5126 3.5126 0 0 0 -1.4539.7363 5.7815 5.7815 0 0 0 -1.2557 1.4541 7.1571 7.1571 0 0 0 -.8322 1.9494 4.4832 4.4832 0 0 0 -.1707 1.8082 1.4579 1.4579 0 0 0 .5866 1.0527 1.5341 1.5341 0 0 0 1.2179.1478 2.9615 2.9615 0 0 0 1.0319-.4575 4.1245 4.1245 0 0 0 .9314-.909l-.241.903 1.1427-.2517 1.8627-6.9792-1.1978.2639-.226.8465a1.0046 1.0046 0 0 0 -.54-.5316 1.4524 1.4524 0 0 0 -.8555-.0329z" fill="#00943c"/><path d="m402.5057 370.74-1.2014.2646-2.59 9.7022 1.2014-.2646.9427-3.5319a4.209 4.209 0 0 1 .8-1.6458 2.1617 2.1617 0 0 1 1.19-.7713c.39-.0859.649.0031.7779.2624a2.0452 2.0452 0 0 1 -.0514 1.3128l-1.0117 3.7905 1.1979-.2638 1.0682-4.0022a2.985 2.985 0 0 0 .0266-2.1572 1.1281 1.1281 0 0 0 -1.351-.4283 3.1375 3.1375 0 0 0 -1.0338.44 4.1572 4.1572 0 0 0 -.9088.8243l.9427-3.5319z" fill="#00943c"/><path d="m408.3517 372.0155-1.2013.2647-1.8628 6.9792 1.2014-.2647zm.2338-2.9818a1.1878 1.1878 0 0 0 -.6208.4024 1.7844 1.7844 0 0 0 -.4067.7447.8106.8106 0 0 0 .0339.652.3961.3961 0 0 0 .47.1621 1.1844 1.1844 0 0 0 .6314-.418 1.9135 1.9135 0 0 0 .4107-.7721.76.76 0 0 0 -.0414-.6239.4177.4177 0 0 0 -.4773-.1472z" fill="#00943c"/><path d="m387.2486 362.4464c.0418 1.6817.1018 3.32.1674 4.3276a8.8359 8.8359 0 0 0 .2473 1.8c.708-.9 1.4382-1.7731 2.19-2.6292a23.0808 23.0808 0 0 0 -2.6045-3.4986z" fill="#00943c"/><path d="m387.1641 358.5874c.0029.1233.0044.2514.0082.3833 0 .0487.0012.0927.0012.1414.0044.1053.0041.216.006.3307.0025.088.0025.1853.0072.2773.0032.2073.0063.4147.01.6306.0063.1713.0078.348.0129.524a21.8664 21.8664 0 0 1 3.3461 4.2869q.691-.7631 1.4031-1.4954c.1256-.1294.2545-.26.3835-.39.1256-.1294.2545-.26.3835-.39l.1008-.0974a19.2276 19.2276 0 0 0 -4.5117-3.5964c-.2078-.1224-.4124-.2323-.6114-.339-.1833-.0924-.3631-.1856-.54-.2662z" fill="#23a636"/><path d="m387.1311 356.3372-.0025.0094-.0009.0888.0031.0612.0016.0307c0 .0133.0018.1634.0059.428.001.106.0026.2341.006.3794l.0873.0383c.4475.198.933.4363 1.44.7141.1447.0788.29.1662.4393.2529.1456.0874.2947.1741.4447.2694.1457.0874.2888.1843.4353.28a19.5293 19.5293 0 0 1 3.6264 3.1274q.61-.5857 1.2289-1.1471c.1369-.1232.27-.2455.4058-.3639.1334-.1223.2655-.24.4011-.3583.471-.4136.9452-.8147 1.4285-1.2133a17.9189 17.9189 0 0 0 -5.5084-2.102c-.7563-.1609-1.49-.2738-2.184-.3511-.1324-.0151-.2626-.0262-.3916-.0421-.13-.0111-.2605-.0223-.3851-.03-.4764-.0412-.9258-.0617-1.3492-.07a1.2454 1.2454 0 0 0 -.1327-.0018z" fill="#69b44b"/><path d="m407.7006 357.9722c-1.5861 1.5357-3.2516 3.2836-4.8988 5.1337-.1234.1334-.2445.2708-.3656.4081s-.2389.274-.36.4113q-1.2211 1.3977-2.402 2.84c-.1142.1359-.2263.2756-.3383.4154-.12.146-.2369.2912-.3537.4364-.3609.4513-.72.9066-1.07 1.3557-.0556.0742-.11.1437-.1641.2132.075-.0254.15-.0508.2215-.0754.5056-.1778.9713-.3644 1.4006-.5608.1516-.0688.3-.1369.4457-.2088.1424-.0713.2849-.1425.4183-.2161a10.04 10.04 0 0 0 2.843-2.2154c.1211-.1373.24-.2786.3533-.4231.118-.15.2291-.2983.3393-.4554a22.2844 22.2844 0 0 0 1.3039-2.1463c.643-1.1553 1.63-3.0149 2.627-4.9122z" fill="#00943c"/><path d="m409.9855 353.5869c-.2294.1656-.4635.3367-.7058.514-.2843.2131-.5768.4325-.8834.6683a82.3305 82.3305 0 0 0 -7.1452 6.173c-.1346.127-.2658.2533-.3983.3843s-.2636.2572-.396.3882q-1.0671 1.0584-2.1817 2.2335l-.3559.3838c-.1221.1287-.2488.2628-.3722.3962-.3618.394-.73.7982-1.0965 1.211-.1211.1373-.241.27-.3622.4073-.1176.1366-.2388.2739-.36.4113-.25.29-.5024.58-.7544.8788-.1237.1468-.2461.2888-.37.4356s-.2473.2935-.3722.4449c-.4205.5043-.8426 1.0267-1.2672 1.5584-.0778.0968-.1522.1929-.2254.2842q.1516-.02.3136-.0425c.43-.0636.8975-.149 1.399-.2506l.0069-.0015c.1347-.03.268-.0546.4061-.085l.0069-.0016c.1381-.03.274-.0647.4086-.0944l.0069-.0015c.5065-.12.9845-.2434 1.4352-.3737.0756-.1008.1547-.2023.2316-.3078.1145-.1491.2278-.2936.3423-.4427s.2279-.2937.3424-.4429q.5188-.6652 1.0583-1.3353c.1167-.1452.2335-.29.3524-.4317.112-.14.2275-.28.3383-.4154.766-.9345 1.549-1.86 2.343-2.7647.1177-.1366.2388-.2739.3587-.4066l.3634-.412c2.0951-2.3472 4.2163-4.5363 6.1789-6.363l.3163-.6008c.1224-.24.2483-.48.3694-.7144l.18-.345c.0612-.12.12-.23.18-.3451.0336-.0649.066-.1251.0961-.1893.0719-.1354.14-.27.2121-.4053z" fill="#23a636"/><g fill="#69b44b"><path d="m411.307 351.0339c-.0508.02-.1029.0448-.1572.0656-.4777.207-1 .4459-1.5541.71-.1481.0681-.2975.1408-.45.2143-.1541.0782-.31.1525-.4644.2307-.82.4064-1.7057.8759-2.6431 1.4055a61.0766 61.0766 0 0 0 -7.3849 4.9289l-.4689.3689c-.1563.1229-.3139.2506-.4679.3775-.5379.4328-1.0739.8828-1.615 1.3517-.1343.1137-.2664.2313-.402.35-.1321.1176-.2689.2407-.4045.3591q-.61.5529-1.2286 1.1338c-.13.1216-.2611.2479-.3923.3742s-.2636.2572-.3961.3882l-.1042.0982c-.1277.1255-.2567.2557-.3856.386-.1243.1247-.2533.2549-.3788.3844-.5031.5092-1.0055 1.04-1.5014 1.5834-.1186.1279-.235.26-.35.387-.12.1326-.2363.2645-.3574.4019q-1.1379 1.2864-2.2546 2.701a2.5568 2.5568 0 0 0 1.9336 1.1675c.1117.02.2316.0331.3515.0466.1233.0126.2467.0253.3782.0318a9.7957 9.7957 0 0 0 1.2609-.0255c.05-.064.0979-.1234.1475-.1874.1133-.1445.2278-.2937.3446-.4389.1133-.1445.2218-.2834.3386-.4287.4494-.5638.9066-1.12 1.3661-1.6731.12-.146.24-.292.364-.4387.1189-.1413.2413-.2834.3637-.4254.1978-.23.392-.4582.59-.6877.1211-.1373.2423-.2746.36-.4112.12-.1327.241-.27.3621-.4074.3622-.4073.7312-.8162 1.0978-1.2156l.37-.4c.1186-.1279.2407-.2566.3593-.3846.6832-.7215 1.3708-1.4351 2.0694-2.129.1289-.13.2626-.2659.3951-.3969s.267-.258.4-.389q2.8554-2.7737 5.8575-5.2077c.2112-.1705.4177-.3355.6242-.5.2216-.1727.44-.3447.6531-.5112.2169-.1673.429-.3291.6412-.491.7283-.55 1.405-1.04 2.0241-1.4728l.12-.0839c.0829-.1643.162-.3146.2244-.439.1619-.3145.2555-.4945.2627-.5093l.0238-.0407.0192-.0352.06-.115z"/><path d="m412.84 336.6835a3.6724 3.6724 0 0 0 -1.2081.5568 9.69 9.69 0 0 1 .4965 1.8648 4.6175 4.6175 0 0 1 .99-.3547 2.843 2.843 0 0 1 .4469-.0637 11.78 11.78 0 0 0 -.4453-2.0443 1.8907 1.8907 0 0 0 -.28.0411z"/><path d="m410.0215 332.5622a5.3721 5.3721 0 0 0 -1.4326 1.2407 4.9668 4.9668 0 0 1 1.3407.8688 7.6187 7.6187 0 0 1 1.4066-1.1066 5.8848 5.8848 0 0 0 -1.3147-1.0029z"/><path d="m407.5959 331.8261a6.5793 6.5793 0 0 0 -1.3269 1.514 6.1446 6.1446 0 0 1 1.6888.2344 9.1168 9.1168 0 0 1 1.3074-1.368 6.3591 6.3591 0 0 0 -1.6693-.38z"/><path d="m412.8438 339.7522a3.5493 3.5493 0 0 0 -.6021.1956 14.9916 14.9916 0 0 1 .049 2.2024 2.6678 2.6678 0 0 1 1.3347.0026 17.3428 17.3428 0 0 0 .036-2.4115 1.7418 1.7418 0 0 0 -.8176.0109z"/><path d="m405.0056 332.0116c-.09.02-.1821.049-.2718.0688a7.1977 7.1977 0 0 0 -1.1674 1.7444 10.1275 10.1275 0 0 1 1.0337-.2941 7.8771 7.8771 0 0 1 .9089-.1427 10.3562 10.3562 0 0 1 1.1579-1.5874 9.2637 9.2637 0 0 0 -1.6613.211z"/><path d="m411.5686 346.5719-.0062.0236a27.4227 27.4227 0 0 1 -.869 2.6835 2.5359 2.5359 0 0 1 1.0329.4763q.5069-1.26.9012-2.549a1.5274 1.5274 0 0 0 -1.0589-.6344z"/><path d="m412.2154 343.1141a21.75 21.75 0 0 1 -.397 2.4246 2.118 2.118 0 0 1 1.1483.4331 25.0967 25.0967 0 0 0 .5248-2.6475 1.6838 1.6838 0 0 0 -1.2761-.21z"/><path d="m411.89 334.2045a4.24 4.24 0 0 0 -1.485.9379 6.6074 6.6074 0 0 1 .93 1.42 5.4469 5.4469 0 0 1 1.4552-.79 7.8331 7.8331 0 0 0 -.9007-1.5677z"/><path d="m391.6745 343.3806c-.5382.8843-1.0359 1.8-1.4975 2.7378a2.1024 2.1024 0 0 0 .6079 1.3136c.3882-.8823.8172-1.747 1.2845-2.5847a3.5449 3.5449 0 0 1 -.3949-1.4667z"/><path d="m403.6928 332.3893a14.47 14.47 0 0 0 -2.09.93 7.2209 7.2209 0 0 0 -.94 1.9157 14.5576 14.5576 0 0 1 2.0691-1.0932 10.71 10.71 0 0 1 .9615-1.7522z"/><path d="m389.5657 347.435c-.4064.9261-.7664 1.8729-1.0761 2.8265a1.4947 1.4947 0 0 0 .9738.8434q.369-1.31.8749-2.5963a2.3436 2.3436 0 0 1 -.7726-1.0736z"/><path d="m388.0973 351.5607c-.02.0753-.0423.1466-.0612.2171a24.6527 24.6527 0 0 0 -.6577 3.3408 9.4283 9.4283 0 0 1 1.432-1.0192c.0925-.6269.2165-1.2739.374-1.9371a2.0094 2.0094 0 0 1 -1.0871-.6016z"/><path d="m394.3072 339.64q-.9585 1.1805-1.8259 2.4826a3.2635 3.2635 0 0 0 .19 1.6757c.5109-.8429 1.0589-1.6541 1.6335-2.4314a5.4387 5.4387 0 0 1 .0028-1.7269z"/><path d="m397.312 336.4286q-1.0529.969-2.0442 2.0837a4.8649 4.8649 0 0 0 -.2325 1.9059 27.6589 27.6589 0 0 1 1.8977-2.1311 7.8284 7.8284 0 0 1 .379-1.8585z"/><path d="m400.509 333.9582a21.3832 21.3832 0 0 0 -2.1324 1.55 6.3372 6.3372 0 0 0 -.6236 1.9832 21.9552 21.9552 0 0 1 2.0531-1.6784 9.5887 9.5887 0 0 1 .7029-1.8546z"/></g><path d="m399.9093 351.1056a49.5286 49.5286 0 0 0 -8.9875 2.8252c-.5551.2418-1.0369.4763-1.4517.6916-.1369.0744-.2655.1426-.3873.2093-.1415.08-.268.152-.3923.228-.1625.0978-.31.1879-.445.2795.1384.005.279.0138.42.0227.1212.0087.2457.0167.37.0247s.2479.0206.3747.0325a22.2454 22.2454 0 0 1 4.06.7479 17.2768 17.2768 0 0 1 4.5572 2.0017 62.8572 62.8572 0 0 1 6.2592-4.3755c1.8259-1.1193 3.5114-2.0173 4.9739-2.7246.1494-.0727.2953-.1447.44-.212s.2894-.1346.4306-.2011c.1782-.0835.3518-.1616.5219-.2389-.1067-.0385-.2294-.0778-.3694-.1134-.0932-.0281-.198-.0493-.3085-.0737-.0992-.018-.2052-.0344-.32-.0533a10.6561 10.6561 0 0 0 -1.2409-.0985 36.9711 36.9711 0 0 0 -8.5045 1.0279z" fill="#f7ffdc"/><path d="m404.4178 452.9543c-.4408.1722-.893.3385-1.3621.5167-.5992.22-1.2266.4454-1.871.671-1.4809-2.9872-2.9505-6.2476-4.341-9.7693a132.2717 132.2717 0 0 1 -6.0311-19.5327 34.2535 34.2535 0 0 1 -15.3211-1.4819 22.0288 22.0288 0 0 0 10.8218-2.3546 23.4156 23.4156 0 0 0 8.863-7.9283 42.4019 42.4019 0 0 0 0 13.1782 32.2023 32.2023 0 0 0 .6839 3.3851 187.4592 187.4592 0 0 0 8.5576 23.3158z" fill="#69b44b"/><path d="m456 508.8237-12.498.1814-12.498.1319-20.136.2144-4.8654.0495-18.3677.1209-6.2046.0385-25.43.17-12.498.0824-12.4981.0275-2.6052.0055-22.3961.05-50.0029.1043-49.9974-.1044c-.9469-.0055-1.899-.0055-2.8459-.0055q-5.6423-.0165-11.2791-.0275-11.6061-.0165-23.2069-.06c-1.01 0-2.0194-.0055-3.0238-.0165-.6854 0-1.3759-.0055-2.0612-.011-1.0882 0-2.1816-.0109-3.27-.0165l-4.3157-.0334-23.186-.1484-11.6086-.077-15.2028-.0989-25.0013-.2639-12.498-.137-12.5033-.1763 12.5033-.1759 12.498-.1319 25.0013-.2638 15.2394-.0989 11.8284-.077 22.93-.1539c1.6061-.011 3.2069-.0275 4.813-.033 1.0829-.011 2.1711-.0165 3.254-.022h.0052c.701-.0055 1.3916-.0055 2.0926-.011l3.0552-.0165q11.19-.0494 22.3856-.0494 5.6343-.0082 11.2686-.022c1.0411-.0055 2.0874-.0055 3.1284-.011l49.9974-.11 50.0026.1045 22.124.05 2.8773.0055 12.4981.0329 12.498.077 25.1112.1649 6.1941.0439 18.6973.121 4.5148.0494 20.4866.2144 12.498.1374z" fill="#00943c"/></svg>