<svg height="512" viewBox="0 0 512 512" width="512" xmlns="http://www.w3.org/2000/svg"><path d="m394.247 508.6945-304.2347.0777a96.3918 96.3918 0 0 1 -8.6281-36.9852c-.8665-31.26 13.4834-57.71 28.8156-72.7451 21.1211-20.7116 46.5253-22.3708 63.4513-24.9363 112.5772-17.0633 144.16-118.7914 208.1569-97.7366 39.3643 12.9508 55.7324 60.7553 57.2431 65.3693 13.0434 39.8392-2.9415 79.9175-14.9939 110.9855a264.9118 264.9118 0 0 1 -29.8102 55.9707z" fill="#b8d26f" opacity=".3"/><ellipse cx="308.9488" cy="257.4921" fill="#b8d26f" opacity=".3" rx="16.1027" ry="17.6745"/><ellipse cx="287.2442" cy="199.4043" fill="#b8d26f" opacity=".3" rx="7.5717" ry="8.3108"/><path d="m208.5687 509.4115h-87c-.05-.2092-.1009-.4245-.1457-.64h86.8658c.1005.2216.1958.4369.2799.64z" fill="#fff"/><path d="m90.1535 378.9537a3.8827 3.8827 0 1 1 3.866 4.2433 4.0678 4.0678 0 0 1 -3.866-4.2433z" fill="#b8d26f" opacity=".3"/><path d="m359.1046 241.3283a3.8828 3.8828 0 1 1 3.866 4.2434 4.0679 4.0679 0 0 1 -3.866-4.2434z" fill="#b8d26f" opacity=".3"/><path d="m238.4882 508.7089-37.3568.0373q-3.4922-14.5951-6.9843-29.1966-.9347-3.8889-1.8636-7.7841c-.3285-1.374-.6571-2.7418-.9856-4.1158q11.3091-3.1242 22.6237-6.2422c.119.7709.2379 1.5419.3625 2.3128q.6033 3.9263 1.2179 7.8587 1.9372 12.45 3.8745 24.888a26.333 26.333 0 0 1 14.2743 6.51 28.085 28.085 0 0 1 4.8374 5.7319z" fill="#581646"/><path d="m215.502 471.579a52.3087 52.3087 0 0 1 -5.6191 3.2641c-.2606.1306-.5268.255-.7987.3793a46.8782 46.8782 0 0 1 -5.3642 2.1823c-.708.2424-1.4388.4725-2.1921.6839a45.2522 45.2522 0 0 1 -5.5228 1.2123c-.1133.0187-.2323.0373-.3512.056-.1643.0249-.3286.05-.4928.0684-.34.0435-.68.087-1.014.1243q-.9347-3.8889-1.8636-7.7841c.5438-.0559 1.0989-.1243 1.66-.1989.1643-.0187.3286-.0435.4928-.0684.119-.0186.2379-.0373.3512-.0559a45.2667 45.2667 0 0 0 5.5225-1.2123c.7534-.2114 1.4841-.4415 2.1921-.684a46.8692 46.8692 0 0 0 5.3643-2.1822c.2718-.1244.5381-.2487.7986-.3793a52.3058 52.3058 0 0 0 5.6191-3.2641q.6033 3.9262 1.2179 7.8586z" fill="#3c052d"/><path d="m153.8221 468.5139c-.1586 2.0641-.3115 4.1221-.47 6.1862q-.2887 3.7584-.572 7.5106-1.0112 13.2708-2.0166 26.5355l-37.3568-.0373a28.085 28.085 0 0 1 4.8374-5.7324 26.3327 26.3327 0 0 1 14.2743-6.51q-.1445-10.37-.2775-20.7472c-.034-2.4621-.068-4.9179-.102-7.38-.017-1.4673-.04-2.9408-.0567-4.4081q10.8671 2.2948 21.7399 4.5827z" fill="#581646"/><path d="m153.3519 474.7q-.2887 3.7584-.572 7.5106c-1.0536-.2052-2.1186-.4415-3.1948-.6964-.1359-.0311-.2719-.0622-.4078-.0995-.2946-.0683-.5891-.1429-.878-.2175q-3.39-.8487-6.5028-1.8591c-.7987-.2549-1.586-.5222-2.3507-.7895-2.566-.8953-4.9677-1.8528-7.2051-2.8289-.034-2.4621-.068-4.9179-.102-7.38 1.9146.8083 3.9481 1.6041 6.0893 2.35.7646.2673 1.552.5346 2.3507.79q3.11 1.0071 6.5028 1.8589c.2888.0746.5834.1493.8779.2176.136.0373.2719.0685.4079.0995 1.688.3978 3.3533.746 4.9846 1.0443z" fill="#3c052d"/><path d="m224.9559 287.6082q-2.9228 86.2469-5.8457 172.4874a53.402 53.402 0 0 1 -10.4452 6.8888c-.26.1306-.5268.2549-.7986.3793a46.8692 46.8692 0 0 1 -5.3643 2.1822c-.708.2425-1.4387.4726-2.1921.684a45.2667 45.2667 0 0 1 -5.5228 1.2124c-.1133.0186-.2322.0373-.3512.0559-.1642.0249-.3285.05-.4928.0684a45.0157 45.0157 0 0 1 -7.8.3917c-.9063-.0249-1.7787-.0809-2.617-.1555a969.8241 969.8241 0 0 1 -16.3078-161.1407q-.2805-16.46-.0057-32.3488c.068-.6093.1359-1.2248.2039-1.8341q1.0026-9.0462 2.0165-18.0924a38.1546 38.1546 0 0 1 6.5481-2.68c.2776-.0808.5665-.1617.8553-.2363a27.0638 27.0638 0 0 1 5.6078-.9264 21.1325 21.1325 0 0 1 2.2658-.0248 21.4785 21.4785 0 0 1 5.6021.9574c.2832.0871.5664.1866.85.286.1189.0436.2322.0871.3512.1306a22.4139 22.4139 0 0 1 5.1942 2.8475c10.7566 7.6601 22.4253 21.5869 28.2483 28.8674z" fill="#fff"/><path d="m208.665 466.9844c-.26.1306-.5268.2549-.7986.3793a1300.6861 1300.6861 0 0 1 -17.016-174.906q-.2549-8.8784-.3908-17.8313c-.0113-.9637-.0283-1.9274-.04-2.891v-.0063q-.102-8.1416-.1076-16.2521c.2832.0871.5664.1866.85.286q.0084 4.6537.04 9.32c0 .3606.0057.7212.0113 1.0818q.0256 3.05.068 6.1117c.0114.97.0227 1.946.04 2.9221q.1359 8.6359.3795 17.2283a1300.1967 1300.1967 0 0 0 16.9642 174.5575z" fill="#92063d"/><path d="m202.5021 469.5459c-.708.2425-1.4387.4726-2.1921.684a1300.8492 1300.8492 0 0 1 -17.3274-176.852c-.3739-12.87-.5552-25.9325-.5382-38.8335a21.1325 21.1325 0 0 1 2.2658-.0248c-.0113 6.3914.0283 12.8263.1189 19.2551.0907 6.5282.2323 13.05.4192 19.5286a1297.5991 1297.5991 0 0 0 17.2538 176.2426z" fill="#92063d"/><path d="m194.7872 471.4423c-.1133.0186-.2322.0373-.3512.0559-.1642.0249-.3285.05-.4928.0684a1300.6069 1300.6069 0 0 1 -16.3475-150.31q-.68-13.5133-1.0706-27.0018c-.3739-12.7829-.5551-25.74-.5438-38.5475.2776-.0808.5665-.1617.8553-.2363-.0169 12.8637.1643 25.9014.5382 38.7526a1299.0214 1299.0214 0 0 0 17.4124 177.2187z" fill="#92063d"/><path d="m208.0052 279.3576a97.1733 97.1733 0 0 0 -9.6129-8.29 94.26 94.26 0 0 0 -7.8191-5.2968l.41-.8167a95.08 95.08 0 0 1 7.89 5.3449 98.0258 98.0258 0 0 1 9.6981 8.3639z" fill="#92063d"/><path d="m204.4394 282.8457-1.5238 1.84a78.3026 78.3026 0 0 0 -8.2587-7.1375c-1.0876-.8145-2.2034-1.6041-3.3363-2.35-.2832-.1989-.5721-.3855-.861-.572-.0113-.9637-.0283-1.9274-.04-2.891.2889.1741.5778.3544.861.5409 1.5861 1.0072 3.1438 2.089 4.65 3.2205a80.2577 80.2577 0 0 1 8.5088 7.3491z" fill="#92063d"/><path d="m216.9067 394.0116a80.3217 80.3217 0 0 1 -7.7319-2.2942c-2.8605-1.0072-5.3359-2.0642-7.392-3.0278-.0963-.0436-.187-.087-.2833-.1306-1.2291-14.8719-1.8975-30.9561-1.6653-48.1159q.102-7.6473.4248-14.9651.1106-2.518.2436-4.9863l11.7219-4.6387q2.0807-15.489 4.1611-30.978a80.693 80.693 0 0 0 -15.9207-16.085 75.3573 75.3573 0 0 0 -9.7433-6.2524q.3393 17.0115.6788 34.0231 1.92 3.7007 3.8408 7.4013c-.1119 2-.2774 5.2843-.39 9.335-.1874 6.7643-.3871 21.4751 2.5072 54.4088.5122 5.828 1.2846 14.0845 2.3791 24.0486a50.3862 50.3862 0 0 0 5.0925 2.6056 49.5681 49.5681 0 0 0 12.9036 3.73c-.2774-1.3614-.5549-2.7168-.8269-4.0784z" fill="#333" opacity=".15"/><path d="m183.8718 475.6017c-1.6086.1989-3.3419.3668-5.1829.4973-.2775.0187-.5664.0373-.8553.056-1.7956.1119-3.6989.1865-5.6927.1927-.7534.0125-1.5238.0062-2.3055-.0062a1.2612 1.2612 0 0 1 -.1529-.0062c-.6854-.0062-1.3878-.0311-2.0959-.056-1.15-.0435-2.3224-.1119-3.5232-.1989-.2889-.0249-.5778-.0436-.8723-.0746a99.4464 99.4464 0 0 1 -14.8238-2.35c-.136-.031-.2719-.0622-.4079-.0995-.2945-.0683-.5891-.143-.8779-.2176q-3.39-.8487-6.5028-1.8589c-.7987-.255-1.5861-.5223-2.3507-.79a104.11 104.11 0 0 1 -11.5215-4.8309q-.0425-53.7458-.0793-107.479-.0084-2.08-.0056-4.1532-.0341-42.7317-.0624-85.4572c.4928-.1181 1.0253-.2425 1.6087-.3606.6911-.143 1.45-.28 2.2658-.4041a45.416 45.416 0 0 1 6.2875-.5223c.2776-.0062.5608-.0062.85-.0062a45.8662 45.8662 0 0 1 8.9271.9264c.2832.0559.5664.1181.85.18.1019.0186.2039.0435.3058.0684a46.8538 46.8538 0 0 1 5.302 1.5605c.7816.286 1.535.5782 2.2657.8829a49.67 49.67 0 0 1 5.6248 2.804c.2889.1741.5721.342.85.516a49.5728 49.5728 0 0 1 5.5171 3.8983c1.1442 7.2245 2.7416 18.1919 4.0841 31.6462 1.5577 15.6179 1.9768 26.5232 2.413 35.75.2266 4.8122.47 9.556.742 14.2936.1926 3.3574.3965 6.7085.6118 10.0845 1.7956 28.09 4.4635 57.5849 8.4626 101.7155.1128 1.281.2428 2.6613.3446 3.7991z" fill="#fff"/><path d="m178.6889 476.099c-.2775.0187-.5664.0373-.8553.056a1299.8653 1299.8653 0 0 1 -16.4665-171.5611c-.2946-10.1777-.47-20.4674-.5211-30.6949.2889.1741.5721.342.85.516.0566 10.0534.2322 20.1566.5211 30.1479a1298.2356 1298.2356 0 0 0 16.4718 171.5361z" fill="#92063d"/><path d="m172.1409 476.3477c-.7534.0125-1.5238.0062-2.3055-.0062a1301.18 1301.18 0 0 1 -16.3419-170.8274c-.34-11.701-.5211-23.5574-.538-35.302.7816.286 1.535.5782 2.2657.8829.0283 11.4274.2039 22.9544.5381 34.3383a1297.61 1297.61 0 0 0 16.3816 170.9144z" fill="#92063d"/><path d="m164.0634 476.08c-.2889-.0249-.5778-.0436-.8723-.0746a1299.4074 1299.4074 0 0 1 -16.155-169.6213c-.3625-12.59-.5438-25.36-.5381-37.9816.2832.0559.5664.1181.85.18 0 12.5528.1812 25.2485.5381 37.7765a1298.8777 1298.8777 0 0 0 16.1773 169.721z" fill="#92063d"/><path d="m147.9594 473.5561c-.2945-.0683-.5891-.143-.8779-.2176-5.2963-55.7259-8.5987-112.0984-9.8335-167.8493-.2776-12.6087-.4532-25.3791-.5268-38.0065.2776-.0062.5608-.0062.85-.0062.0736 12.6212.2492 25.3916.5268 37.9879 1.2345 55.8316 4.5482 112.2912 9.8614 168.0917z" fill="#92063d"/><path d="m140.5787 471.48c-.7987-.255-1.5861-.5223-2.3507-.79-5.1207-54.7063-8.3267-110.0157-9.5333-164.7345-.2775-12.4657-.4531-25.0869-.5268-37.5464.6911-.143 1.45-.28 2.2658-.4041.068 12.5776.2492 25.3107.5268 37.8884 1.2122 54.9985 4.4466 110.6001 9.6182 165.5866z" fill="#92063d"/><path d="m187.8143 254.0035c0 2.1761-1.8749 3.7988-4.135 5.7573-4.9167 4.2651-8.1738 3.5936-11.4535 6.46-.0113.0124-.0226.0186-.034.0311a10.6589 10.6589 0 0 0 -1.0819 1.1c-1.671 1.9584-3.325 5.2287-3.8971 10.9611-.13-.1554-.2776-.33-.4418-.5409l-.0057-.0062a24.8534 24.8534 0 0 1 -2.532-3.8423 26.9477 26.9477 0 0 1 -3.1891-13.6222 1.4391 1.4391 0 0 1 0-.1555c.0227-.5284.0567-1.0445.102-1.5418a27.7814 27.7814 0 0 1 .5891-3.6434 26.8089 26.8089 0 0 1 2.0618-5.8505 19.4186 19.4186 0 0 1 6.5708-3.1211c.2775-.0684.5664-.1306.8553-.1865h.0057c.3512-.0684.7137-.1244 1.0819-.1617a14.5545 14.5545 0 0 1 3.4156-.0186c.4872.0559.9856.1368 1.49.2362a19.2238 19.2238 0 0 1 2.2034.5845 19.564 19.564 0 0 1 3.8518 1.7284c.2832.1678.5552.3357.8157.51 2.1976 1.486 3.727 3.3575 3.727 5.3221z" fill="#fff"/><path d="m179.42 246.4433a20.1015 20.1015 0 0 1 -1.9032 5.521 18.6268 18.6268 0 0 1 -4.7355 5.7137 19.47 19.47 0 0 0 -3.0191 3.1149c-2.8209 3.805-3.8292 9.5125-2.9965 16.9733a24.8534 24.8534 0 0 1 -2.532-3.8423c-.1473-6.1863 1.1159-11.1166 3.7725-14.6978a22.067 22.067 0 0 1 3.3477-3.4817 16.3974 16.3974 0 0 0 4.1973-5.0174 17.6222 17.6222 0 0 0 1.6654-4.8682 19.2238 19.2238 0 0 1 2.2034.5845z" fill="#92063d"/><path d="m184.0871 248.6815a13.283 13.283 0 0 1 -2.8152 7.7717 10.5355 10.5355 0 0 1 -3.512 2.6237 10.1265 10.1265 0 0 0 -3.1947 2.319 11.1126 11.1126 0 0 0 -2.3734 4.8558 10.6589 10.6589 0 0 0 -1.0819 1.1 12.7728 12.7728 0 0 1 2.8492-6.6029 10.9024 10.9024 0 0 1 3.4326-2.5118 9.8881 9.8881 0 0 0 3.2628-2.4185 12.6426 12.6426 0 0 0 2.6169-7.6473c.2832.1688.5552.3362.8157.5103z" fill="#92063d"/><path d="m171.2232 245.8029c-.1359 3.65-1.0989 6.5406-2.8549 8.6172a10.609 10.609 0 0 1 -3.5176 2.6175 10.1957 10.1957 0 0 0 -3.189 2.3253 8.8135 8.8135 0 0 0 -.6175.7833c.0227-.5284.0567-1.0445.102-1.5418a11.1024 11.1024 0 0 1 3.3363-2.4061 9.7233 9.7233 0 0 0 3.2628-2.4124 12.7 12.7 0 0 0 2.6226-7.7965c.2775-.0684.5664-.1306.8553-.1865z" fill="#92063d"/><path d="m164.961 214.8285a11.1341 11.1341 0 0 1 .7867 7.2415 9.154 9.154 0 0 1 1.4941 6.2981 3.2771 3.2771 0 0 1 1.2839 2.4383 3.2438 3.2438 0 0 1 -.4189 1.7145 2.6674 2.6674 0 0 1 -.1985.3112 37.2927 37.2927 0 0 0 -5.0112 13.7352 37.8107 37.8107 0 0 0 -.3626 8.2663 24.7418 24.7418 0 0 1 -5.9773.1961c-3.6395-.2-6.9934-.3852-10.2252-2.9467a14.5549 14.5549 0 0 1 -2.5763-2.6965c-2.3474-3.0286-3.2572-6.0635-5.2536-14.3669-.6225-2.5877-1.17-4.9535-1.65-7.0515 1.096-.813 2.184-1.6154 3.2425-2.3873l-1.4528-4.6826q9.3158-3.4789 18.6316-6.9579 2.7089-1.0065 5.41-2.0181a9.2779 9.2779 0 0 1 2.2776 2.9063z" fill="#a76242"/><path d="m164.961 214.8285a11.1341 11.1341 0 0 1 .7867 7.2415 9.154 9.154 0 0 1 1.4941 6.2981 14.3634 14.3634 0 0 0 -2.7255-3.4291 21.2449 21.2449 0 0 0 -4.0431-2.6341c-1.4014-.9614-2.8585-3.1266-3.2-8.3646q2.7089-1.0065 5.41-2.0181a9.2779 9.2779 0 0 1 2.2778 2.9063z" fill="#96553c"/><path d="m167.2128 278.3133a52.7273 52.7273 0 0 0 -9.1084-5.95 50.53 50.53 0 0 0 -20.4032-5.5023l-1.6312-22.1773q-2.6595-8.4958-5.3246-16.9919a6.7809 6.7809 0 0 1 .47-1.8093 7.5518 7.5518 0 0 1 5.07-4.1034c.7873-.2922 1.569-.5906 2.3564-.8829l1.45 4.6817c-1.0535.7772-2.1411 1.5792-3.24 2.3874.4815 2.1015 1.0253 4.4641 1.6483 7.0567 2 8.3 2.9059 11.3342 5.2566 14.362a14.5134 14.5134 0 0 0 2.5773 2.6984c3.2288 2.5615 6.5821 2.748 10.2243 2.947a27.4261 27.4261 0 0 0 5.1773-.0684 27.7814 27.7814 0 0 0 -.5891 3.6434c-.0453.4973-.0793 1.0134-.102 1.5418a27.4876 27.4876 0 0 0 .21 4.5014 26.7059 26.7059 0 0 0 2.98 9.2763 24.8534 24.8534 0 0 0 2.532 3.8423l.0057.0062c.163.2114.3103.3855.4406.5409z" fill="#96553c"/><g fill="#3c052d"><path d="m148.0188 223.1991c-.1652-.3993.4394-1.0529.6168-1.2447.4672-.505 1.0908-.9486 3.0924-1.55 2.3585-.7092 3.0763-.5711 3.57-.2633.1416.0883.4586.2919.4752.589.0191.3422-.38.6308-1.1553 1.108a12.2689 12.2689 0 0 1 -2.5952 1.21 8.44 8.44 0 0 1 -3.0092.4819c-.5717-.021-.8988-.0992-.9947-.3309z"/><path d="m160.9917 218.8369c-.1652-.3993.4394-1.0529.6168-1.2447a4.9978 4.9978 0 0 1 3.0925-1.55 1.7459 1.7459 0 0 1 1.1558.1431 1.3759 1.3759 0 0 1 .7311.9526 1.3929 1.3929 0 0 1 -.27 1.0231c-.2774.3537-.6332.393-1.3224.5247a12.2754 12.2754 0 0 1 -3.0092.4818c-.5716-.0207-.8987-.0989-.9946-.3306z"/><path d="m153.343 225.0588a1.4375 1.4375 0 0 1 -.3945 1.8729 1.177 1.177 0 0 1 -1.7063-.4329 1.4687 1.4687 0 0 1 -.0958-1.2329 10.19 10.19 0 0 1 2.1223-.3211l.0022.0037c.0244.0348.051.0733.0721.1103z"/><path d="m155.8651 224.7432a.3706.3706 0 0 1 -.2039.0659 9.83 9.83 0 0 0 -2.3941.3435 10.22 10.22 0 0 0 -2.9517 1.3435.3787.3787 0 0 1 -.5466-.1489.4625.4625 0 0 1 .13-.5961l.0056-.0039a10.9757 10.9757 0 0 1 3.171-1.443 10.5558 10.5558 0 0 1 2.5722-.3689.4173.4173 0 0 1 .4049.4295.4488.4488 0 0 1 -.1874.3784z"/><path d="m164.1154 221.5461a1.4374 1.4374 0 0 1 -.3945 1.8728 1.177 1.177 0 0 1 -1.7063-.4329 1.4687 1.4687 0 0 1 -.0958-1.2329 10.19 10.19 0 0 1 2.1223-.3211l.0021.0038c.0245.0347.0511.0732.0722.1103z"/><path d="m165.5009 221.6384a.3694.3694 0 0 1 -.2038.066 9.7985 9.7985 0 0 0 -2.394.3434 9.9736 9.9736 0 0 0 -1.2938.4508.3879.3879 0 0 1 -.5155-.2489.4492.4492 0 0 1 .2267-.5657 10.7064 10.7064 0 0 1 1.3908-.4845 10.5247 10.5247 0 0 1 2.5723-.3689.4172.4172 0 0 1 .4048.4295.4482.4482 0 0 1 -.1875.3783z"/><path d="m169.4163 251.6534a9.2532 9.2532 0 0 1 -2.56 1.6973 15.15 15.15 0 0 1 -2.6679 1.088 14.0822 14.0822 0 0 1 -1.654.398 24.852 24.852 0 0 1 -5.976.1927c-3.6422-.199-6.9955-.3855-10.2243-2.947a14.5134 14.5134 0 0 1 -2.5773-2.6984 19.9781 19.9781 0 0 1 -3.4156-7.2431c-.5495-1.859-1.1272-4.1532-1.841-7.1189-.623-2.5926-1.1668-4.9552-1.6483-7.0567 1.0989-.8082 2.1865-1.61 3.24-2.3874.6175 3.9667 1.3595 7.2308 2.0052 9.7239.6628 2.5305 1.2349 4.2775 2.6906 5.8257a9.4627 9.4627 0 0 0 5.081 2.692 10.46 10.46 0 0 0 5.8-.4227c-1.0706-3.718-.2889-5.3905.1926-6.0868.5268-.7585 1.654-.4539 2.3394-1.5606a13.9064 13.9064 0 0 1 .94-1.76 5.1859 5.1859 0 0 1 .9233-.9761 2.2424 2.2424 0 0 0 1.0366.9948c.878.3668 1.41-.628 2.8209-.6466.827-.0124.9289.3047 1.6993.2984a3.79 3.79 0 0 0 2.4867-1.1377 48.5492 48.5492 0 0 1 2.0958 6.3354c1.1502 4.4397 1.8467 10.0477-.787 12.7958z"/></g><path d="m159.7328 239.0133c.5156 2.7038 3.0617 4.2379 5.2 3.4506a4.647 4.647 0 0 0 2.41-5.7913z" fill="#fff"/><path d="m162.03 203.5849q-18.5976 9.252-37.1933 18.5078a23.4561 23.4561 0 0 1 -2.1733-6.75 20.9875 20.9875 0 0 1 -.0319-6.5977c1.4971-9.65 9.2235-14.25 11.0872-15.3559 1.324-.7865 6.9476-4.1308 13.5045-3.2393a15.9926 15.9926 0 0 1 5.6 1.8668c6.1633 3.405 8.5778 9.7442 9.2068 11.5683z" fill="#e80007"/><path d="m162.03 203.5849q-18.5976 9.252-37.1933 18.5078a23.4561 23.4561 0 0 1 -2.1733-6.75 33.8671 33.8671 0 0 0 17.2921-11.1782 38.467 38.467 0 0 0 7.2677-14.0147 15.9926 15.9926 0 0 1 5.6 1.8668c6.1633 3.405 8.5778 9.7442 9.2068 11.5683z" fill="#92063d"/><path d="m167.9378 210.5071a5.4245 5.4245 0 0 1 -.827 2.1325 4.5812 4.5812 0 0 1 -1.7786 1.4922c-3.4893-.0373-12.6317 4.5014-15.9963 6.2981-.2039.1058-.4022.2177-.6.3233-1.8467 1.0135-4.0218 2.4062-6.3272 3.9294-1.0876.7212-2.2091 1.4735-3.3363 2.232-2.7077 1.8279-5.4775 3.6931-8.0265 5.26a4.4658 4.4658 0 0 1 -2.8549.7709c-2.2375-.2611-3.6762-2.605-4.3276-3.6744a12.6944 12.6944 0 0 1 -.8893-1.6538 6.17 6.17 0 0 1 -.5042-3.6061 5.44 5.44 0 0 1 .8214-1.9646 14.7453 14.7453 0 0 1 .9459-1.256c4.9394-5.9686 16.7724-12.8636 16.7724-12.8636a102.1537 102.1537 0 0 1 19.2533-8.2815c.017-.0062.0284-.0062.0454-.0124a4.7394 4.7394 0 0 1 3.3306.1616 4.0734 4.0734 0 0 1 .85.5471 7.9775 7.9775 0 0 1 1.739 2.3129c.0736.1244.1416.2549.2039.3793.9792 1.896 1.1605 3.8297 1.506 7.4731z" fill="#e80007"/><path d="m167.9378 210.5071a5.4245 5.4245 0 0 1 -.827 2.1325 4.5812 4.5812 0 0 1 -1.7786 1.4922c-3.1608 1.5854-10.4848 3.4195-15.9963 6.2981-.2039.1058-.4022.2177-.6.3233-1.8467 1.0135-4.0218 2.4062-6.3272 3.9294-1.0876.7212-2.2091 1.4735-3.3363 2.232-2.7077 1.8279-5.4775 3.6931-8.0265 5.26a4.4658 4.4658 0 0 1 -2.8549.7709c-2.2375-.2611-3.6762-2.605-4.3276-3.6744a12.6944 12.6944 0 0 1 -.8893-1.6538 14.5883 14.5883 0 0 0 3.8744-.6218c3.4043-1.032 4.1067-2.6361 8.1908-5.6764 4.5995-3.4257 14.2743-9.2389 23.7509-11.5455a6.8047 6.8047 0 0 0 3.75-1.9212c1.6937-1.84 2.1016-4.663 1.9486-7.5106a7.9775 7.9775 0 0 1 1.739 2.3129c.0736.1244.1416.2549.2039.3793a11.59 11.59 0 0 1 1.5061 7.4731z" fill="#92063d"/><path d="m140.3408 242.1409a5.9047 5.9047 0 0 1 -4.8884.3481c-2.8322-1.144-3.6932-4.2651-3.9991-5.3842-.6854-2.4931-.895-6.951 1.6314-8.6732a4.7019 4.7019 0 0 1 3.7668-.4663c.4815 2.1015 1.0253 4.4641 1.6483 7.0567.7138 2.9657 1.2915 5.2599 1.841 7.1189z" fill="#a76242"/><path d="m189.2783 507.2727a1.4371 1.4371 0 0 1 -.3681.97 1.1979 1.1979 0 0 1 -.878.3979h-17.1122a1.21 1.21 0 0 1 -.98-.5222 1.4776 1.4776 0 0 1 .0963-1.8155 1.1934 1.1934 0 0 1 .8837-.4041h17.1122a1.6729 1.6729 0 0 1 .1812.0124c.0114 0 .017.0062.0283.0062.0567.0187.1133.0311.17.05a1.2684 1.2684 0 0 1 .742.715.2347.2347 0 0 1 .0227.0559 1.3955 1.3955 0 0 1 .1019.5344z" fill="#b3b3b3"/><path d="m170.0363 506.3028a1.4776 1.4776 0 0 0 -.0963 1.8155l-10.5018-4.7563c-.0057 0-.0057-.0062-.0114-.0062a1.4763 1.4763 0 0 1 -.691-.6777 1.7028 1.7028 0 0 1 -.017-1.56l4.4352-8.8535q-1.4188 4.3086-2.8322 8.611l3.8065 1.803 6.7917 3.2206a1.1934 1.1934 0 0 0 -.8837.4036z" fill="#999"/><path d="m188.2134 505.9111a1.6729 1.6729 0 0 0 -.1812-.0124h-17.1122l-6.7917-3.2206h12.8469q5.6163 1.6134 11.2382 3.233z" fill="#ccc"/><path d="m176.5164 502.2056-9.6691-9.9415h-.0322v-6.6918h-3.6611v6.6918q-1.4188 4.3086-2.8322 8.611l3.8065 1.803h12.8469z" fill="#b3b3b3"/><rect fill="#3c052d" height="133.6197" rx="2.6016" width="5.2032" x="162.383" y="355.1744"/><path d="m149.5205 367.2928c2.2434 2.649 4.2193 4.82 5.7666 6.4656 2.4357 2.5913 3.2669 3.3059 4.5554 3.8164.8794.3484.5219.0992 5.54.608 2.0158.2044 3.0849.3416 4.0363-.4343a3.7389 3.7389 0 0 0 1.0289-1.4768c.8564-1.9048.7108-3.3494.7915-6.9495.0876-3.9088.322-5.0009-.4749-6.5152a5.1844 5.1844 0 0 0 -1.4243-1.737c-1.0076-.7606-1.9322-.5471-3.8781-.7818a21.4259 21.4259 0 0 1 -3.0787-.6067v-1.6515a8.3114 8.3114 0 0 0 -1.2731.3211 8.6661 8.6661 0 0 0 -1.4464.6436 10.0129 10.0129 0 0 1 -3.479.9869z" fill="#a76242"/><path d="m157.8155 361.4452c-.1076.2922-.2266.5907-.3625.8891a14.8779 14.8779 0 0 1 -3.4157 4.8558 14.7162 14.7162 0 0 1 -2.8662 2.0952c-.2832.1616-.5664.3109-.8439.4414a15.3 15.3 0 0 1 -4.5882 1.4238c-21.57-17.8935-35.6123-33.0949-36.5752-37.0242a26.5146 26.5146 0 0 1 -.708-5.8443 22.2371 22.2371 0 0 1 .3681-3.8858c.085-.4477.1586-.771.1643-.8145.3172-1.4114 2.2091-17.1226 6.5651-55.3218l3.6762-.2239.8553-.0559c1.4388-.087 2.8719-.1741 4.3106-.2673.7647-.0436 1.5237-.0933 2.2885-.1368 1.4387-.0871 2.8718-.18 4.3106-.2674.2832-.0186.5721-.0373.8553-.05q3.2117-.2052 6.4178-.3979-.8071 7.6473-1.6144 15.3008-2.5149 23.8372-5.0356 47.6807 4.3842 4.2248 9.0347 8.524 2.2431 2.061 4.5486 4.1407 6.9417 6.2486 13.6738 11.8876a17.855 17.855 0 0 1 -1.0592 7.0507z" fill="#fff"/><path d="m151.1711 369.2853c-.2832.1616-.5664.3109-.8439.4414-15.1354-14.1755-26.7021-25.0994-31.9134-30.0235l-1.6144-1.5232a12.2906 12.2906 0 0 1 -3.0984-4.4392 15.5044 15.5044 0 0 1 -.4135-9.0151l.0283-.1306c1.1159-5.1417 2.9455-22.6435 5.9137-56.5591l.8553-.0559c-2.9738 34.0585-4.8148 51.6349-5.942 56.8326l-.0283.1306a14.4927 14.4927 0 0 0 .3682 8.4245 11.4187 11.4187 0 0 0 2.8662 4.1034l1.62 1.5295c5.2453 4.9493 16.9253 15.9847 32.2022 30.2846z" fill="#92063d"/><path d="m155.6347 365.4181a14.2156 14.2156 0 0 1 -1.5974 1.772c-14.3309-13.4295-25.201-23.6943-30.2083-28.4257l-1.5181-1.43a13.0431 13.0431 0 0 1 -3.28-4.7127 16.2882 16.2882 0 0 1 -.4531-9.5125l.0226-.1244c1.0989-5.0485 2.8889-22.1647 5.7947-55.272.7647-.0436 1.5237-.0933 2.2885-.1368-2.9342 33.4741-4.7525 50.8018-5.88 55.9808l-.0283.1368a13.5349 13.5349 0 0 0 .3285 7.9271 10.5353 10.5353 0 0 0 2.685 3.83l1.518 1.43c5.0193 4.7437 15.9346 15.052 30.3279 28.5374z" fill="#92063d"/><path d="m157.8155 361.4452c-.1076.2922-.2266.5907-.3625.8891-12.8243-12.03-22.5217-21.1886-27.1722-25.5781l-1.5294-1.4486a12.2551 12.2551 0 0 1 -3.0928-4.433 15.5182 15.5182 0 0 1 -.4192-9.0151l.0284-.1306c1.0932-5.036 2.8718-21.9036 5.7267-54.42.2832-.0186.5721-.0373.8553-.05-2.8662 32.6472-4.65 49.6019-5.7551 54.6876l-.0283.1306a14.5212 14.5212 0 0 0 .3682 8.4183 11.4638 11.4638 0 0 0 2.8719 4.11l1.5294 1.4424c4.6221 4.3642 14.246 13.4539 26.9796 25.3974z" fill="#92063d"/><path d="m167.2107 278.3119q-1.5957-.9237-3.1095-1.6729c-.2938-.1454-.5787-.2889-.8654-.4228q-1.8363-.87-3.5438-1.5115c-.34-.1312-.6774-.2539-1.0139-.3725-.34-.1173-.6757-.2316-1.0051-.3387-.4191-.1339-.8311-.2564-1.242-.3747a33.2688 33.2688 0 0 0 -4.5221-.955c-.2755-.042-.5489-.0756-.8163-.102a26.6878 26.6878 0 0 0 -6.6164.0732c-.591.0827-1.1564.1847-1.6944.2964-.098.0212-.196.0424-.29.0624-.8491.19-1.7306.43-2.6538.7017-.507.1521-1.0244.3119-1.5573.4765-.2568.0793-.5125.1628-.7731.2434-1.5245.4754-3.1651.9822-4.9509 1.4385q-.9543.2471-1.9681.4717c-.0585.0136-.122.0241-.1844.0388-.5715.1266-1.1588.24-1.7609.3442a43.57 43.57 0 0 1 -5.21.62q-.4095.0243-.8338.04c-1.1909.05-2.4352.053-3.7363-.0037-.4342-.0157-.8416-.04-1.226-.0708-2.2386-.18-3.693-.6254-4.608-1.8865-2.2836-3.1631.0589-9.7892 3.4962-15.5821.2581-.4293.52-.86.7879-1.2831.8846-1.39 1.8192-2.7142 2.7506-3.9054.2775-.3536.5582-.6946.8334-1.0248.2885-.3433.6043-.7088.96-1.0957a35.4171 35.4171 0 0 1 4.396-4.0866l.0015-.0012c1.8779-1.42 5.0012-2.7021 9.8157-3.7422 1.2487 6.1823 3.6488 9.5575 5.52 11.47 4.6862 4.79 10.7562 5.2136 16.3005 9.57a32.3164 32.3164 0 0 1 6.023 6.4212c.1447.21.2818.4215.4189.6334a35.7243 35.7243 0 0 1 2.8778 5.5308z" fill="#fff"/><path d="m130.4041 276.3644c-.5715.1266-1.1588.24-1.7609.3442a18.4342 18.4342 0 0 1 -10.8053-10.4561 19.0917 19.0917 0 0 1 -1.313-6.4277c.2581-.4293.52-.86.7879-1.2831a18.5358 18.5358 0 0 0 1.2539 7.3586 17.6638 17.6638 0 0 0 11.8374 10.4641z" fill="#92063d"/><path d="m158.6781 274.3322c-.34-.1173-.6757-.2317-1.0051-.3387-.4191-.1339-.8311-.2564-1.242-.3747a49.1082 49.1082 0 0 0 -4.3262-2.95c-.1708-.1016-.3417-.2033-.5087-.306-.2964-.1718-.5917-.3394-.882-.504a48.636 48.636 0 0 0 -9.0263-3.8725c-1.01-.3238-1.9642-.61-2.8641-.877-4.3311-1.291-7.7536-2.3133-10.1413-5.753-1.8783-2.7116-2.69-6.3791-2.43-10.9274.2726-.2114.5567-.4263.8446-.6424-.3778 4.6572.3658 8.364 2.218 11.0383 2.225 3.2084 5.3688 4.1442 9.7175 5.4389a55.9015 55.9015 0 0 1 11.5154 4.5294c.2931.1591.5911.3213.8875.4931.3483.1967.7.4059 1.0562.6182a49.3474 49.3474 0 0 1 5.1569 3.5922c.348.2743.6915.5496 1.0296.8356z" fill="#92063d"/><path d="m144.4763 272.635c-.6989.0978-1.3584.22-1.9847.3588-.849.19-1.7305.43-2.6537.7017-.1284-.033-.2529-.0671-.3775-.1013-6.9336-1.9219-10.4115-2.8862-12.903-4.8272-4.1257-3.2161-5.8518-8.8351-6.494-14.1307.2775-.3536.5582-.6946.8335-1.0248.2883-.3433.6042-.7088.96-1.0957.3927 5.3227 1.8139 11.3175 5.8528 14.4695 2.1866 1.7038 5.5449 2.6369 12.2369 4.4882 1.501.4171 3.0148.8031 4.5297 1.1615z" fill="#92063d"/><path d="m173.3927 269.7085c.0113-.0124.0226-.0186.034-.0311 3.28-2.8662 6.5367-2.1947 11.4534-6.46 2.26-1.9584 4.1351-3.5812 4.1351-5.7572a4.9907 4.9907 0 0 0 -1.2235-3.0776c-.1983 1.9895-1.9826 3.5314-4.1124 5.378-4.9167 4.2651-8.1738 3.5936-11.4535 6.46-.0113.0124-.0226.0186-.034.0311a10.6589 10.6589 0 0 0 -1.0819 1.1 16.5825 16.5825 0 0 0 -3.376 7.5416q-.162.7568-.29 1.5885l-.0268-.0031c-.068.6093-.1359 1.2248-.2039 1.8341q-1.5973-.9233-3.11-1.6725c-.2945-.1492-.5777-.2922-.8666-.4227-1.2235-.5845-2.4017-1.0818-3.546-1.5108-.34-.1368-.674-.255-1.0139-.3731s-.6741-.2363-1.0026-.3419q-.6288-.1959-1.24-.3731a33.6647 33.6647 0 0 0 -4.5259-.9575c-.2719-.0373-.5494-.0746-.8157-.0994a26.6505 26.6505 0 0 0 -6.616.0746c-.5891.0808-1.1555.18-1.6937.2922-.0962.0249-.1982.0435-.2888.0622-.85.1927-1.7334.4352-2.6567.7025-.5041.1555-1.0252.3109-1.5577.4787-.2549.0809-.51.1617-.77.2425-1.5238.4788-3.1665.9824-4.9507 1.4362-.64.1679-1.2915.3233-1.9712.4726-.0567.0124-.119.0248-.1813.0435-.5721.1243-1.1612.2362-1.7617.3419a44.137 44.137 0 0 1 -5.2112.6218q-.4078.0186-.8327.0373-1.7842.0746-3.7385-.0063c-.43-.0124-.8384-.0373-1.2235-.0683-2.0052-.1617-3.3817-.5347-4.305-1.5171a5.4172 5.4172 0 0 0 .9006 3.0838c.912 1.2621 2.3678 1.71 4.6052 1.89.3852.0311.7931.05 1.2292.0684q1.9458.0838 3.7329.0062c.2832-.0125.5607-.0249.8383-.0435a44.1043 44.1043 0 0 0 5.2056-.6155c.6061-.1057 1.1895-.2176 1.7616-.3482l.1869-.0373c.6741-.1492 1.3312-.3047 1.9656-.4725 1.79-.4539 3.427-.9637 4.9507-1.4362.2606-.0809.5155-.1679.776-.2425.5325-.1679 1.048-.3295 1.5578-.4787.9233-.2736 1.8012-.51 2.6509-.7026.0963-.0187.1926-.0435.2889-.0622q.8071-.1678 1.6993-.2984a26.6761 26.6761 0 0 1 6.6161-.0684c.2662.0249.5381.0559.8156.1a32.818 32.818 0 0 1 4.52.9575c.4135.1181.8213.2362 1.24.373.3286.1057.6685.2176 1.0083.3357.3342.1181.6741.2425 1.014.3731q1.7078.6435 3.54 1.5108c.2889.1367.5721.28.8667.4228.7757.3874 1.5734.8153 2.3826 1.2673 1.0866 7.1105 2.4444 16.9158 3.61 28.6007 1.5577 15.6179 1.9768 26.5232 2.413 35.75.3852 8.2255.8327 16.24 1.3538 24.3781 1.7956 28.09 4.4635 57.5849 8.4626 101.7155.8383.0746 1.7107.1306 2.617.1555-4.7914-53.7473-7.9207-93.1-8.48-101.871-.614-9.6336-1.0177-17.5557-1.0177-17.5557q-.1755-3.3939-.3361-6.8224c-.204-4.3273-.4079-9.0214-.7194-14.3931-.0227-.3793-.0453-.7648-.068-1.15-.3569-5.8194-.85-12.4222-1.6257-20.2063-.19-1.905-1.0951-10.8779-2.8215-23.2658-.6-4.307-1.1464-7.9266-1.5583-10.5787a14.93 14.93 0 0 1 2.7938-5.306 10.6588 10.6588 0 0 1 1.0826-1.101z" fill="#333" opacity=".15"/><path d="m171.15 256.8386a9.2555 9.2555 0 0 1 -2.56 1.6974 15.1471 15.1471 0 0 1 -2.6679 1.088 14.0814 14.0814 0 0 1 -1.654.3979 18.3005 18.3005 0 0 1 -3.2231.28 1.4391 1.4391 0 0 1 0-.1555c.0227-.5284.0567-1.0445.102-1.5418a27.7814 27.7814 0 0 1 .5891-3.6434c.2606-.0311.5268-.0746.7987-.1243a14.0822 14.0822 0 0 0 1.654-.398 15.15 15.15 0 0 0 2.6679-1.088 9.2532 9.2532 0 0 0 2.56-1.6973c1.3368-1.3927 1.8126-3.519 1.8126-5.8505.3512-.0684.7137-.1244 1.0819-.1617.8946 4.1095 1.1664 8.7725-1.1612 11.1972z" fill="#333" opacity=".15"/><path d="m140.6523 338.3665q-4.6561-4.29-9.0347-8.524 2.5149-23.8465 5.0356-47.6807 1.9968 28.1082 3.9991 56.2047z" fill="#333" opacity=".15"/><path d="m172.7016 370.2676a4.58 4.58 0 0 0 -.5494-1.9771 5.9127 5.9127 0 0 0 -.844-1.2062c-.0227.628-.051 1.3616-.068 2.2383-.0793 3.6.0623 5.0422-.793 6.951a4.4576 4.4576 0 0 1 -.7647 1.231 3.343 3.343 0 0 1 -.2662.2425 2.786 2.786 0 0 1 -1.83.5969 21.0043 21.0043 0 0 1 -2.2034-.1617c-5.0187-.51-4.6618-.2612-5.54-.6093-1.2915-.51-2.1185-1.2248-4.5542-3.8174-1.1442-1.2124-2.5264-2.7232-4.0784-4.4952-.0113.0062-.0283.0187-.04.0249-.2832.1616-.5664.3109-.8439.4414a15.3 15.3 0 0 1 -4.5882 1.4238c-7.3071-6.0619-13.7532-11.8192-19.1174-16.9236q0 2.07.0056 4.1532c5.6248 5.4339 12.5524 11.6637 20.4995 18.2541a15.298 15.298 0 0 0 4.5882-1.4238c.2776-.13.5608-.28.844-.4414.0114-.0062.0284-.0187.04-.0249 1.552 1.772 2.9342 3.2765 4.0784 4.4951 2.4357 2.5927 3.2627 3.3076 4.5542 3.8175.8779.3481.5211.1 5.54.6093.2888.0311.5608.0559.8156.0808v92.5325c.7081.0249 1.41.05 2.0959.056v-92.5761a2.5289 2.5289 0 0 0 1.1216-.5284 3.7284 3.7284 0 0 0 1.0308-1.48c.8554-1.9025.7138-3.3449.7931-6.9447.0513-2.2256.1476-3.5375.0739-4.5385z" fill="#333" opacity=".15"/><path d="m233.5581 247.4753c.2673 2.431 1.3419 2.9222 1.0022 4.7687-.2283 1.2248-.7794 1.4549-.8574 2.53a3.8089 3.8089 0 0 0 .49 2.0766 10.8766 10.8766 0 0 1 -2.8341-1.2373 12.6439 12.6439 0 0 1 -3.7526-3.6931.0331.0331 0 0 1 -.0111-.0186 25.9419 25.9419 0 0 1 -2.7449-12.54v-.0746c.0111-2.7418.2784-5.4712.5345-8.1509a32.1132 32.1132 0 0 1 1.5589-6.0122c1.5813-.6652 4.0756-1.2559 6.1691.2425a4.6208 4.6208 0 0 1 1.67 1.9958c1.1024 2.6548-.3006 6.9447-2.5611 9.45-.7071.7834-1.7316 1.6476-1.7316 2.5491a1.2706 1.2706 0 0 0 .0223.23c.24 1.4088 2.2386 1.3078 3.0789 2.5739.9439 1.4224-.3404 2.5148-.0331 5.3101z" fill="#e88c64"/><path d="m254.3536 236.1349a38.0948 38.0948 0 0 1 -2.7672 9.7177c-.2.46-.3841.9015-.5734 1.3305a17.8384 17.8384 0 0 1 -3.8139 6c-3.19 3.1025-8.3461 4.9677-13.0063 3.6683a3.81 3.81 0 0 1 -.49-2.0766c.0779-1.0756.6291-1.3057.8574-2.53.34-1.8465-.7349-2.3377-1.0022-4.7687-.3073-2.7953.977-3.8877.0334-5.31-.84-1.2661-2.8389-1.1651-3.0789-2.5739a1.2706 1.2706 0 0 1 -.0223-.23c0-.9015 1.0245-1.7657 1.7316-2.5491 2.2605-2.5056 3.6635-6.7955 2.5611-9.45a4.6208 4.6208 0 0 0 -1.67-1.9958c-2.0935-1.4984-4.5878-.9077-6.1691-.2425a27.6948 27.6948 0 0 1 3.1291-6.1178c1.8708-2.7232 3.7137-5.4277 6.9207-6.2111 4.1313-1.0135 7.7392 1.84 9.2146 3.0154 3.7193 2.947 5.74 7.2183 6.8428 11.1228a36.5976 36.5976 0 0 1 1.3026 9.2008z" fill="#f69968"/><path d="m231.782 230.7321a1.4763 1.4763 0 1 1 -2.9342 0 1.62 1.62 0 0 1 1.0189-1.5544c.0056-.0062.0056 0 .0056 0a4.243 4.243 0 0 1 1.7983.9388 1.7131 1.7131 0 0 1 .1114.6156z" fill="#3c052d"/><path d="m226.4627 230.2212a3.1343 3.1343 0 0 1 3.3557-1.6851 3.5318 3.5318 0 0 1 1.7748.9185 3.6478 3.6478 0 0 1 1.0346 1.72 8.3234 8.3234 0 0 0 -2.9913-1.4121 4.576 4.576 0 0 0 -1.5172-.0113 8.2143 8.2143 0 0 0 -1.6566.47z" fill="#3c052d"/><path d="m245.3817 233.5981a1.4763 1.4763 0 1 1 -2.9341 0 1.62 1.62 0 0 1 1.0188-1.5543c.0056-.0063.0056 0 .0056 0a4.2429 4.2429 0 0 1 1.7984.9388 1.7143 1.7143 0 0 1 .1113.6155z" fill="#3c052d"/><path d="m240.0624 233.0873a3.1342 3.1342 0 0 1 3.3557-1.6852 3.5314 3.5314 0 0 1 1.7748.9185 3.6478 3.6478 0 0 1 1.0346 1.72 8.323 8.323 0 0 0 -2.9913-1.412 4.5759 4.5759 0 0 0 -1.5172-.0114 8.2149 8.2149 0 0 0 -1.6566.4701z" fill="#3c052d"/><path d="m229.8928 245.1112a19.8638 19.8638 0 0 0 4.0171.8971 20.09 20.09 0 0 0 8.57-.8971c-1.31 4.3945-5.1582 6.6668-8.2462 5.6634-2.1475-.6977-3.7888-2.9341-4.3409-5.6634z" fill="#fff"/><path d="m248.1548 230.135a6.1712 6.1712 0 0 0 -1.6954-1.4306 6.2673 6.2673 0 0 0 -1.8885-.758 8.5956 8.5956 0 0 0 -2.0444-.1869c-.7085.0147-1.4331.09-2.2111.1373a5.2513 5.2513 0 0 1 2.0926-1.0988 4.93 4.93 0 0 1 2.3907-.0693 4.5221 4.5221 0 0 1 2.1664 1.1844 3.6762 3.6762 0 0 1 1.1897 2.2219z" fill="#3c052d"/><path d="m234.783 227.3623a6.1677 6.1677 0 0 0 -1.6954-1.4306 6.265 6.265 0 0 0 -1.8885-.7581 8.6013 8.6013 0 0 0 -2.0444-.1868c-.7085.0147-1.4331.09-2.2111.1372a5.2526 5.2526 0 0 1 2.0926-1.0988 4.9326 4.9326 0 0 1 2.3907-.0693 4.5221 4.5221 0 0 1 2.1664 1.1844 3.6762 3.6762 0 0 1 1.1897 2.222z" fill="#3c052d"/><path d="m232.91 477.4574c.6767 2.7515 2.22 9.0354 2.8958 11.7874.4 1.629 1.7494 7.1332 2.1486 8.7623a23.89 23.89 0 0 0 -10.5559 4.2769 26.7037 26.7037 0 0 0 -6.1653 6.2428l29.7986-.0517-1.9611-32.0608z" fill="#3c052d"/><path d="m276.5347 474.328 17.8422 34.7363 32.3214-.1043a33.5646 33.5646 0 0 0 -7.66-6.3631 30.723 30.723 0 0 0 -14.4793-4.3812q-5.5581-15.3341-11.1163-30.6681z" fill="#3c052d"/><path d="m297.5147 468.632a133.2932 133.2932 0 0 1 -54.1574 11.8005 128.3781 128.3781 0 0 1 -25.5781-2.5491 381.241 381.241 0 0 1 -14.17-75.895q-.309-3.6651-.5345-7.268-.1838-2.8166-.3118-5.5769-.0669-1.2311-.1169-2.4435 32.2455-1.1377 64.491-2.2817c.5123 1.4175 1.0245 2.8413 1.5367 4.2589.6236 1.7346 1.2528 3.4754 1.8819 5.21q13.4713 37.3693 26.9591 74.7448z" fill="#92063d"/><path d="m270.5557 393.8873a77.9747 77.9747 0 0 1 -60.66 3.5936c-2.6-.92-4.8829-1.8714-6.82-2.7605q-.1838-2.8166-.3118-5.5769c1.8485.8331 3.992 1.7221 6.414 2.5739a77.921 77.921 0 0 0 59.4968-3.04c.6227 1.7344 1.2519 3.4752 1.881 5.2099z" fill="#581646"/><path d="m322.6755 335.1889a33.4237 33.4237 0 0 1 7.3085-1.54c6.1521-.5757 9.0758.941 14.2721-.3849a20.8729 20.8729 0 0 0 5.5158-2.31q.5515-7.6606 1.1032-15.3214a39.4756 39.4756 0 0 0 -13.6516 2.31 43.3 43.3 0 0 0 -16.1235 10.4241q.7877 3.4112 1.5755 6.8222z" fill="#e88c64"/><path d="m339.6347 317.1919a33.6314 33.6314 0 0 1 -.1491 3.5884c-.03.3467-.0436.7252-.05 1.1642-.0041.3565-.0032.7533.0121 1.2164a33.1206 33.1206 0 0 0 .7137 5.8666c.1047.4906.2171.9458.3253 1.3675q.09.3456.1739.6512c.0341.1248.0742.2488.1074.3669-.0453-.0684-.0906-.1368-.1352-.1985-.1524-.237-.304-.4672-.4607-.69-.143-.2111-.2851-.4153-.4333-.6187-.7074-.9947-1.3851-1.85-2.0028-2.5709 0 0-.0009-.0068-.006.0009-.0875-.11-.1731-.2065-.2589-.303-.1576-.1814-.3136-.3494-.4567-.5125-.2691-.2877-.5108-.5522-.7422-.784a52.3514 52.3514 0 0 1 -4.1554-4.1883c-.072-.0849-.3555-.4389-.73-.93-1.0433-1.375-2.7715-3.8574-2.277-4.5552.2291-.3222 1.0074-.3718 3.4956.9415a23.4659 23.4659 0 0 1 -3.4728-3.2446c-3.0951-3.5551-5.3829-8.3413-4.6995-8.9993.2521-.2366 1.0247-.039 3.3927 2.0727a25.8678 25.8678 0 0 1 -2.173-4.6051c-1.602-4.5-2.4532-10.7771-.8763-11.591a.8122.8122 0 0 1 .4734-.0855c2.6279.1834 5.5035 9.3976 6.081 11.3085q.9514-3.3985 1.772-3.3553c.3521.0219.6835.5123.9959 1.4847l.0008.0068a32.1378 32.1378 0 0 1 1.0173 5.2594c.1912 1.422.3682 3.0719.5421 4.9414.6049-2.9868 1.1215-3.6058 1.4822-3.6126 1.0972-.0014 2.3913 5.5583 2.4935 10.6074z" fill="#23a636"/><path d="m338.5129 339.7081c.08.256.1589.5083.2389.7581 0 0 .0888.2791.18.56a231.9909 231.9909 0 0 0 11.5664 28.6838c.94 1.8848 2.2979 4.53 4.0406 7.6536-.8749-6.5138-3.7059-27.4118-4.81-32.1935-.0663-.2873-.1352-.5781-.1352-.5782a76.4108 76.4108 0 0 0 -2.34-8.2329c-.3664-.995-1.817-4.7532-4.4717-5.8061a3.3093 3.3093 0 0 0 -2.2634-.1671 4.042 4.042 0 0 0 -2.151 2.0325c-1.3101 2.4442-.3256 5.7651.1454 7.2898z" fill="#ea5f00"/><path d="m348.2149 352.5487a3.1088 3.1088 0 0 0 -1.0188-.1031 3.8077 3.8077 0 0 0 -1.0142.1923 3.9735 3.9735 0 0 0 -.9422.4585 3.4989 3.4989 0 0 0 -.7979.71c.3087-.1614.6074-.3192.9109-.4595a9.5983 9.5983 0 0 1 .9224-.3653 9.2872 9.2872 0 0 1 .9513-.2591c.323-.0692.6507-.1195.9885-.1738z" fill="#a76242"/><path d="m345.394 342.1593a3.1088 3.1088 0 0 0 -1.0188-.1031 3.807 3.807 0 0 0 -1.0142.1923 3.97 3.97 0 0 0 -.9422.4585 3.4973 3.4973 0 0 0 -.798.71c.3088-.1614.6074-.3192.9109-.46a9.6189 9.6189 0 0 1 .9224-.3653 9.2681 9.2681 0 0 1 .9513-.259c.323-.0688.6507-.1191.9886-.1734z" fill="#a76242"/><path d="m351.9978 360.166a3.1121 3.1121 0 0 0 -1.0188-.1032 3.8118 3.8118 0 0 0 -1.0143.1924 3.9735 3.9735 0 0 0 -.9422.4585 3.4989 3.4989 0 0 0 -.7979.71c.3088-.1614.6074-.3192.9109-.4595a9.5983 9.5983 0 0 1 .9224-.3653 9.2872 9.2872 0 0 1 .9513-.2591c.323-.0693.6508-.1198.9886-.1738z" fill="#a76242"/><path d="m345.43 346.3118a18.0938 18.0938 0 0 1 1.9235-.6683 15.56 15.56 0 0 1 1.951-.4152c.1415-.0222.2838-.0411.4252-.0579-.0447-.1946-.09-.3871-.136-.58-.1208.0112-.2425.0272-.3628.0454a8.1314 8.1314 0 0 0 -2.0061.5593 6.5648 6.5648 0 0 0 -1.7948 1.1167z" fill="#a76242"/><path d="m344.223 332.5975a3.1088 3.1088 0 0 0 -1.0188-.1031 3.8077 3.8077 0 0 0 -1.0142.1923 3.9717 3.9717 0 0 0 -.9422.4585 3.4994 3.4994 0 0 0 -.798.71c.3088-.1614.6074-.3192.911-.4595a9.6069 9.6069 0 0 1 .9223-.3653 9.296 9.296 0 0 1 .9514-.2591c.323-.0692.6507-.1195.9885-.1738z" fill="#a76242"/><path d="m338.7512 340.4672c.0586.1878.1187.3751.1788.56.2052-.1036.4137-.2039.6222-.2989a17.8744 17.8744 0 0 1 2.3924-.901 20.6073 20.6073 0 0 1 2.5066-.5579 8.46 8.46 0 0 0 -2.596.103 10.6856 10.6856 0 0 0 -2.5091.8032c-.2008.0911-.3988.1895-.5949.2916z" fill="#a76242"/><path d="m351.7407 309.4092a32.0317 32.0317 0 0 1 -.5134 3.6641c-.2205 1.1216-.4986 2.2725-.8255 3.3761-.6547 2.2-1.087 2.7587-1.6738 4.5244-.0978.2954-.1964.6321-.3079 1.0117-.0762.2716-.1463.5423-.2173.8063a33.5456 33.5456 0 0 0 -.9863 6.3845c-.02.3794-.0359.7377-.0434 1.0674-.0954-.3688-.1952-.7233-.2872-1.0652-.261-.9049-.5376-1.739-.804-2.4925-.509-1.4149-1.0108-2.5776-1.4359-3.4713-.4079-.8553-.7544-1.5145-1.0821-2.1219l-.1207-.2281a23.4786 23.4786 0 0 1 -1.451-3.1541c-.0188-.0519-.0727-.1875-.141-.3893-.0375-.1038-.0845-.2336-.1332-.3768-.5481-1.58-1.6413-5.0074-.9016-5.51a.23.23 0 0 1 .1109-.0442.0215.0215 0 0 1 .0112-.0085.3453.3453 0 0 1 .14-.0076c.3212.02.8693.3336 1.8208 1.2707.1534.1479.3223.3208.5.5129.1054.1072.2125.2278.3325.3534a1.0188 1.0188 0 0 0 .0926.1023 1.0471 1.0471 0 0 1 -.0694-.1127c-.1045-.1484-.2046-.3112-.3124-.4865-.1388-.2253-.2852-.4632-.434-.7212-.3073-.542-.6359-1.1561-.9557-1.8468-.0821-.1655-.1582-.3319-.2351-.505-.0949-.2183-.19-.4367-.2864-.6684-.1957-.4836-.38-.9758-.5527-1.47l-.0008-.0067c-1.426-4.123-1.9066-8.43-1.1561-8.7494.2561-.1073.7485.2013 1.8015 1.8964.2243.37.4819.81.7669 1.321a27.3028 27.3028 0 0 1 -.6534-5.1435 30.7855 30.7855 0 0 1 .8648-8.3234c.4579-1.6709 1.0726-2.825 1.8046-2.9017a.9505.9505 0 0 1 .4722.0995c1.1678.5621 1.7586 3.1144 2.0519 5.8349a62.8274 62.8274 0 0 1 .2723 7.0834q1.914-2.8362 2.6781-2.4866 1.3862.642-1.12 11.9484c1.4715-2.5775 2.1457-2.9671 2.4932-2.835.5218.2021.663 1.7617.4868 3.869z" fill="#23a636"/><path d="m351.7975 337.3312a78.7021 78.7021 0 0 1 -.2831 8.6117l.0008.0067s-.0009.0412-.0045.11c-.0107.159-.02.3248-.0379.478-.0846 1.0326-.3149 2.758-.6276 4.9-.3807 2.5764-.894 5.7546-1.441 9.0542-.02.1331-.041.2594-.0678.3867-.2566 1.5651-.5227 3.1522-.787 4.7048-.2426 1.433-.4877 2.8458-.7223 4.1954-.5338 3.1129-1.0232 5.8973-1.3725 7.846-.0591.3581-.1157.6883-.17.9841-.261-1.343-.4937-2.6081-.7017-3.7742l-.0026-.02c-.3353-1.9339-.6-3.598-.7964-4.9165 0 0-.0347-.2275-.0939-.65-.1312-.9452-.3867-2.8775-.6776-5.53-.0083-.1151-.0235-.2359-.0387-.3568q-.0519-.485-.1062-.99c-.0033-.0748-.0118-.1419-.0211-.2158-.202-1.9952-.418-4.2963-.6146-6.8331-.0032-.0747-.0125-.1486-.0158-.2234-.0344-.4191-.0627-.8392-.0928-1.2726-.0041-.0815-.0151-.1688-.02-.257-.0242-.3386-.0432-.6847-.0691-1.0367-.1158-1.7482-.2186-3.5874-.2971-5.4781-.0033-.0748-.0057-.1429-.009-.2177-.0377-.8361-.0644-1.6807-.0927-2.5388-.0032-.1227-.0063-.2454-.0155-.3672-.0055-.2866-.0109-.5732-.0223-.859a.3209.3209 0 0 0 .0027-.0756c-.0025-.02 0-.048-.0024-.0681l-.0045-.3279c-.0119-.4841-.0238-.9682-.03-1.46q-.0009-.2256-.0017-.4514c-.0061-.3413-.0131-.6893-.0134-1.0314-.004-.13-.002-.26-.0051-.3825.0013-.233-.0025-.4582-.0012-.6911-.0025-.02 0-.0479-.0024-.0681a.76.76 0 0 0 -.0023-.116l.0034-.4111c.0026-.0278-.0008-.0547.001-.0892-.0046-.232.0027-.4658.0023-.7121a16.7 16.7 0 0 1 .3918-3.8031c.0277-.12.0623-.2353.1021-.3577a2.0885 2.0885 0 0 1 .064-.2218c.03-.1005.0657-.2085.108-.3107a5.8581 5.8581 0 0 1 .6547-1.3243 5.2559 5.2559 0 0 1 .3815-.5233c.0973-.1037.2-.215.31-.3139l.0491-.0485a3.8561 3.8561 0 0 1 2.2819-1.1056 1.8059 1.8059 0 0 1 .3306-.0022c.012-.0018.0189.004.0309.0021a3.5307 3.5307 0 0 1 2.0825 1.0121 8.6437 8.6437 0 0 1 2.2429 4.9162 17.1351 17.1351 0 0 1 .2236 2.2245z" fill="#ea5f00"/><path d="m347.8148 352.9068a3.3148 3.3148 0 0 0 -.93-.48 3.8313 3.8313 0 0 0 -1.0146-.2007 3.7756 3.7756 0 0 0 -1.027.0767 3.1826 3.1826 0 0 0 -.9669.367c.34-.0356.6693-.0716.9979-.0892a8.6733 8.6733 0 0 1 1.9556.1177c.3257.0565.6502.1325.985.2085z" fill="#a76242"/><path d="m348.2918 342.0806a3.3138 3.3138 0 0 0 -.93-.48 3.8311 3.8311 0 0 0 -1.0146-.2006 3.7677 3.7677 0 0 0 -1.027.0767 3.1758 3.1758 0 0 0 -.9668.367c.34-.0356.6692-.0716.9978-.0893a8.6811 8.6811 0 0 1 1.9556.1178c.3258.0564.65.1324.985.2084z" fill="#a76242"/><path d="m349.082 361.4892a3.3146 3.3146 0 0 0 -.93-.48 3.8327 3.8327 0 0 0 -1.0146-.2006 3.7721 3.7721 0 0 0 -1.0271.0766 3.1787 3.1787 0 0 0 -.9668.3671c.34-.0356.6692-.0716.9978-.0893a8.6811 8.6811 0 0 1 1.9556.1178c.3259.0564.6501.1324.9851.2084z" fill="#a76242"/><path d="m347.0717 345.9972a17.6249 17.6249 0 0 1 2.0158.0952 15.5855 15.5855 0 0 1 1.9654.3434c.14.0324.28.0682.4185.1055.0166-.2.0316-.3978.0467-.5959-.1173-.0348-.2369-.0656-.3559-.0938a8.0307 8.0307 0 0 0 -2.0608-.2287 6.12 6.12 0 0 0 -2.0297.3743z" fill="#a76242"/><path d="m350.075 332.6528a3.3165 3.3165 0 0 0 -.93-.48 3.8319 3.8319 0 0 0 -1.0146-.2006 3.7713 3.7713 0 0 0 -1.027.0766 3.1792 3.1792 0 0 0 -.9669.3671c.34-.0357.6692-.0717.9978-.0893a8.6733 8.6733 0 0 1 1.9556.1177c.3258.0565.6501.1324.9851.2085z" fill="#a76242"/><path d="m342.5381 337.992c-.0014.1986-.0013.3972 0 .5934.2248-.02.4517-.0361.677-.047a17.2911 17.2911 0 0 1 2.5283.0529 20.55 20.55 0 0 1 2.5324.4183 8.7766 8.7766 0 0 0 -2.4793-.8795 10.4622 10.4622 0 0 0 -2.6089-.1887c-.2176.0103-.4337.0286-.6495.0506z" fill="#a76242"/><path d="m348.5253 315.0776a7.3147 7.3147 0 0 1 2.702-2.0043.4627.4627 0 0 1 .43.058c.8866.7142-1.3621 5.7844-1.5339 6.1732-.2967.6609-.5719 1.2022-.8366 1.68-.3534.649-.7016 1.1946-1.0842 1.8069-.3154.5132-.6558 1.0713-1.0446 1.78-.3251.5832-.69 1.2886-1.0763 2.1138a38.7488 38.7488 0 0 0 -1.4779 3.5981.2192.2192 0 0 0 -.0173.0574c-.1235.3335-.2393.68-.3543 1.0324.0082-.2271.0139-.4743.0127-.7274.0046-.11.0031-.2194.0067-.3364a33.9 33.9 0 0 0 -.7924-7.2714c-.074-.3447-.149-.6481-.22-.9181-.13-.4936-.2482-.9-.3676-1.2651a32.502 32.502 0 0 1 -1.0545-3.4607c-.0017-.0134-.01-.0326-.0119-.0461-.029-.1325-.0648-.2707-.0877-.4042-.0673-.2909-.1293-.5895-.1854-.889a37.218 37.218 0 0 1 -.6013-4.5354.6519.6519 0 0 0 -.0075-.1084.0272.0272 0 0 1 .0035-.021 18.14 18.14 0 0 1 .0511-3.5872l-.0008-.0067c.1141-.7975.3135-1.3069.6083-1.4.2545-.0727.6672.1384 1.3666 1.2643.238.3815.5076.8676.8111 1.4786.0488.0953.0976.19.1473.2925-.0314-.2006-.0619-.3944-.0924-.5883-.1383-.8551-.2586-1.6649-.36-2.4229q-.4065-2.8642-.5329-4.82c-.0568-.84-.0724-1.55-.0541-2.134.0412-1.2313.2436-1.9122.6124-2.05.1933-.07.43.01.7166.24a5.9233 5.9233 0 0 1 .9923 1.1636c.2543.3653.5232.7967.8192 1.2994a56.516 56.516 0 0 1 .9181-8.2905c.4555-2.177 1.1378-4.012 2.1487-4.4048a.9153.9153 0 0 1 .476-.0653c1.72.321 2.45 6.6163 2.02 11.4245a27.5355 27.5355 0 0 1 -.9545 5.0793c1.7519-2.7363 2.4468-3.1565 2.7479-3.0036.7284.3823.0121 4.5768-1.6272 8.5485-.2055.51-.4359 1.0174-.6739 1.512a24.555 24.555 0 0 1 -2.5413 4.1583z" fill="#69b44b"/><path d="m348.45 338.6874c-.0138.27-.0274.5365-.0428.8007 0 0-.0165.2951-.0343.5928a241.0344 241.0344 0 0 1 -4.05 31.0511c-.4388 2.0939-1.093 5.0443-1.9992 8.5693-.7665-6.53-3.2024-27.4881-3.32-32.4194-.0071-.2963-.0126-.5967-.0126-.5967a78.1727 78.1727 0 0 1 .2194-8.621c.1069-1.0668.5751-5.1158 2.87-6.9192a3.4239 3.4239 0 0 1 2.1374-.8342 3.7719 3.7719 0 0 1 2.5724 1.3164c1.8637 1.9628 1.7363 5.4528 1.6597 7.0602z" fill="#f18100"/><path d="m342.2819 353.9337a3.2229 3.2229 0 0 1 .9552-.4023 3.8336 3.8336 0 0 1 2.044.0444 3.2622 3.2622 0 0 1 .9433.4458c-.3371-.0635-.6635-.1266-.99-.1713a9.2728 9.2728 0 0 0 -.978-.0772 9.102 9.102 0 0 0 -.98.0337c-.328.0296-.6558.0787-.9945.1269z" fill="#ea5f00"/><path d="m342.4316 343.094a3.2226 3.2226 0 0 1 .9551-.4024 3.8322 3.8322 0 0 1 2.044.0445 3.2633 3.2633 0 0 1 .9433.4457c-.3371-.0635-.6635-.1265-.99-.1712a9.2728 9.2728 0 0 0 -.978-.0772 9.1029 9.1029 0 0 0 -.98.0337c-.328.0296-.656.0786-.9944.1269z" fill="#ea5f00"/><path d="m340.5219 362.3913a3.2231 3.2231 0 0 1 .9552-.4024 3.8318 3.8318 0 0 1 2.0439.0445 3.2651 3.2651 0 0 1 .9434.4457c-.3371-.0635-.6635-.1265-.99-.1712a9.2768 9.2768 0 0 0 -.9781-.0772 9.1037 9.1037 0 0 0 -.98.0337c-.3279.0296-.6558.0787-.9944.1269z" fill="#ea5f00"/><path d="m343.4224 347.1018a17.6106 17.6106 0 0 0 -2.0165-.0711 15.4349 15.4349 0 0 0 -1.98.1808c-.1416.0208-.2833.0449-.4235.0708-.0051-.2006-.0087-.3994-.0123-.5983.1191-.0251.24-.046.3605-.0643a7.9915 7.9915 0 0 1 2.0691-.0585 6.2128 6.2128 0 0 1 2.0027.5406z" fill="#ea5f00"/><path d="m341.1973 333.5418a3.2231 3.2231 0 0 1 .9552-.4024 3.8332 3.8332 0 0 1 2.0439.0444 3.268 3.268 0 0 1 .9434.4458c-.3371-.0635-.6635-.1265-.99-.1712a9.3017 9.3017 0 0 0 -.9781-.0773 9.127 9.127 0 0 0 -.98.0338c-.3279.0295-.6558.0786-.9944.1269z" fill="#ea5f00"/><path d="m348.4077 339.4889c-.01.1982-.0215.3964-.0338.592-.2231-.0386-.4486-.0732-.6727-.1026a17.3314 17.3314 0 0 0 -2.5254-.1554 20.3678 20.3678 0 0 0 -2.55.2088 8.5959 8.5959 0 0 1 2.5243-.6733 10.435 10.435 0 0 1 2.6135.0266c.2153.0282.4302.0639.6441.1039z" fill="#ea5f00"/><path d="m345.1927 298.8217.0008.0067a22.5624 22.5624 0 0 1 -.9235 5.1293c-.2353.8091-.505 1.637-.8125 2.457l.0009.0068c-.1434.3708-.2867.7415-.4438 1.1007a1.5184 1.5184 0 0 1 -.0621.1394 23.962 23.962 0 0 1 -1.135 2.28c-.3052.5459-.6008 1.0218-.8731 1.44l-.0059.0009c.0068.0057.0008.0066-.01.0152a.008.008 0 0 1 -.0043.0143c-.0922.1441-.1793.2805-.268.4034.0973-.1037.1894-.2.2755-.295l.1472-.1455c.3744-.3853.6979-.6875.9741-.9279.9181-.7894 1.371-.8922 1.6078-.7639a.1222.1222 0 0 1 .0394.0214c.4657.34.1724 1.856-.2575 3.31a1.3906 1.3906 0 0 1 -.0433.1435c-.0856.2936-.1773.588-.2715.8624-.3232.9866-.6333 1.7865-.6885 1.9317-.2038.5237-.3988.9708-.5878 1.369-.0146.03-.0241.0515-.0336.0735-.5822 1.2176-1.1156 2.0444-1.8158 3.3962-.0932.1852-.1915.3781-.2941.5853-.088.1776-.18.3695-.2718.5682-.4063.8623-.862 1.9169-1.3172 3.17-.2194.5944-.44 1.23-.6473 1.9186-.0268.0794-.0527.1654-.0786.2515q-.1569.5062-.3088 1.0529c-.0045-.3278-.0124-.6825-.03-1.0632-.0064-.2454-.0187-.49-.04-.7537a32.46 32.46 0 0 0 -.6746-4.8254c-.0647-.3187-.137-.65-.2213-.9794-.0528-.2247-.1116-.4485-.1705-.6723-.7134-2.65-1.167-2.9918-1.8987-5.5912a37.6129 37.6129 0 0 1 -1.0544-5.1169c-.4026-3.053-.3262-5.5627.3477-5.8086a.4176.4176 0 0 1 .0894-.02c.3032-.0254.8007.3235 1.685 1.75.2072.3313.4331.7146.68 1.17-.4873-2.3626-.8568-4.3736-1.0965-6.0345q-.8245-5.5317.1411-5.9416c.2158-.0874.4973.0068.8463.2961a11.0911 11.0911 0 0 1 1.799 2.2664 57.8347 57.8347 0 0 1 .5184-8.1546c.3569-2.2784.9622-4.2386 1.9826-4.7013a.9347.9347 0 0 1 .4734-.0854c.9721.1264 1.7092 2.1363 2.1393 4.7266l.0009.0067a33.2631 33.2631 0 0 1 .379 6.5676 27.2661 27.2661 0 0 1 -.7277 5.127c.2215-.3826.4293-.7289.6179-1.0313a10.3888 10.3888 0 0 1 1.329-1.81c.328-.3167.529-.3745.6655-.3131.2478.1129.3533.6581.3275 1.4765z" fill="#69b44b"/><path d="m341.5064 332.9917a2.8854 2.8854 0 0 1 .0346.3233.0472.0472 0 0 1 .005.04 1.1175 1.1175 0 0 1 .0118.1419c.0452.5544.06 1.0654.0647 1.4891a.0272.0272 0 0 0 -.0035.021c0 .1438.0038.2732.001.3969q-.0036.4111-.0094.8021l.0009.0068c.0023.1159-.0023.2261 0 .3421a.0453.0453 0 0 0 -.0027.0278c-.0027.0757-.0063.1447-.003.2195-.0076.33-.01.6517-.0183.9746-.01.5558-.0255 1.1126-.0421 1.6627-.0029.1715-.0119.344-.0148.5155-.0163.4063-.0266.8116-.0429 1.2179-.0061.0967-.0063.1926-.0117.2961-.039 1.0051-.0849 2.0045-.1394 2.9846l-.0051.0076c.0032.0748-.0054.1514-.0082.2271-.0314.6276-.07 1.2426-.1094 1.8577l-.0295.4972c-.0114.1523-.022.3113-.0335.4636q-.0308.4872-.0613.9743-.0224.1882-.0265.3736c-.2306 3.1353-.5029 6.0374-.7752 8.5973-.0754.7164-.1533 1.4126-.2233 2.0734-.6 5.2172-1.14 8.5226-1.14 8.5226-.3471 2.1127-.8668 5.0934-1.618 8.67-1.0551-6.4856-4.4085-27.29-4.7393-32.2083-.0058-.0949-.0177-.1889-.0226-.2772-.0076-.1083-.0151-.2167-.0218-.3183a79.3241 79.3241 0 0 1 -.16-8.6267 17.63 17.63 0 0 1 .4029-2.9356 7.8939 7.8939 0 0 1 2.1584-4.1325 3.4718 3.4718 0 0 1 2.0993-.9479.05.05 0 0 1 .031.0022 1.3764 1.3764 0 0 1 .3384.01 2.3362 2.3362 0 0 1 .3375.0515c.0051-.0077.006-.0009.006-.0009a3.7377 3.7377 0 0 1 1.4758.7207c.2041.1607.3506.3028.4406.3849a4.2623 4.2623 0 0 1 .509.5867 5.388 5.388 0 0 1 .66 1.1525.8785.8785 0 0 1 .0453.1163 8.2694 8.2694 0 0 1 .4683 1.5784.3935.3935 0 0 1 .017.0864 8.5911 8.5911 0 0 1 .154 1.0315z" fill="#f18100"/><path d="m336.1317 350.9762a3.2617 3.2617 0 0 1 .9361-.4543 3.832 3.832 0 0 1 2.043-.0677 3.2245 3.2245 0 0 1 .9616.3936c-.3394-.0449-.6681-.09-.9964-.1167a9.2315 9.2315 0 0 0 -.98-.0236 9.1082 9.1082 0 0 0 -.9768.0874c-.3263.0475-.6515.1145-.9875.1813z" fill="#ea5f00"/><path d="m335.8039 340.1389a3.26 3.26 0 0 1 .9361-.4543 3.829 3.829 0 0 1 2.0429-.0677 3.224 3.224 0 0 1 .9617.3936c-.3394-.045-.6682-.09-.9964-.1168a9.258 9.258 0 0 0 -.98-.0235 9.1082 9.1082 0 0 0 -.9768.0874c-.3263.0475-.6514.1145-.9875.1813z" fill="#ea5f00"/><path d="m334.7466 359.522a3.2592 3.2592 0 0 1 .9361-.4543 3.8316 3.8316 0 0 1 2.0429-.0677 3.2234 3.2234 0 0 1 .9616.3936c-.3394-.0449-.6681-.09-.9964-.1167a9.23 9.23 0 0 0 -.98-.0236 9.1317 9.1317 0 0 0 -.9768.0874c-.3262.0475-.6515.1146-.9874.1813z" fill="#ea5f00"/><path d="m336.97 344.0884a17.6022 17.6022 0 0 0 -2.0167.04 15.497 15.497 0 0 0 -1.97.2892c-.1405.0285-.281.06-.42.094-.0139-.2-.0262-.3986-.0385-.5971.1177-.0317.2378-.0591.3571-.084a7.9982 7.9982 0 0 1 2.0635-.1719 6.1675 6.1675 0 0 1 2.0246.4298z" fill="#ea5f00"/><path d="m334.1509 330.6637a3.26 3.26 0 0 1 .9361-.4543 3.829 3.829 0 0 1 2.0429-.0677 3.224 3.224 0 0 1 .9617.3936c-.3394-.045-.6681-.09-.9964-.1168a9.258 9.258 0 0 0 -.98-.0235 9.1082 9.1082 0 0 0 -.9768.0874c-.3263.0476-.6515.1145-.9875.1813z" fill="#ea5f00"/><path d="m341.6128 336.21c-.0013.1986-.0041.3972-.0077.5933-.2245-.0264-.4512-.0486-.6763-.0657a17.2927 17.2927 0 0 0 -2.5286-.0168 20.4512 20.4512 0 0 0 -2.5376.3484 8.6686 8.6686 0 0 1 2.4909-.811 10.4393 10.4393 0 0 1 2.611-.1167c.2168.016.4329.04.6483.0685z" fill="#ea5f00"/><path d="m339.9946 329.9629a40.3469 40.3469 0 0 1 1.6-7.3386 60.8052 60.8052 0 0 0 1.923-5.8437c.0983-.42 1.3579-5.9025.3615-6.3975-.339-.1684-1.05.1857-2.7034 2.6239a26.1288 26.1288 0 0 0 1.7153-4.6572c1.2511-4.7372 1.2679-10.1518.3868-10.38-.3238-.084-.9226.4928-2.1324 3.5731a27.4967 27.4967 0 0 0 -.0093-5.1948c-.4669-4.8076-2.3473-10.8037-4.0854-10.7182a.8913.8913 0 0 0 -.454.1679c-2.2537 1.5165-.932 11.1538-.6449 13.1434q-2.2656-2.5219-2.9723-2.0641-1.2935.8383 2.6391 11.6644c-1.7878-2.33-2.5076-2.6167-2.8319-2.4317-.9725.5551.2143 6.1486 2.2424 10.6748 1.09 2.433 1.5881 2.6933 2.6687 5.1881a32.8913 32.8913 0 0 1 2.2968 7.9902z" fill="#b8d26f"/><path d="m345.47 336.1507c.0366.2678.0725.5318.1064.7941 0 0 .0385.2928.0761.5884a243.2109 243.2109 0 0 1 1.787 31.3453c-.0414 2.1518-.135 5.1923-.3684 8.8535-1.9577-6.2192-8.217-26.1841-9.2447-30.9867-.0618-.2886-.1228-.5815-.1228-.5815a77.6918 77.6918 0 0 1 -1.3808-8.494c-.0929-1.07-.3846-5.1431 1.5254-7.4383a3.1712 3.1712 0 0 1 4.693-.6131c2.1849 1.4929 2.706 4.9399 2.9288 6.5323z" fill="#f7931e"/><path d="m342.2621 352.5045a3.4065 3.4065 0 0 1 .8593-.6142 3.8971 3.8971 0 0 1 .9791-.35 3.7709 3.7709 0 0 1 1.027-.0773 3.1234 3.1234 0 0 1 1.0046.2192c-.3413.0154-.672.0289-1 .06a8.7487 8.7487 0 0 0 -1.9217.4085c-.3148.1049-.6262.2285-.9483.3538z" fill="#f18100"/><path d="m340.4025 341.8535a3.406 3.406 0 0 1 .8592-.6142 3.8971 3.8971 0 0 1 .9791-.35 3.7712 3.7712 0 0 1 1.027-.0773 3.1253 3.1253 0 0 1 1.0046.2191c-.3412.0155-.672.029-1 .0606a8.7487 8.7487 0 0 0 -1.9217.4085c-.3148.1043-.6262.228-.9482.3533z" fill="#f18100"/><path d="m342.1068 361.1935a3.41 3.41 0 0 1 .8592-.6142 3.895 3.895 0 0 1 .9792-.35 3.7745 3.7745 0 0 1 1.0269-.0774 3.126 3.126 0 0 1 1.0047.2192c-.3413.0155-.672.029-1 .0605a8.7609 8.7609 0 0 0 -1.9217.4085c-.3151.1045-.6262.2281-.9483.3534z" fill="#f18100"/><path d="m342.1127 345.55a17.7663 17.7663 0 0 0 -1.9843.3951 15.8113 15.8113 0 0 0 -1.9024.6335c-.1346.053-.2686.1093-.4009.1669-.0421-.1953-.0824-.3892-.1227-.5831.1117-.0521.2262-.1.34-.1461a8.1169 8.1169 0 0 1 2.0116-.5341 6.0775 6.0775 0 0 1 2.0587.0678z" fill="#f18100"/><path d="m337.4284 332.7824a3.4078 3.4078 0 0 1 .8592-.6142 3.8964 3.8964 0 0 1 .9792-.35 3.7705 3.7705 0 0 1 1.0269-.0773 3.1222 3.1222 0 0 1 1.0046.2192c-.3412.0154-.6719.0289-1 .06a8.748 8.748 0 0 0 -1.9218.4085c-.3147.1049-.6265.2285-.9481.3538z" fill="#f18100"/><path d="m345.577 336.9454c.0268.1964.0522.3932.0765.5876-.2253.0136-.4521.0317-.6766.0545a17.41 17.41 0 0 0 -2.4973.43 20.8688 20.8688 0 0 0 -2.4544.7922 8.9825 8.9825 0 0 1 2.3428-1.2411 10.5568 10.5568 0 0 1 2.56-.5762c.2158-.0224.432-.0369.649-.047z" fill="#f18100"/><path d="m350.7292 332.199a4.0478 4.0478 0 0 1 -.7953 1.0254 3.68 3.68 0 0 1 -1.8412.9219 3.9661 3.9661 0 0 1 -1.1954.8555 3.6916 3.6916 0 0 1 -1.9749.31 5.0621 5.0621 0 0 1 -4.5465.0985 5.3522 5.3522 0 0 1 -2.1509-2.1351 3.5912 3.5912 0 0 1 -3.4533-.3322 4.2035 4.2035 0 0 1 -1.494-2.2377 5.5979 5.5979 0 0 1 1.6464-2.4856 3.853 3.853 0 0 1 2.0993-.9479.05.05 0 0 1 .031.0022c-.0064-.2454-.0187-.49-.04-.7537-.2692-.2877-.5108-.5522-.7422-.784a52.318 52.318 0 0 1 -4.1554-4.1883c-.072-.0849-.3556-.4389-.73-.93a17.257 17.257 0 0 1 7.5892-2.344 17.4462 17.4462 0 0 1 10.3106 2.71c-.3534.649-.7016 1.1946-1.0842 1.8069a33.5456 33.5456 0 0 0 -.9863 6.3845c.012-.0019.0189.004.031.0021a4.4325 4.4325 0 0 1 2.0824 1.0121 5.0879 5.0879 0 0 1 1.3997 2.0094z" fill="#333" opacity=".15"/><path d="m351.1041 328.6985a2.1184 2.1184 0 0 1 .3564 1.5917 1.8721 1.8721 0 0 1 -.98 1.1191c-.4566.2736-1.5479.79-4.3541.286-1.648-.2984-3.4463-.628-3.7192-1.71a1.4337 1.4337 0 0 1 .1281-1.0258 1.26 1.26 0 0 1 1.0522-.5658 3.5917 3.5917 0 0 1 -3.296-2.3129 2.9636 2.9636 0 0 1 .0278-1.5792 2.4988 2.4988 0 0 1 1.4087-1.4859 3.8977 3.8977 0 0 1 -.9911-1.8092c-.0056-.0125-.0056-.0311-.0111-.05a4.1112 4.1112 0 0 1 -.1169-1.2372 2.215 2.215 0 0 1 .2449-.9078 2.447 2.447 0 0 1 2.5-1.1937 2.68 2.68 0 0 1 -.4343-1.4673 2.7794 2.7794 0 0 1 .9688-2.0082 2.4871 2.4871 0 0 1 1.353-.5906c.2227-.0435.4788-.0871.7795-.1244.089-.0124.1781-.0248.2672-.031 3.87-.4912 4.6324-.0684 5.0444.2424a2.3817 2.3817 0 0 1 .8463.9824c.7127 1.61-.7071 3.6433-.8129 3.7926a3.4348 3.4348 0 0 1 .9075 1.7843 3.8025 3.8025 0 0 1 -.7572 2.9035 3.9408 3.9408 0 0 1 .8686 2.3128 4.1051 4.1051 0 0 1 -1.2806 3.0842z" fill="#f69968"/><path d="m343.3513 317.8176a10.13 10.13 0 0 0 4.4915 1.2924 9.879 9.879 0 0 0 3.5212-.4942 5.0505 5.0505 0 0 1 -2.8266 1.7008 5.3112 5.3112 0 0 1 -5.1861-2.499z" fill="#e88c64"/><path d="m341.7307 323.0175a11.5864 11.5864 0 0 0 9.7871.2828 5.262 5.262 0 0 1 -1.72 1.6415c-2.274 1.3082-5.4133.4901-8.0671-1.9243z" fill="#e88c64"/><path d="m346.6594 329.567a7.3294 7.3294 0 0 1 -3.0745-1.1756 27.3211 27.3211 0 0 0 7.5213.3072 7.267 7.267 0 0 1 -4.4468.8684z" fill="#e88c64"/><path d="m346.288 313.5967a8.4361 8.4361 0 0 1 -.0835 1.3305 7.7887 7.7887 0 0 1 -1.3919 3.5687c-.1281.1741-.2617.3482-.4009.516a6.79 6.79 0 0 1 -2.138 1.6849 5.7214 5.7214 0 0 1 -1.5367.51c-.0056-.0125-.0056-.0311-.0111-.05a4.1112 4.1112 0 0 1 -.1169-1.2372 5.1219 5.1219 0 0 0 .69-.286 6.7654 6.7654 0 0 0 2.149-1.6911.3083.3083 0 0 1 .039-.05 7.766 7.766 0 0 0 1.7428-4.0288.7711.7711 0 0 0 .0111-.1119c.2227-.0435.4788-.0871.7795-.1244.0896-.0121.1785-.0245.2676-.0307z" fill="#e88c64"/><path d="m321.1 324.3331c5.1-.9026 7.7528-3.0292 9.2389-4.8505a16.3487 16.3487 0 0 1 2.8269-3.3106c1.8844-1.5089 2.7236-1.1267 6.3432-2.6947 3.2811-1.4214 4.6862-2.6429 5.4468-1.9248.4916.4642.38 1.4229.2758 2.31a7.5027 7.5027 0 0 1 -3.93 5.7744 6.1207 6.1207 0 0 1 -2.8958.616 14.3635 14.3635 0 0 1 -5.5158 8.1611 11.9681 11.9681 0 0 1 -11.17 1.0009q-.31-2.541-.62-5.0818z" fill="#f69968"/><path d="m270.47 387.8129c-.1076.056-.21.1057-.3229.1679-.0792.0311-.1585.0746-.2435.1119a77.9863 77.9863 0 0 1 -60.7283 3.6247c-2.8605-1.0072-5.3359-2.0642-7.392-3.0278-.0963-.0436-.187-.087-.2833-.1306-1.3988-13.5088-2.412-28.2236-2.7647-44.0011-.3127-13.9884-.0692-27.1545.54-39.3847q-1.7267-7.4625-3.4534-14.9252a56.0333 56.0333 0 0 1 12.0222-18.4256 49.6043 49.6043 0 0 1 21.5475-12.87q13.0253 14.1849 26.0563 28.37c.2209.2425.4418.4788.6627.7212.0907 1.7533.187 3.519.3 5.3034q.221 3.7024.5042 7.4919.51 7.0131 1.24 14.2874.7647 7.7032 1.8013 15.6864 1.9116 14.8189 4.8374 30.5208 2.6003 13.7836 5.6765 26.4794z" fill="#b8d26f"/><path d="m328.7678 337.7012c-4.169 1.6041-34.4227 13.187-49.7166 15.3941a12.6971 12.6971 0 0 1 -9.0688-1.5978 7.7779 7.7779 0 0 1 -.71-.5216c-4.457-3.6966-6.6141-13.32-7.6448-17.8693-.79-3.4882-2.05-8.7745-3.8888-15.4147a16.21 16.21 0 0 0 -1.4946-5.024 23.5422 23.5422 0 0 0 -1.5669-2.5157c-3.4836-6.4722-3.8461-14.2252-.8383-20.2249a16.9426 16.9426 0 0 1 1.6087-2.6051 18.7475 18.7475 0 0 1 11.1249-6.8826 18.747 18.747 0 0 1 5.71 2.4559 9.635 9.635 0 0 1 2.4187 2.1636 11.1373 11.1373 0 0 1 1.1725 1.9585c.895 1.946 5.1377 18.6271 10.5812 41.5939q19.5846-3.2548 39.1751-6.51.994 4.9148 1.9768 9.8233c.3848 1.9279.7757 3.8491 1.1609 5.7764z" fill="#b8d26f"/><path d="m328.7678 337.7012c-4.169 1.6041-34.4227 13.187-49.7166 15.3941a12.6971 12.6971 0 0 1 -9.0688-1.5978 7.7779 7.7779 0 0 1 -.71-.5216c-4.0905-3.3926-5.84-10.4781-7.6448-17.8693-.5257-2.1524-1.4684-5.9919-2.7305-11 .2439 2.1479.5968 5.141 1.0595 8.7062 1.74 13.4093 3.6313 24.1267 4.8374 30.5208q2.6 13.7838 5.6757 26.48c-.1076.056-.2095.1057-.3228.1679-2.5158-4.9164-14.149-28.0975-17.4245-50.6651a81.742 81.742 0 0 1 -.4084-24.4293 76.1985 76.1985 0 0 1 2.8351-12.4344c1.72 3.5734 4.1286 8.8981 6.559 15.5659 6.3012 17.2873 5.2756 23.0921 10.1948 26.9059 3.14 2.4341 7.1815 3.24 25.892-2.0766 9.1094-2.5884 19.085-5.5484 29.8118-8.9219z" fill="#69b44b"/><path d="m275.8734 287.0176c-4.4466 2.5864-14.9427 7.753-27.8406 5.2723-2.5717-.4974-21.14-4.34-25.7618-18.9256a19.1987 19.1987 0 0 1 -.6175-8.7353 10.3991 10.3991 0 0 1 2.5944-5.4527 7.9439 7.9439 0 0 1 2.1978-1.5356 9.3931 9.3931 0 0 1 .2605-7.2308 15.5051 15.5051 0 0 0 .8893 1.4922c0 .0062.0057.0124.0114.0186a12.6455 12.6455 0 0 0 3.75 3.6931 10.966 10.966 0 0 0 2.8379 1.2373c4.6561 1.2994 9.8164-.5658 13.0055-3.6683a17.9153 17.9153 0 0 0 3.8122-6c.1925-.429.3738-.87.5721-1.3305a38.1151 38.1151 0 0 0 2.77-9.7177 36.6882 36.6882 0 0 0 -1.3029-9.2016 23.8 23.8 0 0 0 -4.1236-8.3934 16.8221 16.8221 0 0 0 -2.719-2.7294c-1.4784-1.1751-5.0866-4.0289-9.216-3.0154-3.2061.7834-5.047 3.4879-6.9219 6.2111a27.051 27.051 0 0 0 -2.09 3.6495c-.1133.23-.1926.4042-.2379.51-.2719.603-.5438 1.2559-.7987 1.9584a32.2028 32.2028 0 0 0 -1.5577 6.0122 29.7615 29.7615 0 0 1 -.017-5.1977h.0057c.34-4.377 1.6823-10.644 6.2025-15.3692.2436-.2612.4985-.51.759-.7585a17.2139 17.2139 0 0 1 9.29-4.5387c7.16-1.1129 13.7306 2.1139 14.58 2.5491 6.5764 3.37 10.3149 9.5809 11.5894 11.7073a27.0106 27.0106 0 0 1 3.3534 7.5727 28.0758 28.0758 0 0 1 -1.4388 17.16 36.0089 36.0089 0 0 1 1.0706 8.6359c0 .69-.0227 1.6973-.119 2.9283a34.9684 34.9684 0 0 1 -4.9223 15.45 29.42 29.42 0 0 1 -2.26 3.1273 23.7563 23.7563 0 0 1 6.3214 4.1967 26.8271 26.8271 0 0 1 6.0716 8.4184z" fill="#92063d"/><path d="m256.77 222.9542c.0056.0062 0 .0062 0 .0062a48.2011 48.2011 0 0 1 -.5456 4.8806 52.3543 52.3543 0 0 1 -1.8708 8.2939 36.5976 36.5976 0 0 0 -1.3028-9.2016c.5233-3.1708.8852-6.2547 1.1191-9.22.1447-1.8528.2394-3.6682.2895-5.4278a21.5042 21.5042 0 0 1 2.0768 6.3728 20.46 20.46 0 0 1 .2338 4.2959z" fill="#581646"/><path d="m269.7094 244.261c-1.6369 3.6122-7.5 15.4065-19.526 19.8208-3.3407 1.2248-12.4717 4.5822-19.3423-.8828a16.4219 16.4219 0 0 1 -4.393-5.5583 9.4043 9.4043 0 0 1 .2561-7.2308 16.1159 16.1159 0 0 0 .8909 1.4922.0331.0331 0 0 0 .0111.0186 12.6432 12.6432 0 0 0 3.7527 3.6931 10.8754 10.8754 0 0 0 2.8339 1.2373c4.66 1.2994 9.816-.5658 13.0063-3.6683a17.8384 17.8384 0 0 0 3.8139-6 42.4485 42.4485 0 0 0 4.95-6.5592 44.1718 44.1718 0 0 0 2.3607-4.3646 48.0424 48.0424 0 0 0 4.1647-14.6294 58.7948 58.7948 0 0 1 -4.56 18.26v.0062a58.0448 58.0448 0 0 1 -7.6389 12.9072c1.1469-.4974 2.3941-1.1 3.7137-1.8279a48.2726 48.2726 0 0 0 4.2927-2.6921 49.2675 49.2675 0 0 0 7.8505-6.9137 39.7427 39.7427 0 0 1 -4.5544 6.9759 36.58 36.58 0 0 1 -8.1066 7.38 47.1054 47.1054 0 0 0 8.925-5.0609 49.6262 49.6262 0 0 0 7.299-6.4033z" fill="#581646"/><path d="m275.8753 287.0149c-4.45 2.5886-14.9489 7.7543-27.8392 5.2746-2.5742-.4953-21.145-4.3383-25.7646-18.9276a19.1952 19.1952 0 0 1 -.6194-8.73 10.3952 10.3952 0 0 1 2.5994-5.4538 7.7855 7.7855 0 0 1 2.197-1.5363c-2.3212 5.2788-1.8216 8.36-1.1395 10.0776 3.495 8.7806 23.2741 10.863 35.6585 1.241a32.6134 32.6134 0 0 0 9.6947-13.1333 34.9736 34.9736 0 0 1 -4.9217 15.447 29.6086 29.6086 0 0 1 -2.2592 3.1291 31.1425 31.1425 0 0 1 -5.9878 4.528 28.57 28.57 0 0 1 -9.9582 3.5016 86.0145 86.0145 0 0 0 17.4639 3.9843 84.5682 84.5682 0 0 0 10.8761.5978z" fill="#581646"/><path d="m248.9278 218.54c-.3909-.3793-5.7834-5.4277-12.6827-3.3014a14.4183 14.4183 0 0 0 -8.2644 7.4172 27.051 27.051 0 0 1 2.09-3.6495c1.8749-2.7232 3.7158-5.4277 6.9219-6.2111 4.1294-1.0135 7.7376 1.84 9.216 3.0154a16.8221 16.8221 0 0 1 2.7192 2.7294z" fill="#581646"/><path d="m323.3718 480.8711a31.4666 31.4666 0 0 1 0-14.8134l1.01.2961a30.2274 30.2274 0 0 0 0 14.2213z" fill="#69b44b"/><path d="m322.9917 471.1661c-.9335-.5735-.5544-4.2793 1.2047-6.7008 1.6911-2.3278 4.7033-3.5318 5.39-2.7243.5811.6837-.5364 2.7731-1.1347 3.8919-1.5263 2.8533-4.398 6.1854-5.46 5.5332z" fill="#69b44b"/><path d="m315.9567 486.6083a3.3462 3.3462 0 0 1 .4841-2.9643 1.7425 1.7425 0 0 1 1.383-.6444 1.5717 1.5717 0 0 1 .83.3437 2.5859 2.5859 0 0 1 .4149-1.16 1.8293 1.8293 0 0 1 1.7288-.7733 4.1811 4.1811 0 0 1 1.0718-1.9762 2.6226 2.6226 0 0 1 3.7342-.1289 3.1675 3.1675 0 0 1 .6915 1.3747 1.1274 1.1274 0 0 1 1.141.3437 1.9325 1.9325 0 0 1 .4148 1.4177 3.05 3.05 0 0 1 1.66.9452 5.1478 5.1478 0 0 1 1.1409 3.4368z" fill="#3c052d"/><rect fill="#f4ad21" height="2.5564" rx=".3338" width="18.3491" x="314.5451" y="506.214"/><path d="m316.4114 506.2147h1.0042v2.5565h-1.0042z" fill="#f7931e"/><path d="m318.6801 506.2147h1.0042v2.5565h-1.0042z" fill="#f7931e"/><path d="m320.9488 506.2147h1.0042v2.5565h-1.0042z" fill="#f7931e"/><path d="m323.2175 506.2147h1.0042v2.5565h-1.0042z" fill="#f7931e"/><path d="m325.4862 506.2147h1.0042v2.5565h-1.0042z" fill="#f7931e"/><path d="m327.7549 506.2147h1.0042v2.5565h-1.0042z" fill="#f7931e"/><path d="m330.0237 506.2147h1.0042v2.5565h-1.0042z" fill="#f7931e"/><rect fill="#f4ad21" height="2.5564" rx=".3338" width="18.3491" x="314.043" y="503.6571"/><path d="m315.9093 503.6579h1.0042v2.5565h-1.0042z" fill="#f7931e"/><path d="m318.178 503.6579h1.0042v2.5565h-1.0042z" fill="#f7931e"/><path d="m320.4467 503.6579h1.0042v2.5565h-1.0042z" fill="#f7931e"/><path d="m322.7154 503.6579h1.0042v2.5565h-1.0042z" fill="#f7931e"/><path d="m324.9841 503.6579h1.0042v2.5565h-1.0042z" fill="#f7931e"/><path d="m327.2528 503.6579h1.0042v2.5565h-1.0042z" fill="#f7931e"/><path d="m329.5215 503.6579h1.0042v2.5565h-1.0042z" fill="#f7931e"/><rect fill="#f4ad21" height="2.5564" rx=".3338" width="18.3491" x="314.5451" y="501.0996"/><path d="m316.4114 501.1003h1.0042v2.5565h-1.0042z" fill="#f7931e"/><path d="m318.6801 501.1003h1.0042v2.5565h-1.0042z" fill="#f7931e"/><path d="m320.9488 501.1003h1.0042v2.5565h-1.0042z" fill="#f7931e"/><path d="m323.2175 501.1003h1.0042v2.5565h-1.0042z" fill="#f7931e"/><path d="m325.4862 501.1003h1.0042v2.5565h-1.0042z" fill="#f7931e"/><path d="m327.7549 501.1003h1.0042v2.5565h-1.0042z" fill="#f7931e"/><path d="m330.0237 501.1003h1.0042v2.5565h-1.0042z" fill="#f7931e"/><rect fill="#f4ad21" height="2.5564" rx=".3338" width="18.3491" x="313.129" y="498.542"/><path d="m314.9953 498.5427h1.0042v2.5565h-1.0042z" fill="#f7931e"/><path d="m317.264 498.5427h1.0042v2.5565h-1.0042z" fill="#f7931e"/><path d="m319.5327 498.5427h1.0042v2.5565h-1.0042z" fill="#f7931e"/><path d="m321.8014 498.5427h1.0042v2.5565h-1.0042z" fill="#f7931e"/><path d="m324.0701 498.5427h1.0042v2.5565h-1.0042z" fill="#f7931e"/><path d="m326.3388 498.5427h1.0042v2.5565h-1.0042z" fill="#f7931e"/><path d="m328.6075 498.5427h1.0042v2.5565h-1.0042z" fill="#f7931e"/><rect fill="#f4ad21" height="2.5564" rx=".3338" width="18.3491" x="314.5543" y="485.7832"/><path d="m316.4206 485.7839h1.0042v2.5565h-1.0042z" fill="#f7931e"/><path d="m318.6893 485.7839h1.0042v2.5565h-1.0042z" fill="#f7931e"/><path d="m320.958 485.7839h1.0042v2.5565h-1.0042z" fill="#f7931e"/><path d="m323.2267 485.7839h1.0042v2.5565h-1.0042z" fill="#f7931e"/><path d="m325.4954 485.7839h1.0042v2.5565h-1.0042z" fill="#f7931e"/><path d="m327.7642 485.7839h1.0042v2.5565h-1.0042z" fill="#f7931e"/><path d="m330.0329 485.7839h1.0042v2.5565h-1.0042z" fill="#f7931e"/><rect fill="#f4ad21" height="2.5564" rx=".3338" transform="matrix(-1 0 0 -1 647.4577 994.5804)" width="18.3491" x="314.5543" y="496.012"/><path d="m330.0329 496.0127h1.0042v2.5565h-1.0042z" fill="#f7931e"/><path d="m327.7642 496.0127h1.0042v2.5565h-1.0042z" fill="#f7931e"/><path d="m325.4954 496.0127h1.0042v2.5565h-1.0042z" fill="#f7931e"/><path d="m323.2267 496.0127h1.0042v2.5565h-1.0042z" fill="#f7931e"/><path d="m320.958 496.0127h1.0042v2.5565h-1.0042z" fill="#f7931e"/><path d="m318.6893 496.0127h1.0042v2.5565h-1.0042z" fill="#f7931e"/><path d="m316.4206 496.0127h1.0042v2.5565h-1.0042z" fill="#f7931e"/><rect fill="#f4ad21" height="2.5564" rx=".3338" transform="matrix(-1 0 0 -1 646.4535 989.4667)" width="18.3491" x="314.0522" y="493.4552"/><path d="m329.5307 493.4559h1.0042v2.5565h-1.0042z" fill="#f7931e"/><path d="m327.262 493.4559h1.0042v2.5565h-1.0042z" fill="#f7931e"/><path d="m324.9933 493.4559h1.0042v2.5565h-1.0042z" fill="#f7931e"/><path d="m322.7246 493.4559h1.0042v2.5565h-1.0042z" fill="#f7931e"/><path d="m320.4559 493.4559h1.0042v2.5565h-1.0042z" fill="#f7931e"/><path d="m318.1872 493.4559h1.0042v2.5565h-1.0042z" fill="#f7931e"/><path d="m315.9185 493.4559h1.0042v2.5565h-1.0042z" fill="#f7931e"/><rect fill="#f4ad21" height="2.5564" rx=".3338" transform="matrix(-1 0 0 -1 647.4577 984.3516)" width="18.3491" x="314.5543" y="490.8976"/><path d="m330.0329 490.8983h1.0042v2.5565h-1.0042z" fill="#f7931e"/><path d="m327.7642 490.8983h1.0042v2.5565h-1.0042z" fill="#f7931e"/><path d="m325.4954 490.8983h1.0042v2.5565h-1.0042z" fill="#f7931e"/><path d="m323.2267 490.8983h1.0042v2.5565h-1.0042z" fill="#f7931e"/><path d="m320.958 490.8983h1.0042v2.5565h-1.0042z" fill="#f7931e"/><path d="m318.6893 490.8983h1.0042v2.5565h-1.0042z" fill="#f7931e"/><path d="m316.4206 490.8983h1.0042v2.5565h-1.0042z" fill="#f7931e"/><rect fill="#f4ad21" height="2.5564" rx=".3338" transform="matrix(-1 0 0 -1 651.4746 979.2372)" width="18.3491" x="316.5628" y="488.3404"/><path d="m332.0413 488.3411h1.0042v2.5565h-1.0042z" fill="#f7931e"/><path d="m329.7726 488.3411h1.0042v2.5565h-1.0042z" fill="#f7931e"/><path d="m327.5039 488.3411h1.0042v2.5565h-1.0042z" fill="#f7931e"/><path d="m325.2352 488.3411h1.0042v2.5565h-1.0042z" fill="#f7931e"/><path d="m322.9665 488.3411h1.0042v2.5565h-1.0042z" fill="#f7931e"/><path d="m320.6978 488.3411h1.0042v2.5565h-1.0042z" fill="#f7931e"/><path d="m318.4291 488.3411h1.0042v2.5565h-1.0042z" fill="#f7931e"/><path d="m351.59 467.9433a41.0688 41.0688 0 0 1 -1.808-7.2131 49.9406 49.9406 0 0 1 -.5-5.1626 13.5685 13.5685 0 0 0 -1.1855-5.8767 10.7721 10.7721 0 0 0 -3.8607-4.1705l.5309-.99a11.861 11.861 0 0 1 4.2442 4.6007 14.7035 14.7035 0 0 1 1.3155 6.3637 48.9584 48.9584 0 0 0 .4862 5.0414 39.8507 39.8507 0 0 0 1.7541 6.9955z" fill="#69b44b"/><path d="m351.105 462.2849-1.0442-.0777a18.5045 18.5045 0 0 1 1.665-6.663 17.2322 17.2322 0 0 1 2.8928-4.3759l.74.811a16.1037 16.1037 0 0 0 -2.7 4.0849 17.264 17.264 0 0 0 -1.5536 6.2207z" fill="#69b44b"/><path d="m362.5578 442.04a33.7388 33.7388 0 0 0 -5.7876 6.0764 36.1908 36.1908 0 0 0 -2.3273 3.57 37.04 37.04 0 0 0 -2.0777 4.2692c0-.005-.0035-.01-.003-.0154a13.1631 13.1631 0 0 1 1.2552-7.9287 11.6065 11.6065 0 0 1 8.9404-5.9715z" fill="#69b44b"/><path d="m362.5578 442.04a17.3141 17.3141 0 0 1 -1.9588 6.7111 15.6124 15.6124 0 0 1 -8.2338 7.2046 37.04 37.04 0 0 1 2.0777-4.2692 36.1908 36.1908 0 0 1 2.3273-3.57 33.7388 33.7388 0 0 1 5.7876-6.0765z" fill="#00943c"/><path d="m343.09 444.5663c-.9266 1.3621.7152 4.5526 2.7058 6.1748.1385.1128 2.6937 2.1571 3.8416 1.2279 1.1939-.9666.7665-5.07-1.4806-6.9517-1.6215-1.3573-4.269-1.6245-5.0668-.451z" fill="#69b44b"/><rect fill="#f4ad21" height="2.5564" rx=".3338" transform="matrix(-1 0 0 -1 704.6795 1014.9844)" width="18.3491" x="343.1652" y="506.214"/><path d="m358.6437 506.2147h1.0042v2.5565h-1.0042z" fill="#f7931e"/><path d="m356.375 506.2147h1.0042v2.5565h-1.0042z" fill="#f7931e"/><path d="m354.1063 506.2147h1.0042v2.5565h-1.0042z" fill="#f7931e"/><path d="m351.8376 506.2147h1.0042v2.5565h-1.0042z" fill="#f7931e"/><path d="m349.5689 506.2147h1.0042v2.5565h-1.0042z" fill="#f7931e"/><path d="m347.3002 506.2147h1.0042v2.5565h-1.0042z" fill="#f7931e"/><path d="m345.0315 506.2147h1.0042v2.5565h-1.0042z" fill="#f7931e"/><rect fill="#f4ad21" height="2.5564" rx=".3338" transform="matrix(-1 0 0 -1 705.6837 1009.87)" width="18.3491" x="343.6673" y="503.6568"/><path d="m359.1458 503.6575h1.0042v2.5565h-1.0042z" fill="#f7931e"/><path d="m356.8771 503.6575h1.0042v2.5565h-1.0042z" fill="#f7931e"/><path d="m354.6084 503.6575h1.0042v2.5565h-1.0042z" fill="#f7931e"/><path d="m352.3397 503.6575h1.0042v2.5565h-1.0042z" fill="#f7931e"/><path d="m350.071 503.6575h1.0042v2.5565h-1.0042z" fill="#f7931e"/><path d="m347.8023 503.6575h1.0042v2.5565h-1.0042z" fill="#f7931e"/><path d="m345.5336 503.6575h1.0042v2.5565h-1.0042z" fill="#f7931e"/><rect fill="#f4ad21" height="2.5564" rx=".3338" transform="matrix(-1 0 0 -1 704.6795 1004.7555)" width="18.3491" x="343.1652" y="501.0996"/><path d="m358.6437 501.1003h1.0042v2.5565h-1.0042z" fill="#f7931e"/><path d="m356.375 501.1003h1.0042v2.5565h-1.0042z" fill="#f7931e"/><path d="m354.1063 501.1003h1.0042v2.5565h-1.0042z" fill="#f7931e"/><path d="m351.8376 501.1003h1.0042v2.5565h-1.0042z" fill="#f7931e"/><path d="m349.5689 501.1003h1.0042v2.5565h-1.0042z" fill="#f7931e"/><path d="m347.3002 501.1003h1.0042v2.5565h-1.0042z" fill="#f7931e"/><path d="m345.0315 501.1003h1.0042v2.5565h-1.0042z" fill="#f7931e"/><rect fill="#f4ad21" height="2.5564" rx=".3338" transform="matrix(-1 0 0 -1 708.6964 999.6411)" width="18.3491" x="345.1736" y="498.5424"/><path d="m360.6522 498.5431h1.0042v2.5565h-1.0042z" fill="#f7931e"/><path d="m358.3835 498.5431h1.0042v2.5565h-1.0042z" fill="#f7931e"/><path d="m356.1148 498.5431h1.0042v2.5565h-1.0042z" fill="#f7931e"/><path d="m353.8461 498.5431h1.0042v2.5565h-1.0042z" fill="#f7931e"/><path d="m351.5774 498.5431h1.0042v2.5565h-1.0042z" fill="#f7931e"/><path d="m349.3087 498.5431h1.0042v2.5565h-1.0042z" fill="#f7931e"/><path d="m347.04 498.5431h1.0042v2.5565h-1.0042z" fill="#f7931e"/><rect fill="#f4ad21" height="2.5564" rx=".3338" transform="matrix(-1 0 0 -1 704.6611 974.0691)" width="18.3491" x="343.156" y="485.7564"/><path d="m358.6345 485.7571h1.0042v2.5565h-1.0042z" fill="#f7931e"/><path d="m356.3658 485.7571h1.0042v2.5565h-1.0042z" fill="#f7931e"/><path d="m354.0971 485.7571h1.0042v2.5565h-1.0042z" fill="#f7931e"/><path d="m351.8284 485.7571h1.0042v2.5565h-1.0042z" fill="#f7931e"/><path d="m349.5597 485.7571h1.0042v2.5565h-1.0042z" fill="#f7931e"/><path d="m347.291 485.7571h1.0042v2.5565h-1.0042z" fill="#f7931e"/><path d="m345.0223 485.7571h1.0042v2.5565h-1.0042z" fill="#f7931e"/><rect fill="#f4ad21" height="2.5564" rx=".3338" transform="matrix(-1 0 0 -1 703.6568 968.9547)" width="18.3491" x="342.6539" y="483.1992"/><path d="m358.1324 483.1999h1.0042v2.5565h-1.0042z" fill="#f7931e"/><path d="m355.8637 483.1999h1.0042v2.5565h-1.0042z" fill="#f7931e"/><path d="m353.595 483.1999h1.0042v2.5565h-1.0042z" fill="#f7931e"/><path d="m351.3263 483.1999h1.0042v2.5565h-1.0042z" fill="#f7931e"/><path d="m349.0576 483.1999h1.0042v2.5565h-1.0042z" fill="#f7931e"/><path d="m346.7889 483.1999h1.0042v2.5565h-1.0042z" fill="#f7931e"/><path d="m344.5202 483.1999h1.0042v2.5565h-1.0042z" fill="#f7931e"/><rect fill="#f4ad21" height="2.5564" rx=".3338" transform="matrix(-1 0 0 -1 707.6737 963.8403)" width="18.3491" x="344.6623" y="480.642"/><path d="m360.1409 480.6427h1.0042v2.5565h-1.0042z" fill="#f7931e"/><path d="m357.8722 480.6427h1.0042v2.5565h-1.0042z" fill="#f7931e"/><path d="m355.6035 480.6427h1.0042v2.5565h-1.0042z" fill="#f7931e"/><path d="m353.3347 480.6427h1.0042v2.5565h-1.0042z" fill="#f7931e"/><path d="m351.066 480.6427h1.0042v2.5565h-1.0042z" fill="#f7931e"/><path d="m348.7973 480.6427h1.0042v2.5565h-1.0042z" fill="#f7931e"/><path d="m346.5286 480.6427h1.0042v2.5565h-1.0042z" fill="#f7931e"/><rect fill="#f4ad21" height="2.5564" rx=".3338" width="18.3491" x="343.156" y="495.9852"/><path d="m345.0223 495.9859h1.0042v2.5565h-1.0042z" fill="#f7931e"/><path d="m347.291 495.9859h1.0042v2.5565h-1.0042z" fill="#f7931e"/><path d="m349.5597 495.9859h1.0042v2.5565h-1.0042z" fill="#f7931e"/><path d="m351.8284 495.9859h1.0042v2.5565h-1.0042z" fill="#f7931e"/><path d="m354.0971 495.9859h1.0042v2.5565h-1.0042z" fill="#f7931e"/><path d="m356.3658 495.9859h1.0042v2.5565h-1.0042z" fill="#f7931e"/><path d="m358.6345 495.9859h1.0042v2.5565h-1.0042z" fill="#f7931e"/><rect fill="#f4ad21" height="2.5564" rx=".3338" width="18.3491" x="343.6581" y="493.428"/><path d="m345.5244 493.4287h1.0042v2.5565h-1.0042z" fill="#f7931e"/><path d="m347.7931 493.4287h1.0042v2.5565h-1.0042z" fill="#f7931e"/><path d="m350.0618 493.4287h1.0042v2.5565h-1.0042z" fill="#f7931e"/><path d="m352.3305 493.4287h1.0042v2.5565h-1.0042z" fill="#f7931e"/><path d="m354.5992 493.4287h1.0042v2.5565h-1.0042z" fill="#f7931e"/><path d="m356.8679 493.4287h1.0042v2.5565h-1.0042z" fill="#f7931e"/><path d="m359.1366 493.4287h1.0042v2.5565h-1.0042z" fill="#f7931e"/><rect fill="#f4ad21" height="2.5564" rx=".3338" width="18.3491" x="343.156" y="490.8708"/><path d="m345.0223 490.8715h1.0042v2.5565h-1.0042z" fill="#f7931e"/><path d="m347.291 490.8715h1.0042v2.5565h-1.0042z" fill="#f7931e"/><path d="m349.5597 490.8715h1.0042v2.5565h-1.0042z" fill="#f7931e"/><path d="m351.8284 490.8715h1.0042v2.5565h-1.0042z" fill="#f7931e"/><path d="m354.0971 490.8715h1.0042v2.5565h-1.0042z" fill="#f7931e"/><path d="m356.3658 490.8715h1.0042v2.5565h-1.0042z" fill="#f7931e"/><path d="m358.6345 490.8715h1.0042v2.5565h-1.0042z" fill="#f7931e"/><rect fill="#f4ad21" height="2.5564" rx=".3338" width="18.3491" x="341.1475" y="488.3136"/><path d="m343.0139 488.3143h1.0042v2.5565h-1.0042z" fill="#f7931e"/><path d="m345.2826 488.3143h1.0042v2.5565h-1.0042z" fill="#f7931e"/><path d="m347.5513 488.3143h1.0042v2.5565h-1.0042z" fill="#f7931e"/><path d="m349.82 488.3143h1.0042v2.5565h-1.0042z" fill="#f7931e"/><path d="m352.0887 488.3143h1.0042v2.5565h-1.0042z" fill="#f7931e"/><path d="m354.3574 488.3143h1.0042v2.5565h-1.0042z" fill="#f7931e"/><path d="m356.6261 488.3143h1.0042v2.5565h-1.0042z" fill="#f7931e"/><rect fill="#f4ad21" height="2.5564" rx=".3338" width="18.3491" x="342.6539" y="478.0848"/><path d="m344.5202 478.0855h1.0042v2.5565h-1.0042z" fill="#f7931e"/><path d="m346.7889 478.0855h1.0042v2.5565h-1.0042z" fill="#f7931e"/><path d="m349.0576 478.0855h1.0042v2.5565h-1.0042z" fill="#f7931e"/><path d="m351.3263 478.0855h1.0042v2.5565h-1.0042z" fill="#f7931e"/><path d="m353.595 478.0855h1.0042v2.5565h-1.0042z" fill="#f7931e"/><path d="m355.8637 478.0855h1.0042v2.5565h-1.0042z" fill="#f7931e"/><path d="m358.1324 478.0855h1.0042v2.5565h-1.0042z" fill="#f7931e"/><rect fill="#f4ad21" height="2.5564" rx=".3338" width="18.3491" x="342.1518" y="475.5276"/><path d="m344.0181 475.5283h1.0042v2.5565h-1.0042z" fill="#f7931e"/><path d="m346.2868 475.5283h1.0042v2.5565h-1.0042z" fill="#f7931e"/><path d="m348.5555 475.5283h1.0042v2.5565h-1.0042z" fill="#f7931e"/><path d="m350.8242 475.5283h1.0042v2.5565h-1.0042z" fill="#f7931e"/><path d="m353.0929 475.5283h1.0042v2.5565h-1.0042z" fill="#f7931e"/><path d="m355.3616 475.5283h1.0042v2.5565h-1.0042z" fill="#f7931e"/><path d="m357.6303 475.5283h1.0042v2.5565h-1.0042z" fill="#f7931e"/><rect fill="#f4ad21" height="2.5564" rx=".3338" width="18.3491" x="340.1433" y="472.9703"/><path d="m342.0096 472.9711h1.0042v2.5565h-1.0042z" fill="#f7931e"/><path d="m344.2783 472.9711h1.0042v2.5565h-1.0042z" fill="#f7931e"/><path d="m346.547 472.9711h1.0042v2.5565h-1.0042z" fill="#f7931e"/><path d="m348.8158 472.9711h1.0042v2.5565h-1.0042z" fill="#f7931e"/><path d="m351.0845 472.9711h1.0042v2.5565h-1.0042z" fill="#f7931e"/><path d="m353.3532 472.9711h1.0042v2.5565h-1.0042z" fill="#f7931e"/><path d="m355.6219 472.9711h1.0042v2.5565h-1.0042z" fill="#f7931e"/><path d="m343.3123 471.2654a3.346 3.346 0 0 1 .4841-2.9642 1.7421 1.7421 0 0 1 1.383-.6445 1.5717 1.5717 0 0 1 .83.3437 2.5859 2.5859 0 0 1 .4149-1.16 1.83 1.83 0 0 1 1.7288-.7733 4.1811 4.1811 0 0 1 1.0718-1.9762 2.6227 2.6227 0 0 1 3.7342-.1289 3.1673 3.1673 0 0 1 .6915 1.3748 1.1273 1.1273 0 0 1 1.141.3436 1.9327 1.9327 0 0 1 .4148 1.4178 3.05 3.05 0 0 1 1.66.9451 5.1478 5.1478 0 0 1 1.1409 3.4368z" fill="#3c052d"/><rect fill="#f4ad21" height="2.5564" rx=".3338" width="18.3491" x="341.9099" y="470.4131"/><path d="m343.7762 470.4139h1.0042v2.5565h-1.0042z" fill="#f7931e"/><path d="m346.0449 470.4139h1.0042v2.5565h-1.0042z" fill="#f7931e"/><path d="m348.3136 470.4139h1.0042v2.5565h-1.0042z" fill="#f7931e"/><path d="m350.5823 470.4139h1.0042v2.5565h-1.0042z" fill="#f7931e"/><path d="m352.851 470.4139h1.0042v2.5565h-1.0042z" fill="#f7931e"/><path d="m355.1198 470.4139h1.0042v2.5565h-1.0042z" fill="#f7931e"/><path d="m357.3885 470.4139h1.0042v2.5565h-1.0042z" fill="#f7931e"/><path d="m378.7967 456.44a41.6514 41.6514 0 0 1 -.8369-7.4239c-.0451-2.0841-.1483-3.757-.2389-5.2329a25.969 25.969 0 0 1 .997-10.8725 14.2743 14.2743 0 0 0 .7132-5.2376 18.6563 18.6563 0 0 0 -1.0361-5.24l.9761-.4123a19.8862 19.8862 0 0 1 1.1046 5.5893 15.4948 15.4948 0 0 1 -.7569 5.6371 29.869 29.869 0 0 0 -.9614 4.4565 30.3307 30.3307 0 0 0 .0073 6.0019c.0917 1.4876.1955 3.174.2407 5.2828a40.477 40.477 0 0 0 .8123 7.2z" fill="#69b44b"/><path d="m379.0637 450.7638-1.023-.243a18.0871 18.0871 0 0 1 2.5274-6.3278 16.56 16.56 0 0 1 3.44-3.8695l.6253.9213a15.46 15.46 0 0 0 -3.2111 3.6111 16.8746 16.8746 0 0 0 -2.3586 5.9079z" fill="#69b44b"/><path d="m394.3919 431.2635a35.8963 35.8963 0 0 0 -7.23 5.6379 38.57 38.57 0 0 0 -3.0718 3.5015 39.6144 39.6144 0 0 0 -2.9006 4.3113c.0012-.0052-.0024-.012-.0011-.0173a14.3546 14.3546 0 0 1 2.5346-8.4657 12.4753 12.4753 0 0 1 10.6689-4.9677z" fill="#69b44b"/><path d="m394.3919 431.2635a18.6936 18.6936 0 0 1 -3.1276 7.0077 16.6667 16.6667 0 0 1 -10.0745 6.443 39.6144 39.6144 0 0 1 2.9006-4.3113 38.57 38.57 0 0 1 3.0718-3.5015 35.8963 35.8963 0 0 1 7.2297-5.6379z" fill="#00943c"/><path d="m383.3671 413.3582a34.7294 34.7294 0 0 0 -2.5868 7.61 35.7766 35.7766 0 0 0 -.7907 8.4657l-.0081-.0114a11.5921 11.5921 0 0 1 3.3856-16.0642z" fill="#69b44b"/><path d="m383.3671 413.3582a15.9713 15.9713 0 0 1 -3.3775 16.0756 35.7766 35.7766 0 0 1 .7907-8.4657 34.7294 34.7294 0 0 1 2.5868-7.6099z" fill="#00943c"/><path d="m377.6712 443.0247a16.1632 16.1632 0 0 0 -3.5524-7.6965 13.9567 13.9567 0 0 0 -4.7552-3.6236l.4077-1.0579a15.0141 15.0141 0 0 1 5.11 3.895 17.3608 17.3608 0 0 1 3.8167 8.2659z" fill="#69b44b"/><path d="m376.3537 437.7118a35.4309 35.4309 0 0 0 -5.2168-6.8532 34.253 34.253 0 0 0 -3.1382-2.8326 32.7735 32.7735 0 0 0 -3.8008-2.6025c.0045.0009.01-.0032.0144-.0023a10.4105 10.4105 0 0 1 7.2363 1.9369c4.7376 3.4811 4.8991 9.753 4.9051 10.3537z" fill="#69b44b"/><path d="m376.3537 437.7118a14.19 14.19 0 0 1 -6.0639-2.6368 17.3633 17.3633 0 0 1 -6.0919-9.6515 32.7735 32.7735 0 0 1 3.8008 2.6025 34.253 34.253 0 0 1 3.1382 2.8326 35.4309 35.4309 0 0 1 5.2168 6.8532z" fill="#00943c"/><rect fill="#f4ad21" height="2.5564" rx=".3338" width="18.3491" x="370.7626" y="462.7684"/><path d="m372.629 462.7676h1.0042v2.5565h-1.0042z" fill="#f7931e"/><path d="m374.8977 462.7676h1.0042v2.5565h-1.0042z" fill="#f7931e"/><path d="m377.1664 462.7676h1.0042v2.5565h-1.0042z" fill="#f7931e"/><path d="m379.4351 462.7676h1.0042v2.5565h-1.0042z" fill="#f7931e"/><path d="m381.7038 462.7676h1.0042v2.5565h-1.0042z" fill="#f7931e"/><path d="m383.9725 462.7676h1.0042v2.5565h-1.0042z" fill="#f7931e"/><path d="m386.2412 462.7676h1.0042v2.5565h-1.0042z" fill="#f7931e"/><rect fill="#f4ad21" height="2.5564" rx=".3338" width="18.3491" x="370.2605" y="465.3252"/><path d="m372.1268 465.3245h1.0042v2.5565h-1.0042z" fill="#f7931e"/><path d="m374.3956 465.3245h1.0042v2.5565h-1.0042z" fill="#f7931e"/><path d="m376.6643 465.3245h1.0042v2.5565h-1.0042z" fill="#f7931e"/><path d="m378.933 465.3245h1.0042v2.5565h-1.0042z" fill="#f7931e"/><path d="m381.2017 465.3245h1.0042v2.5565h-1.0042z" fill="#f7931e"/><path d="m383.4704 465.3245h1.0042v2.5565h-1.0042z" fill="#f7931e"/><path d="m385.7391 465.3245h1.0042v2.5565h-1.0042z" fill="#f7931e"/><rect fill="#f4ad21" height="2.5564" rx=".3338" width="18.3491" x="370.7626" y="467.8828"/><path d="m372.629 467.882h1.0042v2.5565h-1.0042z" fill="#f7931e"/><path d="m374.8977 467.882h1.0042v2.5565h-1.0042z" fill="#f7931e"/><path d="m377.1664 467.882h1.0042v2.5565h-1.0042z" fill="#f7931e"/><path d="m379.4351 467.882h1.0042v2.5565h-1.0042z" fill="#f7931e"/><path d="m381.7038 467.882h1.0042v2.5565h-1.0042z" fill="#f7931e"/><path d="m383.9725 467.882h1.0042v2.5565h-1.0042z" fill="#f7931e"/><path d="m386.2412 467.882h1.0042v2.5565h-1.0042z" fill="#f7931e"/><rect fill="#f4ad21" height="2.5564" rx=".3338" width="18.3491" x="368.7542" y="470.4404"/><path d="m370.6205 470.4396h1.0042v2.5565h-1.0042z" fill="#f7931e"/><path d="m372.8892 470.4396h1.0042v2.5565h-1.0042z" fill="#f7931e"/><path d="m375.1579 470.4396h1.0042v2.5565h-1.0042z" fill="#f7931e"/><path d="m377.4266 470.4396h1.0042v2.5565h-1.0042z" fill="#f7931e"/><path d="m379.6953 470.4396h1.0042v2.5565h-1.0042z" fill="#f7931e"/><path d="m381.964 470.4396h1.0042v2.5565h-1.0042z" fill="#f7931e"/><path d="m384.2327 470.4396h1.0042v2.5565h-1.0042z" fill="#f7931e"/><rect fill="#f4ad21" height="2.5564" rx=".3338" width="18.3491" x="370.7718" y="483.1992"/><path d="m372.6382 483.1984h1.0042v2.5565h-1.0042z" fill="#f7931e"/><path d="m374.9069 483.1984h1.0042v2.5565h-1.0042z" fill="#f7931e"/><path d="m377.1756 483.1984h1.0042v2.5565h-1.0042z" fill="#f7931e"/><path d="m379.4443 483.1984h1.0042v2.5565h-1.0042z" fill="#f7931e"/><path d="m381.713 483.1984h1.0042v2.5565h-1.0042z" fill="#f7931e"/><path d="m383.9817 483.1984h1.0042v2.5565h-1.0042z" fill="#f7931e"/><path d="m386.2504 483.1984h1.0042v2.5565h-1.0042z" fill="#f7931e"/><rect fill="#f4ad21" height="2.5564" rx=".3338" width="18.3491" x="371.274" y="485.7568"/><path d="m373.1403 485.756h1.0042v2.5565h-1.0042z" fill="#f7931e"/><path d="m375.409 485.756h1.0042v2.5565h-1.0042z" fill="#f7931e"/><path d="m377.6777 485.756h1.0042v2.5565h-1.0042z" fill="#f7931e"/><path d="m379.9464 485.756h1.0042v2.5565h-1.0042z" fill="#f7931e"/><path d="m382.2151 485.756h1.0042v2.5565h-1.0042z" fill="#f7931e"/><path d="m384.4838 485.756h1.0042v2.5565h-1.0042z" fill="#f7931e"/><path d="m386.7525 485.756h1.0042v2.5565h-1.0042z" fill="#f7931e"/><rect fill="#f4ad21" height="2.5564" rx=".3338" width="18.3491" x="369.2655" y="488.3143"/><path d="m371.1318 488.3136h1.0042v2.5565h-1.0042z" fill="#f7931e"/><path d="m373.4005 488.3136h1.0042v2.5565h-1.0042z" fill="#f7931e"/><path d="m375.6692 488.3136h1.0042v2.5565h-1.0042z" fill="#f7931e"/><path d="m377.9379 488.3136h1.0042v2.5565h-1.0042z" fill="#f7931e"/><path d="m380.2066 488.3136h1.0042v2.5565h-1.0042z" fill="#f7931e"/><path d="m382.4754 488.3136h1.0042v2.5565h-1.0042z" fill="#f7931e"/><path d="m384.7441 488.3136h1.0042v2.5565h-1.0042z" fill="#f7931e"/><rect fill="#f4ad21" height="2.5564" rx=".3338" transform="matrix(-1 0 0 -1 759.8928 948.4972)" width="18.3491" x="370.7718" y="472.9704"/><path d="m386.2504 472.9696h1.0042v2.5565h-1.0042z" fill="#f7931e"/><path d="m383.9817 472.9696h1.0042v2.5565h-1.0042z" fill="#f7931e"/><path d="m381.713 472.9696h1.0042v2.5565h-1.0042z" fill="#f7931e"/><path d="m379.4443 472.9696h1.0042v2.5565h-1.0042z" fill="#f7931e"/><path d="m377.1756 472.9696h1.0042v2.5565h-1.0042z" fill="#f7931e"/><path d="m374.9069 472.9696h1.0042v2.5565h-1.0042z" fill="#f7931e"/><path d="m372.6382 472.9696h1.0042v2.5565h-1.0042z" fill="#f7931e"/><rect fill="#f4ad21" height="2.5564" rx=".3338" transform="matrix(-1 0 0 -1 758.8886 953.6108)" width="18.3491" x="370.2697" y="475.5272"/><path d="m385.7483 475.5264h1.0042v2.5565h-1.0042z" fill="#f7931e"/><path d="m383.4796 475.5264h1.0042v2.5565h-1.0042z" fill="#f7931e"/><path d="m381.2109 475.5264h1.0042v2.5565h-1.0042z" fill="#f7931e"/><path d="m378.9422 475.5264h1.0042v2.5565h-1.0042z" fill="#f7931e"/><path d="m376.6735 475.5264h1.0042v2.5565h-1.0042z" fill="#f7931e"/><path d="m374.4048 475.5264h1.0042v2.5565h-1.0042z" fill="#f7931e"/><path d="m372.1361 475.5264h1.0042v2.5565h-1.0042z" fill="#f7931e"/><rect fill="#f4ad21" height="2.5564" rx=".3338" transform="matrix(-1 0 0 -1 759.8928 958.726)" width="18.3491" x="370.7718" y="478.0848"/><path d="m386.2504 478.084h1.0042v2.5565h-1.0042z" fill="#f7931e"/><path d="m383.9817 478.084h1.0042v2.5565h-1.0042z" fill="#f7931e"/><path d="m381.713 478.084h1.0042v2.5565h-1.0042z" fill="#f7931e"/><path d="m379.4443 478.084h1.0042v2.5565h-1.0042z" fill="#f7931e"/><path d="m377.1756 478.084h1.0042v2.5565h-1.0042z" fill="#f7931e"/><path d="m374.9069 478.084h1.0042v2.5565h-1.0042z" fill="#f7931e"/><path d="m372.6382 478.084h1.0042v2.5565h-1.0042z" fill="#f7931e"/><rect fill="#f4ad21" height="2.5564" rx=".3338" transform="matrix(-1 0 0 -1 763.9097 963.8404)" width="18.3491" x="372.7803" y="480.642"/><path d="m388.2588 480.6412h1.0042v2.5565h-1.0042z" fill="#f7931e"/><path d="m385.9901 480.6412h1.0042v2.5565h-1.0042z" fill="#f7931e"/><path d="m383.7214 480.6412h1.0042v2.5565h-1.0042z" fill="#f7931e"/><path d="m381.4527 480.6412h1.0042v2.5565h-1.0042z" fill="#f7931e"/><path d="m379.184 480.6412h1.0042v2.5565h-1.0042z" fill="#f7931e"/><path d="m376.9153 480.6412h1.0042v2.5565h-1.0042z" fill="#f7931e"/><path d="m374.6466 480.6412h1.0042v2.5565h-1.0042z" fill="#f7931e"/><rect fill="#f4ad21" height="2.5564" rx=".3338" width="18.3491" x="371.738" y="506.2148"/><path d="m373.6043 506.214h1.0042v2.5565h-1.0042z" fill="#f7931e"/><path d="m375.873 506.214h1.0042v2.5565h-1.0042z" fill="#f7931e"/><path d="m378.1417 506.214h1.0042v2.5565h-1.0042z" fill="#f7931e"/><path d="m380.4105 506.214h1.0042v2.5565h-1.0042z" fill="#f7931e"/><path d="m382.6792 506.214h1.0042v2.5565h-1.0042z" fill="#f7931e"/><path d="m384.9479 506.214h1.0042v2.5565h-1.0042z" fill="#f7931e"/><path d="m387.2166 506.214h1.0042v2.5565h-1.0042z" fill="#f7931e"/><rect fill="#f4ad21" height="2.5564" rx=".3338" transform="matrix(-1 0 0 -1 760.8209 999.642)" width="18.3491" x="371.2359" y="498.5428"/><path d="m386.7145 498.542h1.0042v2.5565h-1.0042z" fill="#f7931e"/><path d="m384.4458 498.542h1.0042v2.5565h-1.0042z" fill="#f7931e"/><path d="m382.177 498.542h1.0042v2.5565h-1.0042z" fill="#f7931e"/><path d="m379.9083 498.542h1.0042v2.5565h-1.0042z" fill="#f7931e"/><path d="m377.6396 498.542h1.0042v2.5565h-1.0042z" fill="#f7931e"/><path d="m375.3709 498.542h1.0042v2.5565h-1.0042z" fill="#f7931e"/><path d="m373.1022 498.542h1.0042v2.5565h-1.0042z" fill="#f7931e"/><rect fill="#f4ad21" height="2.5564" rx=".3338" transform="matrix(-1 0 0 -1 761.8251 1004.7571)" width="18.3491" x="371.738" y="501.1004"/><path d="m387.2166 501.0996h1.0042v2.5565h-1.0042z" fill="#f7931e"/><path d="m384.9479 501.0996h1.0042v2.5565h-1.0042z" fill="#f7931e"/><path d="m382.6792 501.0996h1.0042v2.5565h-1.0042z" fill="#f7931e"/><path d="m380.4105 501.0996h1.0042v2.5565h-1.0042z" fill="#f7931e"/><path d="m378.1417 501.0996h1.0042v2.5565h-1.0042z" fill="#f7931e"/><path d="m375.873 501.0996h1.0042v2.5565h-1.0042z" fill="#f7931e"/><path d="m373.6043 501.0996h1.0042v2.5565h-1.0042z" fill="#f7931e"/><rect fill="#f4ad21" height="2.5564" rx=".3338" transform="matrix(-1 0 0 -1 765.842 1009.8715)" width="18.3491" x="373.7465" y="503.6576"/><path d="m389.225 503.6568h1.0042v2.5565h-1.0042z" fill="#f7931e"/><path d="m386.9563 503.6568h1.0042v2.5565h-1.0042z" fill="#f7931e"/><path d="m384.6876 503.6568h1.0042v2.5565h-1.0042z" fill="#f7931e"/><path d="m382.4189 503.6568h1.0042v2.5565h-1.0042z" fill="#f7931e"/><path d="m380.1502 503.6568h1.0042v2.5565h-1.0042z" fill="#f7931e"/><path d="m377.8815 503.6568h1.0042v2.5565h-1.0042z" fill="#f7931e"/><path d="m375.6128 503.6568h1.0042v2.5565h-1.0042z" fill="#f7931e"/><rect fill="#f4ad21" height="2.5564" rx=".3338" transform="matrix(-1 0 0 -1 760.897 984.2981)" width="18.3491" x="371.274" y="490.8708"/><path d="m386.7525 490.87h1.0042v2.5565h-1.0042z" fill="#f7931e"/><path d="m384.4838 490.87h1.0042v2.5565h-1.0042z" fill="#f7931e"/><path d="m382.2151 490.87h1.0042v2.5565h-1.0042z" fill="#f7931e"/><path d="m379.9464 490.87h1.0042v2.5565h-1.0042z" fill="#f7931e"/><path d="m377.6777 490.87h1.0042v2.5565h-1.0042z" fill="#f7931e"/><path d="m375.409 490.87h1.0042v2.5565h-1.0042z" fill="#f7931e"/><path d="m373.1403 490.87h1.0042v2.5565h-1.0042z" fill="#f7931e"/><rect fill="#f4ad21" height="2.5564" rx=".3338" transform="matrix(-1 0 0 -1 761.9012 989.4132)" width="18.3491" x="371.7761" y="493.4284"/><path d="m387.2546 493.4276h1.0042v2.5565h-1.0042z" fill="#f7931e"/><path d="m384.9859 493.4276h1.0042v2.5565h-1.0042z" fill="#f7931e"/><path d="m382.7172 493.4276h1.0042v2.5565h-1.0042z" fill="#f7931e"/><path d="m380.4485 493.4276h1.0042v2.5565h-1.0042z" fill="#f7931e"/><path d="m378.1798 493.4276h1.0042v2.5565h-1.0042z" fill="#f7931e"/><path d="m375.9111 493.4276h1.0042v2.5565h-1.0042z" fill="#f7931e"/><path d="m373.6424 493.4276h1.0042v2.5565h-1.0042z" fill="#f7931e"/><rect fill="#f4ad21" height="2.5564" rx=".3338" transform="matrix(-1 0 0 -1 765.9181 994.5276)" width="18.3491" x="373.7845" y="495.9856"/><path d="m389.2631 495.9848h1.0042v2.5565h-1.0042z" fill="#f7931e"/><path d="m386.9943 495.9848h1.0042v2.5565h-1.0042z" fill="#f7931e"/><path d="m384.7256 495.9848h1.0042v2.5565h-1.0042z" fill="#f7931e"/><path d="m382.4569 495.9848h1.0042v2.5565h-1.0042z" fill="#f7931e"/><path d="m380.1882 495.9848h1.0042v2.5565h-1.0042z" fill="#f7931e"/><path d="m377.9195 495.9848h1.0042v2.5565h-1.0042z" fill="#f7931e"/><path d="m375.6508 495.9848h1.0042v2.5565h-1.0042z" fill="#f7931e"/><path d="m371.4537 461.0363a3.346 3.346 0 0 1 .4841-2.9643 1.7425 1.7425 0 0 1 1.383-.6444 1.5717 1.5717 0 0 1 .83.3437 2.5859 2.5859 0 0 1 .4149-1.16 1.8293 1.8293 0 0 1 1.7288-.7733 4.18 4.18 0 0 1 1.0718-1.9762 2.6226 2.6226 0 0 1 3.7341-.1289 3.1651 3.1651 0 0 1 .6915 1.3748 1.1274 1.1274 0 0 1 1.1411.3436 1.9327 1.9327 0 0 1 .4148 1.4178 3.05 3.05 0 0 1 1.66.9451 5.1478 5.1478 0 0 1 1.1409 3.4368z" fill="#3c052d"/><rect fill="#f4ad21" height="2.5564" rx=".3338" width="18.3491" x="370.0513" y="460.2112"/><path d="m371.9176 460.2119h1.0042v2.5565h-1.0042z" fill="#f7931e"/><path d="m374.1863 460.2119h1.0042v2.5565h-1.0042z" fill="#f7931e"/><path d="m376.455 460.2119h1.0042v2.5565h-1.0042z" fill="#f7931e"/><path d="m378.7237 460.2119h1.0042v2.5565h-1.0042z" fill="#f7931e"/><path d="m380.9924 460.2119h1.0042v2.5565h-1.0042z" fill="#f7931e"/><path d="m383.2611 460.2119h1.0042v2.5565h-1.0042z" fill="#f7931e"/><path d="m385.5298 460.2119h1.0042v2.5565h-1.0042z" fill="#f7931e"/><path d="m456 508.7712-12.498.1895-12.498.1378-20.136.2239-4.8654.0517-18.3677.1263-6.2046.04-25.43.178-12.498.0862-12.4981.0287-2.6052.0057-22.3961.0517-50.0029.1093-49.9974-.1091c-.9469-.0057-1.899-.0057-2.8459-.0057q-5.6423-.0173-11.2791-.0288-11.6061-.0171-23.2069-.0631c-1.01 0-2.0194-.0058-3.0238-.0173-.6854 0-1.3759-.0057-2.0612-.0114-1.0882 0-2.1816-.0115-3.27-.0173l-4.3157-.0344-23.186-.1551-11.6086-.08-15.2028-.1033-25.0013-.2756-12.498-.1436-12.5033-.1841 12.5033-.1838 12.498-.1378 25.0013-.2756 15.2394-.1034 11.8284-.08 22.9296-.1606c1.6061-.0115 3.2069-.0288 4.813-.0345 1.0829-.0115 2.1711-.0172 3.254-.023h.0052c.701-.0057 1.3916-.0057 2.0926-.0115l3.0552-.0172q11.19-.0516 22.3856-.0517 5.6343-.0086 11.2686-.0229c1.0411-.0058 2.0874-.0058 3.1284-.0115l49.9974-.1154 50.0026.1091 22.124.0517 2.8773.0058 12.4981.0344 12.498.08 25.1112.1723 6.1941.0459 18.6973.1264 4.5148.0516 20.4866.224 12.498.1435z" fill="#00943c"/><path d="m308.8778 449.2653 8.6166-12.3222 4.3082-6.1611 1.8689-2.6727.3437-.4914.0859-.1229c.03-.0378.05-.0982.105-.08h27.2285c.0471-.0085.1072.019.1437-.019l.11-.1128.22-.2253.8812-.9016 1.505-1.54 29.7056-30.3945 2.2459 2.6444.3274-1.1753 2.6891-9.6564-8.9642 2.2679-1.091.2761 2.2458 2.6443-29.7052 30.3942-1.0828 1.108-.4129.4224-.1032.1057c-.033.039-.067.0754-.119.0617h-27.61c-.1175-.0381-.16.0907-.2241.1714l-.1834.2622-.7334 1.0488-2.4394 3.4885-4.3083 6.1611-8.6166 12.3222z" fill="#69b44b"/><path d="m398.8438 387.3563v-4.8863a5.7888 5.7888 0 0 1 -3.0547-1.9768 5.2773 5.2773 0 0 1 -.9722-3.213 4.8048 4.8048 0 0 1 1.1-3.2129 4.2811 4.2811 0 0 1 2.9272-1.4986v-1.1546h1.5407v1.1546a4.3732 4.3732 0 0 1 2.6881 1.2653 5.0645 5.0645 0 0 1 1.2751 2.7932l-2.6882.3848a2.358 2.358 0 0 0 -1.275-1.866v4.56a6.6946 6.6946 0 0 1 3.4744 1.9651 4.9484 4.9484 0 0 1 .9244 3.0964 5.493 5.493 0 0 1 -1.1635 3.557 4.97 4.97 0 0 1 -3.2353 1.7726v2.1809h-1.5407v-2.1226a4.7423 4.7423 0 0 1 -2.9857-1.5044 6.4733 6.4733 0 0 1 -1.4662-3.557l2.7731-.3265a4.08 4.08 0 0 0 .6376 1.6094 2.9974 2.9974 0 0 0 1.0409.9794zm0-12.2454a2.0144 2.0144 0 0 0 -.9987.793 2.1863 2.1863 0 0 0 -.3719 1.2362 2.0885 2.0885 0 0 0 .34 1.1487 2.3984 2.3984 0 0 0 1.0306.8572zm1.5407 12.4087a2.1284 2.1284 0 0 0 1.2962-.8106 2.419 2.419 0 0 0 .4994-1.5219 2.1974 2.1974 0 0 0 -.42-1.347 2.6446 2.6446 0 0 0 -1.3759-.8688z" fill="#69b44b"/></svg>