<svg height="512" viewBox="0 0 512 512" width="512" xmlns="http://www.w3.org/2000/svg"><path d="m82.8673 312.1929c-12.0844-22.3193 2.69-57.9529 25.3346-75.3418 31.1263-23.9027 81.098-16.3859 89.0964 3.2207 11.57 28.3609-57.0447 100.742-96.0058 87.9825-11.7184-3.8376-17.6046-14.3459-18.4252-15.8614z" fill="#b8d26f" opacity=".3"/><path d="m399.3635 509.7715-309.3507-.9281a90.4758 90.4758 0 0 1 6.6643-28.3657c13.6144-32.43 37.9007-33.53 88.2276-71.0733 61.9011-46.17 65.8862-74.8774 110.0813-83.6146 10.044-1.986 36.6844-6.8555 61.52 7.5271 21.5377 12.4727 30.5051 32.0822 40.1987 54.0447 5.5448 12.5627 19.5552 45.4636 12.9592 87.2746a143.2061 143.2061 0 0 1 -10.3004 35.1353z" fill="#b8d26f" opacity=".3"/><ellipse cx="392.9514" cy="304.3327" fill="#b8d26f" opacity=".3" rx="15.3418" ry="15.8486"/><ellipse cx="377.1378" cy="218.3426" fill="#b8d26f" opacity=".3" rx="27.4364" ry="28.3426"/><ellipse cx="293.6657" cy="246.8383" fill="#b8d26f" opacity=".3" rx="11.3985" ry="11.775"/><path d="m416.9112 451.459a16.2339 16.2339 0 0 1 -.7112 5.0278c-4.3777 1.1187-9.0816 2.4937-13.9878 4.1718-.5872.2022-1.1744.4111-1.768.62-.0522.02-.111.04-.1631.0606q-2.1825.7785-4.319 1.5973-1.0865.4246-2.1531.8492c-.3979-.27-.7763-.5526-1.1482-.8559a16.99 16.99 0 0 1 -6.0675-12.3269 14.4326 14.4326 0 0 1 .1044-2.3117 14.1342 14.1342 0 0 1 1.4288-4.6975c3.1512-6.2 10.1842-8.7683 16.206-7.6024a15.6605 15.6605 0 0 1 11.62 10.0826c.124.337.2349.6739.3327 1.0244a16.5547 16.5547 0 0 1 .626 4.3607z" fill="#e80007"/><path d="m416.9112 451.459a16.2339 16.2339 0 0 1 -.7112 5.0278c-4.3777 1.1187-9.0816 2.4937-13.9878 4.1718-.5872.2022-1.1744.4111-1.768.62-.0522.02-.111.04-.1631.0606q-2.1825.7785-4.319 1.5973a32.4025 32.4025 0 0 1 -.4372-7.5147 18.2718 18.2718 0 0 0 4.7366.93 17.13 17.13 0 0 0 4.5212-.3707c1.755-.3842 6.3154-1.3884 9.2578-5.6613a13.4571 13.4571 0 0 0 1.9116-4.246c.124.337.2349.6739.3327 1.0244a16.5547 16.5547 0 0 1 .6264 4.3608z" fill="#92063d"/><path d="m390.0055 447.8937c-.0327.1819-.0718.3572-.1175.5324a9.6919 9.6919 0 0 1 -.3066 1.0783c-2.166 6.6184-9.3557 10.5746-15.5993 10.3994a15.7912 15.7912 0 0 1 -4.6126-.8627 18.0838 18.0838 0 0 1 -6.1458-3.5653 14.8532 14.8532 0 0 1 -4.4821-6.8475 12.4941 12.4941 0 0 1 -.3327-5.6276 15.8038 15.8038 0 0 0 3.249 3.9629 18.0854 18.0854 0 0 0 6.1458 3.5653 15.7912 15.7912 0 0 0 4.6126.8627c6.2436.1752 13.4333-3.781 15.5993-10.3993a9.7214 9.7214 0 0 0 .3066-1.0784c.0457-.1752.0849-.3505.1175-.5324a12.1552 12.1552 0 0 0 .1761-1.22 15.3576 15.3576 0 0 1 1.3897 9.7322z" fill="#92063d"/><path d="m388.6158 438.1616a12.1552 12.1552 0 0 1 -.1761 1.22c-.0326.1819-.0718.3572-.1175.5324a9.7214 9.7214 0 0 1 -.3066 1.0784c-2.166 6.6183-9.3557 10.5745-15.5993 10.3993a15.7912 15.7912 0 0 1 -4.6126-.8627 18.0854 18.0854 0 0 1 -6.1458-3.5653 15.8038 15.8038 0 0 1 -3.249-3.9629c.0522-.3639.13-.7347.2153-1.0986 1.39-5.7085 6.2436-10.8171 11.3586-10.9519a8.2316 8.2316 0 0 1 2.9489.4785 10.0279 10.0279 0 0 1 1.892.8829 1.77 1.77 0 0 0 1.2788.2089 12.92 12.92 0 0 1 2.14-.2831 10.7587 10.7587 0 0 1 10.3734 5.9242z" fill="#e80007"/><path d="m370.157 428.3518a6.76 6.76 0 0 1 2.303 2.1979 6.92 6.92 0 0 1 .4686.8783 10.21 10.21 0 0 1 1.8954.8859 1.75 1.75 0 0 0 1.2768.205 13.7468 13.7468 0 0 1 2.1409-.2841 7.984 7.984 0 0 1 1.4837-1.1808 8.1808 8.1808 0 0 1 4.3933-1.2464 6.1608 6.1608 0 0 0 -5.4668-.2634 5.6985 5.6985 0 0 0 -2.2 2.0159 8.3385 8.3385 0 0 1 -.0663-2.1972 7.9573 7.9573 0 0 1 .489-2.0617 6.3643 6.3643 0 0 0 -2.36 3.7615 4.2714 4.2714 0 0 0 -1.0594-1.6235 4.3386 4.3386 0 0 0 -3.2982-1.0874z" fill="#00943c"/><path d="m400.2811 461.3393q-1.6147.5763-3.2034 1.18-1.5561.5761-3.0794 1.1929c-.0653.027-.124.0472-.1893.0741-.4827.1955-.9655.3909-1.4418.5864-.4632.1887-.9329.3841-1.39.58-.5937.2494-1.1744.4987-1.7616.7548-.672.2966-1.3374.5931-2.0029.89-1.5919.7211-3.1577 1.4557-4.6974 2.2241-1.1809.5728-2.3487 1.1659-3.4969 1.7657-.0979.0472-.1892.1012-.2806.1483-.274.1415-.548.29-.822.4313-.5742.31-1.1418.62-1.7094.93q-1.8594-1.0311-3.7774-2.0151c-1.1092-.5729-2.2378-1.139-3.3731-1.6849a15.3568 15.3568 0 0 1 .3132-9.3547 11.2769 11.2769 0 0 1 2.8968-4.3673 11.0846 11.0846 0 0 1 6.485-2.8239 13.2347 13.2347 0 0 1 2.1595-.0337 1.777 1.777 0 0 0 1.233-.3909 10.395 10.395 0 0 1 1.755-1.1593 8.396 8.396 0 0 1 2.8511-.9031 8.54 8.54 0 0 1 2.8315.1415 11.0066 11.0066 0 0 1 2.6423.9436 15.5619 15.5619 0 0 1 8.0578 10.8902z" fill="#e80007"/><path d="m363.2237 455.4758a15.664 15.664 0 0 1 -4.8018 8.2089q-3.1707-1.2738-6.4458-2.44c-5.924-2.1163-11.587-3.7675-16.7606-5.0683h-.0066a10.6933 10.6933 0 0 1 -1.1613-4.4144c-.013-.2629-.0065-.5325.0066-.8088.32-6.0994 6.55-10.1769 11.2672-11.35 3.8558-.9638 9.3231-.647 13.3028 2.2982a11.7637 11.7637 0 0 1 3.6079 4.3134 13.122 13.122 0 0 1 .8416 2.1769 14.3694 14.3694 0 0 1 .15 7.0841z" fill="#e80007"/><path d="m347.1905 493.6645a188.6486 188.6486 0 0 0 -16.837-14.6936c2.3409 6.0888 4.6955 12.0583 6.3 15.7407a38.3456 38.3456 0 0 0 3.4524 6.6852q3.3534-4.0114 7.0846-7.7323z" fill="#00943c"/><path d="m354.3154 487.1077c.4383-.3721.8827-.7393 1.3274-1.1063.4427-.3654.8862-.73 1.3353-1.09.1156-.0929.2333-.1841.3494-.2765a180.6989 180.6989 0 0 0 -26.0309-16.5687q-1.7088-.8912-3.3353-1.6955-1.4957-.74-2.91-1.4034.2544.6806.5252 1.4034l.1871.499q.22.5873.449 1.1965.1881.501.3821 1.016.4191 1.1136.86 2.28.3549.9391.72 1.9025a186.1161 186.1161 0 0 1 21.37 18.12q2.319-2.1908 4.7707-4.277z" fill="#23a636"/><path d="m334.0053 465.6251q1.2116.642 2.4578 1.3273 1.1961.6585 2.4207 1.3561a183.2222 183.2222 0 0 1 21.23 14.17q2.1543-1.62 4.3991-3.1664.727-.5007 1.4644-.9932c.4836-.3237.9655-.6484 1.4552-.9671q2.5669-1.67 5.25-3.245a164.9668 164.9668 0 0 0 -28.88-11.9616c-3.8-1.1783-7.4347-2.1689-10.8369-3q-.9708-.237-1.9163-.4577c-.6337-.1477-1.26-.291-1.8752-.4277-2.31-.5134-4.4837-.95-6.4982-1.3211q-.3207-.0592-.636-.1161c-.0027.0113-.007.0235-.0088.0341.0226.0821.0669.2066.1158.331.0288.0731.0588.1462.0881.2108l.0507.1232c.0138.0375.217.5892.5673 1.5358.1465.3958.3194.8626.5145 1.3886.1506.0668.304.1359.4562.204 2.3945 1.072 4.9954 2.306 7.7611 3.7169q1.1909.6069 2.4205 1.2581z" fill="#69b44b"/><path d="m421.983 479.0818c-2.326 6.0507-4.6633 11.9681-6.2551 15.6275a37.9194 37.9194 0 0 1 -3.4751 6.7165c-.325.469-.667.9264-1.0425 1.3723a16.7062 16.7062 0 0 1 -1.1434 1.239 21.62 21.62 0 0 1 -7.8638 4.8058h-11.0531c.5324-.6311 1.0649-1.2565 1.603-1.8876.37-.4342.7454-.8685 1.121-1.2969.3643-.4169.723-.828 1.093-1.2391 2.5166-2.8372 5.1341-5.628 7.8245-8.332.3923-.4.79-.799 1.1882-1.1927.4036-.4.8072-.7933 1.2107-1.1928a189.7689 189.7689 0 0 1 16.7926-14.62z" fill="#00943c"/><path d="m427.2909 465.0756c-.157.4169-.32.8512-.4876 1.297-.0729.1969-.1513.3937-.2242.5964-.1346.359-.2747.7238-.4092 1.0943-.14.3706-.28.7411-.42 1.1175-.28.7411-.5661 1.5054-.8632 2.2813-.2353.6311-.4763 1.268-.7229 1.9165a186.1618 186.1618 0 0 0 -21.3213 18.0419c-.4035.3937-.8072.7933-1.2107 1.1928-.3979.4-.8015.7932-1.1994 1.1927-2.6119 2.6345-5.1677 5.35-7.6284 8.1062-.3643.4053-.7286.8164-1.0873 1.2274-.3811.4285-.7511.857-1.1266 1.2913q-1.7069 1.98-3.3406 3.972c-.1233.1447-.241.2953-.3587.44h-17.7569q1.0761-1.2333 2.1692-2.4318c.3979-.4343.7958-.8628 1.1938-1.2912.3979-.4343.8015-.8628 1.205-1.2854q1.236-1.3114 2.4831-2.5766c.3979-.3995.7958-.7991 1.1938-1.1928s.7959-.7932 1.2-1.1812c1.2218-1.1985 2.4549-2.3623 3.6824-3.4914.42-.3879.8351-.77 1.2555-1.1522.4092-.3648.8128-.7238 1.2219-1.0886q3.7835-3.3524 7.5443-6.3285c.46-.3648.9191-.7238 1.3844-1.0828.4652-.3647.936-.7237 1.4012-1.0769a180.2663 180.2663 0 0 1 26.17-16.6c1.1491-.5906 2.2644-1.158 3.3574-1.6907.9183-.4576 1.815-.8861 2.695-1.2972z" fill="#23a636"/><g fill="#69b44b"><path d="m430.3343 456.9058c-.0335.1042-.084.2432-.1345.3706-.0167.04-.0392.081-.0559.1216l-.05.1216c-.0112.04-.23.6253-.6 1.627q-.2269.608-.5212 1.407c-.1514.0694-.3027.1389-.4541.2026-2.3988 1.0712-5.0051 2.3045-7.7683 3.7173-.796.3995-1.6031.8222-2.4214 1.2564-.8071.4227-1.6254.8685-2.4606 1.32q-1.1519.6426-2.3373 1.3085a183.1365 183.1365 0 0 0 -21.2483 14.1394c-.4709.3648-.9472.7238-1.4181 1.0886-.4652.3647-.9192.7411-1.3732 1.1116q-3.6573 2.9269-7.1407 6.0449c-.4091.3648-.8183.7237-1.2219 1.0943-.4148.3822-.8351.7643-1.25 1.1464q-1.875 1.7372-3.688 3.52c-.398.3938-.796.7875-1.1939 1.187-.398.3937-.8015.7874-1.1938 1.187-.6558.6658-1.2948 1.3433-1.9338 2.0149-.3979.4169-.8015.8338-1.1938 1.2565-.398.4226-.7847.8569-1.1771 1.2853-1.4853 1.6271-2.9482 3.2715-4.3774 4.9564-.1289.1505-.2523.3011-.3812.4516h-14.5618a21.5531 21.5531 0 0 1 -7.8918-4.8289c2.3372-2.814 4.781-5.4659 7.3032-7.9614.398-.3937.79-.7817 1.1939-1.1638.3867-.3764.7735-.7469 1.1659-1.1117q2.5221-2.3623 5.134-4.5279c.4372-.37.88-.7295 1.3229-1.0885s.8855-.7238 1.3339-1.0769c.1233-.0927.2466-.1853.37-.2838.4652-.3647.93-.7237 1.4013-1.0769.46-.3532.93-.7006 1.3956-1.0422q2.186-1.6068 4.4-3.1093c.4933-.33.9808-.6543 1.4741-.9728.482-.3184.97-.6368 1.4573-.9437q2.9678-1.8934 5.9637-3.6015c.5885-.33 1.1713-.66 1.76-.9843s1.1771-.6427 1.7656-.9554a164.4621 164.4621 0 0 1 28.8764-11.9153q2.8334-.8772 5.5377-1.6155 2.7072-.7468 5.2462-1.3606c.6446-.1564 1.2835-.3069 1.9169-.4575.6333-.1447 1.2612-.29 1.8721-.4226 2.3148-.51 4.49-.95 6.5017-1.3144.2242-.0405.4372-.081.6557-.1216z"/><path d="m419.1006 414.5233a18.0546 18.0546 0 0 1 6.3017-.3668 58.3545 58.3545 0 0 0 -4.707-7.726 12.6013 12.6013 0 0 0 -6.3208.969 53.051 53.051 0 0 1 4.7261 7.1238z"/><path d="m403.0062 396.7782a17.5176 17.5176 0 0 1 5.287-2.8688 55.2774 55.2774 0 0 0 -7.5309-4.6784 12.0787 12.0787 0 0 0 -5.2366 3.3433 48.766 48.766 0 0 1 7.4805 4.2039z"/><path d="m396.7067 387.36a53.6253 53.6253 0 0 0 -8.4147-2.6977 12.1041 12.1041 0 0 0 -4.4025 4.4017 47.0208 47.0208 0 0 1 8.34 2.193 17.4918 17.4918 0 0 1 4.4772-3.897z"/><path d="m420.707 417.6578a54.1344 54.1344 0 0 1 3.0267 7.9848 18.5106 18.5106 0 0 1 6.3529 1.0645 58.8762 58.8762 0 0 0 -2.885-8.6715 13.0451 13.0451 0 0 0 -6.4946-.3778z"/><path d="m380.34 388.6279a17.6719 17.6719 0 0 1 3.4966-4.8 53.7534 53.7534 0 0 0 -7.6465-.56c-.403 0-.8008.0227-1.2018.0317a12.2812 12.2812 0 0 0 -3.3383 5.3604c1.4965-.1443 3.0091-.2291 4.5405-.2291 1.3984-.0004 2.7795.0766 4.1495.197z"/><path d="m425.923 441.1005a55.7639 55.7639 0 0 1 -.73 8.9927 23.655 23.655 0 0 1 5.5215 2.54 59.8125 59.8125 0 0 0 1.04-8.486 14.1173 14.1173 0 0 0 -5.8334-3.1255c.0001.0263.0019.0523.0019.0788z"/><path d="m425.793 437.4894a19.1846 19.1846 0 0 1 6.011 2.4691 60.0617 60.0617 0 0 0 -.8688-9.13 13.584 13.584 0 0 0 -6.3386-1.7675 55.2971 55.2971 0 0 1 1.1964 8.4284z"/><path d="m412.0947 404.7127a17.6874 17.6874 0 0 1 5.92-1.6912 57.21 57.21 0 0 0 -6.2816-6.377 12.2821 12.2821 0 0 0 -5.8742 2.212 51.1838 51.1838 0 0 1 6.2358 5.8562z"/><path d="m328.1192 427.6055a54.2907 54.2907 0 0 1 2.8208-8.3155 19.0454 19.0454 0 0 1 -3.735-5.5928 58.73 58.73 0 0 0 -3.6458 8.6771 13.6589 13.6589 0 0 0 4.56 5.2312z"/><path d="m370.43 383.5782a53.3728 53.3728 0 0 0 -8.7711 1.7041 12.5827 12.5827 0 0 0 -2.0309 6.1628 47.0766 47.0766 0 0 1 8.4568-2.3039 17.9792 17.9792 0 0 1 2.3452-5.563z"/><path d="m326.4884 439.8072a55.6479 55.6479 0 0 1 .8734-8.67 19.03 19.03 0 0 1 -5.0527-4.4935 59.6128 59.6128 0 0 0 -1.5309 9.3449 13.7414 13.7414 0 0 0 5.7102 3.8186z"/><path d="m326.51 443.3957a18.94 18.94 0 0 1 -5.9431-3.029c-.0029.2453-.0179.4877-.0179.7338a60.0173 60.0173 0 0 0 1.1172 11.5324 23.6519 23.6519 0 0 1 5.5214-2.54 55.6017 55.6017 0 0 1 -.6776-6.6972z"/><path d="m337.1576 408.52a18.967 18.967 0 0 1 -2.178-6.2353 58 58 0 0 0 -5.5336 7.5051 13.5648 13.5648 0 0 0 3.0332 6.2062 53.1919 53.1919 0 0 1 4.6784-7.476z"/><path d="m345.7551 399.4891a18.7562 18.7562 0 0 1 -.5533-6.3968 56.4482 56.4482 0 0 0 -7.0835 5.8909 13.345 13.345 0 0 0 1.3083 6.6838 51.3929 51.3929 0 0 1 6.3285-6.1779z"/><path d="m356.2808 392.8493a18.3411 18.3411 0 0 1 .9951-6.1353 54.4016 54.4016 0 0 0 -8.1886 3.9053 12.9725 12.9725 0 0 0 -.4429 6.6549 48.9122 48.9122 0 0 1 7.6364-4.4249z"/></g><path d="m386.2183 446.8154a6.8521 6.8521 0 0 0 -1.9765 2.5142 7.0128 7.0128 0 0 0 -.3429.9384 10.3249 10.3249 0 0 0 -1.7538 1.1557 1.7614 1.7614 0 0 1 -1.2356.3907 13.7043 13.7043 0 0 0 -2.1582.0338 7.8809 7.8809 0 0 0 -1.6314-.9506 8.1425 8.1425 0 0 0 -4.52-.5874 6.1865 6.1865 0 0 1 5.3748-1.0649 5.6226 5.6226 0 0 1 2.4558 1.6717 8.33 8.33 0 0 0 -.2372-2.1846 7.8955 7.8955 0 0 0 -.7683-1.9688 6.2838 6.2838 0 0 1 2.8547 3.376 4.3205 4.3205 0 0 1 .8248-1.7628 4.3757 4.3757 0 0 1 3.1138-1.5614z" fill="#00943c"/><path d="m398.6553 445.5844a5.578 5.578 0 0 1 2.7387-.897 5.4888 5.4888 0 0 1 2.2043.345 7.8347 7.8347 0 0 1 -.334 1.449 7.7415 7.7415 0 0 1 -.8683 1.7941 3.8661 3.8661 0 0 0 3.0058-1.5181 3.5967 3.5967 0 0 0 .6012-1.587 3.6066 3.6066 0 0 1 1.87.138 4.1545 4.1545 0 0 1 2.3378 2.4151 4.155 4.155 0 0 0 -.6679-2.76 4.0886 4.0886 0 0 0 -3.34-1.6561 3.5292 3.5292 0 0 1 1.336-.897 3.65 3.65 0 0 1 2.7387.138 4.5676 4.5676 0 0 0 -4.1414-1.2421 4.1163 4.1163 0 0 0 -2.1375 1.5181 2.8143 2.8143 0 0 0 -1.2692-1.4491 2.8717 2.8717 0 0 0 -2.6718.138 6.943 6.943 0 0 1 1.4695.7591 7.0463 7.0463 0 0 1 .9351.759 4.2662 4.2662 0 0 0 -2.2043.69 4.484 4.484 0 0 0 -1.6027 1.863z" fill="#00943c"/><path d="m355.7992 459.405a5.487 5.487 0 0 0 -4.9388.6133 8.3916 8.3916 0 0 0 .4437.9908q-2.339-.8291-4.6126-1.55l-2.2509-.7076a2.357 2.357 0 0 0 -.2674-.0809 4.3424 4.3424 0 0 1 3.399-1.6916 4.028 4.028 0 0 1 2.414.9772 2.6786 2.6786 0 0 1 3.5557-2.19 7.1707 7.1707 0 0 0 -1.2657 1.0784 7.075 7.075 0 0 0 -.7438.957 4.2323 4.2323 0 0 1 2.2965.1618 4.41 4.41 0 0 1 1.9703 1.4416z" fill="#00943c"/><path d="m369.0563 468.3958q-5.1474-2.5173-10.6344-4.7111a15.664 15.664 0 0 0 4.8018-8.2089 18.0838 18.0838 0 0 0 6.1458 3.5653 15.3568 15.3568 0 0 0 -.3132 9.3547z" fill="#3c052d"/><path d="m400.2811 461.3393q-1.6147.5763-3.2034 1.18-1.5561.5761-3.0794 1.1929c-.0653.027-.124.0472-.1893.0741-.4827.1955-.9655.3909-1.4418.5864-.4632.1887-.9329.3841-1.39.58-.5937.2494-1.1744.4987-1.7616.7548-.672.2966-1.3374.5931-2.0029.89-1.5919.7211-3.1577 1.4557-4.6974 2.2241-1.1809.5728-2.3487 1.1659-3.4969 1.7657-.0979.0472-.1892.1012-.2806.1483-.274.1415-.548.29-.822.4313-.5742.31-1.1418.62-1.7094.93q-1.8594-1.0311-3.7774-2.0151a21.4244 21.4244 0 0 0 14.9142-7.4137 22.3793 22.3793 0 0 0 4.88-12.219 15.5619 15.5619 0 0 1 8.0579 10.8902z" fill="#92063d"/><path d="m322.07 381.25c-.903 8.0674-9.6663 13.185-17.0369 12.4164-6.0288-.6373-12.471-5.3476-13.8064-11.9894a16.7841 16.7841 0 0 0 11.7332 7.1017c7.3706.7686 16.1339-4.349 17.0369-12.4164a13.8094 13.8094 0 0 0 -.337-4.8023 15.3048 15.3048 0 0 1 2.4102 9.69z" fill="#92063d"/><path d="m319.9968 376.3625c-.903 8.0674-9.6663 13.185-17.0369 12.4164a16.7841 16.7841 0 0 1 -11.7332-7.1017 12.3356 12.3356 0 0 1 -.229-1.6949c-.2925-4.4279 1.6344-10.255 6.4676-12.712a10.7073 10.7073 0 0 1 6.8046-.9 13.448 13.448 0 0 1 2.0351.5519 1.7028 1.7028 0 0 0 1.2591-.0328 9.8619 9.8619 0 0 1 1.94-.611 8.0529 8.0529 0 0 1 2.9059-.0784c2.8808.46 5.4691 2.5621 7.25 5.3607a13.8094 13.8094 0 0 1 .3368 4.8018z" fill="#e80007"/><path d="m312.5563 363.6636a6.5082 6.5082 0 0 0 -2.4929 1.8263 6.6737 6.6737 0 0 0 -.56.7884 9.8619 9.8619 0 0 0 -1.94.611 1.7028 1.7028 0 0 1 -1.2591.0328 13.448 13.448 0 0 0 -2.0351-.5519 7.8742 7.8742 0 0 0 -1.291-1.3336 8.0335 8.0335 0 0 0 -4.0955-1.7737 6.002 6.002 0 0 1 5.3165.4533 5.6228 5.6228 0 0 1 1.8824 2.2336 8.1067 8.1067 0 0 0 .3308-2.1154 7.79 7.79 0 0 0 -.2227-2.0562 6.2657 6.2657 0 0 1 1.8252 3.9417 4.1143 4.1143 0 0 1 1.2211-1.4322 4.2077 4.2077 0 0 1 3.3203-.6241z" fill="#00943c"/><path d="m324.3337 386.9328a5.65 5.65 0 0 1 -.6233.8475 6.5658 6.5658 0 0 1 -1.6152 1.3336 14.551 14.551 0 0 1 -1.94 4.4279 12.9783 12.9783 0 0 1 -1.4054 1.7869 12.7923 12.7923 0 0 1 -2.4739 2.05 10.87 10.87 0 0 1 -1.31 1.9642v.0066a9.4869 9.4869 0 0 1 -1.9205 1.7409 8.8987 8.8987 0 0 1 -3.9811 1.4388c-5.679.762-12.0766-1.4519-12.7125-1.6818-8.1656-2.8906-7.7713-4.6578-12.49-5.387-6.0479-.9263-8.3373 1.7278-10.6585 0a5.5933 5.5933 0 0 1 -1.9332-3.6c-.636-3.0745-.4134-8.363 1.717-17.4881a41.8232 41.8232 0 0 0 11.7332-1.3139 31.4371 31.4371 0 0 1 7.3134-1.11h.0063c3.1544-.0132 3.5041.5387 7.3834.8146 5.0176.3482 7.218-.65 7.7522.473.6614 1.3993-1.1256 4.5592-3.4469 5.7549-.903.46-1.52.4336-3.93.6569-2.2767.2037-4.1082.4337-5.272.5979-1.0239.4927-2.0541.9854-3.078 1.4716a16.5675 16.5675 0 0 0 13.5838 11.9105 15.0393 15.0393 0 0 0 7.0717-.9986 25.19 25.19 0 0 1 .56-4.776c.4261-2.1154.8649-3.37 1.8887-4.014a2.99 2.99 0 0 1 1.9206-.3942c.0763.0132.159.0263.2353.0329a6.5127 6.5127 0 0 1 .3053-3.5542v-.0065a3.45 3.45 0 0 1 1.3673-1.7212 2.9034 2.9034 0 0 1 1.8442-.3745 5.6182 5.6182 0 0 1 -.14-1.6358 3.734 3.734 0 0 1 .8521-2.26 4.6192 4.6192 0 0 1 .3816-.381 1.607 1.607 0 0 1 1.4182-.4862c.6741.1971 1.0684 1.1562 1.5707 4.1585.8459 5.104 1.2401 7.699.0255 9.7158z" fill="#a76242"/><path d="m318.9221 392.2679c-.0509.8986-.1145 1.9245-.1717 3.0636a12.6181 12.6181 0 0 1 -2.4738 2.0448 24.9094 24.9094 0 0 0 1.1-5.4056 25.7106 25.7106 0 0 0 -.6678-8.49 6.5336 6.5336 0 0 1 .3053-3.5589 11.9864 11.9864 0 0 1 1.8379 3.8915c.5216 1.9382.3753 3.3391.0701 8.4546z" fill="#96553c"/><path d="m323.7108 387.7821a6.517 6.517 0 0 1 -1.6153 1.33 14.4665 14.4665 0 0 0 .3943-2.6816 15.43 15.43 0 0 0 -2.264-8.6108 5.592 5.592 0 0 1 -.14-1.6344 12.2713 12.2713 0 0 1 2.2432 2.9308 13.7836 13.7836 0 0 1 1.3818 8.666z" fill="#96553c"/><path d="m314.9662 399.3426v.0066a9.4869 9.4869 0 0 1 -1.9205 1.7409 8.8987 8.8987 0 0 1 -3.9811 1.4388c-5.679.762-12.0766-1.4519-12.7125-1.6818-8.1656-2.8906-7.7713-4.6578-12.49-5.387-6.0479-.9263-8.3373 1.7278-10.6585 0a5.5933 5.5933 0 0 1 -1.9332-3.6 28.9674 28.9674 0 0 1 11.4534-.2891 47.3744 47.3744 0 0 1 11.377 3.9877c4.6106 2.2468 5.4246 3.4884 8.509 4.4147 2.7602.8343 6.7982 1.2547 12.3564-.6308z" fill="#96553c"/><path d="m279.01 389.7577c-.0063.8409-.0381 1.6621-.089 2.457a41.0475 41.0475 0 0 1 -1.2846 7.8966c-.1145.4664-.2417.9066-.3689 1.3336-.35 1.176-.7122 2.2139-1.0556 3.0942a153.9578 153.9578 0 0 1 -37.9851 1.2679c-14.6522-1.34-23.867-2.3255-31.0787-9.6768-4.6169-4.71-6.6138-10.1828-9.87-19.1173a105.7618 105.7618 0 0 1 -3.1481-10.1829c2.2-3.7971 4.14-7.3184 5.838-10.5046.2989-.5584.5851-1.1037.8649-1.6358a.232.232 0 0 1 .0318-.0526c2.5438-4.8549 4.5406-8.9608 6.1178-12.4361q1.0875-2.4143 1.9333-4.4476a75.357 75.357 0 0 0 4.0192-12.0353c.3879-1.6424.7249-3.265 1.0047-4.8549.2163-1.1956.4007-2.3715.566-3.5344a93.7493 93.7493 0 0 0 .5978-19.9516l1.062-.335q4.6362 15.54 9.482 31.3037 6.3531 20.6349 12.827 40.77a128.895 128.895 0 0 1 25.4061 1.5307c4.1972.67 8.1337 1.5176 11.7777 2.457a41.911 41.911 0 0 1 2.4865 7.9491c.0891.4205.1718.8541.2481 1.2942a41.3973 41.3973 0 0 1 .6105 6.53c.0066.2897.0066.5853.0066.8809z" fill="#fff"/><path d="m278.3933 382.3473c-2.4166.1971-4.8269.2891-7.2371.2891a89.8782 89.8782 0 0 1 -18.2644-1.8658c-7.8412-1.6226-12.5726-2.6015-17.5775-6.2673-2.4229-1.7737-8.8588-6.4841-17.1578-36.4279-1.5644-5.6367-2.9763-11.3982-4.2164-17.2122q-1.1256-5.2818-2.0668-10.61l1.2465-.2365q.6486 3.6657 1.3863 7.3118c1.3928 6.8915 3.0271 13.7238 4.8714 20.3852 7.3324 26.4423 13.0242 33.0512 16.6745 35.7185 4.7823 3.5015 9.1513 4.4081 17.0878 6.0505a88.9333 88.9333 0 0 0 25.0054 1.57c.0891.4209.1718.8545.2481 1.2946z" fill="#92063d"/><path d="m279.01 389.7577c-.0063.8409-.0381 1.6621-.089 2.457a162.6376 162.6376 0 0 1 -22.8432 1.7081q-5.2656 0-10.226-.4073c-4.0828-.335-8.8524-.9395-13.8572-3.9483-7.0908-4.257-10.48-10.6886-13.1-16.3843a287.9516 287.9516 0 0 1 -11.9113-30.9819c-1.6726-5.1374-3.2815-10.4586-4.795-15.9048l3.0589-.9131q1.7551 6.3165 3.6694 12.37a291.6259 291.6259 0 0 0 12.8524 34.017c2.4167 5.249 5.52 11.1682 11.8223 14.9588 4.4262 2.6606 8.6107 3.1928 12.509 3.5147a146.4252 146.4252 0 0 0 32.9039-1.3665c.0058.2894.0058.585.0058.8806z" fill="#92063d"/><path d="m277.6365 400.1113c-.1145.4664-.2417.9066-.3689 1.3336-3.6694.1839-7.3451.2694-11.0018.2694q-2.1177 0-4.2291-.0395c-20.1531-.381-32.3187-.6175-42.1059-8.698-5.3484-4.4147-8.2292-9.6375-11.8859-16.253a86.69 86.69 0 0 1 -8.0765-20.3983q-.6582-2.5522-1.1638-5.1637l1.2465-.2562q.3626 1.8822.814 3.7315a85.2966 85.2966 0 0 0 8.28 21.43c3.733 6.7535 6.4231 11.6281 11.5806 15.8851 9.45 7.8046 20.7763 8.0214 41.3365 8.409 5.1639.0988 10.3723.0128 15.5743-.2499z" fill="#92063d"/><path d="m245.6456 457.7785c-2.7091 8.3564-12.6553 12.8762-32.44 21.5808-8.96 3.9483-16.6109 6.7141-21.9974 8.5207a27.6267 27.6267 0 0 1 -9.5837-6.8389q-.4864-.5616-.9539-1.1628c-.0636-.0722-.1272-.1511-.1844-.23a29.8791 29.8791 0 0 1 -2.6328-4.2308c-.1972-.3679-.3816-.7226-.566-1.0642-.1272-.2431-.2544-.4731-.3879-.703-.0509-.092-.1018-.1774-.1527-.2693a11.117 11.117 0 0 0 -.8839-1.3139c-.0764-.0986-.1527-.1971-.2353-.2891-.0636-.0854-.14-.1642-.2162-.25a7.4248 7.4248 0 0 0 -1.52-1.2547 8.9345 8.9345 0 0 0 -4.3944-1.3008c.1463-.4861.2926-.9854.4388-1.4913.21-.7029.4134-1.419.63-2.1548 3.4786-12.1338 7.37-27.7364 8.2609-39.601.0127-.1708.0254-.3482.0381-.519.0191-.2759.0382-.5518.0509-.8277a31.64 31.64 0 0 0 -1.1892-11.7266c-.2417-.7358-.5151-1.4716-.8394-2.2074-.299-.67-.636-1.34-1.0112-2.0037a.8664.8664 0 0 0 -.0636-.0985c-.0445-.0789-.089-.1511-.1336-.23a23.1281 23.1281 0 0 0 -3.39-4.4082 24.23 24.23 0 0 0 -2.2887-2.0755 26.57 26.57 0 0 0 -2.1941-1.57.0472.0472 0 0 0 -.0254-.0131c-.61-.3942-1.1765-.7227-1.6916-1.0051.0509-.2168.1017-.4271.1526-.6373q.105-.4337.21-.8672c.07-.3087.1462-.6109.2225-.9131.0954-.3942.1908-.7818.2926-1.1694.1335-.5518.2734-1.1037.4134-1.649.0127-.046.0254-.0854.0381-.1313q.41-1.5768.82-3.0943c.1717-.6307.3434-1.2548.5215-1.8723.1526-.5387.3052-1.0774.4578-1.6029.1272-.4468.2544-.8935.388-1.3337.0636-.2168.1272-.427.1907-.6372.1527-.5124.3053-1.0117.4579-1.511s.3053-.992.4579-1.4782c.3116-.992.6232-1.9577.9348-2.9037.1527-.4533.2989-.9.4516-1.34.5405-1.5964 1.0811-3.1271 1.6216-4.6053.5469-1.4715 1.0811-2.884 1.6217-4.2439.2925-.7358.5851-1.4518.8712-2.1548a.955.955 0 0 1 .0509-.1182q.9063-2.1779 1.787-4.152c.3053-.69.6169-1.3664.9221-2.0168.2481-.5321.4961-1.0511.7377-1.557.3371-.7095.6742-1.3927 1.0048-2.0562 3.1671-6.3462 9.641-18.099 6.7729-31.514-.0318-.1708-.07-.3351-.1081-.4927-.1082-.48-.2163-.92-.3244-1.3008-.0254-.1051-.0572-.2036-.089-.3022a1.6778 1.6778 0 0 0 -.0445-.1708c-.0191-.0525-.0318-.1051-.0446-.1511-.019-.0722-.0445-.1379-.0635-.2036-.0255-.0789-.0446-.1577-.07-.23.0636-.0919.1208-.19.1844-.2824.0636-.1052.1336-.2037.1972-.3022.21-.3285.426-.6438.6359-.9592.0891-.1314.1844-.2628.2735-.3876.1208-.1774.248-.3548.3688-.5255l.4388-.611c.0827-.1117.1654-.2168.248-.3285.2989-.4008.5978-.7949.89-1.1694.0509-.0657.1017-.1314.1526-.19.0318-.0394.0572-.0723.0827-.1051.2353-.2956.4706-.5781.7-.854.3307-.3942.655-.7752.9794-1.1366.3752-.42.744-.8277 1.1129-1.2153a45.8189 45.8189 0 0 1 5.0684-4.5987c.4707-.3679.954-.7424 1.4564-1.1234q.4578-.3548.9348-.7095c.4134-.3153.8331-.6307 1.2528-.9526.28-.21.56-.427.8458-.6372 2.2513-1.6752 4.528-3.3505 6.3913-4.71.3752-.2693.725-.5321 1.062-.7686a1.3057 1.3057 0 0 1 .1145-.0854c.0318-.02.0636-.0394.089-.0591v-.0066c1.8-1.3073 2.989-2.1548 2.989-2.1548.6677-.473 1.3037-.9328 1.8887-1.38.0827 1.0511.1463 2.1548.1908 3.3045a92.1139 92.1139 0 0 1 -2.3593 25.0364c-.9285 3.9286-3.0462 11.72-12.1021 28.9716-1.8951 3.6066-4.1209 7.68-6.7029 12.14-4.6169 7.9557-10.385 17.1267-17.4885 27.0467 3.1607.6832 6.9509 1.6161 11.1227 2.9169 1.4691.46 2.989.9657 4.5407 1.5176s3.1416 1.1562 4.7632 1.8131c2.4865 1.0117 5.0367 2.1482 7.6123 3.4359a86.6366 86.6366 0 0 1 28.3887 22.1394q2.1083 2.5521 4.0573 5.38c4.458 6.5038 11.6696 17.0019 8.5217 26.6985z" fill="#fff"/><path d="m230.8026 448.0227c-.6423 14.1836-20.452 27.2438-49.1777 33.0184q-.4864-.5616-.9539-1.1628c28.1406-5.5578 48.2556-18.4538 48.8661-31.9147a16.1262 16.1262 0 0 0 -1.5581-7.4235c-3.04-6.76-10.01-12.942-16.35-18.5786a96.36 96.36 0 0 0 -43.8231-21.9028c-.6105-.1314-1.221-.2562-1.8379-.3744l.1209-.6438.1208-.6439c.0127 0 .0191.0066.0318.0066.6423.1248 1.2782.2562 1.9142.3942a97.527 97.527 0 0 1 44.3 22.1655c6.6647 5.9192 13.9971 12.4361 16.9861 19.7283a17.1435 17.1435 0 0 1 1.3608 7.3315z" fill="#92063d"/><path d="m201.0594 461.6151c-6.15 5.1833-14.4232 9.598-23.7716 12.7383-.1272-.2431-.2544-.4731-.3879-.703-.0509-.092-.1018-.1774-.1527-.2693a11.117 11.117 0 0 0 -.8839-1.3139c-.0764-.0986-.1527-.1971-.2353-.2891-.0636-.0854-.14-.1642-.2162-.25 22.7223-7.2593 34.2329-20.4114 33.5334-29.9109-.6232-8.4747-10.5059-15.8063-17.7238-21.16a68.2518 68.2518 0 0 0 -13.4948-7.8046 69.1236 69.1236 0 0 0 -10.6394-3.6395l.7632-3.1928a71.2769 71.2769 0 0 1 7.962 2.5227c.3752.1445.7441.2825 1.1129.4336a71.3065 71.3065 0 0 1 16.1467 9.0134c5.6535 4.1914 12.84 9.5193 16.5727 15.9968a17.7626 17.7626 0 0 1 2.4675 7.5812c.4897 6.622-3.4405 13.8155-11.0528 20.2471z" fill="#92063d"/><path d="m169.939 467.4816c.21-.7029.4134-1.419.63-2.1548 14.9574-12.1733 20.2866-25.9627 16.4837-33.4125-.8522-1.6752-2.9826-4.3687-8.2228-6.1885a31.4982 31.4982 0 0 0 -5.1639-1.2745l.2035-1.2942a32.6284 32.6284 0 0 1 5.0494 1.222c5.8825 1.9643 8.2991 5.0322 9.2594 6.9242 4.1651 8.1594-1.6919 23.3021-18.2393 36.1783z" fill="#92063d"/><path d="m193.787 325.7247a72.0094 72.0094 0 0 1 -11.5933 37.6827c-.5341.0329-1.062.0723-1.59.1051a71.0345 71.0345 0 0 0 11.9112-37.8075 66.7526 66.7526 0 0 0 -.6168-9.9266c.3752-.42.744-.8277 1.1129-1.2153a67.8689 67.8689 0 0 1 .776 11.1616z" fill="#92063d"/><path d="m210.2262 300.9116a118.8747 118.8747 0 0 1 -17.0179 61.9111c-.5087.02-1.0239.0394-1.539.0657a117.6145 117.6145 0 0 0 17.2914-61.0571c.4515-.3284.8712-.6372 1.2655-.9197z" fill="#92063d"/><path d="m202.4868 322.9589a99.68 99.68 0 0 1 -12.4519 40.0083c-1.1574.0592-2.3212.1183-3.4913.184-.1018.0066-.21.0132-.3116.02a96.6581 96.6581 0 0 0 13.088-40.5145 93.56 93.56 0 0 0 .2163-13.8157c.9793-.7489 2.0032-1.5241 3.0334-2.2993a97.5832 97.5832 0 0 1 -.0829 16.4172z" fill="#92063d"/><path d="m215.2919 300.6817c-.0636.0525-.1272.1051-.1908.1511-.585.4467-1.221.9066-1.8887 1.38 0 0-1.1892.8474-2.989 2.1548-.3942.2825-.814.5912-1.2655.92-1.8633 1.36-4.14 3.0351-6.3913 4.71-1.03.7753-2.0541 1.55-3.0334 2.2994-.5024.381-.9857.7555-1.4564 1.1234a45.8167 45.8167 0 0 0 -5.0684 4.5986c-.3689.3877-.7377.795-1.1129 1.2154a52.5046 52.5046 0 0 0 -3.4914 4.395c-.337.4664-.6677.9526-.9984 1.4519-.2353-1.0315-.4833-1.8723-.6614-2.45.0636-.0919.1208-.19.1844-.2824.49-.7621.9794-1.4848 1.4754-2.1745l.4388-.611c.0827-.1117.1654-.2168.248-.3285.2989-.4008.5978-.7949.89-1.1694.0509-.0657.1017-.1314.1526-.19.0318-.0394.0572-.0723.0827-.1051.2353-.2956.4706-.5781.7-.854.3307-.3942.655-.7752.9794-1.1366.3752-.42.744-.8277 1.1129-1.2153a45.8189 45.8189 0 0 1 5.0684-4.5987c.4707-.3679.954-.7424 1.4564-1.1234q.4578-.3548.9348-.7095c.4134-.3153.8331-.6307 1.2528-.9526.28-.21.56-.427.8458-.6372 2.2513-1.6752 4.528-3.3505 6.3913-4.71.3752-.2693.725-.5321 1.062-.7686a1.3057 1.3057 0 0 1 .1145-.0854.78.78 0 0 1 .089-.0657c1.8-1.3073 2.989-2.1548 2.989-2.1548.6677-.473 1.3037-.9328 1.8887-1.38.0826 1.0497.1462 2.1534.1907 3.3031z" fill="#333" opacity=".2"/><path d="m182.5343 357.7905a181.5971 181.5971 0 0 0 -12.8588 35.0155q-.9061 3.37-1.7679 7.0293l-.1272.21c-.61-.3942-1.1765-.7227-1.6916-1.0051.1208-.5059.2416-1.0052.3625-1.5045.07-.3087.1462-.6109.2225-.9131.0954-.3942.1908-.7818.2926-1.1694.1335-.5518.2734-1.1037.4134-1.649.0127-.046.0254-.0854.0381-.1313q.41-1.5768.82-3.0943c.1717-.6307.3434-1.2548.5215-1.8723.1526-.5387.3052-1.0774.4578-1.6029.1272-.4468.2544-.8935.388-1.3337.0636-.2168.1272-.427.1907-.6372.1527-.5124.3053-1.0117.4579-1.511s.3053-.992.4579-1.4782c.3116-.992.6232-1.9577.9348-2.9037.1527-.4533.2989-.9.4516-1.34q1.6121-4.7892 3.2433-8.8492c.2925-.7358.5851-1.4518.8712-2.1548a.955.955 0 0 1 .0509-.1182q.8967-2.1779 1.787-4.152c.3053-.69.6169-1.3664.9221-2.0168.2481-.5321.4961-1.0511.7377-1.557.3371-.7095.6742-1.3927 1.0048-2.0562 3.1671-6.3462 9.641-18.099 6.7729-31.514-.14-.6766-.2926-1.281-.4325-1.7935q-.0668-.2463-.1335-.473c-.0191-.0525-.0318-.1051-.0446-.1511-.019-.0722-.0445-.1379-.0635-.2036-.0255-.0789-.0446-.1577-.07-.23.0636-.0919.1208-.19.1844-.2824.0636-.1052.1336-.2037.1972-.3022.4769.4467.9539.9065 1.4372 1.38.2035.65.49 1.6359.7441 2.8512 2.8685 13.4147-3.6054 25.1675-6.7725 31.5137z" fill="#333" opacity=".2"/><path d="m192.3025 398.3113q-2.3276-.7293-4.5407-1.5176c1.4691.4598 2.989.9657 4.5407 1.5176z" fill="#fff"/><path d="m245.6456 457.7785c-2.7091 8.3564-12.6553 12.8762-32.44 21.5808-8.96 3.9483-16.6109 6.7141-21.9974 8.5207-.2162-.0985-.4388-.1971-.655-.3022-.1717-.0789-.35-.1643-.5214-.25-.2862-.138-.566-.2826-.8522-.4336-.2481-.1314-.5024-.2694-.75-.4139-.3053-.1708-.6106-.3548-.9158-.5387s-.6042-.381-.9094-.5847c-.2989-.1971-.5978-.4073-.89-.6241-.2353-.1708-.4706-.3416-.7-.5256-.1526-.1182-.3116-.2431-.4642-.3678-.1971-.1578-.388-.322-.5787-.4862-.2353-.2037-.4706-.4139-.7-.6307-.3752-.3482-.744-.7161-1.1065-1.0971-.1844-.1905-.3625-.3876-.5406-.5847q-.4864-.5616-.9539-1.1628c-.0636-.0722-.1272-.1511-.1844-.23a29.8791 29.8791 0 0 1 -2.6328-4.2308c-.1972-.3679-.3816-.7226-.566-1.0642-.1272-.2431-.2544-.4731-.3879-.703-.0509-.092-.1018-.1774-.1527-.2693a11.117 11.117 0 0 0 -.8839-1.3139c-.0764-.0986-.1527-.1971-.2353-.2891-.0636-.0854-.14-.1642-.2162-.25a7.4248 7.4248 0 0 0 -1.52-1.2547 8.9345 8.9345 0 0 0 -4.3944-1.3008c.1463-.4861.2926-.9854.4388-1.4913.21-.7029.4134-1.419.63-2.1548 3.4786-12.1338 7.37-27.7364 8.2609-39.601.0127-.1708.0254-.3482.0381-.519.0191-.2759.0382-.5518.0509-.8277a31.64 31.64 0 0 0 -1.1892-11.7266c-.1717-.5322-.3625-1.0577-.5787-1.5833-.07-.1774-.1463-.3547-.2226-.5321-.0127-.0263-.0254-.0591-.0381-.092-.299-.67-.636-1.34-1.0112-2.0037a.8664.8664 0 0 0 -.0636-.0985c-.0445-.0789-.089-.1511-.1336-.23a23.1281 23.1281 0 0 0 -3.39-4.4082 24.23 24.23 0 0 0 -2.2886-2.0751 26.57 26.57 0 0 0 -2.1941-1.57.0472.0472 0 0 0 -.0254-.0131c-.61-.3942-1.1765-.7227-1.6916-1.0051a176.4021 176.4021 0 0 0 21.673-2.2468q2.2131.7883 4.5407 1.5176 2.3275.8277 4.7632 1.8131c2.4865 1.0117 5.0367 2.1482 7.6123 3.4359a86.6366 86.6366 0 0 1 28.3885 22.1396q2.1083 2.5521 4.0573 5.38c4.458 6.5038 11.6696 17.0019 8.5217 26.6985z" fill="#333" opacity=".15"/><path d="m180.7155 356.9956c-4.6106 9.21-10.01 22.5334-14.6267 42.0449a24.9567 24.9567 0 0 1 9.7872 9.4009c3.1543 5.5447 3.3578 11.3259 2.9889 16.7654-.8967 13.1391-5.609 31.0869-9.3675 43.7661-2.2576 7.5812-4.1718 13.277-4.7314 14.9325-2.2195-.2825-4.4453-.5715-6.6647-.8474-.3434-.046-.68-.0854-1.0239-.1314-.0954-.0132-.1844-.0263-.28-.0329-1.0048-.1379-2.0159-.2628-3.0207-.3876-2.582-.3285-5.17-.6635-7.7522-.9854-.5533-.0723-1.1-.138-1.6535-.21-.1589-.02-.3116-.0395-.4706-.0591-.3879-.0526-.7822-.0986-1.1765-.1512l-5.7235-.7292q2.3468-17.4321 4.7-34.8644-7.9082 17.2155-15.81 34.4243-1.8794-.5322-3.7585-1.0577c-1.2146-.3416-2.423-.69-3.6376-1.0314-.21-.0592-.4261-.1183-.6359-.1774-.2163-.0592-.4262-.1183-.6424-.184-.2162-.0591-.426-.1182-.6423-.1773-1.59-.44-3.1924-.8935-4.7823-1.3468a64.48 64.48 0 0 0 7.2625-22.9473c.5469-4.8154.2608-7.7126-1.2782-10.15-2.5947-4.1059-7.4406-4.822-10.6839-5.7352 0 0-12.5155-3.5344-22.64-19.4195-5.838-9.1645-4.776-19.5574-2.1114-31.0212.7568-3.2519 1.6408-6.5958 2.5375-10.0185a614.5746 614.5746 0 0 1 23.9052-72.3435c.2671-.6635.5342-1.327.8013-1.9971.4452-1.1037.89-2.2074 1.3482-3.3242.5787.2168 1.1956.4336 1.8569.65.89.3022 1.7744.5781 2.6392.8277.4388.1314.8649.2562 1.291.3679.3752.1052.7441.21 1.1129.3022.0954.0263.1908.0526.2862.0723.14.0394.28.0722.4134.1051q.5819.1478 1.1446.2759c.28.0657.56.1314.8331.19.28.0657.5533.1249.8268.1774.5469.1183 1.0811.23 1.6152.3219.5215.1052 1.043.1971 1.5581.2759a.2713.2713 0 0 0 .0636.0132q.6391.1083 1.2592.1971 1.1447.1675 2.2512.2956c.3753.046.7441.0854 1.1066.1248.2862.0329.566.0592.8458.0854.2989.0329.5978.0592.89.0789.1018.0065.2035.02.2989.0262.0382 0 .0827.0066.1208.0066.56.046 1.1066.0854 1.6535.1182h.0254c.1145.0066.229.0132.3371.02.6614.0394 1.3164.0656 1.9587.0919 2.5883.0986 5.0176.0986 7.2943.092.4325 0 .8585-.0065 1.2846-.0065.884 0 1.7425 0 2.5819.0065.7632.0131 1.5073.0263 2.2322.0526.3625.0131.725.0328 1.0748.0525.3561.02.7059.0394 1.0493.0657.1526.0132.3116.0263.4706.0394.8712.0789 1.7806.184 2.7219.3285h.0127c.3752.0591.7631.1248 1.151.1971h.0191c.3816.0723.7632.1511 1.1574.2365.3116.0591.63.1314.9476.21.21.046.42.092.63.1511.407.0986.82.21 1.2464.3285.5088.138 1.0239.2956 1.5517.4664a.4044.4044 0 0 1 .0827.0263c.1972.0591.3879.1248.5851.19.248.0854.5024.1708.7568.2628.1335.046.267.092.4006.1445.5469.1971 1.1.4073 1.66.6373a.7425.7425 0 0 1 .1081.046c.3689.1511.7377.3021 1.1066.4664q1.4308.6209 2.919 1.373c.1653.092.337.1774.5087.2694.3879.2036.7822.4138 1.1765.6307.3689.197.7441.4138 1.1193.6306.2226.1249.4515.2562.6741.3942.0572.0328.1208.0722.1781.1051.585.3548 1.17.7161 1.7615 1.0971.4643.3022.9349.6176 1.4118.94.3244.2233.6551.4467.9794.6766.1463.1051.2861.21.4324.3154.3943.2824.795.5715 1.1956.8737.3053.23.6169.46.9285.7029.496.3811.9921.7687 1.4881 1.176.1208.0985.248.1971.3688.2956.2862.2365.5788.48.8713.7227.3879.3219.7695.6569 1.1638.9985q2.0317 1.764 4.1209 3.81c.2035.65.49 1.6358.7441 2.8512a32.0184 32.0184 0 0 1 .5914 4.0008c1.0051 11.7277-4.5149 21.8054-7.364 27.5143z" fill="#fff"/><path d="m118.4974 477.8418c-.21-.0592-.4261-.1183-.636-.1774-.2162-.0592-.4261-.1183-.6423-.184 13.1705-22.77 16.789-39.5419 10.76-49.8757-3.7648-6.4513-10.2-8.9674-17.0179-11.6346-7.4533-2.91-15.1609-5.9257-19.0656-14.4989-3.7521-8.2251-1.5136-15.7537 3.9047-33.9513l.5659-1.8986c5.819-19.564 11.7269-40.2316 17.5712-61.4381l1.2274.3548c-5.8507 21.2195-11.765 41.8938-17.5839 61.4643l-.566 1.9052c-5.3165 17.8494-7.5105 25.24-3.9683 33.0053 3.6885 8.0936 10.8175 10.8791 18.36 13.8288 6.7219 2.6278 13.6728 5.341 17.66 12.18 6.2579 10.7344 2.6966 27.8484-10.5692 50.9202z" fill="#92063d"/><path d="m146.0275 481.5207c-.5533-.0723-1.1-.138-1.6535-.21-.1589-.02-.3116-.0395-.4706-.0591-.3879-.0526-.7822-.0986-1.1765-.1512 12.6426-29.3985 14.9-49.1531 6.6838-58.8037-4.4452-5.2162-11.2117-6.7666-18.3788-8.409-8.7761-2.01-17.8447-4.0862-22.8241-13.29-3.8284-7.0688-2.9126-14.8405-1.0939-30.3314a165.0334 165.0334 0 0 1 8.6489-36.6842l2.9826 1.15a161.2291 161.2291 0 0 0 -8.4771 35.9352c-1.7362 14.7749-2.6074 22.1918.7122 28.3278 4.2863 7.9162 12.28 9.7491 20.7382 11.6871 7.3515 1.6818 14.9511 3.4227 20.0768 9.447 9.1322 10.7208 7.2561 30.863-5.768 61.3915z" fill="#92063d"/><path d="m158.1041 483.058c-.3434-.046-.68-.0854-1.0239-.1314-.0954-.0132-.1844-.0263-.28-.0329a219.962 219.962 0 0 0 10.4359-34.0629c3.8475-18.6115 2.5183-30.9424-3.9556-36.6513-4.1972-3.6987-14.1116-7.798-17.3741-9.1513a119.3327 119.3327 0 0 0 -13.7745-4.6644c-5.6409-1.6161-9.05-2.5884-11.3517-6.1162-3.2688-5.006-2.5247-12.896 2.2068-23.4532l1.1574.5518c-4.5343 10.1105-5.31 17.5669-2.3085 22.1656 2.0414 3.1271 5.0939 4.0008 10.6394 5.5841a120.5638 120.5638 0 0 1 13.9017 4.7169c3.307 1.3664 13.374 5.525 17.7239 9.3681 14.4552 12.7383 1.3357 52.8977-5.9968 71.8771z" fill="#92063d"/><path d="m165.4493 307.6191a187.1706 187.1706 0 0 1 -3.6694 19.7283 185.5621 185.5621 0 0 1 -6.2323 20.4443q-.2-1.3206-.4006-2.6607v-.0065a182.4618 182.4618 0 0 0 5.3991-18.099 183.7069 183.7069 0 0 0 3.6885-19.9188c.4007.1576.8077.3285 1.2147.5124z" fill="#92063d"/><path d="m176.61 314.0507c-1.151 5.0519-2.442 10.0776-3.86 15.0179a286.71 286.71 0 0 1 -12.331 34.5227 7.0988 7.0988 0 0 1 -2.34-2.654 281.3314 281.3314 0 0 0 11.625-32.8016c1.5072-5.2622 2.8745-10.63 4.0828-16.0165.4643.3022.9349.6176 1.4118.94.4703.3214.9414.6498 1.4114.9915z" fill="#92063d"/><path d="m182.6262 318.82a170.8045 170.8045 0 0 1 -3.2307 18.4472 170.212 170.212 0 0 1 -8.6933 26.9744q-.725.0591-1.4309.1183a169.3663 169.3663 0 0 0 8.8842-27.4014 169.5106 169.5106 0 0 0 3.3069-19.137c.3876.322.7695.657 1.1638.9985z" fill="#92063d"/><path d="m167.8058 400.0587a.0472.0472 0 0 0 -.0254-.0131c-.61-.3942-1.1765-.7227-1.6916-1.0051-14.22.4927-27.9117-1.36-36.0136-8.35a50.2955 50.2955 0 0 1 -5.5455-5.7089c-8.2674-10.2625-9.7779-21.8021-10.775-37.6748a66.9871 66.9871 0 0 0 2.2288 24.1107 65.7262 65.7262 0 0 0 8.5462 18.59 50.2955 50.2955 0 0 0 5.5455 5.7089c9.2784 8.0016 25.8766 9.27 42.214 7.9885a25.5148 25.5148 0 0 0 -4.4834-3.6462z" fill="#333" opacity=".2"/><path d="m125.8907 479.9309q-5.8471-1.6361-11.7078-3.2963c-.6146-.1741-1.7767-.5038-2.3912-.6783a64.48 64.48 0 0 0 7.2625-22.9473c.5469-4.8154.2608-7.7126-1.2782-10.15-2.5947-4.1059-7.4406-4.822-10.6839-5.7352 0 0-12.5155-3.5344-22.64-19.4195-5.838-9.1645-4.776-19.5574-2.1114-31.0212 1.4942 17.6146 7.0177 24.9418 12.0832 28.2976 3.3271 2.204 6.8436 2.9511 19.8068 9.4727a80.2606 80.2606 0 0 1 8.4672 4.59c3.0901 2.2129 11.8621 10.9166 3.1928 50.8875z" fill="#333" opacity=".2"/><path d="m188.08 329.4824c-.63-.5781-1.2592-1.143-1.8824-1.6817-.3943-.3417-.7759-.6767-1.1638-.9986q-2.48-2.0793-4.8522-3.7709c-.4707-.3416-.9413-.67-1.4119-.992-.4769-.3219-.9475-.6372-1.4117-.94-.5915-.381-1.1766-.7423-1.7616-1.0971a56.9724 56.9724 0 0 0 -6.5757-3.403c-.407-.1839-.814-.3547-1.2147-.5124a45.5593 45.5593 0 0 0 -10.2005-2.8511c-.9413-.1446-1.8506-.25-2.7219-.3285-.159-.0132-.318-.0263-.4706-.0394-1.38-.1052-2.83-.1512-4.3562-.1709-.84-.0065-1.698-.0065-2.5819-.0065-.4262 0-.8522.0065-1.2847.0065-2.531.0066-5.2529.0066-8.1782-.1314-1.043-.0459-2.1114-.1116-3.2116-.197-.0953-.0066-.1971-.02-.2989-.0263-.9284-.0723-1.876-.1708-2.8427-.2891a73.8583 73.8583 0 0 1 -8.2545-1.4321q-.6392-.1479-1.2973-.3154c-1.8507-.46-3.7649-1.0117-5.7426-1.6752-.6614-.2168-1.2783-.4336-1.857-.65a20.9153 20.9153 0 0 1 -3.2179-1.465 7.5355 7.5355 0 0 1 -2.5056-2.1942c.2671-.6635.5342-1.327.8013-1.9971.4452-1.1037.89-2.2074 1.3482-3.3242.5787.2168 1.1956.4336 1.8569.65.89.3022 1.7744.5781 2.6392.8277.4388.1314.8649.2562 1.291.3679.3752.1052.7441.21 1.1129.3022.0954.0263.1908.0526.2862.0723.14.0394.28.0722.4134.1051q.5819.1478 1.1446.2759l.1527.0394c.2289.0526.4579.1051.68.1511.28.0657.5533.1249.8268.1774.5469.1183 1.0811.23 1.6152.3219.5215.1052 1.043.1971 1.5581.2759a.2713.2713 0 0 0 .0636.0132q.6391.1083 1.2592.1971 1.1447.1675 2.2512.2956c.3753.046.7441.0854 1.1066.1248.2862.0329.566.0592.8458.0854.2989.0329.5978.0592.89.0789.1018.0065.2035.02.2989.0262.0382 0 .0827.0066.1208.0066.56.046 1.1066.0854 1.6535.1182h.0254c.1145.0066.229.0132.3371.02l.8585.0394c.3689.02.7377.0394 1.1.0525 2.5883.0986 5.0176.0986 7.2943.092.4325 0 .8585-.0065 1.2846-.0065.884 0 1.7425 0 2.5819.0065.7632.0131 1.5073.0263 2.2322.0526.3625.0131.725.0328 1.0748.0525.3561.02.7059.0394 1.0493.0657.1526.0132.3116.0263.4706.0394.8712.0789 1.7806.184 2.7219.3285h.0127c.3752.0591.7631.1248 1.151.1971h.0191c.3816.0723.7632.1511 1.1574.2365.3116.0591.63.1314.9476.21.21.046.42.092.63.1511.407.0986.82.21 1.2464.3285.5088.138 1.0239.2956 1.5517.4664a.4044.4044 0 0 1 .0827.0263c.1972.0591.3879.1248.5851.19.248.0854.5024.1708.7568.2628.1335.046.267.092.4006.1445.5469.1971 1.1.4073 1.66.6373a.7425.7425 0 0 1 .1081.046c.3689.1511.7377.3021 1.1066.4664q1.4308.6209 2.919 1.373c.1653.092.337.1774.5087.2694.3879.2036.7822.4138 1.1765.6307.3689.197.7441.4138 1.1193.6306.2226.1249.4515.2562.6741.3942.0572.0328.1208.0722.1781.1051.585.3548 1.17.7161 1.7615 1.0971.4643.3022.9349.6176 1.4118.94.3244.2233.6551.4467.9794.6766.1463.1051.2861.21.4324.3154.3943.2824.795.5715 1.1956.8737.3053.23.6169.46.9285.7029.496.3811.9921.7687 1.4881 1.176.1208.0985.248.1971.3688.2956.2862.2365.5788.48.8713.7227.3879.3219.7695.6569 1.1638.9985q2.0317 1.764 4.1209 3.81c.2035.65.49 1.6358.7441 2.8512a32.0184 32.0184 0 0 1 .5917 4.0016z" fill="#333" opacity=".2"/><path d="m218.7006 292.3975c-.2162 2.05-1.6407 3.4819-3.6 4.98-.585.4467-1.221.9066-1.8887 1.38 0 0-1.1892.8475-2.989 2.1548-.3942.2825-.814.5913-1.2655.92-1.8633 1.36-4.14 3.0351-6.3913 4.71-1.03.7752-2.0541 1.55-3.0334 2.2993-.5024.381-.9857.7555-1.4563 1.1234a45.81 45.81 0 0 0 -5.0685 4.5987c-.3689.3876-.7377.7949-1.1129 1.2153a52.5046 52.5046 0 0 0 -3.4914 4.395c-.496.69-.9857 1.4125-1.4754 2.1746-.0636.0919-.1208.19-.1844.2824a53.5583 53.5583 0 0 0 -2.2449-9.2893 47.3391 47.3391 0 0 1 5.52-11.8317q.7155-1.1135 1.5454-2.227c.6932-.92 1.4308-1.8329 2.2258-2.74 4.0192-4.5527 12.0512-11.7069 17.9337-11.8645a6.2179 6.2179 0 0 1 1.8.197 5.028 5.028 0 0 1 1.1574.46 7.4805 7.4805 0 0 1 1.8252 1.4322 7.9105 7.9105 0 0 1 .8267 1.0182 6.9864 6.9864 0 0 1 1.3675 4.6116z" fill="#fff"/><path d="m217.3361 287.7857c-2.7918 1.6621-5.5327 3.4359-8.191 5.3016-9.5964 6.74-14.3533 10.2682-17.6666 16.7983a31.1723 31.1723 0 0 0 -3.0716 10.2879c-.496.69-.9857 1.4124-1.4754 2.1745a33.1575 33.1575 0 0 1 3.4214-13.0668c3.6058-7.1214 9.0559-10.9448 18.08-17.2778q3.94-2.7691 8.0765-5.2359a7.9037 7.9037 0 0 1 .8267 1.0182z" fill="#92063d"/><path d="m213.524 284.8754c-.2226.9526-.477 1.9512-.7695 2.9826-.14.5058-.2926 1.0117-.4515 1.5307-.2035.6635-.4261 1.3336-.6614 1.9971-1.9969 5.63-5.1194 11.1025-9.8127 12.0945a14.495 14.495 0 0 1 -4.7759-.0723c-.2989-.0328-.5914-.0722-.8776-.1248-.5151-.0722-1.0239-.1708-1.5136-.2759-.7122-.1511-1.4054-.335-2.0668-.5453a23.8981 23.8981 0 0 1 -2.5438-.9394c-.0127-.0066-.019-.0066-.0318-.0132q.7155-1.1135 1.5454-2.227a24.524 24.524 0 0 0 4.458.946c.4579.0525.89.1051 1.3036.1445h.0064a15.5122 15.5122 0 0 0 1.87.0986h.0063a8.0783 8.0783 0 0 0 1.59-.1708c3.0716-.65 5.4691-3.2191 7.32-6.4907.4388-.7752.8457-1.5964 1.2273-2.4373a47.78 47.78 0 0 0 2.3785-6.6943 6.2144 6.2144 0 0 1 1.7991.197z" fill="#333" opacity=".2"/><path d="m186.1658 509.4451h-64.5971c-.05-.1969-.1009-.4-.1457-.6022a58.2683 58.2683 0 0 1 -1.6142-13.9136 56.9938 56.9938 0 0 1 .6613-8.4477 57.9528 57.9528 0 0 1 1.6647-7.6024v-.0058q1.8748.5211 3.7553 1.06h.0056q7.903-17.2225 15.806-34.4279-1.2022 8.8936-2.3989 17.77-1.1518 8.5461-2.298 17.0981c.97.1216 1.9505.249 2.9257.3706l2.7969.359c.3923.0521.79.0984 1.177.1505.157.0174.3083.0406.4708.0579.5494.07 1.0986.139 1.6535.2085 2.5783.3242 5.1678.66 7.7517.9843-.1458.6716-.2859 1.3143-.4092 1.9165-.0785.359-.1457.7006-.213 1.0364-.0168.0869-.0336.1679-.05.249-.0617.3243-.1177.6369-.1738.9438a29.2316 29.2316 0 0 0 -.4091 3.1787c-.0113.2027-.0169.4-.0225.5906v.2838c0 .1621.0056.3242.0112.4747a6.6239 6.6239 0 0 0 .1009.8628 2.9894 2.9894 0 0 0 .0785.3531.9313.9313 0 0 0 .05.18q.0336.113.0672.2085a3.3 3.3 0 0 0 .4933.9148c1.8047 2.3276 4.5736.3185 11.9721 1.4591a30.9753 30.9753 0 0 1 13.082 4.8347c.2634.18.5269.3706.7847.5675.1289.0984.2634.1968.3923.3011l.3868.3126a21.5129 21.5129 0 0 1 2.2644 2.1539 22.9591 22.9591 0 0 1 3.6993 5.518c.101.2073.1962.41.2803.6011z" fill="#581646"/><path d="m208.5688 509.4451h-22.403c-.0841-.1911-.1793-.3938-.28-.6022a22.9591 22.9591 0 0 0 -3.6993-5.518 21.5129 21.5129 0 0 0 -2.2644-2.1539l-.3868-.3126c-.1289-.1043-.2634-.2027-.3923-.3011-.2578-.1969-.5213-.388-.7847-.5675a30.9753 30.9753 0 0 0 -13.082-4.8347c-7.3985-1.1406-10.1674.8685-11.9721-1.4591a3.3 3.3 0 0 1 -.4933-.9148q-.0336-.0956-.0672-.2085a.9313.9313 0 0 1 -.05-.18 2.9894 2.9894 0 0 1 -.0785-.3531 6.6239 6.6239 0 0 1 -.1009-.8628c-.0056-.1505-.0112-.3126-.0112-.4747v-.2838c.0056-.191.0112-.3879.0225-.5906a29.2316 29.2316 0 0 1 .4091-3.1787c.0561-.3069.1121-.62.1738-.9438.0168-.0811.0336-.1621.05-.249.0673-.3358.1345-.6774.213-1.0364.1233-.6022.2634-1.2449.4092-1.9165 1.0032.1274 2.0122.2547 3.0211.3879.0952.0116.1849.0232.28.0348.1681.0231.3419.0405.51.0637.0449.0058.0841.0115.129.0173h.0112c.1233.0174.2466.0348.37.0463.46.0638.93.1216 1.39.1795h.0112c.185.0232.3756.0464.5605.07 1.5694.1969 3.1332.3995 4.7026.6022.14-.4169.3643-1.0769.6558-1.9628.0728-.2259.1513-.4575.2354-.7064.0392-.1216.0841-.249.1233-.3822.09-.26.1793-.5385.269-.8222.1682-.51.3475-1.06.5325-1.6444.8183-2.5418 1.8328-5.7611 2.92-9.4147a8.912 8.912 0 0 1 4.3943 1.3028c.1457.0927.2914.1911.4259.2895s.2635.1969.3868.3011a1.3184 1.3184 0 0 1 .1345.1158c.1009.0869.2018.1737.2914.2664.0953.0926.1906.1852.2747.2779a1.9705 1.9705 0 0 1 .1457.1621 2.4186 2.4186 0 0 1 .1906.2316.9373.9373 0 0 1 .1177.1448c.0784.1042.1625.2084.2354.3126.0617.0811.1177.168.1738.249q.1933.2779.37.5732c.09.1505.1793.3011.2578.4516.1345.2259.2634.4632.3868.7007.09.1737.1849.3473.28.521.0953.1795.1906.359.2915.5443v.0116c-.2971 1.1291-.6222 2.4145-.9417 3.8388-1.872 8.2393-2.78 12.3966-1.2106 14.4289a3.197 3.197 0 0 0 2.78 1.187c.1906.0058.3812.0058.5829 0 .1177 0 .2354 0 .3587-.0058.0785 0 .157-.0058.2354-.0058a36.53 36.53 0 0 1 8.0207.2837c2.9875.4574 11.1259 1.8181 16.9046 8.17a22.5728 22.5728 0 0 1 3.6992 5.518c.101.2082.1963.4109.2804.602z" fill="#3c052d"/><path d="m223.5647 229.7615q-32.4809-2.9957-64.9619-5.9848a34.1361 34.1361 0 0 1 1.8125-10.5967 29.067 29.067 0 0 1 4.68-8.6586c8.9923-11.4112 23.0276-11.155 26.4109-11.0893 2.4038.046 12.6171.2365 21.0943 6.7271a27.8337 27.8337 0 0 1 6.4485 6.99c6.131 9.4601 4.9481 19.7151 4.5157 22.6123z" fill="#e80007"/><path d="m223.5647 229.7615q-32.4809-2.9957-64.9619-5.9848a34.1361 34.1361 0 0 1 1.8125-10.5967 53.35 53.35 0 0 0 32.0453-.5847 54.0431 54.0431 0 0 0 20.14-12.4361 27.8337 27.8337 0 0 1 6.4485 6.99c6.1309 9.4601 4.948 19.7151 4.5156 22.6123z" fill="#92063d"/><path d="m223.1423 249.4592a15.5485 15.5485 0 0 1 -4.5152 9.92 13.43 13.43 0 0 1 -.9921 6.2738 12.5972 12.5972 0 0 1 -1.8379 3.0614 5.0073 5.0073 0 0 1 -.14 4.2308 4.4521 4.4521 0 0 1 -1.8887 1.82 3.814 3.814 0 0 1 -.5088.2233 51.5785 51.5785 0 0 0 -24.2359 23.3546 43.0359 43.0359 0 0 1 -8.2482-4.9731c-4.776-3.4358-9.1767-6.6023-11.5806-12.6923a23.5045 23.5045 0 0 1 -1.4118-5.6892c-.8458-5.9125.2607-10.5769 3.9556-22.9079 1.151-3.8431 2.2321-7.3381 3.1988-10.4324 2.1113-.0788 4.2036-.151 6.2323-.21l1.6407-7.24q15.3009 3.7051 30.6017 7.41 4.4453 1.0841 8.8842 2.1548a14.6857 14.6857 0 0 1 .8459 5.6962z" fill="#a76242"/><path d="m223.1423 249.4592a15.5485 15.5485 0 0 1 -4.5152 9.92 13.43 13.43 0 0 1 -.9921 6.2738 12.5972 12.5972 0 0 1 -1.8379 3.0614 22.68 22.68 0 0 0 -1.0493-6.7534c-1.1256-3.5541-2.6583-5.2031-3.4468-6.8914-1.1574-2.4505-1.4627-6.4842 2.1113-13.461q4.4453 1.0841 8.8842 2.1548a14.6857 14.6857 0 0 1 .8458 5.6958z" fill="#96553c"/><path d="m189.0238 298.3429a43.0359 43.0359 0 0 1 -8.2482-4.9731c-4.776-3.4358-9.1767-6.6023-11.5806-12.6923a23.5045 23.5045 0 0 1 -1.4118-5.6892c-.8458-5.9125.2607-10.5769 3.9556-22.9079 1.151-3.8431 2.2321-7.3381 3.1988-10.4324 2.1113-.0788 4.2036-.151 6.2323-.21l1.6407-7.24c-1.291-.3153-2.5819-.6241-3.8729-.9394a61.4808 61.4808 0 0 0 -16.6886 2.2772q-1.953 6.7835-4.3288 13.9313-1.4717 4.4077-2.9968 8.6a25.3719 25.3719 0 0 0 -9.8245 8.7031 26.04 26.04 0 0 0 -3.5867 8.363l41.9893 42.4679a45.6808 45.6808 0 0 1 3.5865-10.8752 44.8191 44.8191 0 0 1 4.48-7.4432 23.912 23.912 0 0 1 -2.5443-.9398z" fill="#96553c"/><path d="m226.8207 243.6166c-.7 1.6621-1.3164 2.9037-2.5437 3.357-1.5772.5781-3.2561-.48-3.6694-.7292-5.1576-3.0746-23.0022-4.5658-27.8227-4.8155-3.2878-.1708-7.307-.1182-11.6123.0066-2.0287.0591-4.121.1314-6.2323.21-5.0749.19-10.2578.381-14.9257.3679a7.4484 7.4484 0 0 1 -4.5152-1.3139c-2.9317-2.1614-3.25-6.3921-3.39-8.317a18.67 18.67 0 0 1 -.0509-2.8906 8.7365 8.7365 0 0 1 1.8825-5.1307 7.5108 7.5108 0 0 1 2.5437-1.8986c10.207-4.7695 34.7418-4.0863 34.7418-4.0863a165.9158 165.9158 0 0 1 32.77 4.8155 8.1692 8.1692 0 0 1 4.5153 2.9168 6.6339 6.6339 0 0 1 .7949 1.4059 12.3767 12.3767 0 0 1 .7568 4.4344c.1659 3.5937-.9724 6.2873-3.2428 11.6677z" fill="#e80007"/><path d="m193.7405 245.3262c.0839-.6535 1.4067-.9584 1.7948-1.0479 1.0221-.2356 2.2088-.2562 5.3841.7255 3.7414 1.1567 4.6073 1.96 5.0384 2.7836.1238.2364.3963.7729.19 1.1663-.2378.4529-1.001.4721-2.419.403a19.979 19.979 0 0 1 -4.4478-.7255 14.4349 14.4349 0 0 1 -4.4478-2.0152c-.7586-.5251-1.1413-.9106-1.0927-1.2898z" fill="#3c052d"/><path d="m214.6761 251.1012c.0838-.6535 1.4067-.9585 1.7947-1.048a8.0967 8.0967 0 0 1 5.3842.7255 3.0541 3.0541 0 0 1 1.4555 1.1925 2.1826 2.1826 0 0 1 .2563 1.8534 1.9227 1.9227 0 0 1 -1.1548 1.0682c-.6483.2085-1.1605-.0522-2.1956-.4867-2.4854-1.043-3.1051-1.0855-4.4478-2.0152-.7586-.5251-1.1411-.9109-1.0925-1.2897z" fill="#3c052d"/><path d="m202.8492 253.4929a1.9788 1.9788 0 1 1 -3.9555 0 2.0553 2.0553 0 0 1 .82-1.6555 17.4646 17.4646 0 0 1 3.1225 1.4453v.0065c.0067.0657.013.138.013.2037z" fill="#3c052d"/><path d="m203.1794 254.1513a.6165.6165 0 0 1 -.327-.094 16.87 16.87 0 0 0 -3.5079-1.6542 16.6278 16.6278 0 0 0 -5.0339-.8665.6575.6575 0 0 1 .01-1.3139h.01a17.8577 17.8577 0 0 1 5.4077.9312 18.122 18.122 0 0 1 3.7688 1.7775.6692.6692 0 0 1 .2174.9014.6317.6317 0 0 1 -.5451.3185z" fill="#3c052d"/><path d="m218.2952 257.9548a1.9788 1.9788 0 1 1 -3.9556 0 2.0553 2.0553 0 0 1 .82-1.6555 17.4749 17.4749 0 0 1 3.1225 1.4453v.0066c.0067.0657.0131.1379.0131.2036z" fill="#3c052d"/><path d="m218.6253 258.6133a.6165.6165 0 0 1 -.327-.094 16.8254 16.8254 0 0 0 -3.5076-1.6542 16.54 16.54 0 0 0 -2.1-.5559.6557.6557 0 0 1 -.5064-.7677.6342.6342 0 0 1 .7431-.5232 17.78 17.78 0 0 1 2.2574.5977 18.0658 18.0658 0 0 1 3.7688 1.7774.6692.6692 0 0 1 .2174.9014.6317.6317 0 0 1 -.5457.3185z" fill="#3c052d"/><path d="m226.8207 243.6166c-.7 1.6621-1.3164 2.9037-2.5437 3.357-1.5772.5781-3.2561-.48-3.6694-.7292-5.1576-3.0746-23.0022-4.5658-27.8227-4.8155-3.2878-.1708-7.307-.1182-11.6123.0066-2.0287.0591-4.121.1314-6.2323.21-5.0749.19-10.2578.381-14.9257.3679a7.4484 7.4484 0 0 1 -4.5152-1.3139c-2.9317-2.1614-3.25-6.3921-3.39-8.317a18.67 18.67 0 0 1 -.0509-2.8906 24.9328 24.9328 0 0 0 5.8317 2.3388c5.4691 1.4058 7.5932-.1248 15.4535-.7818 8.846-.7423 26.4617-.4993 41.2856 4.1848a11.0148 11.0148 0 0 0 6.5884.5255c3.6694-1.0314 6.2577-4.395 8.0892-8.2447a12.3767 12.3767 0 0 1 .7568 4.4344c.1657 3.5937-.9726 6.2873-3.243 11.6677z" fill="#92063d"/><path d="m174.9376 241.648a8.0287 8.0287 0 0 0 -5.4609-2.696c-4.7489-.022-7.9044 5.8477-8.8975 9.629-.4447 1.6932-1.687 6.4234 1.2711 10.3586 3.0835 4.1019 8.1932 3.9639 8.7562 3.9391z" fill="#a76242"/><path d="m213.7685 274.765a71.1375 71.1375 0 0 1 -2.0414 9.9134c-1.87 6.6615-5.2466 14.42-10.9256 15.6223a14.4957 14.4957 0 0 1 -4.776-.0723 24.5247 24.5247 0 0 1 -4.4579-.946 23.912 23.912 0 0 1 -2.5438-.94 43.0359 43.0359 0 0 1 -8.2482-4.9731c-4.776-3.4358-9.1767-6.6023-11.5806-12.6923a23.5045 23.5045 0 0 1 -1.4118-5.6892c-.8458-5.9125.2607-10.5769 3.9556-22.9079 1.151-3.8431 2.2321-7.3381 3.1988-10.4324 2.1113-.0788 4.2036-.151 6.2323-.21a140.24 140.24 0 0 0 -4.776 14.1442c-1.0557 3.8037-1.628 6.53-.8458 9.7754a16.2781 16.2781 0 0 0 4.8014 7.8769 18.1272 18.1272 0 0 0 8.191 4.5264c1.4118-5.6761 3.7584-7.1214 4.9476-7.5878 1.2973-.5059 2.5883.8606 4.3753.0525a20.0442 20.0442 0 0 1 2.6266-1.4251 8.1018 8.1018 0 0 1 2.0032-.4337 3.69 3.69 0 0 0 .636 2.1745c.9094 1.2351 2.3975.4337 4.3244 1.6359 1.132.7095 1.0175 1.2022 2.0668 1.8723a6.1682 6.1682 0 0 0 4.2481.716z" fill="#3c052d"/><path d="m197.421 275.7247c-1.3854 3.8977.8814 8.0786 4.385 8.9434a6.5712 6.5712 0 0 0 7.7282-5.2773z" fill="#fff"/><path d="m278.9311 391.0833a34.0339 34.0339 0 0 1 -.3355 4.5868 37.0343 37.0343 0 0 1 -1.3253 5.7725c-.3875 1.2857-.7682 2.3423-1.0556 3.0942a153.9636 153.9636 0 0 1 -37.9851 1.268c-14.6522-1.34-23.867-2.3257-31.0787-9.677-4.6169-4.71-6.6138-10.1827-9.87-19.1172a105.7618 105.7618 0 0 1 -3.148-10.1828c2.2-3.7972 4.14-7.3184 5.838-10.5046.2989-.5585.5851-1.1037.8649-1.6359a.2337.2337 0 0 1 .0318-.0525c2.5438-4.8549 4.5407-8.9608 6.1178-12.4361q1.0875-2.4142 1.9333-4.4476a75.36 75.36 0 0 0 4.0192-12.0353c.3879-1.6424.7249-3.265 1.0047-4.8549.2163-1.1956.4007-2.3716.566-3.5344a93.5192 93.5192 0 0 0 .6169-19.6494c.3434-.21.6932-.427 1.0429-.6373a88.2609 88.2609 0 0 1 2.9572 30.4235c-1.5517 18.8348-9.0876 30.9818-2.69 45.6121 1.18 1.2327 2.958 3.0684 5.16 5.2549 6.2938 6.25 9.508 9.41 12.8048 11.1392 3.8209 2.0042 7.289 2.36 12.5432 2.5815a232.5916 232.5916 0 0 0 31.9875-.9677z" fill="#333" opacity=".2"/><path d="m311.7174 347.3187a27.2483 27.2483 0 0 0 -5.0685 5.9125 16.1934 16.1934 0 0 0 -2.6773-.1642 14.4242 14.4242 0 0 0 -1.45.092 29.9091 29.9091 0 0 0 -5.7425 1.55 40.6486 40.6486 0 0 1 -5.9906 1.2942 11.6951 11.6951 0 0 1 1.3863-8.81c3.39-5.0455 10.0861-4.8878 10.3087-4.3294.0763.19-.5723.4665-1.3736 1.6162a8.2111 8.2111 0 0 0 -1.0748 2.1745 16.9731 16.9731 0 0 1 4.1972-.7227 16.6222 16.6222 0 0 1 5.5391.69 16.2132 16.2132 0 0 1 1.946.6969z" fill="#00943c"/><path d="m270.8039 331.3882a27.909 27.909 0 0 1 -2.6075-10.25c-.1494-2.6426-.3886-6.8739 1.8929-11.048 2-3.6581 5.096-5.7369 5.3947-5.4751.2144.1879-1.0478 1.55-1.23 3.9108a7.6426 7.6426 0 0 0 .1893 2.3465 38.1227 38.1227 0 0 1 4.5428-5.964c6.9952-7.5057 16.5948-11.5876 17.5092-10.2658.38.55-.8331 1.9012-2.7447 4.4a112.8722 112.8722 0 0 0 -10.6 16.8165 5.7347 5.7347 0 0 0 2.65.0977c1.98-.4155 2.9307-1.82 3.3125-1.5643.4762.3193-.0874 3.1178-1.8928 5.7684-2.6816 3.9369-5.8118 4.1844-13.7234 9.386-1.1946.7852-2.1403 1.4482-2.693 1.8413z" fill="#00943c"/><path d="m350.3633 357.16c-.2608.6175-2.01.2365-5.0622-.1774a105.4757 105.4757 0 0 0 -19.4154-.7686 6.2452 6.2452 0 0 0 1.2783 2.3978c1.3672 1.5439 3.0207 1.6687 3.0016 2.1351-.019.5847-2.6328 1.5242-5.7616 1.2811-4.6488-.3547-6.4612-3.0088-14.843-7.3513-1.2656-.6569-2.3021-1.1562-2.9126-1.4453a27.2482 27.2482 0 0 1 5.0684-5.9125c.7886-.6833 1.5072-1.2285 2.1114-1.6555 2.1177-1.4913 5.5136-3.87 10.15-3.9943 4.07-.0986 7.3833 1.5767 7.32 1.9774-.0445.2891-1.8251-.1314-3.8793.9132a7.1572 7.1572 0 0 0 -1.8569 1.373 35.54 35.54 0 0 1 7.2879.9723c9.8248 2.3517 18.1429 8.7701 17.5134 10.255z" fill="#00943c"/><path d="m285.3768 448.6933a28.0621 28.0621 0 0 1 -.2963-10.5931c.4329-2.609 1.126-6.7866 4.2622-10.32 2.7485-3.0963 6.22-4.398 6.4534-4.0732.1677.2331-1.36 1.265-2.0546 3.5221a7.6389 7.6389 0 0 0 -.3292 2.33 37.2921 37.2921 0 0 1 5.7307-4.7483c8.4569-5.6774 18.7014-7.4111 19.3027-5.91.25.6242-1.2276 1.6574-3.6366 3.6446a110.4756 110.4756 0 0 0 -14.0066 13.9047 5.7747 5.7747 0 0 0 2.56.7143c2.02.0578 3.2533-1.0886 3.5691-.75.394.4223-.7676 3.0166-3.1065 5.1768-3.4738 3.2085-6.5771 2.7184-15.4224 5.9372-1.3351.4862-2.4015.9116-3.0259 1.1649z" fill="#00943c"/><path d="m242.2536 375.8007a26.9213 26.9213 0 0 1 -6.8785-7.8623c-1.3092-2.2756-3.4055-5.9192-3.238-10.7095.1469-4.1983 1.9709-7.5154 2.3527-7.4248.274.065-.24 1.8741.6486 4.0572a7.4461 7.4461 0 0 0 1.2128 1.9936 39.398 39.398 0 0 1 1.3787-7.4541c2.87-9.9883 9.5765-18.1737 10.9769-17.4344.5823.3074.1067 2.0839-.4784 5.2107a116.038 116.038 0 0 0 -1.9255 19.9686 5.835 5.835 0 0 0 2.3966-1.1723c1.5735-1.31 1.7919-3.0088 2.2449-2.9628.565.0573 1.31 2.81.8874 6.0214-.6283 4.77-3.2976 6.4768-8.007 14.8545-.7109 1.2645-1.2555 2.3026-1.5712 2.9142z" fill="#00943c"/><path d="m271.4 472.4763a15.4771 15.4771 0 0 0 .1635-5.8433 10.7394 10.7394 0 0 0 -2.3511-5.6925c-1.5161-1.708-3.4309-2.426-3.56-2.2468-.0925.1286.75.6978 1.1333 1.9429a4.21 4.21 0 0 1 .1816 1.2852 20.5724 20.5724 0 0 0 -3.1611-2.6193c-4.665-3.1317-10.316-4.088-10.6477-3.26-.138.3443.6772.9142 2.006 2.01a60.9456 60.9456 0 0 1 7.7263 7.67 3.1861 3.1861 0 0 1 -1.4122.394c-1.1143.0319-1.7945-.6005-1.9688-.4137-.2173.2329.4235 1.664 1.7136 2.8556 1.9163 1.77 3.6281 1.5 8.5073 3.275.737.2685 1.3252.5029 1.6693.6429z" fill="#00943c"/><path d="m234.343 393.7485a23.8369 23.8369 0 0 0 -9.501-1.2728c-2.3873.1721-6.21.4477-9.68 3.1285-3.0417 2.35-4.5364 5.56-4.266 5.8148.194.1827 1.2647-1.1875 3.36-1.6436a6.4873 6.4873 0 0 1 2.1265-.0987 35.2125 35.2125 0 0 0 -4.8059 5.058c-5.8959 7.5884-8.4113 17.2605-7.1171 17.9778.5382.2983 1.6054-1.0238 3.6177-3.1509a102.6543 102.6543 0 0 1 13.8144-12.1478 5.8774 5.8774 0 0 1 .4037 2.524c-.1365 1.9445-1.2828 3.0213-1.0077 3.3561.3431.4176 2.7851-.4554 4.9465-2.499 3.21-3.0352 3.059-6.06 6.78-14.25.5606-1.2367 1.0424-2.2207 1.3289-2.7964z" fill="#00943c"/><path d="m262.3744 432.8012c-.9031 8.0673-9.6664 13.185-17.037 12.4164a16.4878 16.4878 0 0 1 -13.1005-9.6441 16.7955 16.7955 0 0 0 9.8381 4.8155c7.3706.7686 16.1339-4.349 17.037-12.4164a14.76 14.76 0 0 0 -1.2147-7.43 15.5116 15.5116 0 0 1 4.4771 12.2586z" fill="#92063d"/><path d="m259.112 427.9726c-.9031 8.0674-9.6664 13.185-17.037 12.4164a16.7955 16.7955 0 0 1 -9.8381-4.8155 12.9365 12.9365 0 0 1 -.9348-4.04c-.2925-4.4278 1.6343-10.255 6.4675-12.7119a10.7076 10.7076 0 0 1 6.8047-.9 13.4462 13.4462 0 0 1 2.035.5519 1.7028 1.7028 0 0 0 1.2591-.0329 9.863 9.863 0 0 1 1.94-.6109 8.055 8.055 0 0 1 2.9063-.0789 9.7176 9.7176 0 0 1 5.1829 2.7921 14.76 14.76 0 0 1 1.2144 7.4297z" fill="#e80007"/><path d="m252.8624 415.2161a6.5074 6.5074 0 0 0 -2.4929 1.8263 6.6737 6.6737 0 0 0 -.56.7884 9.8619 9.8619 0 0 0 -1.94.611 1.7031 1.7031 0 0 1 -1.2592.0328 13.4462 13.4462 0 0 0 -2.035-.5519 7.8781 7.8781 0 0 0 -1.291-1.3336 8.0335 8.0335 0 0 0 -4.0955-1.7737 6.002 6.002 0 0 1 5.3165.4533 5.6236 5.6236 0 0 1 1.8824 2.2336 8.1115 8.1115 0 0 0 .3307-2.1154 7.786 7.786 0 0 0 -.2226-2.0562 6.2657 6.2657 0 0 1 1.8252 3.9417 4.1149 4.1149 0 0 1 1.221-1.4322 4.208 4.208 0 0 1 3.3204-.6241z" fill="#00943c"/><path d="m274.12 502.9848a.6089.6089 0 0 1 -.1348-.0148.6572.6572 0 0 1 -.4875-.7808c1.1794-5.6559 2.1153-11.4555 2.781-17.2379a188.6186 188.6186 0 0 0 -4.033-66.4534 100.451 100.451 0 0 0 -4.45-13.8813 75.8039 75.8039 0 0 1 -2.9015-8.5308c-6.5209-23.921-1.9656-52.2956 13.54-84.3361a.6272.6272 0 0 1 .8533-.2938.6672.6672 0 0 1 .2844.8815c-15.36 31.7383-19.8857 59.7954-13.453 83.3917a74.5112 74.5112 0 0 0 2.8562 8.3954 102.8977 102.8977 0 0 1 4.5013 14.041 190.0193 190.0193 0 0 1 4.0653 66.9411c-.6707 5.8227-1.6128 11.6634-2.8009 17.36a.6408.6408 0 0 1 -.6208.5182z" fill="#69b44b"/><path d="m277.7012 475.5134-.0342-.0006a.65.65 0 0 1 -.6017-.691 63.0665 63.0665 0 0 1 5.8688-23.6335 62.057 62.057 0 0 1 15.02-20.1057.623.623 0 0 1 .8968.0731.6726.6726 0 0 1 -.0708.9264 60.7409 60.7409 0 0 0 -14.7007 19.6771 61.7218 61.7218 0 0 0 -5.7434 23.1319.6456.6456 0 0 1 -.6348.6223z" fill="#69b44b"/><path d="m276.6864 487.6009a.6407.6407 0 0 1 -.6173-.5017 51.4635 51.4635 0 0 0 -8.5573-18.7962 48.6744 48.6744 0 0 0 -4.13-4.9066.6722.6722 0 0 1 .0024-.929.6209.6209 0 0 1 .8993.0026 49.9724 49.9724 0 0 1 4.2417 5.0388 52.8067 52.8067 0 0 1 8.78 19.28.6583.6583 0 0 1 -.4677.7936.6076.6076 0 0 1 -.1511.0185z" fill="#69b44b"/><path d="m276.9442 441.6888a.636.636 0 0 1 -.5851-.3991 144.4663 144.4663 0 0 0 -11.5929-22.319 133.9 133.9 0 0 0 -8.2872-11.6025 65.7385 65.7385 0 0 1 -8.9138-13.9808c-4.2628-8.9291-6.6644-18.2432-6.7631-26.2273a55.4333 55.4333 0 0 1 1.2712-12.477.6346.6346 0 0 1 .76-.4965.6574.6574 0 0 1 .4807.7852 54.072 54.072 0 0 0 -1.24 12.1716c.0963 7.7923 2.4513 16.9062 6.6315 25.6628a64.685 64.685 0 0 0 8.7635 13.7376 134.8311 134.8311 0 0 1 8.3605 11.7058 145.7994 145.7994 0 0 1 11.7 22.5243.6656.6656 0 0 1 -.3354.8623.6171.6171 0 0 1 -.2499.0526z" fill="#69b44b"/><path d="m267.2814 402.137a.6081.6081 0 0 1 -.1013-.0084.6545.6545 0 0 1 -.5272-.7525 62.9916 62.9916 0 0 1 18.0934-35.3522 59.7956 59.7956 0 0 1 39.77-16.61h.0124a.6576.6576 0 0 1 .0125 1.3139 58.5242 58.5242 0 0 0 -38.9256 16.2545 61.6612 61.6612 0 0 0 -17.7072 34.6015.6423.6423 0 0 1 -.627.5532z" fill="#69b44b"/><path d="m266.4293 421.0763a.6317.6317 0 0 1 -.5471-.3214c-2.691-4.6776-7.2687-7.3009-11.6594-6.678a10.439 10.439 0 0 0 -5.9366 3.1731.6219.6219 0 0 1 -.8992-.0025.6722.6722 0 0 1 .0024-.929 11.69 11.69 0 0 1 6.6607-3.5439c4.9-.6891 9.9727 2.1774 12.9251 7.3092a.669.669 0 0 1 -.2217.9.614.614 0 0 1 -.3242.0925z" fill="#69b44b"/><path d="m286.7485 365.6986a.6267.6267 0 0 1 -.1372-.0154.6569.6569 0 0 1 -.4844-.7827 24.4507 24.4507 0 0 1 4.1554-9.2961 23.5259 23.5259 0 0 1 7.4543-6.6.6242.6242 0 0 1 .8614.2662.6675.6675 0 0 1 -.2577.89 22.2452 22.2452 0 0 0 -7.0445 6.2372 23.12 23.12 0 0 0 -3.9269 8.7854.6411.6411 0 0 1 -.6204.5154z" fill="#69b44b"/><path d="m304.2726 366.37a11.7379 11.7379 0 0 0 -3.0652-.151 23.9443 23.9443 0 0 0 -6.0161-.3219 24.7484 24.7484 0 0 0 -13.7873 5.6038.6291.6291 0 0 1 -.3943.1379.619.619 0 0 1 -.496-.25.6651.6651 0 0 1 .1017-.92 25.9858 25.9858 0 0 1 14.4869-5.88 24.7389 24.7389 0 0 1 8.2355.7621 7.25 7.25 0 0 1 .9348 1.0191z" fill="#69b44b"/><path d="m254.2128 404.0007a.6266.6266 0 0 1 -.5055-.2579c-5.6838-7.6705-14.0107-11.3761-21.2185-9.4347a16.4546 16.4546 0 0 0 -7.9586 5.0824.6212.6212 0 0 1 -.8987.0327.6717.6717 0 0 1 -.0317-.9283 17.698 17.698 0 0 1 8.5685-5.4584c7.7022-2.0754 16.5533 1.8156 22.5488 9.9082a.6711.6711 0 0 1 -.1186.9206.6189.6189 0 0 1 -.3857.1354z" fill="#69b44b"/><path d="m297.5418 508.8429h-43.657a29.4217 29.4217 0 0 1 20.2227-9.7331h.0056c.4316-.029.8632-.0406 1.3-.0406.1009-.0058.1961-.0058.297-.0058a29.4087 29.4087 0 0 1 21.8317 9.7795z" fill="#00943c"/><path d="m274.0431 359.8205c-1.946 1.9314-13.3994 8.225-16.878 9.9a32.0384 32.0384 0 0 0 8.3372-2.8052c3.86-1.9314 6.29-4.1322 7.3134-3.2913.7059.5781.35 2.2533.0318 3.1074a6.6756 6.6756 0 0 1 -3.2369 3.3636c-6.8174 3.85-10.2388 5.7811-10.951 6.0636a90.7785 90.7785 0 0 1 -8.9542 3.0811 120.4834 120.4834 0 0 1 -19.3009 3.8629 122.42 122.42 0 0 1 -23.212.4533 27.8342 27.8342 0 0 1 -2.8872-4.7366c-.5025-1.038-.8268-1.8789-.9031-2.0957-1.4563-3.9548 1.6916-10.4587 2.4484-11.97a63.7473 63.7473 0 0 0 9.6918-1.7016 35.9906 35.9906 0 0 0 5.73-1.9117c.7568-.3284 1.3673-.6438 3.0525-1.5569 4.0319-2.1877 6.0669-3.2323 6.9064-3.8892.5533-.44 1.8824-1.7672 4.547-4.4213a26.677 26.677 0 0 1 2.4484-2.3256 19 19 0 0 1 4.954-2.6869c2.582-1.0709 3.9365-1.6293 4.5152-1.176a.44.44 0 0 1 .0827.0723c.6105.65-.0381 2.5161-.8458 3.6855-1.2146 1.7409-2.4993 1.511-3.9747 3.6132-.2353.3351-.3307.5256-.7058 1.0446-1.202 1.6424-2.01 2.1351-1.9143 2.3519.0255.0591.1209.0919.28.0985.7122.0328 2.779-.5124 6.0732-1.8986 4.4326-1.8657 12.9288-6.0833 17.2978-7.371.75-.2168 2.1876-.6175 2.76.0986a1.584 1.584 0 0 1 .2416 1.3993 3.8614 3.8614 0 0 1 -1.787 1.9971c-3.2433 2.2008-6.3149 4.395-9.7108 6.333-1.1257.6373-3.2752 1.9117-3.8793 2.3322a.0192.0192 0 0 0 -.0127.0066c-.1145.0788-.1845.1313-.1845.1511 4.0955-1.3534 7.7395-3.6395 11.4725-5.8009a60.7335 60.7335 0 0 1 5.9525-3.12c1.0493-.4665 2.0922-1.34 3.2369-1.1694a3.4877 3.4877 0 0 1 .82.23c.8776.3548 1.6089 1.0512 1.2846 1.8855-.7949 2.0037-6.4612 5.4132-8.7379 7.0556-3.46 2.4833-8.6489 4.8023-10.3977 6.0637 2.7791-.1642 4.5025-1.2811 6.4612-2.22 3.6058-1.7344 6.8745-4.0008 10.6139-5.3936a5.0388 5.0388 0 0 1 2.5693-.519 1.104 1.104 0 0 1 .7376.5584c.6298 1.1164-.4892 2.358-1.3861 3.2515z" fill="#a76242"/><path d="m266.7018 369.6057c-7.4386 3.1315-6.14 2.9322-8.58 3.7219-1.4063.455-3.6623 1.1115-7.89 2.3417-.3879.1129-.6795.1975-.7029.2042a120.3363 120.3363 0 0 1 -19.3051 3.8618 122.2512 122.2512 0 0 1 -23.2084.4529 28.0991 28.0991 0 0 1 -2.8852-4.7344c-.5023-1.0426-.8283-1.882-.9085-2.1-.0447-.1215-.0722-.2522-.1085-.3783a8.18 8.18 0 0 0 .2866 3.7468c.08.2177.4061 1.0571.9085 2.1a28.0991 28.0991 0 0 0 2.8852 4.7344 122.25 122.25 0 0 0 23.2084-.453 120.3363 120.3363 0 0 0 19.3051-3.8618 91.9617 91.9617 0 0 0 8.95-3.0819c.7121-.2863 4.1355-2.2171 10.953-6.0669a6.6468 6.6468 0 0 0 3.24-3.36c.3141-.8538.6691-2.5327-.0329-3.1087a.7721.7721 0 0 0 -.2075-.1221 5.7257 5.7257 0 0 1 -.5034 2.2346c-.9327 2.0266-2.8702 2.802-5.4044 3.8688z" fill="#96553c"/><path d="m218.6624 383.09a59.69 59.69 0 0 1 -.5278 6.1556c-.0318.25-.0636.4862-.1018.7227-.56.1642-1.5262.4467-2.8236.808-13.7745 3.8169-65.63 16.7326-85.134-.0854a50.2955 50.2955 0 0 1 -5.5455-5.7089c-9.3675-11.6281-10.0606-24.8919-11.1608-44.2457-.7-12.285-1.3419-23.2626-2.2131-37.9127q-.105-1.8722-.2226-3.8234c-.089-1.5241-.1844-3.0811-.28-4.6906q3.7584.2069 7.5232.4073c.4261.02.8522.0459 1.2782.0657.1909.0131.3816.02.5724.0328.5406.0263 1.0748.0592 1.6153.0854q4.4453.2464 8.8842.48l3.2051.1774q3.0146.1576 6.0288.3219h.0064c.655.0328 1.3037.0723 1.9587.1051.4324.0263.8585.046 1.291.0723q4.0254.2167 8.0574.4335c.0445 2.0432.1081 4.1125.1908 6.2214.0127.4007.0318.808.0445 1.2153q.1048 2.5621.248 5.1834.4674 8.6026 1.361 17.7968c.6232 6.2936 1.38 12.37 2.2258 18.2173v.0065q.2 1.34.4006 2.6607v.0066q.868 5.7055 1.8506 11.109a7.4486 7.4486 0 0 0 .68 2.03 7.0988 7.0988 0 0 0 2.34 2.654 6.7784 6.7784 0 0 0 4.4517 1.1563q2.1844-.1971 4.4007-.3876.7059-.0591 1.4309-.1183 4.884-.4039 9.9017-.7292c.5278-.0328 1.0557-.0722 1.59-.1051 1.3355-.0788 2.6837-.1642 4.0383-.2365.1017-.0065.21-.0131.3116-.02 1.17-.0657 2.3339-.1248 3.4914-.184.5469-.0262 1.0938-.0525 1.6343-.0788.5152-.0263 1.03-.046 1.539-.0657q11.5615-.5223 22.4171-.5847a58.7646 58.7646 0 0 1 2.4611 10.3339c.07.4336.1272.8737.1781 1.3139.0382.289.07.5781.1017.8671.1908 1.7541.2926 3.4425.3244 5.0389.0261 1.1427.0134 2.2464-.0248 3.2978z" fill="#fff"/><path d="m218.1374 389.2453c-.0318.25-.0636.4862-.1018.7227-.56.1642-1.5262.4467-2.8236.808-9.5264.6767-23.7843 1.4716-37.9977 1.4716a237.4417 237.4417 0 0 1 -25.7177-1.1891 28.3711 28.3711 0 0 1 -14.3342-5.1111c-8.6489-6.4184-11.32-17.1924-12.6871-25.8641-3.5423-22.52-5.3674-46.775-6.2959-65.3667.4261.02.8522.0459 1.2782.0657.9285 18.5391 2.7473 42.6821 6.2769 65.0907 2.5183 16.023 7.8285 21.7845 12.1656 25.01a27.195 27.195 0 0 0 13.7364 4.868c21.2788 2.3915 51.8805.598 66.5009-.5057z" fill="#92063d"/><path d="m218.6652 383.09c-8.6679.7752-17.3232 1.1628-25.9148 1.1628q-6.3912 0-12.7189-.2891c-23.9116-1.0774-31.5811-4.5789-36.7577-10.2616-6.2831-6.9045-7.0653-15.3463-8.4771-30.68-1.5136-16.45-2.9508-32.4337-4.2672-47.6421l3.2051.1774c1.31 15.0573 2.7283 30.8767 4.2291 47.1494 1.45 15.7142 2.3148 22.9079 7.6313 28.7482 4.6107 5.0585 11.7459 8.1921 34.5764 9.23a286.6053 286.6053 0 0 0 38.5193-.8934c.0254 1.1433.0127 2.247-.0255 3.2984z" fill="#92063d"/><path d="m218.2646 373.8858c-4.4961.3219-9.0178.5781-13.5139.7752-5.9143.2562-11.1227.3744-15.6951.3744-28.7956 0-32.8594-4.6052-35.1933-7.2461-3.9619-4.4739-4.6106-9.6375-5.6853-18.1844-2.2894-18.1844-4.4516-36.1981-6.4485-53.62.4324.0263.8585.046 1.291.0723 1.9841 17.35 4.14 35.2783 6.4166 53.3773 1.1638 9.2235 1.8252 13.4675 5.3611 17.4683 3.8156 4.3161 12.4963 8.08 49.9027 6.4447 4.4516-.1971 8.935-.4533 13.3866-.7752.07.4332.1272.8733.1781 1.3135z" fill="#92063d"/><path d="m151.5574 309.11c-.49-.02-.9921-.0263-1.5008-.0329-.84-.0065-1.698-.0065-2.5819-.0065-.4262 0-.8522.0065-1.2847.0065h-1.6661c-.42 0-.8459 0-1.2783-.0065-1.6662-.0066-3.4087-.04-5.2338-.1249-1.0176-.046-2.0542-.1051-3.1225-.19-.0318 0-.0572-.0065-.0891-.0065-.0953-.0066-.1971-.02-.2989-.0263-.9221-.0723-1.87-.1708-2.83-.2891h-.0128a73.8367 73.8367 0 0 1 -8.2545-1.4322q-.6392-.1478-1.2973-.3153c-.6614-.1642-1.3228-.3416-2.0033-.5321q-.6391-.1676-1.2973-.3745-1.2019-.3548-2.442-.7686c-.6614-.2168-1.2783-.4336-1.857-.65a20.9725 20.9725 0 0 1 -3.3514-1.5373q-.105-1.8722-.2226-3.8234c.5787.2168 1.1956.4336 1.8569.65 1.9778.6635 3.892 1.2153 5.7427 1.6752q.6582.1676 1.2973.3153a73.8288 73.8288 0 0 0 8.2545 1.4322c.9667.1182 1.9142.2168 2.8427.2891.1018.0065.2035.02.2989.0262 1.1.0854 2.1686.1511 3.2116.1971 2.9253.138 5.6471.138 8.1782.1314.4325 0 .8585-.0065 1.2846-.0065.884 0 1.7425 0 2.5819.0065 1.5263.02 2.9763.0657 4.3563.1708.1526.0132.3116.0263.4706.0394q.1049 2.5621.2481 5.1829z" fill="#333" opacity=".2"/><path d="m186.7471 322.63q-2.089-2.05-4.1209-3.81c-.3943-.3416-.7759-.6766-1.1638-.9985q-2.48-2.0793-4.8523-3.7709c-.4706-.3417-.9412-.67-1.4118-.992-.4769-.3219-.9475-.6373-1.4118-.94-.5914-.381-1.1765-.7423-1.7615-1.0971a56.9724 56.9724 0 0 0 -6.5757-3.403c-.407-.1839-.814-.3548-1.2147-.5124a45.5653 45.5653 0 0 0 -10.2005-2.8512c-.9413-.1445-1.8507-.25-2.7219-.3285-.159-.0131-.318-.0262-.4706-.0394-1.38-.1051-2.83-.1511-4.3563-.1708-.8394-.0065-1.6979-.0065-2.5819-.0065-.4261 0-.8521.0065-1.2846.0065-2.5311.0066-5.2529.0066-8.1782-.1314-1.043-.046-2.1114-.1117-3.2116-.1971-.0954-.0065-.1971-.02-.2989-.0262-.9285-.0723-1.876-.1709-2.8427-.2891a73.8288 73.8288 0 0 1 -8.2545-1.4322q-.6391-.1477-1.2974-.3153c-1.8506-.46-3.7648-1.0117-5.7426-1.6752-.6613-.2168-1.2782-.4336-1.8569-.65-3.3705-1.2613-5.431-2.5555-6.34-4.7892-2.264-5.5972 3.9492-14.1376 11.517-20.983.566-.5059 1.1383-1.0117 1.717-1.5044 1.9079-1.6161 3.8666-3.114 5.7681-4.4213.566-.3876 1.132-.7555 1.6852-1.11.5787-.3679 1.2083-.7554 1.9079-1.1562a54.0476 54.0476 0 0 1 8.369-3.9483s.7847-.2924 1.5517-.5518c5.6722-1.9185 15.5373-2.3757 17.812-2.4686-6.2992 9.0194-6.4367 14.7664-5.29 18.4 3.2866 10.4157 20.4963 14.8282 27.7463 23.7882a42.0426 42.0426 0 0 1 6.7283 11.9828c.14.3679.2671.7358.3943 1.1036a53.5583 53.5583 0 0 1 2.2443 9.2885z" fill="#fff"/><path d="m130.93 303.3621c-.9285-.0723-1.876-.1709-2.8427-.2891a29.4274 29.4274 0 0 1 -12.49-19.9582 27.3446 27.3446 0 0 1 .5151-9.8871c.566-.5059 1.1383-1.0117 1.717-1.5044a26.4522 26.4522 0 0 0 -.973 11.2076 28.4076 28.4076 0 0 0 14.0736 20.4312z" fill="#92063d"/><path d="m175.1983 313.0587c-.4769-.3219-.9475-.6373-1.4118-.94-.5914-.381-1.1765-.7423-1.7615-1.0971a80.944 80.944 0 0 0 -5.4883-6.2016c-.2225-.2234-.4451-.4468-.6613-.67-.388-.381-.7759-.7555-1.1575-1.1234a82.2009 82.2009 0 0 0 -12.35-9.6375c-1.4245-.92-2.779-1.7606-4.0573-2.5489-6.15-3.8038-11.0082-6.8126-13.323-12.8566-1.8188-4.7629-1.6217-10.4324.5723-16.8968.5024-.1839 1.0239-.3678 1.5517-.5518-2.4166 6.57-2.7346 12.2653-.9412 16.9625 2.1559 5.6366 6.62 8.3958 12.7952 12.2127a94.7629 94.7629 0 0 1 15.9178 11.7c.3879.3613.7822.7292 1.17 1.11.4579.44.9158.9 1.38 1.3664a81.1893 81.1893 0 0 1 6.5121 7.5024c.4261.5528.8458 1.1047 1.2528 1.6697z" fill="#92063d"/><path d="m154.0341 304.2555c-1.1129-.1708-2.175-.2891-3.1925-.3679-1.38-.1051-2.83-.1511-4.3563-.1708-.1844-.1051-.3624-.21-.5405-.3153-9.9017-5.88-14.8684-8.8295-17.9337-12.7514-5.0748-6.4973-5.5136-15.399-4.4134-23.3481.566-.3876 1.132-.7555 1.6852-1.11.5787-.3679 1.2083-.7554 1.9079-1.1562-1.4945 7.8769-1.6726 17.1859 3.2942 23.5517 2.69 3.4424 7.4851 6.2936 17.0433 11.9631 2.1431 1.2742 4.3181 2.5094 6.5058 3.7049z" fill="#92063d"/><path d="m274.0431 359.8205c-1.946 1.9314-13.3994 8.225-16.878 9.9a28.7312 28.7312 0 0 1 6.7855-4.96c1.9714-1.0314 5.5391-2.5752 8.1529-4.8483a8.52 8.52 0 0 0 2.0413-2.5489 8.2146 8.2146 0 0 0 .547-1.3534 1.104 1.104 0 0 1 .7376.5584c.6296 1.1171-.4894 2.3587-1.3863 3.2522z" fill="#96553c"/><path d="m274.183 351.0239c-.7949 2.0037-6.4612 5.4132-8.7379 7.0556-3.46 2.4833-8.6489 4.8023-10.3977 6.0637a30.6336 30.6336 0 0 1 9.2339-7.1739c2.27-1.0708 4.1782-2.8512 6.404-4.014a3.9953 3.9953 0 0 0 2.0859-2.01 3.3017 3.3017 0 0 0 .1272-1.8066c.8776.3545 1.6089 1.0513 1.2846 1.8852z" fill="#96553c"/><path d="m266.99 348.1793a3.8614 3.8614 0 0 1 -1.787 1.9971c-3.2433 2.2008-6.3149 4.395-9.7108 6.333-1.1257.6373-3.2752 1.9117-3.8793 2.3322 2.9825-2.4176 5.3547-4.1322 7.0272-5.3016 1.38-.9526 2.6264-2.1088 4.0764-2.9366a9.3724 9.3724 0 0 0 3.2942-2.6081 7.8863 7.8863 0 0 0 .7377-1.2153 1.584 1.584 0 0 1 .2416 1.3993z" fill="#96553c"/><path d="m246.9327 348.8428c-1.2146 1.7409-2.4993 1.511-3.9747 3.6132-.2353.3351-.3307.5256-.7058 1.0446-1.202 1.6424-2.01 2.1351-1.9143 2.3519.0255.0591.1209.0919.28.0985-1.4436.92-2.4166 1.3533-2.7982.9854-.7631-.7423.8522-4.776 3.8157-6.78 1.3291-.8935 1.94-.7161 3.2052-1.5767a8.5448 8.5448 0 0 0 2.8553-3.495.44.44 0 0 1 .0827.0723c.6104.6507-.0386 2.5164-.8459 3.6858z" fill="#96553c"/><path d="m208.5688 509.4451h-87c-.05-.1969-.1009-.4-.1457-.6022h86.8655c.1008.2084.1961.4111.2802.6022z" fill="#fff"/><path d="m56 508.8433 12.5-.1738 12.5-.1314 25-.2591 50-.3224c16.6667-.1391 33.3333-.1134 50-.1652l50-.1047 50 .1027 25 .0527 12.5.0308 12.5.08 50 .3231 25 .2608 12.5.132 12.5.1749-12.5.175-12.5.1313-25 .2608-50 .3231-12.5.08-12.5.0307-25 .0528-50 .1026-50-.1047c-16.6667-.0519-33.3333-.0261-50-.1653l-50-.3223-25-.2592-12.5-.1313z" fill="#00943c"/></svg>